<?xml version="1.0" encoding="utf-8" standalone="no"?>
<!DOCTYPE svg PUBLIC "-//W3C//DTD SVG 1.1//EN"
  "http://www.w3.org/Graphics/SVG/1.1/DTD/svg11.dtd">
<svg xmlns:xlink="http://www.w3.org/1999/xlink" width="864pt" height="288pt" viewBox="0 0 864 288" xmlns="http://www.w3.org/2000/svg" version="1.1">
 <metadata>
  <rdf:RDF xmlns:dc="http://purl.org/dc/elements/1.1/" xmlns:cc="http://creativecommons.org/ns#" xmlns:rdf="http://www.w3.org/1999/02/22-rdf-syntax-ns#">
   <cc:Work>
    <dc:type rdf:resource="http://purl.org/dc/dcmitype/StillImage"/>
    <dc:date>2025-10-15T11:07:34.691197</dc:date>
    <dc:format>image/svg+xml</dc:format>
    <dc:creator>
     <cc:Agent>
      <dc:title>Matplotlib v3.7.2, https://matplotlib.org/</dc:title>
     </cc:Agent>
    </dc:creator>
   </cc:Work>
  </rdf:RDF>
 </metadata>
 <defs>
  <style type="text/css">*{stroke-linejoin: round; stroke-linecap: butt}</style>
 </defs>
 <g id="figure_1">
  <g id="patch_1">
   <path d="M 0 288 
L 864 288 
L 864 0 
L 0 0 
z
" style="fill: #ffffff"/>
  </g>
  <g id="axes_1">
   <g id="patch_2">
    <path d="M 43.43 170.32 
L 642.6575 170.32 
L 642.6575 10.8 
L 43.43 10.8 
z
" style="fill: #ffffff"/>
   </g>
   <g id="PolyCollection_1">
    <defs>
     <path id="ma72d0cef4f" d="M 43.43 -156.931152 
L 43.43 -117.68 
L 45.076229 -117.68 
L 46.722459 -117.68 
L 48.368688 -117.68 
L 50.014918 -117.68 
L 51.661147 -117.68 
L 53.307376 -117.68 
L 54.953606 -117.68 
L 56.599835 -117.68 
L 58.246065 -117.68 
L 59.892294 -117.68 
L 61.538523 -117.68 
L 63.184753 -117.68 
L 64.830982 -117.68 
L 66.477212 -117.68 
L 68.123441 -117.68 
L 69.76967 -117.68 
L 71.4159 -117.68 
L 73.062129 -117.68 
L 74.708359 -117.68 
L 76.354588 -117.68 
L 78.000817 -117.68 
L 79.647047 -117.68 
L 81.293276 -117.68 
L 82.939505 -117.68 
L 84.585735 -117.68 
L 86.231964 -117.68 
L 87.878194 -117.68 
L 89.524423 -117.68 
L 91.170652 -117.68 
L 92.816882 -117.68 
L 94.463111 -117.68 
L 96.109341 -117.68 
L 97.75557 -117.68 
L 99.401799 -117.68 
L 101.048029 -117.68 
L 102.694258 -117.68 
L 104.340488 -117.68 
L 105.986717 -117.68 
L 107.632946 -117.68 
L 109.279176 -117.68 
L 110.925405 -117.68 
L 112.571635 -117.68 
L 114.217864 -117.68 
L 115.864093 -117.68 
L 117.510323 -117.68 
L 119.156552 -117.68 
L 120.802782 -117.68 
L 122.449011 -117.68 
L 124.09524 -117.68 
L 125.74147 -117.68 
L 127.387699 -117.68 
L 129.033929 -117.68 
L 130.680158 -117.68 
L 132.326387 -117.68 
L 133.972617 -117.68 
L 135.618846 -117.68 
L 137.265076 -117.68 
L 138.911305 -117.68 
L 140.557534 -117.68 
L 142.203764 -117.68 
L 143.849993 -117.68 
L 145.496223 -117.68 
L 147.142452 -117.68 
L 148.788681 -117.68 
L 150.434911 -117.68 
L 152.08114 -117.68 
L 153.72737 -117.68 
L 155.373599 -117.68 
L 157.019828 -117.68 
L 158.666058 -117.68 
L 160.312287 -117.68 
L 161.958516 -117.68 
L 163.604746 -117.68 
L 165.250975 -117.68 
L 166.897205 -117.68 
L 168.543434 -117.68 
L 170.189663 -117.68 
L 171.835893 -117.68 
L 173.482122 -117.68 
L 175.128352 -117.68 
L 176.774581 -117.68 
L 178.42081 -117.68 
L 180.06704 -117.68 
L 181.713269 -117.68 
L 183.359499 -117.68 
L 185.005728 -117.68 
L 186.651957 -117.68 
L 188.298187 -117.68 
L 189.944416 -117.68 
L 191.590646 -117.68 
L 193.236875 -117.68 
L 194.883104 -117.68 
L 196.529334 -117.68 
L 198.175563 -117.68 
L 199.821793 -117.68 
L 201.468022 -117.68 
L 203.114251 -117.68 
L 204.760481 -117.68 
L 206.40671 -117.68 
L 208.05294 -117.68 
L 209.699169 -117.68 
L 211.345398 -117.68 
L 212.991628 -117.68 
L 214.637857 -117.68 
L 216.284087 -117.68 
L 217.930316 -117.68 
L 219.576545 -117.68 
L 221.222775 -117.68 
L 222.869004 -117.68 
L 224.515234 -117.68 
L 226.161463 -117.68 
L 227.807692 -117.68 
L 229.453922 -117.68 
L 231.100151 -117.68 
L 232.74638 -117.68 
L 234.39261 -117.68 
L 236.038839 -117.68 
L 237.685069 -117.68 
L 239.331298 -117.68 
L 240.977527 -117.68 
L 242.623757 -117.68 
L 244.269986 -117.68 
L 245.916216 -117.68 
L 247.562445 -117.68 
L 249.208674 -117.68 
L 250.854904 -117.68 
L 252.501133 -117.68 
L 254.147363 -117.68 
L 255.793592 -117.68 
L 257.439821 -117.68 
L 259.086051 -117.68 
L 260.73228 -117.68 
L 262.37851 -117.68 
L 264.024739 -117.68 
L 265.670968 -117.68 
L 267.317198 -117.68 
L 268.963427 -117.68 
L 270.609657 -117.68 
L 272.255886 -117.68 
L 273.902115 -117.68 
L 275.548345 -117.68 
L 277.194574 -117.68 
L 278.840804 -117.68 
L 280.487033 -117.68 
L 282.133262 -117.68 
L 283.779492 -117.68 
L 285.425721 -117.68 
L 287.071951 -117.68 
L 288.71818 -117.68 
L 290.364409 -117.68 
L 292.010639 -117.68 
L 293.656868 -117.68 
L 295.303098 -117.68 
L 296.949327 -117.68 
L 298.595556 -117.68 
L 300.241786 -117.68 
L 301.888015 -117.68 
L 303.534245 -117.68 
L 305.180474 -117.68 
L 306.826703 -117.68 
L 308.472933 -117.68 
L 310.119162 -117.68 
L 311.765391 -117.68 
L 313.411621 -117.68 
L 315.05785 -117.68 
L 316.70408 -117.68 
L 318.350309 -117.68 
L 319.996538 -117.68 
L 321.642768 -117.68 
L 323.288997 -117.68 
L 324.935227 -117.68 
L 326.581456 -117.68 
L 328.227685 -117.68 
L 329.873915 -117.68 
L 331.520144 -117.68 
L 333.166374 -117.68 
L 334.812603 -117.68 
L 336.458832 -117.68 
L 338.105062 -117.68 
L 339.751291 -117.68 
L 341.397521 -117.68 
L 343.04375 -117.68 
L 344.689979 -117.68 
L 346.336209 -117.68 
L 347.982438 -117.68 
L 349.628668 -117.68 
L 351.274897 -117.68 
L 352.921126 -117.68 
L 354.567356 -117.68 
L 356.213585 -117.68 
L 357.859815 -117.68 
L 359.506044 -117.68 
L 361.152273 -117.68 
L 362.798503 -117.68 
L 364.444732 -117.68 
L 366.090962 -117.68 
L 367.737191 -117.68 
L 369.38342 -117.68 
L 371.02965 -117.68 
L 372.675879 -117.68 
L 374.322109 -117.68 
L 375.968338 -117.68 
L 377.614567 -117.68 
L 379.260797 -117.68 
L 380.907026 -117.68 
L 382.553255 -117.68 
L 384.199485 -117.68 
L 385.845714 -117.68 
L 387.491944 -117.68 
L 389.138173 -117.68 
L 390.784402 -117.68 
L 392.430632 -117.68 
L 394.076861 -117.68 
L 395.723091 -117.68 
L 397.36932 -117.68 
L 399.015549 -117.68 
L 400.661779 -117.68 
L 402.308008 -117.68 
L 403.954238 -117.68 
L 405.600467 -117.68 
L 407.246696 -117.68 
L 408.892926 -117.68 
L 410.539155 -117.68 
L 412.185385 -117.68 
L 413.831614 -117.68 
L 415.477843 -117.68 
L 417.124073 -117.68 
L 418.770302 -117.68 
L 420.416532 -117.68 
L 422.062761 -117.68 
L 423.70899 -117.68 
L 425.35522 -117.68 
L 427.001449 -117.68 
L 428.647679 -117.68 
L 430.293908 -117.68 
L 431.940137 -117.68 
L 433.586367 -117.68 
L 435.232596 -117.68 
L 436.878826 -117.68 
L 438.525055 -117.68 
L 440.171284 -117.68 
L 441.817514 -117.68 
L 443.463743 -117.68 
L 445.109973 -117.68 
L 446.756202 -117.68 
L 448.402431 -117.68 
L 450.048661 -117.68 
L 451.69489 -117.68 
L 453.34112 -117.68 
L 454.987349 -117.68 
L 456.633578 -117.68 
L 458.279808 -117.68 
L 459.926037 -117.68 
L 461.572266 -117.68 
L 463.218496 -117.68 
L 464.864725 -117.68 
L 466.510955 -117.68 
L 468.157184 -117.68 
L 469.803413 -117.68 
L 471.449643 -117.68 
L 473.095872 -117.68 
L 474.742102 -117.68 
L 476.388331 -117.68 
L 478.03456 -117.68 
L 479.68079 -117.68 
L 481.327019 -117.68 
L 482.973249 -117.68 
L 484.619478 -117.68 
L 486.265707 -117.68 
L 487.911937 -117.68 
L 489.558166 -117.68 
L 491.204396 -117.68 
L 492.850625 -117.68 
L 494.496854 -117.68 
L 496.143084 -117.68 
L 497.789313 -117.68 
L 499.435543 -117.68 
L 501.081772 -117.68 
L 502.728001 -117.68 
L 504.374231 -117.68 
L 506.02046 -117.68 
L 507.66669 -117.68 
L 509.312919 -117.68 
L 510.959148 -117.68 
L 512.605378 -117.68 
L 514.251607 -117.68 
L 515.897837 -117.68 
L 517.544066 -117.68 
L 519.190295 -117.68 
L 520.836525 -117.68 
L 522.482754 -117.68 
L 524.128984 -117.68 
L 525.775213 -117.68 
L 527.421442 -117.68 
L 529.067672 -117.68 
L 530.713901 -117.68 
L 532.36013 -117.68 
L 534.00636 -117.68 
L 535.652589 -117.68 
L 537.298819 -117.68 
L 538.945048 -117.68 
L 540.591277 -117.68 
L 542.237507 -117.68 
L 543.883736 -117.68 
L 545.529966 -117.68 
L 547.176195 -117.68 
L 548.822424 -117.68 
L 550.468654 -117.68 
L 552.114883 -117.68 
L 553.761113 -117.68 
L 555.407342 -117.68 
L 557.053571 -117.68 
L 558.699801 -117.68 
L 560.34603 -117.68 
L 561.99226 -117.68 
L 563.638489 -117.68 
L 565.284718 -117.68 
L 566.930948 -117.68 
L 568.577177 -117.68 
L 570.223407 -117.68 
L 571.869636 -117.68 
L 573.515865 -117.68 
L 575.162095 -117.68 
L 576.808324 -117.68 
L 578.454554 -117.68 
L 580.100783 -117.68 
L 581.747012 -117.68 
L 583.393242 -117.68 
L 585.039471 -117.68 
L 586.685701 -117.68 
L 588.33193 -117.68 
L 589.978159 -117.68 
L 591.624389 -117.68 
L 593.270618 -117.68 
L 594.916848 -117.68 
L 596.563077 -117.68 
L 598.209306 -117.68 
L 599.855536 -117.68 
L 601.501765 -117.68 
L 603.147995 -117.68 
L 604.794224 -117.68 
L 606.440453 -117.68 
L 608.086683 -117.68 
L 609.732912 -117.68 
L 611.379141 -117.68 
L 613.025371 -117.68 
L 614.6716 -117.68 
L 616.31783 -117.68 
L 617.964059 -117.68 
L 619.610288 -117.68 
L 621.256518 -117.68 
L 622.902747 -117.68 
L 624.548977 -117.68 
L 626.195206 -117.68 
L 627.841435 -117.68 
L 629.487665 -117.68 
L 631.133894 -117.68 
L 632.780124 -117.68 
L 634.426353 -117.68 
L 636.072582 -117.68 
L 637.718812 -117.68 
L 639.365041 -117.68 
L 641.011271 -117.68 
L 642.6575 -117.68 
L 642.6575 -155.048094 
L 642.6575 -155.048094 
L 641.011271 -177.302616 
L 639.365041 -184.317952 
L 637.718812 -190.527472 
L 636.072582 -178.582119 
L 634.426353 -161.903654 
L 632.780124 -158.176155 
L 631.133894 -156.280939 
L 629.487665 -164.847808 
L 627.841435 -186.029281 
L 626.195206 -209.337368 
L 624.548977 -226.463057 
L 622.902747 -234.80153 
L 621.256518 -231.710636 
L 619.610288 -227.032288 
L 617.964059 -224.824346 
L 616.31783 -229.158996 
L 614.6716 -234.676417 
L 613.025371 -241.218463 
L 611.379141 -234.291574 
L 609.732912 -219.251009 
L 608.086683 -209.282941 
L 606.440453 -213.950508 
L 604.794224 -212.004791 
L 603.147995 -204.536866 
L 601.501765 -204.489074 
L 599.855536 -205.4844 
L 598.209306 -201.492951 
L 596.563077 -202.675775 
L 594.916848 -201.811915 
L 593.270618 -199.598218 
L 591.624389 -197.749407 
L 589.978159 -194.015235 
L 588.33193 -198.57908 
L 586.685701 -192.092961 
L 585.039471 -180.301445 
L 583.393242 -186.465428 
L 581.747012 -183.506211 
L 580.100783 -188.633638 
L 578.454554 -189.259634 
L 576.808324 -184.609531 
L 575.162095 -174.947604 
L 573.515865 -171.036641 
L 571.869636 -171.560797 
L 570.223407 -173.477237 
L 568.577177 -175.220722 
L 566.930948 -175.54976 
L 565.284718 -174.864285 
L 563.638489 -174.695405 
L 561.99226 -175.908279 
L 560.34603 -171.49264 
L 558.699801 -159.623009 
L 557.053571 -162.319406 
L 555.407342 -166.217319 
L 553.761113 -163.286894 
L 552.114883 -168.61554 
L 550.468654 -163.348524 
L 548.822424 -161.052164 
L 547.176195 -155.365521 
L 545.529966 -147.043349 
L 543.883736 -142.48778 
L 542.237507 -140.205848 
L 540.591277 -135.16756 
L 538.945048 -134.982607 
L 537.298819 -137.627239 
L 535.652589 -139.371513 
L 534.00636 -139.225006 
L 532.36013 -139.939153 
L 530.713901 -137.720952 
L 529.067672 -137.437739 
L 527.421442 -138.099511 
L 525.775213 -139.697949 
L 524.128984 -140.798069 
L 522.482754 -135.943607 
L 520.836525 -134.011856 
L 519.190295 -133.576406 
L 517.544066 -131.906749 
L 515.897837 -134.358381 
L 514.251607 -138.848492 
L 512.605378 -141.559336 
L 510.959148 -140.370462 
L 509.312919 -140.657695 
L 507.66669 -143.978023 
L 506.02046 -144.795991 
L 504.374231 -139.654628 
L 502.728001 -141.417783 
L 501.081772 -141.446749 
L 499.435543 -145.957767 
L 497.789313 -152.175061 
L 496.143084 -147.506678 
L 494.496854 -144.813096 
L 492.850625 -151.246846 
L 491.204396 -156.980006 
L 489.558166 -159.92388 
L 487.911937 -154.604566 
L 486.265707 -148.218114 
L 484.619478 -142.859904 
L 482.973249 -142.14041 
L 481.327019 -146.247171 
L 479.68079 -155.134222 
L 478.03456 -160.472936 
L 476.388331 -159.631618 
L 474.742102 -155.868145 
L 473.095872 -154.421475 
L 471.449643 -149.092993 
L 469.803413 -142.807521 
L 468.157184 -134.510757 
L 466.510955 -129.010276 
L 464.864725 -128.354677 
L 463.218496 -131.312603 
L 461.572266 -134.392524 
L 459.926037 -133.051244 
L 458.279808 -131.102449 
L 456.633578 -129.921168 
L 454.987349 -127.577043 
L 453.34112 -126.414257 
L 451.69489 -127.279686 
L 450.048661 -128.181399 
L 448.402431 -129.030655 
L 446.756202 -130.090115 
L 445.109973 -131.208864 
L 443.463743 -130.21975 
L 441.817514 -128.550618 
L 440.171284 -126.827344 
L 438.525055 -127.119107 
L 436.878826 -126.377747 
L 435.232596 -125.791474 
L 433.586367 -125.778165 
L 431.940137 -126.461977 
L 430.293908 -127.469874 
L 428.647679 -127.956163 
L 427.001449 -128.029499 
L 425.35522 -127.108761 
L 423.70899 -126.972565 
L 422.062761 -126.182383 
L 420.416532 -125.348307 
L 418.770302 -124.993407 
L 417.124073 -125.462993 
L 415.477843 -125.681988 
L 413.831614 -125.356135 
L 412.185385 -126.035324 
L 410.539155 -126.376474 
L 408.892926 -126.000659 
L 407.246696 -126.259419 
L 405.600467 -126.699667 
L 403.954238 -126.894096 
L 402.308008 -125.9279 
L 400.661779 -124.99082 
L 399.015549 -124.562498 
L 397.36932 -124.737174 
L 395.723091 -125.006105 
L 394.076861 -125.474315 
L 392.430632 -125.450921 
L 390.784402 -125.325199 
L 389.138173 -125.449633 
L 387.491944 -125.527492 
L 385.845714 -125.576069 
L 384.199485 -125.420062 
L 382.553255 -125.096515 
L 380.907026 -124.655094 
L 379.260797 -124.39305 
L 377.614567 -124.396089 
L 375.968338 -124.67069 
L 374.322109 -124.863266 
L 372.675879 -124.624107 
L 371.02965 -125.163606 
L 369.38342 -125.964932 
L 367.737191 -125.850547 
L 366.090962 -125.475731 
L 364.444732 -125.318135 
L 362.798503 -125.11989 
L 361.152273 -126.598293 
L 359.506044 -129.129535 
L 357.859815 -130.895222 
L 356.213585 -129.969133 
L 354.567356 -129.287574 
L 352.921126 -131.023704 
L 351.274897 -128.752223 
L 349.628668 -126.298113 
L 347.982438 -126.059147 
L 346.336209 -126.185826 
L 344.689979 -125.954416 
L 343.04375 -128.484056 
L 341.397521 -128.273818 
L 339.751291 -125.806289 
L 338.105062 -126.332926 
L 336.458832 -126.215144 
L 334.812603 -125.458443 
L 333.166374 -125.325163 
L 331.520144 -126.14133 
L 329.873915 -126.34571 
L 328.227685 -125.787725 
L 326.581456 -126.154783 
L 324.935227 -125.646065 
L 323.288997 -124.908233 
L 321.642768 -124.358831 
L 319.996538 -124.942359 
L 318.350309 -126.229501 
L 316.70408 -126.157327 
L 315.05785 -126.780551 
L 313.411621 -128.066441 
L 311.765391 -127.488108 
L 310.119162 -126.480363 
L 308.472933 -128.774172 
L 306.826703 -131.926704 
L 305.180474 -132.123487 
L 303.534245 -129.215583 
L 301.888015 -129.245784 
L 300.241786 -127.161185 
L 298.595556 -126.515622 
L 296.949327 -126.391302 
L 295.303098 -128.341636 
L 293.656868 -131.781287 
L 292.010639 -135.261357 
L 290.364409 -141.072972 
L 288.71818 -146.560359 
L 287.071951 -143.768297 
L 285.425721 -135.240167 
L 283.779492 -132.164648 
L 282.133262 -133.157117 
L 280.487033 -133.457233 
L 278.840804 -131.294324 
L 277.194574 -128.317538 
L 275.548345 -127.296526 
L 273.902115 -126.052534 
L 272.255886 -125.457753 
L 270.609657 -127.14652 
L 268.963427 -128.598675 
L 267.317198 -129.036 
L 265.670968 -129.942266 
L 264.024739 -128.461324 
L 262.37851 -128.506302 
L 260.73228 -127.99363 
L 259.086051 -126.823864 
L 257.439821 -128.207261 
L 255.793592 -132.281484 
L 254.147363 -135.567601 
L 252.501133 -137.706965 
L 250.854904 -138.617371 
L 249.208674 -138.111542 
L 247.562445 -136.820585 
L 245.916216 -138.873823 
L 244.269986 -142.002445 
L 242.623757 -148.053589 
L 240.977527 -149.489987 
L 239.331298 -149.699742 
L 237.685069 -151.276349 
L 236.038839 -156.724156 
L 234.39261 -159.190382 
L 232.74638 -156.103066 
L 231.100151 -150.573439 
L 229.453922 -149.755718 
L 227.807692 -150.917015 
L 226.161463 -157.225595 
L 224.515234 -163.249122 
L 222.869004 -169.385837 
L 221.222775 -166.79424 
L 219.576545 -168.370902 
L 217.930316 -162.262906 
L 216.284087 -148.493556 
L 214.637857 -137.704391 
L 212.991628 -139.398522 
L 211.345398 -149.180642 
L 209.699169 -164.168093 
L 208.05294 -180.919283 
L 206.40671 -177.888645 
L 204.760481 -163.885171 
L 203.114251 -151.971028 
L 201.468022 -150.197361 
L 199.821793 -162.448144 
L 198.175563 -190.277509 
L 196.529334 -208.488419 
L 194.883104 -205.384834 
L 193.236875 -195.239593 
L 191.590646 -176.976375 
L 189.944416 -159.580586 
L 188.298187 -151.398831 
L 186.651957 -148.359554 
L 185.005728 -151.427849 
L 183.359499 -152.168001 
L 181.713269 -154.025326 
L 180.06704 -158.125143 
L 178.42081 -163.867425 
L 176.774581 -168.517632 
L 175.128352 -173.807402 
L 173.482122 -176.391066 
L 171.835893 -170.64006 
L 170.189663 -172.692399 
L 168.543434 -170.286734 
L 166.897205 -169.940746 
L 165.250975 -168.253225 
L 163.604746 -170.718511 
L 161.958516 -174.89516 
L 160.312287 -182.34338 
L 158.666058 -188.475177 
L 157.019828 -196.754837 
L 155.373599 -199.513439 
L 153.72737 -209.776894 
L 152.08114 -217.268783 
L 150.434911 -219.651044 
L 148.788681 -210.151618 
L 147.142452 -208.637451 
L 145.496223 -212.610311 
L 143.849993 -211.260756 
L 142.203764 -213.206953 
L 140.557534 -212.428769 
L 138.911305 -209.264192 
L 137.265076 -199.446381 
L 135.618846 -192.055918 
L 133.972617 -186.660541 
L 132.326387 -176.202097 
L 130.680158 -176.628299 
L 129.033929 -178.82308 
L 127.387699 -172.329451 
L 125.74147 -164.011399 
L 124.09524 -163.776593 
L 122.449011 -155.44661 
L 120.802782 -162.611547 
L 119.156552 -182.728559 
L 117.510323 -192.146598 
L 115.864093 -196.788542 
L 114.217864 -197.008539 
L 112.571635 -196.301258 
L 110.925405 -188.568582 
L 109.279176 -186.356754 
L 107.632946 -189.506687 
L 105.986717 -192.454928 
L 104.340488 -197.038561 
L 102.694258 -183.972717 
L 101.048029 -185.3594 
L 99.401799 -184.682862 
L 97.75557 -188.259172 
L 96.109341 -194.076823 
L 94.463111 -201.476598 
L 92.816882 -196.144994 
L 91.170652 -183.488124 
L 89.524423 -189.753027 
L 87.878194 -203.576014 
L 86.231964 -210.45618 
L 84.585735 -214.245177 
L 82.939505 -213.956203 
L 81.293276 -209.422079 
L 79.647047 -202.516829 
L 78.000817 -205.883881 
L 76.354588 -212.349553 
L 74.708359 -205.252973 
L 73.062129 -204.091628 
L 71.4159 -203.272092 
L 69.76967 -205.18644 
L 68.123441 -209.486729 
L 66.477212 -214.798261 
L 64.830982 -221.45736 
L 63.184753 -225.028905 
L 61.538523 -220.205861 
L 59.892294 -210.389808 
L 58.246065 -208.329717 
L 56.599835 -203.171741 
L 54.953606 -207.983749 
L 53.307376 -209.805074 
L 51.661147 -197.433922 
L 50.014918 -177.781709 
L 48.368688 -154.358267 
L 46.722459 -156.968984 
L 45.076229 -161.194228 
L 43.43 -156.931152 
z
"/>
    </defs>
    <g clip-path="url(#pb88ae02e67)">
     <use xlink:href="#ma72d0cef4f" x="0" y="288" style="fill: #0f1b5f; fill-opacity: 0.8"/>
    </g>
   </g>
   <g id="PolyCollection_2">
    <defs>
     <path id="mc82521ade7" d="M 43.43 -168.972833 
L 43.43 -156.931152 
L 45.076229 -161.194228 
L 46.722459 -156.968984 
L 48.368688 -154.358267 
L 50.014918 -177.781709 
L 51.661147 -197.433922 
L 53.307376 -209.805074 
L 54.953606 -207.983749 
L 56.599835 -203.171741 
L 58.246065 -208.329717 
L 59.892294 -210.389808 
L 61.538523 -220.205861 
L 63.184753 -225.028905 
L 64.830982 -221.45736 
L 66.477212 -214.798261 
L 68.123441 -209.486729 
L 69.76967 -205.18644 
L 71.4159 -203.272092 
L 73.062129 -204.091628 
L 74.708359 -205.252973 
L 76.354588 -212.349553 
L 78.000817 -205.883881 
L 79.647047 -202.516829 
L 81.293276 -209.422079 
L 82.939505 -213.956203 
L 84.585735 -214.245177 
L 86.231964 -210.45618 
L 87.878194 -203.576014 
L 89.524423 -189.753027 
L 91.170652 -183.488124 
L 92.816882 -196.144994 
L 94.463111 -201.476598 
L 96.109341 -194.076823 
L 97.75557 -188.259172 
L 99.401799 -184.682862 
L 101.048029 -185.3594 
L 102.694258 -183.972717 
L 104.340488 -197.038561 
L 105.986717 -192.454928 
L 107.632946 -189.506687 
L 109.279176 -186.356754 
L 110.925405 -188.568582 
L 112.571635 -196.301258 
L 114.217864 -197.008539 
L 115.864093 -196.788542 
L 117.510323 -192.146598 
L 119.156552 -182.728559 
L 120.802782 -162.611547 
L 122.449011 -155.44661 
L 124.09524 -163.776593 
L 125.74147 -164.011399 
L 127.387699 -172.329451 
L 129.033929 -178.82308 
L 130.680158 -176.628299 
L 132.326387 -176.202097 
L 133.972617 -186.660541 
L 135.618846 -192.055918 
L 137.265076 -199.446381 
L 138.911305 -209.264192 
L 140.557534 -212.428769 
L 142.203764 -213.206953 
L 143.849993 -211.260756 
L 145.496223 -212.610311 
L 147.142452 -208.637451 
L 148.788681 -210.151618 
L 150.434911 -219.651044 
L 152.08114 -217.268783 
L 153.72737 -209.776894 
L 155.373599 -199.513439 
L 157.019828 -196.754837 
L 158.666058 -188.475177 
L 160.312287 -182.34338 
L 161.958516 -174.89516 
L 163.604746 -170.718511 
L 165.250975 -168.253225 
L 166.897205 -169.940746 
L 168.543434 -170.286734 
L 170.189663 -172.692399 
L 171.835893 -170.64006 
L 173.482122 -176.391066 
L 175.128352 -173.807402 
L 176.774581 -168.517632 
L 178.42081 -163.867425 
L 180.06704 -158.125143 
L 181.713269 -154.025326 
L 183.359499 -152.168001 
L 185.005728 -151.427849 
L 186.651957 -148.359554 
L 188.298187 -151.398831 
L 189.944416 -159.580586 
L 191.590646 -176.976375 
L 193.236875 -195.239593 
L 194.883104 -205.384834 
L 196.529334 -208.488419 
L 198.175563 -190.277509 
L 199.821793 -162.448144 
L 201.468022 -150.197361 
L 203.114251 -151.971028 
L 204.760481 -163.885171 
L 206.40671 -177.888645 
L 208.05294 -180.919283 
L 209.699169 -164.168093 
L 211.345398 -149.180642 
L 212.991628 -139.398522 
L 214.637857 -137.704391 
L 216.284087 -148.493556 
L 217.930316 -162.262906 
L 219.576545 -168.370902 
L 221.222775 -166.79424 
L 222.869004 -169.385837 
L 224.515234 -163.249122 
L 226.161463 -157.225595 
L 227.807692 -150.917015 
L 229.453922 -149.755718 
L 231.100151 -150.573439 
L 232.74638 -156.103066 
L 234.39261 -159.190382 
L 236.038839 -156.724156 
L 237.685069 -151.276349 
L 239.331298 -149.699742 
L 240.977527 -149.489987 
L 242.623757 -148.053589 
L 244.269986 -142.002445 
L 245.916216 -138.873823 
L 247.562445 -136.820585 
L 249.208674 -138.111542 
L 250.854904 -138.617371 
L 252.501133 -137.706965 
L 254.147363 -135.567601 
L 255.793592 -132.281484 
L 257.439821 -128.207261 
L 259.086051 -126.823864 
L 260.73228 -127.99363 
L 262.37851 -128.506302 
L 264.024739 -128.461324 
L 265.670968 -129.942266 
L 267.317198 -129.036 
L 268.963427 -128.598675 
L 270.609657 -127.14652 
L 272.255886 -125.457753 
L 273.902115 -126.052534 
L 275.548345 -127.296526 
L 277.194574 -128.317538 
L 278.840804 -131.294324 
L 280.487033 -133.457233 
L 282.133262 -133.157117 
L 283.779492 -132.164648 
L 285.425721 -135.240167 
L 287.071951 -143.768297 
L 288.71818 -146.560359 
L 290.364409 -141.072972 
L 292.010639 -135.261357 
L 293.656868 -131.781287 
L 295.303098 -128.341636 
L 296.949327 -126.391302 
L 298.595556 -126.515622 
L 300.241786 -127.161185 
L 301.888015 -129.245784 
L 303.534245 -129.215583 
L 305.180474 -132.123487 
L 306.826703 -131.926704 
L 308.472933 -128.774172 
L 310.119162 -126.480363 
L 311.765391 -127.488108 
L 313.411621 -128.066441 
L 315.05785 -126.780551 
L 316.70408 -126.157327 
L 318.350309 -126.229501 
L 319.996538 -124.942359 
L 321.642768 -124.358831 
L 323.288997 -124.908233 
L 324.935227 -125.646065 
L 326.581456 -126.154783 
L 328.227685 -125.787725 
L 329.873915 -126.34571 
L 331.520144 -126.14133 
L 333.166374 -125.325163 
L 334.812603 -125.458443 
L 336.458832 -126.215144 
L 338.105062 -126.332926 
L 339.751291 -125.806289 
L 341.397521 -128.273818 
L 343.04375 -128.484056 
L 344.689979 -125.954416 
L 346.336209 -126.185826 
L 347.982438 -126.059147 
L 349.628668 -126.298113 
L 351.274897 -128.752223 
L 352.921126 -131.023704 
L 354.567356 -129.287574 
L 356.213585 -129.969133 
L 357.859815 -130.895222 
L 359.506044 -129.129535 
L 361.152273 -126.598293 
L 362.798503 -125.11989 
L 364.444732 -125.318135 
L 366.090962 -125.475731 
L 367.737191 -125.850547 
L 369.38342 -125.964932 
L 371.02965 -125.163606 
L 372.675879 -124.624107 
L 374.322109 -124.863266 
L 375.968338 -124.67069 
L 377.614567 -124.396089 
L 379.260797 -124.39305 
L 380.907026 -124.655094 
L 382.553255 -125.096515 
L 384.199485 -125.420062 
L 385.845714 -125.576069 
L 387.491944 -125.527492 
L 389.138173 -125.449633 
L 390.784402 -125.325199 
L 392.430632 -125.450921 
L 394.076861 -125.474315 
L 395.723091 -125.006105 
L 397.36932 -124.737174 
L 399.015549 -124.562498 
L 400.661779 -124.99082 
L 402.308008 -125.9279 
L 403.954238 -126.894096 
L 405.600467 -126.699667 
L 407.246696 -126.259419 
L 408.892926 -126.000659 
L 410.539155 -126.376474 
L 412.185385 -126.035324 
L 413.831614 -125.356135 
L 415.477843 -125.681988 
L 417.124073 -125.462993 
L 418.770302 -124.993407 
L 420.416532 -125.348307 
L 422.062761 -126.182383 
L 423.70899 -126.972565 
L 425.35522 -127.108761 
L 427.001449 -128.029499 
L 428.647679 -127.956163 
L 430.293908 -127.469874 
L 431.940137 -126.461977 
L 433.586367 -125.778165 
L 435.232596 -125.791474 
L 436.878826 -126.377747 
L 438.525055 -127.119107 
L 440.171284 -126.827344 
L 441.817514 -128.550618 
L 443.463743 -130.21975 
L 445.109973 -131.208864 
L 446.756202 -130.090115 
L 448.402431 -129.030655 
L 450.048661 -128.181399 
L 451.69489 -127.279686 
L 453.34112 -126.414257 
L 454.987349 -127.577043 
L 456.633578 -129.921168 
L 458.279808 -131.102449 
L 459.926037 -133.051244 
L 461.572266 -134.392524 
L 463.218496 -131.312603 
L 464.864725 -128.354677 
L 466.510955 -129.010276 
L 468.157184 -134.510757 
L 469.803413 -142.807521 
L 471.449643 -149.092993 
L 473.095872 -154.421475 
L 474.742102 -155.868145 
L 476.388331 -159.631618 
L 478.03456 -160.472936 
L 479.68079 -155.134222 
L 481.327019 -146.247171 
L 482.973249 -142.14041 
L 484.619478 -142.859904 
L 486.265707 -148.218114 
L 487.911937 -154.604566 
L 489.558166 -159.92388 
L 491.204396 -156.980006 
L 492.850625 -151.246846 
L 494.496854 -144.813096 
L 496.143084 -147.506678 
L 497.789313 -152.175061 
L 499.435543 -145.957767 
L 501.081772 -141.446749 
L 502.728001 -141.417783 
L 504.374231 -139.654628 
L 506.02046 -144.795991 
L 507.66669 -143.978023 
L 509.312919 -140.657695 
L 510.959148 -140.370462 
L 512.605378 -141.559336 
L 514.251607 -138.848492 
L 515.897837 -134.358381 
L 517.544066 -131.906749 
L 519.190295 -133.576406 
L 520.836525 -134.011856 
L 522.482754 -135.943607 
L 524.128984 -140.798069 
L 525.775213 -139.697949 
L 527.421442 -138.099511 
L 529.067672 -137.437739 
L 530.713901 -137.720952 
L 532.36013 -139.939153 
L 534.00636 -139.225006 
L 535.652589 -139.371513 
L 537.298819 -137.627239 
L 538.945048 -134.982607 
L 540.591277 -135.16756 
L 542.237507 -140.205848 
L 543.883736 -142.48778 
L 545.529966 -147.043349 
L 547.176195 -155.365521 
L 548.822424 -161.052164 
L 550.468654 -163.348524 
L 552.114883 -168.61554 
L 553.761113 -163.286894 
L 555.407342 -166.217319 
L 557.053571 -162.319406 
L 558.699801 -159.623009 
L 560.34603 -171.49264 
L 561.99226 -175.908279 
L 563.638489 -174.695405 
L 565.284718 -174.864285 
L 566.930948 -175.54976 
L 568.577177 -175.220722 
L 570.223407 -173.477237 
L 571.869636 -171.560797 
L 573.515865 -171.036641 
L 575.162095 -174.947604 
L 576.808324 -184.609531 
L 578.454554 -189.259634 
L 580.100783 -188.633638 
L 581.747012 -183.506211 
L 583.393242 -186.465428 
L 585.039471 -180.301445 
L 586.685701 -192.092961 
L 588.33193 -198.57908 
L 589.978159 -194.015235 
L 591.624389 -197.749407 
L 593.270618 -199.598218 
L 594.916848 -201.811915 
L 596.563077 -202.675775 
L 598.209306 -201.492951 
L 599.855536 -205.4844 
L 601.501765 -204.489074 
L 603.147995 -204.536866 
L 604.794224 -212.004791 
L 606.440453 -213.950508 
L 608.086683 -209.282941 
L 609.732912 -219.251009 
L 611.379141 -234.291574 
L 613.025371 -241.218463 
L 614.6716 -234.676417 
L 616.31783 -229.158996 
L 617.964059 -224.824346 
L 619.610288 -227.032288 
L 621.256518 -231.710636 
L 622.902747 -234.80153 
L 624.548977 -226.463057 
L 626.195206 -209.337368 
L 627.841435 -186.029281 
L 629.487665 -164.847808 
L 631.133894 -156.280939 
L 632.780124 -158.176155 
L 634.426353 -161.903654 
L 636.072582 -178.582119 
L 637.718812 -190.527472 
L 639.365041 -184.317952 
L 641.011271 -177.302616 
L 642.6575 -155.048094 
L 642.6575 -166.512081 
L 642.6575 -166.512081 
L 641.011271 -195.593966 
L 639.365041 -204.761505 
L 637.718812 -212.876015 
L 636.072582 -197.266001 
L 634.426353 -175.470826 
L 632.780124 -170.599785 
L 631.133894 -168.123144 
L 629.487665 -179.318204 
L 627.841435 -206.997845 
L 626.195206 -237.456512 
L 624.548977 -259.836114 
L 622.902747 -270.732708 
L 621.256518 -266.693574 
L 619.610288 -260.579977 
L 617.964059 -257.69467 
L 616.31783 -263.359128 
L 614.6716 -270.569213 
L 613.025371 -279.118263 
L 611.379141 -270.066305 
L 609.732912 -250.411514 
L 608.086683 -237.385388 
L 606.440453 -243.484897 
L 604.794224 -240.942262 
L 603.147995 -231.183287 
L 601.501765 -231.120832 
L 599.855536 -232.42151 
L 598.209306 -227.205543 
L 596.563077 -228.75124 
L 594.916848 -227.62236 
L 593.270618 -224.729533 
L 591.624389 -222.313534 
L 589.978159 -217.433773 
L 588.33193 -223.397738 
L 586.685701 -214.921773 
L 585.039471 -199.512792 
L 583.393242 -207.567795 
L 581.747012 -203.700733 
L 580.100783 -210.40118 
L 578.454554 -211.219223 
L 576.808324 -205.142536 
L 575.162095 -192.51647 
L 573.515865 -187.40568 
L 571.869636 -188.09064 
L 570.223407 -190.595017 
L 568.577177 -192.873376 
L 566.930948 -193.303359 
L 565.284718 -192.407591 
L 563.638489 -192.1869 
L 561.99226 -193.771867 
L 560.34603 -188.001573 
L 558.699801 -172.490512 
L 557.053571 -176.014125 
L 555.407342 -181.107861 
L 553.761113 -177.278425 
L 552.114883 -184.241822 
L 550.468654 -177.358962 
L 548.822424 -174.358112 
L 547.176195 -166.926889 
L 545.529966 -156.051597 
L 543.883736 -150.098445 
L 542.237507 -147.11645 
L 540.591277 -140.532489 
L 538.945048 -140.290795 
L 537.298819 -143.746761 
L 535.652589 -146.026153 
L 534.00636 -145.8347 
L 532.36013 -146.767937 
L 530.713901 -143.869224 
L 529.067672 -143.499125 
L 527.421442 -144.363919 
L 525.775213 -146.452734 
L 524.128984 -147.890356 
L 522.482754 -141.546615 
L 520.836525 -139.022231 
L 519.190295 -138.453191 
L 517.544066 -136.271308 
L 515.897837 -139.475066 
L 514.251607 -145.342677 
L 512.605378 -148.885169 
L 510.959148 -147.331565 
L 509.312919 -147.706917 
L 507.66669 -152.045873 
L 506.02046 -153.114782 
L 504.374231 -146.396124 
L 502.728001 -148.700189 
L 501.081772 -148.738041 
L 499.435543 -154.632974 
L 497.789313 -162.757643 
L 496.143084 -156.657068 
L 494.496854 -153.137135 
L 492.850625 -161.544665 
L 491.204396 -169.036675 
L 489.558166 -172.883687 
L 487.911937 -165.932485 
L 486.265707 -157.586763 
L 484.619478 -150.584731 
L 482.973249 -149.644507 
L 481.327019 -155.011162 
L 479.68079 -166.624632 
L 478.03456 -173.601185 
L 476.388331 -172.501763 
L 474.742102 -167.583712 
L 473.095872 -165.693225 
L 471.449643 -158.730042 
L 469.803413 -150.516278 
L 468.157184 -139.674188 
L 466.510955 -132.48624 
L 464.864725 -131.629512 
L 463.218496 -135.494887 
L 461.572266 -139.519683 
L 459.926037 -137.766918 
L 458.279808 -135.220261 
L 456.633578 -133.67658 
L 454.987349 -130.613312 
L 453.34112 -129.0938 
L 451.69489 -130.224729 
L 450.048661 -131.403075 
L 448.402431 -132.512871 
L 446.756202 -133.897358 
L 445.109973 -135.359323 
L 443.463743 -134.066762 
L 441.817514 -131.885565 
L 440.171284 -129.633616 
L 438.525055 -130.014887 
L 436.878826 -129.046089 
L 435.232596 -128.279957 
L 433.586367 -128.262564 
L 431.940137 -129.15616 
L 430.293908 -130.473265 
L 428.647679 -131.10874 
L 427.001449 -131.204574 
L 425.35522 -130.001368 
L 423.70899 -129.823388 
L 422.062761 -128.79079 
L 420.416532 -127.700831 
L 418.770302 -127.237054 
L 417.124073 -127.850702 
L 415.477843 -128.136881 
L 413.831614 -127.711061 
L 412.185385 -128.598616 
L 410.539155 -129.044426 
L 408.892926 -128.553316 
L 407.246696 -128.89146 
L 405.600467 -129.46677 
L 403.954238 -129.720847 
L 402.308008 -128.458235 
L 400.661779 -127.233673 
L 399.015549 -126.673949 
L 397.36932 -126.902212 
L 395.723091 -127.253647 
L 394.076861 -127.865497 
L 392.430632 -127.834926 
L 390.784402 -127.670635 
L 389.138173 -127.833243 
L 387.491944 -127.934988 
L 385.845714 -127.998468 
L 384.199485 -127.7946 
L 382.553255 -127.371794 
L 380.907026 -126.794951 
L 379.260797 -126.452516 
L 377.614567 -126.456488 
L 375.968338 -126.815332 
L 374.322109 -127.066988 
L 372.675879 -126.754457 
L 371.02965 -127.459468 
L 369.38342 -128.506628 
L 367.737191 -128.357151 
L 366.090962 -127.867347 
L 364.444732 -127.661403 
L 362.798503 -127.40234 
L 361.152273 -129.334296 
L 359.506044 -132.642085 
L 357.859815 -134.949459 
L 356.213585 -133.73926 
L 354.567356 -132.848608 
L 352.921126 -135.117358 
L 351.274897 -132.14902 
L 349.628668 -128.942024 
L 347.982438 -128.629747 
L 346.336209 -128.795289 
L 344.689979 -128.492886 
L 343.04375 -131.798583 
L 341.397521 -131.523848 
L 339.751291 -128.299316 
L 338.105062 -128.987518 
L 336.458832 -128.833602 
L 334.812603 -127.844756 
L 333.166374 -127.670588 
L 331.520144 -128.737143 
L 329.873915 -129.004224 
L 328.227685 -128.275057 
L 326.581456 -128.754723 
L 324.935227 -128.089938 
L 323.288997 -127.12575 
L 321.642768 -126.407799 
L 319.996538 -127.170345 
L 318.350309 -128.852363 
L 316.70408 -128.758047 
L 315.05785 -129.572467 
L 313.411621 -131.252849 
L 311.765391 -130.497093 
L 310.119162 -129.180186 
L 308.472933 -132.177703 
L 306.826703 -136.297385 
L 305.180474 -136.554538 
L 303.534245 -132.754532 
L 301.888015 -132.793998 
L 300.241786 -130.069874 
L 298.595556 -129.226261 
L 296.949327 -129.063803 
L 295.303098 -131.612471 
L 293.656868 -136.107356 
L 292.010639 -140.655061 
L 290.364409 -148.249595 
L 288.71818 -155.420432 
L 287.071951 -151.771806 
L 285.425721 -140.62737 
L 283.779492 -136.608328 
L 282.133262 -137.905271 
L 280.487033 -138.297458 
L 278.840804 -135.471 
L 277.194574 -131.580979 
L 275.548345 -130.246736 
L 273.902115 -128.621106 
L 272.255886 -127.843854 
L 270.609657 -130.05071 
L 268.963427 -131.948365 
L 267.317198 -132.519856 
L 265.670968 -133.70415 
L 264.024739 -131.768877 
L 262.37851 -131.827654 
L 260.73228 -131.157702 
L 259.086051 -129.629069 
L 257.439821 -131.436871 
L 255.793592 -136.761007 
L 254.147363 -141.055256 
L 252.501133 -143.850947 
L 250.854904 -145.040651 
L 249.208674 -144.379642 
L 247.562445 -142.692638 
L 245.916216 -145.375779 
L 244.269986 -149.464217 
L 242.623757 -157.371764 
L 240.977527 -159.248828 
L 239.331298 -159.522932 
L 237.685069 -161.58322 
L 236.038839 -168.702334 
L 234.39261 -171.925162 
L 232.74638 -167.890702 
L 231.100151 -160.664667 
L 229.453922 -159.596081 
L 227.807692 -161.113647 
L 226.161463 -169.357608 
L 224.515234 -177.229064 
L 222.869004 -185.248434 
L 221.222775 -181.861774 
L 219.576545 -183.922132 
L 217.930316 -175.940292 
L 216.284087 -157.946706 
L 214.637857 -143.847583 
L 212.991628 -146.061448 
L 211.345398 -158.84458 
L 209.699169 -178.429963 
L 208.05294 -200.320173 
L 206.40671 -196.35978 
L 204.760481 -178.060244 
L 203.114251 -162.491015 
L 201.468022 -160.173214 
L 199.821793 -176.182358 
L 198.175563 -212.549366 
L 196.529334 -236.347118 
L 194.883104 -232.291399 
L 193.236875 -219.033746 
L 191.590646 -195.167638 
L 189.944416 -172.435076 
L 188.298187 -161.743277 
L 186.651957 -157.771595 
L 185.005728 -161.781197 
L 183.359499 -162.748418 
L 181.713269 -165.175543 
L 180.06704 -170.533123 
L 178.42081 -178.037054 
L 176.774581 -184.113876 
L 175.128352 -191.026471 
L 173.482122 -194.402765 
L 171.835893 -186.887435 
L 170.189663 -189.569401 
L 168.543434 -186.425714 
L 166.897205 -185.973581 
L 165.250975 -183.768354 
L 163.604746 -186.989953 
L 161.958516 -192.447937 
L 160.312287 -202.181162 
L 158.666058 -210.194105 
L 157.019828 -221.013845 
L 155.373599 -224.618746 
L 153.72737 -238.030879 
L 152.08114 -247.82117 
L 150.434911 -250.934275 
L 148.788681 -238.520562 
L 147.142452 -236.541872 
L 145.496223 -241.733548 
L 143.849993 -239.969968 
L 142.203764 -242.51323 
L 140.557534 -241.496311 
L 138.911305 -237.360888 
L 137.265076 -224.531114 
L 135.618846 -214.873366 
L 133.972617 -207.822766 
L 132.326387 -194.155824 
L 130.680158 -194.712778 
L 129.033929 -197.580885 
L 127.387699 -189.095106 
L 125.74147 -178.225197 
L 124.09524 -177.918356 
L 122.449011 -167.032856 
L 120.802782 -176.39589 
L 119.156552 -202.684509 
L 117.510323 -214.991866 
L 115.864093 -221.057889 
L 114.217864 -221.345379 
L 112.571635 -220.421114 
L 110.925405 -210.316166 
L 109.279176 -207.425781 
L 107.632946 -211.542068 
L 105.986717 -215.394786 
L 104.340488 -221.384611 
L 102.694258 -204.310357 
L 101.048029 -206.122454 
L 99.401799 -205.238363 
L 97.75557 -209.911833 
L 96.109341 -217.514255 
L 94.463111 -227.184174 
L 92.816882 -220.216911 
L 91.170652 -203.677098 
L 89.524423 -211.863981 
L 87.878194 -229.92766 
L 86.231964 -238.91856 
L 84.585735 -243.869966 
L 82.939505 -243.49234 
L 81.293276 -237.567212 
L 79.647047 -228.543531 
L 78.000817 -232.943546 
L 76.354588 -241.392792 
L 74.708359 -232.119085 
L 73.062129 -230.601456 
L 71.4159 -229.530499 
L 69.76967 -232.03214 
L 68.123441 -237.651696 
L 66.477212 -244.592728 
L 64.830982 -253.294742 
L 63.184753 -257.961984 
L 61.538523 -251.659301 
L 59.892294 -238.831826 
L 58.246065 -236.139729 
L 56.599835 -229.399361 
L 54.953606 -235.687623 
L 53.307376 -238.067704 
L 51.661147 -221.901263 
L 50.014918 -196.220038 
L 48.368688 -165.610624 
L 46.722459 -169.022272 
L 45.076229 -174.543759 
L 43.43 -168.972833 
z
"/>
    </defs>
    <g clip-path="url(#pb88ae02e67)">
     <use xlink:href="#mc82521ade7" x="0" y="288" style="fill: #005293; fill-opacity: 0.8"/>
    </g>
   </g>
   <g id="matplotlib.axis_1">
    <g id="xtick_1">
     <g id="line2d_1">
      <defs>
       <path id="ma29ac8462a" d="M 0 0 
L 0 3.5 
" style="stroke: #000000; stroke-width: 0.8"/>
      </defs>
      <g>
       <use xlink:href="#ma29ac8462a" x="43.43" y="170.32" style="stroke: #000000; stroke-width: 0.8"/>
      </g>
     </g>
     <g id="text_1">
      <!-- Jan -->
      <g transform="translate(37.26375 185.49875) scale(0.08 -0.08)">
       <defs>
        <path id="DejaVuSans-4a" d="M 628 4666 
L 1259 4666 
L 1259 325 
Q 1259 -519 939 -900 
Q 619 -1281 -91 -1281 
L -331 -1281 
L -331 -750 
L -134 -750 
Q 284 -750 456 -515 
Q 628 -281 628 325 
L 628 4666 
z
" transform="scale(0.015625)"/>
        <path id="DejaVuSans-61" d="M 2194 1759 
Q 1497 1759 1228 1600 
Q 959 1441 959 1056 
Q 959 750 1161 570 
Q 1363 391 1709 391 
Q 2188 391 2477 730 
Q 2766 1069 2766 1631 
L 2766 1759 
L 2194 1759 
z
M 3341 1997 
L 3341 0 
L 2766 0 
L 2766 531 
Q 2569 213 2275 61 
Q 1981 -91 1556 -91 
Q 1019 -91 701 211 
Q 384 513 384 1019 
Q 384 1609 779 1909 
Q 1175 2209 1959 2209 
L 2766 2209 
L 2766 2266 
Q 2766 2663 2505 2880 
Q 2244 3097 1772 3097 
Q 1472 3097 1187 3025 
Q 903 2953 641 2809 
L 641 3341 
Q 956 3463 1253 3523 
Q 1550 3584 1831 3584 
Q 2591 3584 2966 3190 
Q 3341 2797 3341 1997 
z
" transform="scale(0.015625)"/>
        <path id="DejaVuSans-6e" d="M 3513 2113 
L 3513 0 
L 2938 0 
L 2938 2094 
Q 2938 2591 2744 2837 
Q 2550 3084 2163 3084 
Q 1697 3084 1428 2787 
Q 1159 2491 1159 1978 
L 1159 0 
L 581 0 
L 581 3500 
L 1159 3500 
L 1159 2956 
Q 1366 3272 1645 3428 
Q 1925 3584 2291 3584 
Q 2894 3584 3203 3211 
Q 3513 2838 3513 2113 
z
" transform="scale(0.015625)"/>
       </defs>
       <use xlink:href="#DejaVuSans-4a"/>
       <use xlink:href="#DejaVuSans-61" x="29.492188"/>
       <use xlink:href="#DejaVuSans-6e" x="90.771484"/>
      </g>
      <!-- 2022 -->
      <g transform="translate(33.25 194.457) scale(0.08 -0.08)">
       <defs>
        <path id="DejaVuSans-32" d="M 1228 531 
L 3431 531 
L 3431 0 
L 469 0 
L 469 531 
Q 828 903 1448 1529 
Q 2069 2156 2228 2338 
Q 2531 2678 2651 2914 
Q 2772 3150 2772 3378 
Q 2772 3750 2511 3984 
Q 2250 4219 1831 4219 
Q 1534 4219 1204 4116 
Q 875 4013 500 3803 
L 500 4441 
Q 881 4594 1212 4672 
Q 1544 4750 1819 4750 
Q 2544 4750 2975 4387 
Q 3406 4025 3406 3419 
Q 3406 3131 3298 2873 
Q 3191 2616 2906 2266 
Q 2828 2175 2409 1742 
Q 1991 1309 1228 531 
z
" transform="scale(0.015625)"/>
        <path id="DejaVuSans-30" d="M 2034 4250 
Q 1547 4250 1301 3770 
Q 1056 3291 1056 2328 
Q 1056 1369 1301 889 
Q 1547 409 2034 409 
Q 2525 409 2770 889 
Q 3016 1369 3016 2328 
Q 3016 3291 2770 3770 
Q 2525 4250 2034 4250 
z
M 2034 4750 
Q 2819 4750 3233 4129 
Q 3647 3509 3647 2328 
Q 3647 1150 3233 529 
Q 2819 -91 2034 -91 
Q 1250 -91 836 529 
Q 422 1150 422 2328 
Q 422 3509 836 4129 
Q 1250 4750 2034 4750 
z
" transform="scale(0.015625)"/>
       </defs>
       <use xlink:href="#DejaVuSans-32"/>
       <use xlink:href="#DejaVuSans-30" x="63.623047"/>
       <use xlink:href="#DejaVuSans-32" x="127.246094"/>
       <use xlink:href="#DejaVuSans-32" x="190.869141"/>
      </g>
     </g>
    </g>
    <g id="xtick_2">
     <g id="line2d_2">
      <g>
       <use xlink:href="#ma29ac8462a" x="94.463111" y="170.32" style="stroke: #000000; stroke-width: 0.8"/>
      </g>
     </g>
     <g id="text_2">
      <!-- Feb -->
      <g transform="translate(87.381861 185.49875) scale(0.08 -0.08)">
       <defs>
        <path id="DejaVuSans-46" d="M 628 4666 
L 3309 4666 
L 3309 4134 
L 1259 4134 
L 1259 2759 
L 3109 2759 
L 3109 2228 
L 1259 2228 
L 1259 0 
L 628 0 
L 628 4666 
z
" transform="scale(0.015625)"/>
        <path id="DejaVuSans-65" d="M 3597 1894 
L 3597 1613 
L 953 1613 
Q 991 1019 1311 708 
Q 1631 397 2203 397 
Q 2534 397 2845 478 
Q 3156 559 3463 722 
L 3463 178 
Q 3153 47 2828 -22 
Q 2503 -91 2169 -91 
Q 1331 -91 842 396 
Q 353 884 353 1716 
Q 353 2575 817 3079 
Q 1281 3584 2069 3584 
Q 2775 3584 3186 3129 
Q 3597 2675 3597 1894 
z
M 3022 2063 
Q 3016 2534 2758 2815 
Q 2500 3097 2075 3097 
Q 1594 3097 1305 2825 
Q 1016 2553 972 2059 
L 3022 2063 
z
" transform="scale(0.015625)"/>
        <path id="DejaVuSans-62" d="M 3116 1747 
Q 3116 2381 2855 2742 
Q 2594 3103 2138 3103 
Q 1681 3103 1420 2742 
Q 1159 2381 1159 1747 
Q 1159 1113 1420 752 
Q 1681 391 2138 391 
Q 2594 391 2855 752 
Q 3116 1113 3116 1747 
z
M 1159 2969 
Q 1341 3281 1617 3432 
Q 1894 3584 2278 3584 
Q 2916 3584 3314 3078 
Q 3713 2572 3713 1747 
Q 3713 922 3314 415 
Q 2916 -91 2278 -91 
Q 1894 -91 1617 61 
Q 1341 213 1159 525 
L 1159 0 
L 581 0 
L 581 4863 
L 1159 4863 
L 1159 2969 
z
" transform="scale(0.015625)"/>
       </defs>
       <use xlink:href="#DejaVuSans-46"/>
       <use xlink:href="#DejaVuSans-65" x="52.019531"/>
       <use xlink:href="#DejaVuSans-62" x="113.542969"/>
      </g>
     </g>
    </g>
    <g id="xtick_3">
     <g id="line2d_3">
      <g>
       <use xlink:href="#ma29ac8462a" x="140.557534" y="170.32" style="stroke: #000000; stroke-width: 0.8"/>
      </g>
     </g>
     <g id="text_3">
      <!-- Mar -->
      <g transform="translate(133.010659 185.49875) scale(0.08 -0.08)">
       <defs>
        <path id="DejaVuSans-4d" d="M 628 4666 
L 1569 4666 
L 2759 1491 
L 3956 4666 
L 4897 4666 
L 4897 0 
L 4281 0 
L 4281 4097 
L 3078 897 
L 2444 897 
L 1241 4097 
L 1241 0 
L 628 0 
L 628 4666 
z
" transform="scale(0.015625)"/>
        <path id="DejaVuSans-72" d="M 2631 2963 
Q 2534 3019 2420 3045 
Q 2306 3072 2169 3072 
Q 1681 3072 1420 2755 
Q 1159 2438 1159 1844 
L 1159 0 
L 581 0 
L 581 3500 
L 1159 3500 
L 1159 2956 
Q 1341 3275 1631 3429 
Q 1922 3584 2338 3584 
Q 2397 3584 2469 3576 
Q 2541 3569 2628 3553 
L 2631 2963 
z
" transform="scale(0.015625)"/>
       </defs>
       <use xlink:href="#DejaVuSans-4d"/>
       <use xlink:href="#DejaVuSans-61" x="86.279297"/>
       <use xlink:href="#DejaVuSans-72" x="147.558594"/>
      </g>
     </g>
    </g>
    <g id="xtick_4">
     <g id="line2d_4">
      <g>
       <use xlink:href="#ma29ac8462a" x="191.590646" y="170.32" style="stroke: #000000; stroke-width: 0.8"/>
      </g>
     </g>
     <g id="text_4">
      <!-- Apr -->
      <g transform="translate(184.670646 185.49875) scale(0.08 -0.08)">
       <defs>
        <path id="DejaVuSans-41" d="M 2188 4044 
L 1331 1722 
L 3047 1722 
L 2188 4044 
z
M 1831 4666 
L 2547 4666 
L 4325 0 
L 3669 0 
L 3244 1197 
L 1141 1197 
L 716 0 
L 50 0 
L 1831 4666 
z
" transform="scale(0.015625)"/>
        <path id="DejaVuSans-70" d="M 1159 525 
L 1159 -1331 
L 581 -1331 
L 581 3500 
L 1159 3500 
L 1159 2969 
Q 1341 3281 1617 3432 
Q 1894 3584 2278 3584 
Q 2916 3584 3314 3078 
Q 3713 2572 3713 1747 
Q 3713 922 3314 415 
Q 2916 -91 2278 -91 
Q 1894 -91 1617 61 
Q 1341 213 1159 525 
z
M 3116 1747 
Q 3116 2381 2855 2742 
Q 2594 3103 2138 3103 
Q 1681 3103 1420 2742 
Q 1159 2381 1159 1747 
Q 1159 1113 1420 752 
Q 1681 391 2138 391 
Q 2594 391 2855 752 
Q 3116 1113 3116 1747 
z
" transform="scale(0.015625)"/>
       </defs>
       <use xlink:href="#DejaVuSans-41"/>
       <use xlink:href="#DejaVuSans-70" x="68.408203"/>
       <use xlink:href="#DejaVuSans-72" x="131.884766"/>
      </g>
     </g>
    </g>
    <g id="xtick_5">
     <g id="line2d_5">
      <g>
       <use xlink:href="#ma29ac8462a" x="240.977527" y="170.32" style="stroke: #000000; stroke-width: 0.8"/>
      </g>
     </g>
     <g id="text_5">
      <!-- May -->
      <g transform="translate(232.707527 185.49875) scale(0.08 -0.08)">
       <defs>
        <path id="DejaVuSans-79" d="M 2059 -325 
Q 1816 -950 1584 -1140 
Q 1353 -1331 966 -1331 
L 506 -1331 
L 506 -850 
L 844 -850 
Q 1081 -850 1212 -737 
Q 1344 -625 1503 -206 
L 1606 56 
L 191 3500 
L 800 3500 
L 1894 763 
L 2988 3500 
L 3597 3500 
L 2059 -325 
z
" transform="scale(0.015625)"/>
       </defs>
       <use xlink:href="#DejaVuSans-4d"/>
       <use xlink:href="#DejaVuSans-61" x="86.279297"/>
       <use xlink:href="#DejaVuSans-79" x="147.558594"/>
      </g>
     </g>
    </g>
    <g id="xtick_6">
     <g id="line2d_6">
      <g>
       <use xlink:href="#ma29ac8462a" x="292.010639" y="170.32" style="stroke: #000000; stroke-width: 0.8"/>
      </g>
     </g>
     <g id="text_6">
      <!-- Jun -->
      <g transform="translate(285.760639 185.49875) scale(0.08 -0.08)">
       <defs>
        <path id="DejaVuSans-75" d="M 544 1381 
L 544 3500 
L 1119 3500 
L 1119 1403 
Q 1119 906 1312 657 
Q 1506 409 1894 409 
Q 2359 409 2629 706 
Q 2900 1003 2900 1516 
L 2900 3500 
L 3475 3500 
L 3475 0 
L 2900 0 
L 2900 538 
Q 2691 219 2414 64 
Q 2138 -91 1772 -91 
Q 1169 -91 856 284 
Q 544 659 544 1381 
z
M 1991 3584 
L 1991 3584 
z
" transform="scale(0.015625)"/>
       </defs>
       <use xlink:href="#DejaVuSans-4a"/>
       <use xlink:href="#DejaVuSans-75" x="29.492188"/>
       <use xlink:href="#DejaVuSans-6e" x="92.871094"/>
      </g>
     </g>
    </g>
    <g id="xtick_7">
     <g id="line2d_7">
      <g>
       <use xlink:href="#ma29ac8462a" x="341.397521" y="170.32" style="stroke: #000000; stroke-width: 0.8"/>
      </g>
     </g>
     <g id="text_7">
      <!-- Jul -->
      <g transform="translate(336.571271 185.49875) scale(0.08 -0.08)">
       <defs>
        <path id="DejaVuSans-6c" d="M 603 4863 
L 1178 4863 
L 1178 0 
L 603 0 
L 603 4863 
z
" transform="scale(0.015625)"/>
       </defs>
       <use xlink:href="#DejaVuSans-4a"/>
       <use xlink:href="#DejaVuSans-75" x="29.492188"/>
       <use xlink:href="#DejaVuSans-6c" x="92.871094"/>
      </g>
     </g>
    </g>
    <g id="xtick_8">
     <g id="line2d_8">
      <g>
       <use xlink:href="#ma29ac8462a" x="392.430632" y="170.32" style="stroke: #000000; stroke-width: 0.8"/>
      </g>
     </g>
     <g id="text_8">
      <!-- Aug -->
      <g transform="translate(384.620007 185.49875) scale(0.08 -0.08)">
       <defs>
        <path id="DejaVuSans-67" d="M 2906 1791 
Q 2906 2416 2648 2759 
Q 2391 3103 1925 3103 
Q 1463 3103 1205 2759 
Q 947 2416 947 1791 
Q 947 1169 1205 825 
Q 1463 481 1925 481 
Q 2391 481 2648 825 
Q 2906 1169 2906 1791 
z
M 3481 434 
Q 3481 -459 3084 -895 
Q 2688 -1331 1869 -1331 
Q 1566 -1331 1297 -1286 
Q 1028 -1241 775 -1147 
L 775 -588 
Q 1028 -725 1275 -790 
Q 1522 -856 1778 -856 
Q 2344 -856 2625 -561 
Q 2906 -266 2906 331 
L 2906 616 
Q 2728 306 2450 153 
Q 2172 0 1784 0 
Q 1141 0 747 490 
Q 353 981 353 1791 
Q 353 2603 747 3093 
Q 1141 3584 1784 3584 
Q 2172 3584 2450 3431 
Q 2728 3278 2906 2969 
L 2906 3500 
L 3481 3500 
L 3481 434 
z
" transform="scale(0.015625)"/>
       </defs>
       <use xlink:href="#DejaVuSans-41"/>
       <use xlink:href="#DejaVuSans-75" x="68.408203"/>
       <use xlink:href="#DejaVuSans-67" x="131.787109"/>
      </g>
     </g>
    </g>
    <g id="xtick_9">
     <g id="line2d_9">
      <g>
       <use xlink:href="#ma29ac8462a" x="443.463743" y="170.32" style="stroke: #000000; stroke-width: 0.8"/>
      </g>
     </g>
     <g id="text_9">
      <!-- Sep -->
      <g transform="translate(435.923743 185.49875) scale(0.08 -0.08)">
       <defs>
        <path id="DejaVuSans-53" d="M 3425 4513 
L 3425 3897 
Q 3066 4069 2747 4153 
Q 2428 4238 2131 4238 
Q 1616 4238 1336 4038 
Q 1056 3838 1056 3469 
Q 1056 3159 1242 3001 
Q 1428 2844 1947 2747 
L 2328 2669 
Q 3034 2534 3370 2195 
Q 3706 1856 3706 1288 
Q 3706 609 3251 259 
Q 2797 -91 1919 -91 
Q 1588 -91 1214 -16 
Q 841 59 441 206 
L 441 856 
Q 825 641 1194 531 
Q 1563 422 1919 422 
Q 2459 422 2753 634 
Q 3047 847 3047 1241 
Q 3047 1584 2836 1778 
Q 2625 1972 2144 2069 
L 1759 2144 
Q 1053 2284 737 2584 
Q 422 2884 422 3419 
Q 422 4038 858 4394 
Q 1294 4750 2059 4750 
Q 2388 4750 2728 4690 
Q 3069 4631 3425 4513 
z
" transform="scale(0.015625)"/>
       </defs>
       <use xlink:href="#DejaVuSans-53"/>
       <use xlink:href="#DejaVuSans-65" x="63.476562"/>
       <use xlink:href="#DejaVuSans-70" x="125"/>
      </g>
     </g>
    </g>
    <g id="xtick_10">
     <g id="line2d_10">
      <g>
       <use xlink:href="#ma29ac8462a" x="492.850625" y="170.32" style="stroke: #000000; stroke-width: 0.8"/>
      </g>
     </g>
     <g id="text_10">
      <!-- Oct -->
      <g transform="translate(485.934375 185.49875) scale(0.08 -0.08)">
       <defs>
        <path id="DejaVuSans-4f" d="M 2522 4238 
Q 1834 4238 1429 3725 
Q 1025 3213 1025 2328 
Q 1025 1447 1429 934 
Q 1834 422 2522 422 
Q 3209 422 3611 934 
Q 4013 1447 4013 2328 
Q 4013 3213 3611 3725 
Q 3209 4238 2522 4238 
z
M 2522 4750 
Q 3503 4750 4090 4092 
Q 4678 3434 4678 2328 
Q 4678 1225 4090 567 
Q 3503 -91 2522 -91 
Q 1538 -91 948 565 
Q 359 1222 359 2328 
Q 359 3434 948 4092 
Q 1538 4750 2522 4750 
z
" transform="scale(0.015625)"/>
        <path id="DejaVuSans-63" d="M 3122 3366 
L 3122 2828 
Q 2878 2963 2633 3030 
Q 2388 3097 2138 3097 
Q 1578 3097 1268 2742 
Q 959 2388 959 1747 
Q 959 1106 1268 751 
Q 1578 397 2138 397 
Q 2388 397 2633 464 
Q 2878 531 3122 666 
L 3122 134 
Q 2881 22 2623 -34 
Q 2366 -91 2075 -91 
Q 1284 -91 818 406 
Q 353 903 353 1747 
Q 353 2603 823 3093 
Q 1294 3584 2113 3584 
Q 2378 3584 2631 3529 
Q 2884 3475 3122 3366 
z
" transform="scale(0.015625)"/>
        <path id="DejaVuSans-74" d="M 1172 4494 
L 1172 3500 
L 2356 3500 
L 2356 3053 
L 1172 3053 
L 1172 1153 
Q 1172 725 1289 603 
Q 1406 481 1766 481 
L 2356 481 
L 2356 0 
L 1766 0 
Q 1100 0 847 248 
Q 594 497 594 1153 
L 594 3053 
L 172 3053 
L 172 3500 
L 594 3500 
L 594 4494 
L 1172 4494 
z
" transform="scale(0.015625)"/>
       </defs>
       <use xlink:href="#DejaVuSans-4f"/>
       <use xlink:href="#DejaVuSans-63" x="78.710938"/>
       <use xlink:href="#DejaVuSans-74" x="133.691406"/>
      </g>
     </g>
    </g>
    <g id="xtick_11">
     <g id="line2d_11">
      <g>
       <use xlink:href="#ma29ac8462a" x="543.883736" y="170.32" style="stroke: #000000; stroke-width: 0.8"/>
      </g>
     </g>
     <g id="text_11">
      <!-- Nov -->
      <g transform="translate(536.076236 185.49875) scale(0.08 -0.08)">
       <defs>
        <path id="DejaVuSans-4e" d="M 628 4666 
L 1478 4666 
L 3547 763 
L 3547 4666 
L 4159 4666 
L 4159 0 
L 3309 0 
L 1241 3903 
L 1241 0 
L 628 0 
L 628 4666 
z
" transform="scale(0.015625)"/>
        <path id="DejaVuSans-6f" d="M 1959 3097 
Q 1497 3097 1228 2736 
Q 959 2375 959 1747 
Q 959 1119 1226 758 
Q 1494 397 1959 397 
Q 2419 397 2687 759 
Q 2956 1122 2956 1747 
Q 2956 2369 2687 2733 
Q 2419 3097 1959 3097 
z
M 1959 3584 
Q 2709 3584 3137 3096 
Q 3566 2609 3566 1747 
Q 3566 888 3137 398 
Q 2709 -91 1959 -91 
Q 1206 -91 779 398 
Q 353 888 353 1747 
Q 353 2609 779 3096 
Q 1206 3584 1959 3584 
z
" transform="scale(0.015625)"/>
        <path id="DejaVuSans-76" d="M 191 3500 
L 800 3500 
L 1894 563 
L 2988 3500 
L 3597 3500 
L 2284 0 
L 1503 0 
L 191 3500 
z
" transform="scale(0.015625)"/>
       </defs>
       <use xlink:href="#DejaVuSans-4e"/>
       <use xlink:href="#DejaVuSans-6f" x="74.804688"/>
       <use xlink:href="#DejaVuSans-76" x="135.986328"/>
      </g>
     </g>
    </g>
    <g id="xtick_12">
     <g id="line2d_12">
      <g>
       <use xlink:href="#ma29ac8462a" x="593.270618" y="170.32" style="stroke: #000000; stroke-width: 0.8"/>
      </g>
     </g>
     <g id="text_12">
      <!-- Dec -->
      <g transform="translate(585.529993 185.49875) scale(0.08 -0.08)">
       <defs>
        <path id="DejaVuSans-44" d="M 1259 4147 
L 1259 519 
L 2022 519 
Q 2988 519 3436 956 
Q 3884 1394 3884 2338 
Q 3884 3275 3436 3711 
Q 2988 4147 2022 4147 
L 1259 4147 
z
M 628 4666 
L 1925 4666 
Q 3281 4666 3915 4102 
Q 4550 3538 4550 2338 
Q 4550 1131 3912 565 
Q 3275 0 1925 0 
L 628 0 
L 628 4666 
z
" transform="scale(0.015625)"/>
       </defs>
       <use xlink:href="#DejaVuSans-44"/>
       <use xlink:href="#DejaVuSans-65" x="77.001953"/>
       <use xlink:href="#DejaVuSans-63" x="138.525391"/>
      </g>
     </g>
    </g>
    <g id="xtick_13">
     <g id="line2d_13">
      <g>
       <use xlink:href="#ma29ac8462a" x="642.6575" y="170.32" style="stroke: #000000; stroke-width: 0.8"/>
      </g>
     </g>
    </g>
    <g id="xtick_14">
     <g id="line2d_14">
      <defs>
       <path id="m14f7b2dd28" d="M 0 0 
L 0 2 
" style="stroke: #000000; stroke-width: 0.4"/>
      </defs>
      <g>
       <use xlink:href="#m14f7b2dd28" x="46.722459" y="170.32" style="stroke: #000000; stroke-width: 0.4"/>
      </g>
     </g>
    </g>
    <g id="xtick_15">
     <g id="line2d_15">
      <g>
       <use xlink:href="#m14f7b2dd28" x="58.246065" y="170.32" style="stroke: #000000; stroke-width: 0.4"/>
      </g>
     </g>
    </g>
    <g id="xtick_16">
     <g id="line2d_16">
      <g>
       <use xlink:href="#m14f7b2dd28" x="69.76967" y="170.32" style="stroke: #000000; stroke-width: 0.4"/>
      </g>
     </g>
    </g>
    <g id="xtick_17">
     <g id="line2d_17">
      <g>
       <use xlink:href="#m14f7b2dd28" x="81.293276" y="170.32" style="stroke: #000000; stroke-width: 0.4"/>
      </g>
     </g>
    </g>
    <g id="xtick_18">
     <g id="line2d_18">
      <g>
       <use xlink:href="#m14f7b2dd28" x="92.816882" y="170.32" style="stroke: #000000; stroke-width: 0.4"/>
      </g>
     </g>
    </g>
    <g id="xtick_19">
     <g id="line2d_19">
      <g>
       <use xlink:href="#m14f7b2dd28" x="104.340488" y="170.32" style="stroke: #000000; stroke-width: 0.4"/>
      </g>
     </g>
    </g>
    <g id="xtick_20">
     <g id="line2d_20">
      <g>
       <use xlink:href="#m14f7b2dd28" x="115.864093" y="170.32" style="stroke: #000000; stroke-width: 0.4"/>
      </g>
     </g>
    </g>
    <g id="xtick_21">
     <g id="line2d_21">
      <g>
       <use xlink:href="#m14f7b2dd28" x="127.387699" y="170.32" style="stroke: #000000; stroke-width: 0.4"/>
      </g>
     </g>
    </g>
    <g id="xtick_22">
     <g id="line2d_22">
      <g>
       <use xlink:href="#m14f7b2dd28" x="138.911305" y="170.32" style="stroke: #000000; stroke-width: 0.4"/>
      </g>
     </g>
    </g>
    <g id="xtick_23">
     <g id="line2d_23">
      <g>
       <use xlink:href="#m14f7b2dd28" x="150.434911" y="170.32" style="stroke: #000000; stroke-width: 0.4"/>
      </g>
     </g>
    </g>
    <g id="xtick_24">
     <g id="line2d_24">
      <g>
       <use xlink:href="#m14f7b2dd28" x="161.958516" y="170.32" style="stroke: #000000; stroke-width: 0.4"/>
      </g>
     </g>
    </g>
    <g id="xtick_25">
     <g id="line2d_25">
      <g>
       <use xlink:href="#m14f7b2dd28" x="173.482122" y="170.32" style="stroke: #000000; stroke-width: 0.4"/>
      </g>
     </g>
    </g>
    <g id="xtick_26">
     <g id="line2d_26">
      <g>
       <use xlink:href="#m14f7b2dd28" x="185.005728" y="170.32" style="stroke: #000000; stroke-width: 0.4"/>
      </g>
     </g>
    </g>
    <g id="xtick_27">
     <g id="line2d_27">
      <g>
       <use xlink:href="#m14f7b2dd28" x="196.529334" y="170.32" style="stroke: #000000; stroke-width: 0.4"/>
      </g>
     </g>
    </g>
    <g id="xtick_28">
     <g id="line2d_28">
      <g>
       <use xlink:href="#m14f7b2dd28" x="208.05294" y="170.32" style="stroke: #000000; stroke-width: 0.4"/>
      </g>
     </g>
    </g>
    <g id="xtick_29">
     <g id="line2d_29">
      <g>
       <use xlink:href="#m14f7b2dd28" x="219.576545" y="170.32" style="stroke: #000000; stroke-width: 0.4"/>
      </g>
     </g>
    </g>
    <g id="xtick_30">
     <g id="line2d_30">
      <g>
       <use xlink:href="#m14f7b2dd28" x="231.100151" y="170.32" style="stroke: #000000; stroke-width: 0.4"/>
      </g>
     </g>
    </g>
    <g id="xtick_31">
     <g id="line2d_31">
      <g>
       <use xlink:href="#m14f7b2dd28" x="242.623757" y="170.32" style="stroke: #000000; stroke-width: 0.4"/>
      </g>
     </g>
    </g>
    <g id="xtick_32">
     <g id="line2d_32">
      <g>
       <use xlink:href="#m14f7b2dd28" x="254.147363" y="170.32" style="stroke: #000000; stroke-width: 0.4"/>
      </g>
     </g>
    </g>
    <g id="xtick_33">
     <g id="line2d_33">
      <g>
       <use xlink:href="#m14f7b2dd28" x="265.670968" y="170.32" style="stroke: #000000; stroke-width: 0.4"/>
      </g>
     </g>
    </g>
    <g id="xtick_34">
     <g id="line2d_34">
      <g>
       <use xlink:href="#m14f7b2dd28" x="277.194574" y="170.32" style="stroke: #000000; stroke-width: 0.4"/>
      </g>
     </g>
    </g>
    <g id="xtick_35">
     <g id="line2d_35">
      <g>
       <use xlink:href="#m14f7b2dd28" x="288.71818" y="170.32" style="stroke: #000000; stroke-width: 0.4"/>
      </g>
     </g>
    </g>
    <g id="xtick_36">
     <g id="line2d_36">
      <g>
       <use xlink:href="#m14f7b2dd28" x="300.241786" y="170.32" style="stroke: #000000; stroke-width: 0.4"/>
      </g>
     </g>
    </g>
    <g id="xtick_37">
     <g id="line2d_37">
      <g>
       <use xlink:href="#m14f7b2dd28" x="311.765391" y="170.32" style="stroke: #000000; stroke-width: 0.4"/>
      </g>
     </g>
    </g>
    <g id="xtick_38">
     <g id="line2d_38">
      <g>
       <use xlink:href="#m14f7b2dd28" x="323.288997" y="170.32" style="stroke: #000000; stroke-width: 0.4"/>
      </g>
     </g>
    </g>
    <g id="xtick_39">
     <g id="line2d_39">
      <g>
       <use xlink:href="#m14f7b2dd28" x="334.812603" y="170.32" style="stroke: #000000; stroke-width: 0.4"/>
      </g>
     </g>
    </g>
    <g id="xtick_40">
     <g id="line2d_40">
      <g>
       <use xlink:href="#m14f7b2dd28" x="346.336209" y="170.32" style="stroke: #000000; stroke-width: 0.4"/>
      </g>
     </g>
    </g>
    <g id="xtick_41">
     <g id="line2d_41">
      <g>
       <use xlink:href="#m14f7b2dd28" x="357.859815" y="170.32" style="stroke: #000000; stroke-width: 0.4"/>
      </g>
     </g>
    </g>
    <g id="xtick_42">
     <g id="line2d_42">
      <g>
       <use xlink:href="#m14f7b2dd28" x="369.38342" y="170.32" style="stroke: #000000; stroke-width: 0.4"/>
      </g>
     </g>
    </g>
    <g id="xtick_43">
     <g id="line2d_43">
      <g>
       <use xlink:href="#m14f7b2dd28" x="380.907026" y="170.32" style="stroke: #000000; stroke-width: 0.4"/>
      </g>
     </g>
    </g>
    <g id="xtick_44">
     <g id="line2d_44">
      <g>
       <use xlink:href="#m14f7b2dd28" x="403.954238" y="170.32" style="stroke: #000000; stroke-width: 0.4"/>
      </g>
     </g>
    </g>
    <g id="xtick_45">
     <g id="line2d_45">
      <g>
       <use xlink:href="#m14f7b2dd28" x="415.477843" y="170.32" style="stroke: #000000; stroke-width: 0.4"/>
      </g>
     </g>
    </g>
    <g id="xtick_46">
     <g id="line2d_46">
      <g>
       <use xlink:href="#m14f7b2dd28" x="427.001449" y="170.32" style="stroke: #000000; stroke-width: 0.4"/>
      </g>
     </g>
    </g>
    <g id="xtick_47">
     <g id="line2d_47">
      <g>
       <use xlink:href="#m14f7b2dd28" x="438.525055" y="170.32" style="stroke: #000000; stroke-width: 0.4"/>
      </g>
     </g>
    </g>
    <g id="xtick_48">
     <g id="line2d_48">
      <g>
       <use xlink:href="#m14f7b2dd28" x="450.048661" y="170.32" style="stroke: #000000; stroke-width: 0.4"/>
      </g>
     </g>
    </g>
    <g id="xtick_49">
     <g id="line2d_49">
      <g>
       <use xlink:href="#m14f7b2dd28" x="461.572266" y="170.32" style="stroke: #000000; stroke-width: 0.4"/>
      </g>
     </g>
    </g>
    <g id="xtick_50">
     <g id="line2d_50">
      <g>
       <use xlink:href="#m14f7b2dd28" x="473.095872" y="170.32" style="stroke: #000000; stroke-width: 0.4"/>
      </g>
     </g>
    </g>
    <g id="xtick_51">
     <g id="line2d_51">
      <g>
       <use xlink:href="#m14f7b2dd28" x="484.619478" y="170.32" style="stroke: #000000; stroke-width: 0.4"/>
      </g>
     </g>
    </g>
    <g id="xtick_52">
     <g id="line2d_52">
      <g>
       <use xlink:href="#m14f7b2dd28" x="496.143084" y="170.32" style="stroke: #000000; stroke-width: 0.4"/>
      </g>
     </g>
    </g>
    <g id="xtick_53">
     <g id="line2d_53">
      <g>
       <use xlink:href="#m14f7b2dd28" x="507.66669" y="170.32" style="stroke: #000000; stroke-width: 0.4"/>
      </g>
     </g>
    </g>
    <g id="xtick_54">
     <g id="line2d_54">
      <g>
       <use xlink:href="#m14f7b2dd28" x="519.190295" y="170.32" style="stroke: #000000; stroke-width: 0.4"/>
      </g>
     </g>
    </g>
    <g id="xtick_55">
     <g id="line2d_55">
      <g>
       <use xlink:href="#m14f7b2dd28" x="530.713901" y="170.32" style="stroke: #000000; stroke-width: 0.4"/>
      </g>
     </g>
    </g>
    <g id="xtick_56">
     <g id="line2d_56">
      <g>
       <use xlink:href="#m14f7b2dd28" x="542.237507" y="170.32" style="stroke: #000000; stroke-width: 0.4"/>
      </g>
     </g>
    </g>
    <g id="xtick_57">
     <g id="line2d_57">
      <g>
       <use xlink:href="#m14f7b2dd28" x="553.761113" y="170.32" style="stroke: #000000; stroke-width: 0.4"/>
      </g>
     </g>
    </g>
    <g id="xtick_58">
     <g id="line2d_58">
      <g>
       <use xlink:href="#m14f7b2dd28" x="565.284718" y="170.32" style="stroke: #000000; stroke-width: 0.4"/>
      </g>
     </g>
    </g>
    <g id="xtick_59">
     <g id="line2d_59">
      <g>
       <use xlink:href="#m14f7b2dd28" x="576.808324" y="170.32" style="stroke: #000000; stroke-width: 0.4"/>
      </g>
     </g>
    </g>
    <g id="xtick_60">
     <g id="line2d_60">
      <g>
       <use xlink:href="#m14f7b2dd28" x="588.33193" y="170.32" style="stroke: #000000; stroke-width: 0.4"/>
      </g>
     </g>
    </g>
    <g id="xtick_61">
     <g id="line2d_61">
      <g>
       <use xlink:href="#m14f7b2dd28" x="599.855536" y="170.32" style="stroke: #000000; stroke-width: 0.4"/>
      </g>
     </g>
    </g>
    <g id="xtick_62">
     <g id="line2d_62">
      <g>
       <use xlink:href="#m14f7b2dd28" x="611.379141" y="170.32" style="stroke: #000000; stroke-width: 0.4"/>
      </g>
     </g>
    </g>
    <g id="xtick_63">
     <g id="line2d_63">
      <g>
       <use xlink:href="#m14f7b2dd28" x="622.902747" y="170.32" style="stroke: #000000; stroke-width: 0.4"/>
      </g>
     </g>
    </g>
    <g id="xtick_64">
     <g id="line2d_64">
      <g>
       <use xlink:href="#m14f7b2dd28" x="634.426353" y="170.32" style="stroke: #000000; stroke-width: 0.4"/>
      </g>
     </g>
    </g>
    <g id="text_13">
     <!-- Date -->
     <g transform="translate(332.527062 206.807375) scale(0.088 -0.088)">
      <use xlink:href="#DejaVuSans-44"/>
      <use xlink:href="#DejaVuSans-61" x="77.001953"/>
      <use xlink:href="#DejaVuSans-74" x="138.28125"/>
      <use xlink:href="#DejaVuSans-65" x="177.490234"/>
     </g>
    </g>
   </g>
   <g id="matplotlib.axis_2">
    <g id="ytick_1">
     <g id="line2d_65">
      <defs>
       <path id="macb2503659" d="M 0 0 
L -3.5 0 
" style="stroke: #000000; stroke-width: 0.8"/>
      </defs>
      <g>
       <use xlink:href="#macb2503659" x="43.43" y="170.32" style="stroke: #000000; stroke-width: 0.8"/>
      </g>
     </g>
     <g id="text_14">
      <!-- 0 -->
      <g transform="translate(29.24 173.359375) scale(0.08 -0.08)">
       <use xlink:href="#DejaVuSans-30"/>
      </g>
     </g>
    </g>
    <g id="ytick_2">
     <g id="line2d_66">
      <g>
       <use xlink:href="#macb2503659" x="43.43" y="149.868718" style="stroke: #000000; stroke-width: 0.8"/>
      </g>
     </g>
     <g id="text_15">
      <!-- 5 -->
      <g transform="translate(29.24 152.908093) scale(0.08 -0.08)">
       <defs>
        <path id="DejaVuSans-35" d="M 691 4666 
L 3169 4666 
L 3169 4134 
L 1269 4134 
L 1269 2991 
Q 1406 3038 1543 3061 
Q 1681 3084 1819 3084 
Q 2600 3084 3056 2656 
Q 3513 2228 3513 1497 
Q 3513 744 3044 326 
Q 2575 -91 1722 -91 
Q 1428 -91 1123 -41 
Q 819 9 494 109 
L 494 744 
Q 775 591 1075 516 
Q 1375 441 1709 441 
Q 2250 441 2565 725 
Q 2881 1009 2881 1497 
Q 2881 1984 2565 2268 
Q 2250 2553 1709 2553 
Q 1456 2553 1204 2497 
Q 953 2441 691 2322 
L 691 4666 
z
" transform="scale(0.015625)"/>
       </defs>
       <use xlink:href="#DejaVuSans-35"/>
      </g>
     </g>
    </g>
    <g id="ytick_3">
     <g id="line2d_67">
      <g>
       <use xlink:href="#macb2503659" x="43.43" y="129.417436" style="stroke: #000000; stroke-width: 0.8"/>
      </g>
     </g>
     <g id="text_16">
      <!-- 10 -->
      <g transform="translate(24.15 132.456811) scale(0.08 -0.08)">
       <defs>
        <path id="DejaVuSans-31" d="M 794 531 
L 1825 531 
L 1825 4091 
L 703 3866 
L 703 4441 
L 1819 4666 
L 2450 4666 
L 2450 531 
L 3481 531 
L 3481 0 
L 794 0 
L 794 531 
z
" transform="scale(0.015625)"/>
       </defs>
       <use xlink:href="#DejaVuSans-31"/>
       <use xlink:href="#DejaVuSans-30" x="63.623047"/>
      </g>
     </g>
    </g>
    <g id="ytick_4">
     <g id="line2d_68">
      <g>
       <use xlink:href="#macb2503659" x="43.43" y="108.966154" style="stroke: #000000; stroke-width: 0.8"/>
      </g>
     </g>
     <g id="text_17">
      <!-- 15 -->
      <g transform="translate(24.15 112.005529) scale(0.08 -0.08)">
       <use xlink:href="#DejaVuSans-31"/>
       <use xlink:href="#DejaVuSans-35" x="63.623047"/>
      </g>
     </g>
    </g>
    <g id="ytick_5">
     <g id="line2d_69">
      <g>
       <use xlink:href="#macb2503659" x="43.43" y="88.514872" style="stroke: #000000; stroke-width: 0.8"/>
      </g>
     </g>
     <g id="text_18">
      <!-- 20 -->
      <g transform="translate(24.15 91.554247) scale(0.08 -0.08)">
       <use xlink:href="#DejaVuSans-32"/>
       <use xlink:href="#DejaVuSans-30" x="63.623047"/>
      </g>
     </g>
    </g>
    <g id="ytick_6">
     <g id="line2d_70">
      <g>
       <use xlink:href="#macb2503659" x="43.43" y="68.06359" style="stroke: #000000; stroke-width: 0.8"/>
      </g>
     </g>
     <g id="text_19">
      <!-- 25 -->
      <g transform="translate(24.15 71.102965) scale(0.08 -0.08)">
       <use xlink:href="#DejaVuSans-32"/>
       <use xlink:href="#DejaVuSans-35" x="63.623047"/>
      </g>
     </g>
    </g>
    <g id="ytick_7">
     <g id="line2d_71">
      <g>
       <use xlink:href="#macb2503659" x="43.43" y="47.612308" style="stroke: #000000; stroke-width: 0.8"/>
      </g>
     </g>
     <g id="text_20">
      <!-- 30 -->
      <g transform="translate(24.15 50.651683) scale(0.08 -0.08)">
       <defs>
        <path id="DejaVuSans-33" d="M 2597 2516 
Q 3050 2419 3304 2112 
Q 3559 1806 3559 1356 
Q 3559 666 3084 287 
Q 2609 -91 1734 -91 
Q 1441 -91 1130 -33 
Q 819 25 488 141 
L 488 750 
Q 750 597 1062 519 
Q 1375 441 1716 441 
Q 2309 441 2620 675 
Q 2931 909 2931 1356 
Q 2931 1769 2642 2001 
Q 2353 2234 1838 2234 
L 1294 2234 
L 1294 2753 
L 1863 2753 
Q 2328 2753 2575 2939 
Q 2822 3125 2822 3475 
Q 2822 3834 2567 4026 
Q 2313 4219 1838 4219 
Q 1578 4219 1281 4162 
Q 984 4106 628 3988 
L 628 4550 
Q 988 4650 1302 4700 
Q 1616 4750 1894 4750 
Q 2613 4750 3031 4423 
Q 3450 4097 3450 3541 
Q 3450 3153 3228 2886 
Q 3006 2619 2597 2516 
z
" transform="scale(0.015625)"/>
       </defs>
       <use xlink:href="#DejaVuSans-33"/>
       <use xlink:href="#DejaVuSans-30" x="63.623047"/>
      </g>
     </g>
    </g>
    <g id="ytick_8">
     <g id="line2d_72">
      <g>
       <use xlink:href="#macb2503659" x="43.43" y="27.161026" style="stroke: #000000; stroke-width: 0.8"/>
      </g>
     </g>
     <g id="text_21">
      <!-- 35 -->
      <g transform="translate(24.15 30.200401) scale(0.08 -0.08)">
       <use xlink:href="#DejaVuSans-33"/>
       <use xlink:href="#DejaVuSans-35" x="63.623047"/>
      </g>
     </g>
    </g>
    <g id="text_22">
     <!-- Energy in MW -->
     <g transform="translate(18.319875 120.92) rotate(-90) scale(0.088 -0.088)">
      <defs>
       <path id="DejaVuSans-45" d="M 628 4666 
L 3578 4666 
L 3578 4134 
L 1259 4134 
L 1259 2753 
L 3481 2753 
L 3481 2222 
L 1259 2222 
L 1259 531 
L 3634 531 
L 3634 0 
L 628 0 
L 628 4666 
z
" transform="scale(0.015625)"/>
       <path id="DejaVuSans-20" transform="scale(0.015625)"/>
       <path id="DejaVuSans-69" d="M 603 3500 
L 1178 3500 
L 1178 0 
L 603 0 
L 603 3500 
z
M 603 4863 
L 1178 4863 
L 1178 4134 
L 603 4134 
L 603 4863 
z
" transform="scale(0.015625)"/>
       <path id="DejaVuSans-57" d="M 213 4666 
L 850 4666 
L 1831 722 
L 2809 4666 
L 3519 4666 
L 4500 722 
L 5478 4666 
L 6119 4666 
L 4947 0 
L 4153 0 
L 3169 4050 
L 2175 0 
L 1381 0 
L 213 4666 
z
" transform="scale(0.015625)"/>
      </defs>
      <use xlink:href="#DejaVuSans-45"/>
      <use xlink:href="#DejaVuSans-6e" x="63.183594"/>
      <use xlink:href="#DejaVuSans-65" x="126.5625"/>
      <use xlink:href="#DejaVuSans-72" x="188.085938"/>
      <use xlink:href="#DejaVuSans-67" x="227.449219"/>
      <use xlink:href="#DejaVuSans-79" x="290.925781"/>
      <use xlink:href="#DejaVuSans-20" x="350.105469"/>
      <use xlink:href="#DejaVuSans-69" x="381.892578"/>
      <use xlink:href="#DejaVuSans-6e" x="409.675781"/>
      <use xlink:href="#DejaVuSans-20" x="473.054688"/>
      <use xlink:href="#DejaVuSans-4d" x="504.841797"/>
      <use xlink:href="#DejaVuSans-57" x="591.121094"/>
     </g>
    </g>
   </g>
   <g id="line2d_73">
    <path d="M 43.43 131.068848 
L 45.076229 126.805772 
L 46.722459 131.031016 
L 48.368688 133.641733 
L 50.014918 110.218291 
L 51.661147 90.566078 
L 53.307376 78.194926 
L 54.953606 80.016251 
L 56.599835 84.828259 
L 58.246065 79.670283 
L 59.892294 77.610192 
L 61.538523 67.794139 
L 63.184753 62.971095 
L 64.830982 66.54264 
L 66.477212 73.201739 
L 68.123441 78.513271 
L 69.76967 82.81356 
L 71.4159 84.727908 
L 73.062129 83.908372 
L 74.708359 82.747027 
L 76.354588 75.650447 
L 78.000817 82.116119 
L 79.647047 85.483171 
L 81.293276 78.577921 
L 82.939505 74.043797 
L 84.585735 73.754823 
L 86.231964 77.54382 
L 87.878194 84.423986 
L 89.524423 98.246973 
L 91.170652 104.511876 
L 92.816882 91.855006 
L 94.463111 86.523402 
L 96.109341 93.923177 
L 97.75557 99.740828 
L 99.401799 103.317138 
L 101.048029 102.6406 
L 102.694258 104.027283 
L 104.340488 90.961439 
L 105.986717 95.545072 
L 109.279176 101.643246 
L 110.925405 99.431418 
L 112.571635 91.698742 
L 114.217864 90.991461 
L 115.864093 91.211458 
L 117.510323 95.853402 
L 119.156552 105.271441 
L 120.802782 125.388453 
L 122.449011 132.55339 
L 124.09524 124.223407 
L 125.74147 123.988601 
L 127.387699 115.670549 
L 129.033929 109.17692 
L 130.680158 111.371701 
L 132.326387 111.797903 
L 133.972617 101.339459 
L 135.618846 95.944082 
L 137.265076 88.553619 
L 138.911305 78.735808 
L 140.557534 75.571231 
L 142.203764 74.793047 
L 143.849993 76.739244 
L 145.496223 75.389689 
L 147.142452 79.362549 
L 148.788681 77.848382 
L 150.434911 68.348956 
L 152.08114 70.731217 
L 153.72737 78.223106 
L 155.373599 88.486561 
L 157.019828 91.245163 
L 158.666058 99.524823 
L 160.312287 105.65662 
L 161.958516 113.10484 
L 163.604746 117.281489 
L 165.250975 119.746775 
L 166.897205 118.059254 
L 168.543434 117.713266 
L 170.189663 115.307601 
L 171.835893 117.35994 
L 173.482122 111.608934 
L 175.128352 114.192598 
L 176.774581 119.482368 
L 178.42081 124.132575 
L 180.06704 129.874857 
L 181.713269 133.974674 
L 183.359499 135.831999 
L 185.005728 136.572151 
L 186.651957 139.640446 
L 188.298187 136.601169 
L 189.944416 128.419414 
L 193.236875 92.760407 
L 194.883104 82.615166 
L 196.529334 79.511581 
L 198.175563 97.722491 
L 199.821793 125.551856 
L 201.468022 137.802639 
L 203.114251 136.028972 
L 204.760481 124.114829 
L 206.40671 110.111355 
L 208.05294 107.080717 
L 209.699169 123.831907 
L 211.345398 138.819358 
L 212.991628 148.601478 
L 214.637857 150.295609 
L 216.284087 139.506444 
L 217.930316 125.737094 
L 219.576545 119.629098 
L 221.222775 121.20576 
L 222.869004 118.614163 
L 227.807692 137.082985 
L 229.453922 138.244282 
L 231.100151 137.426561 
L 232.74638 131.896934 
L 234.39261 128.809618 
L 236.038839 131.275844 
L 237.685069 136.723651 
L 239.331298 138.300258 
L 240.977527 138.510013 
L 242.623757 139.946411 
L 244.269986 145.997555 
L 245.916216 149.126177 
L 247.562445 151.179415 
L 249.208674 149.888458 
L 250.854904 149.382629 
L 252.501133 150.293035 
L 254.147363 152.432399 
L 255.793592 155.718516 
L 257.439821 159.792739 
L 259.086051 161.176136 
L 260.73228 160.00637 
L 262.37851 159.493698 
L 264.024739 159.538676 
L 265.670968 158.057734 
L 267.317198 158.964 
L 268.963427 159.401325 
L 270.609657 160.85348 
L 272.255886 162.542247 
L 273.902115 161.947466 
L 275.548345 160.703474 
L 277.194574 159.682462 
L 278.840804 156.705676 
L 280.487033 154.542767 
L 282.133262 154.842883 
L 283.779492 155.835352 
L 285.425721 152.759833 
L 287.071951 144.231703 
L 288.71818 141.439641 
L 292.010639 152.738643 
L 295.303098 159.658364 
L 296.949327 161.608698 
L 298.595556 161.484378 
L 300.241786 160.838815 
L 301.888015 158.754216 
L 303.534245 158.784417 
L 305.180474 155.876513 
L 306.826703 156.073296 
L 308.472933 159.225828 
L 310.119162 161.519637 
L 311.765391 160.511892 
L 313.411621 159.933559 
L 315.05785 161.219449 
L 316.70408 161.842673 
L 318.350309 161.770499 
L 319.996538 163.057641 
L 321.642768 163.641169 
L 323.288997 163.091767 
L 324.935227 162.353935 
L 326.581456 161.845217 
L 328.227685 162.212275 
L 329.873915 161.65429 
L 331.520144 161.85867 
L 333.166374 162.674837 
L 334.812603 162.541557 
L 336.458832 161.784856 
L 338.105062 161.667074 
L 339.751291 162.193711 
L 341.397521 159.726182 
L 343.04375 159.515944 
L 344.689979 162.045584 
L 346.336209 161.814174 
L 347.982438 161.940853 
L 349.628668 161.701887 
L 352.921126 156.976296 
L 354.567356 158.712426 
L 356.213585 158.030867 
L 357.859815 157.104778 
L 359.506044 158.870465 
L 361.152273 161.401707 
L 362.798503 162.88011 
L 366.090962 162.524269 
L 367.737191 162.149453 
L 369.38342 162.035068 
L 371.02965 162.836394 
L 372.675879 163.375893 
L 374.322109 163.136734 
L 379.260797 163.60695 
L 380.907026 163.344906 
L 382.553255 162.903485 
L 384.199485 162.579938 
L 385.845714 162.423931 
L 392.430632 162.549079 
L 394.076861 162.525685 
L 395.723091 162.993895 
L 399.015549 163.437502 
L 400.661779 163.00918 
L 403.954238 161.105904 
L 405.600467 161.300333 
L 407.246696 161.740581 
L 408.892926 161.999341 
L 410.539155 161.623526 
L 412.185385 161.964676 
L 413.831614 162.643865 
L 415.477843 162.318012 
L 417.124073 162.537007 
L 418.770302 163.006593 
L 420.416532 162.651693 
L 423.70899 161.027435 
L 425.35522 160.891239 
L 427.001449 159.970501 
L 428.647679 160.043837 
L 430.293908 160.530126 
L 431.940137 161.538023 
L 433.586367 162.221835 
L 435.232596 162.208526 
L 436.878826 161.622253 
L 438.525055 160.880893 
L 440.171284 161.172656 
L 443.463743 157.78025 
L 445.109973 156.791136 
L 448.402431 158.969345 
L 453.34112 161.585743 
L 454.987349 160.422957 
L 456.633578 158.078832 
L 458.279808 156.897551 
L 459.926037 154.948756 
L 461.572266 153.607476 
L 464.864725 159.645323 
L 466.510955 158.989724 
L 468.157184 153.489243 
L 469.803413 145.192479 
L 471.449643 138.907007 
L 473.095872 133.578525 
L 474.742102 132.131855 
L 476.388331 128.368382 
L 478.03456 127.527064 
L 479.68079 132.865778 
L 481.327019 141.752829 
L 482.973249 145.85959 
L 484.619478 145.140096 
L 486.265707 139.781886 
L 487.911937 133.395434 
L 489.558166 128.07612 
L 491.204396 131.019994 
L 492.850625 136.753154 
L 494.496854 143.186904 
L 496.143084 140.493322 
L 497.789313 135.824939 
L 499.435543 142.042233 
L 501.081772 146.553251 
L 502.728001 146.582217 
L 504.374231 148.345372 
L 506.02046 143.204009 
L 507.66669 144.021977 
L 509.312919 147.342305 
L 510.959148 147.629538 
L 512.605378 146.440664 
L 514.251607 149.151508 
L 515.897837 153.641619 
L 517.544066 156.093251 
L 519.190295 154.423594 
L 520.836525 153.988144 
L 522.482754 152.056393 
L 524.128984 147.201931 
L 525.775213 148.302051 
L 527.421442 149.900489 
L 529.067672 150.562261 
L 530.713901 150.279048 
L 532.36013 148.060847 
L 534.00636 148.774994 
L 535.652589 148.628487 
L 537.298819 150.372761 
L 538.945048 153.017393 
L 540.591277 152.83244 
L 542.237507 147.794152 
L 543.883736 145.51222 
L 545.529966 140.956651 
L 547.176195 132.634479 
L 548.822424 126.947836 
L 550.468654 124.651476 
L 552.114883 119.38446 
L 553.761113 124.713106 
L 555.407342 121.782681 
L 557.053571 125.680594 
L 558.699801 128.376991 
L 560.34603 116.50736 
L 561.99226 112.091721 
L 563.638489 113.304595 
L 565.284718 113.135715 
L 566.930948 112.45024 
L 568.577177 112.779278 
L 570.223407 114.522763 
L 571.869636 116.439203 
L 573.515865 116.963359 
L 575.162095 113.052396 
L 576.808324 103.390469 
L 578.454554 98.740366 
L 580.100783 99.366362 
L 581.747012 104.493789 
L 583.393242 101.534572 
L 585.039471 107.698555 
L 586.685701 95.907039 
L 588.33193 89.42092 
L 589.978159 93.984765 
L 591.624389 90.250593 
L 593.270618 88.401782 
L 594.916848 86.188085 
L 596.563077 85.324225 
L 598.209306 86.507049 
L 599.855536 82.5156 
L 601.501765 83.510926 
L 603.147995 83.463134 
L 604.794224 75.995209 
L 606.440453 74.049492 
L 608.086683 78.717059 
L 609.732912 68.748991 
L 611.379141 53.708426 
L 613.025371 46.781537 
L 614.6716 53.323583 
L 616.31783 58.841004 
L 617.964059 63.175654 
L 619.610288 60.967712 
L 621.256518 56.289364 
L 622.902747 53.19847 
L 624.548977 61.536943 
L 626.195206 78.662632 
L 627.841435 101.970719 
L 629.487665 123.152192 
L 631.133894 131.719061 
L 632.780124 129.823845 
L 634.426353 126.096346 
L 636.072582 109.417881 
L 637.718812 97.472528 
L 639.365041 103.682048 
L 641.011271 110.697384 
L 642.6575 132.951906 
L 642.6575 132.951906 
" clip-path="url(#pb88ae02e67)" style="fill: none"/>
   </g>
   <g id="line2d_74">
    <path d="M 43.43 119.027167 
L 45.076229 113.456241 
L 46.722459 118.977728 
L 48.368688 122.389376 
L 50.014918 91.779962 
L 51.661147 66.098737 
L 53.307376 49.932296 
L 54.953606 52.312377 
L 56.599835 58.600639 
L 58.246065 51.860271 
L 59.892294 49.168174 
L 61.538523 36.340699 
L 63.184753 30.038016 
L 64.830982 34.705258 
L 66.477212 43.407272 
L 68.123441 50.348304 
L 69.76967 55.96786 
L 71.4159 58.469501 
L 73.062129 57.398544 
L 74.708359 55.880915 
L 76.354588 46.607208 
L 78.000817 55.056454 
L 79.647047 59.456469 
L 81.293276 50.432788 
L 82.939505 44.50766 
L 84.585735 44.130034 
L 86.231964 49.08144 
L 87.878194 58.07234 
L 89.524423 76.136019 
L 91.170652 84.322902 
L 92.816882 67.783089 
L 94.463111 60.815826 
L 96.109341 70.485745 
L 97.75557 78.088167 
L 99.401799 82.761637 
L 101.048029 81.877546 
L 102.694258 83.689643 
L 104.340488 66.615389 
L 105.986717 72.605214 
L 109.279176 80.574219 
L 110.925405 77.683834 
L 112.571635 67.578886 
L 114.217864 66.654621 
L 115.864093 66.942111 
L 117.510323 73.008134 
L 119.156552 85.315491 
L 120.802782 111.60411 
L 122.449011 120.967144 
L 124.09524 110.081644 
L 125.74147 109.774803 
L 127.387699 98.904894 
L 129.033929 90.419115 
L 130.680158 93.287222 
L 132.326387 93.844176 
L 133.972617 80.177234 
L 135.618846 73.126634 
L 137.265076 63.468886 
L 138.911305 50.639112 
L 140.557534 46.503689 
L 142.203764 45.48677 
L 143.849993 48.030032 
L 145.496223 46.266452 
L 147.142452 51.458128 
L 148.788681 49.479438 
L 150.434911 37.065725 
L 152.08114 40.17883 
L 153.72737 49.969121 
L 155.373599 63.381254 
L 157.019828 66.986155 
L 158.666058 77.805895 
L 160.312287 85.818838 
L 161.958516 95.552063 
L 163.604746 101.010047 
L 165.250975 104.231646 
L 166.897205 102.026419 
L 168.543434 101.574286 
L 170.189663 98.430599 
L 171.835893 101.112565 
L 173.482122 93.597235 
L 175.128352 96.973529 
L 176.774581 103.886124 
L 178.42081 109.962946 
L 180.06704 117.466877 
L 181.713269 122.824457 
L 183.359499 125.251582 
L 185.005728 126.218803 
L 186.651957 130.228405 
L 188.298187 126.256723 
L 189.944416 115.564924 
L 193.236875 68.966254 
L 194.883104 55.708601 
L 196.529334 51.652882 
L 198.175563 75.450634 
L 199.821793 111.817642 
L 201.468022 127.826786 
L 203.114251 125.508985 
L 204.760481 109.939756 
L 206.40671 91.64022 
L 208.05294 87.679827 
L 209.699169 109.570037 
L 211.345398 129.15542 
L 212.991628 141.938552 
L 214.637857 144.152417 
L 216.284087 130.053294 
L 217.930316 112.059708 
L 219.576545 104.077868 
L 221.222775 106.138226 
L 222.869004 102.751566 
L 227.807692 126.886353 
L 229.453922 128.403919 
L 231.100151 127.335333 
L 232.74638 120.109298 
L 234.39261 116.074838 
L 236.038839 119.297666 
L 237.685069 126.41678 
L 239.331298 128.477068 
L 240.977527 128.751172 
L 242.623757 130.628236 
L 244.269986 138.535783 
L 245.916216 142.624221 
L 247.562445 145.307362 
L 249.208674 143.620358 
L 250.854904 142.959349 
L 252.501133 144.149053 
L 254.147363 146.944744 
L 255.793592 151.238993 
L 257.439821 156.563129 
L 259.086051 158.370931 
L 260.73228 156.842298 
L 262.37851 156.172346 
L 264.024739 156.231123 
L 265.670968 154.29585 
L 267.317198 155.480144 
L 268.963427 156.051635 
L 270.609657 157.94929 
L 272.255886 160.156146 
L 273.902115 159.378894 
L 275.548345 157.753264 
L 277.194574 156.419021 
L 278.840804 152.529 
L 280.487033 149.702542 
L 282.133262 150.094729 
L 283.779492 151.391672 
L 285.425721 147.37263 
L 287.071951 136.228194 
L 288.71818 132.579568 
L 292.010639 147.344939 
L 295.303098 156.387529 
L 296.949327 158.936197 
L 298.595556 158.773739 
L 300.241786 157.930126 
L 301.888015 155.206002 
L 303.534245 155.245468 
L 305.180474 151.445462 
L 306.826703 151.702615 
L 308.472933 155.822297 
L 310.119162 158.819814 
L 311.765391 157.502907 
L 313.411621 156.747151 
L 315.05785 158.427533 
L 316.70408 159.241953 
L 318.350309 159.147637 
L 319.996538 160.829655 
L 321.642768 161.592201 
L 323.288997 160.87425 
L 324.935227 159.910062 
L 326.581456 159.245277 
L 328.227685 159.724943 
L 329.873915 158.995776 
L 331.520144 159.262857 
L 333.166374 160.329412 
L 334.812603 160.155244 
L 336.458832 159.166398 
L 338.105062 159.012482 
L 339.751291 159.700684 
L 341.397521 156.476152 
L 343.04375 156.201417 
L 344.689979 159.507114 
L 346.336209 159.204711 
L 347.982438 159.370253 
L 349.628668 159.057976 
L 352.921126 152.882642 
L 354.567356 155.151392 
L 356.213585 154.26074 
L 357.859815 153.050541 
L 359.506044 155.357915 
L 361.152273 158.665704 
L 362.798503 160.59766 
L 366.090962 160.132653 
L 367.737191 159.642849 
L 369.38342 159.493372 
L 371.02965 160.540532 
L 372.675879 161.245543 
L 374.322109 160.933012 
L 377.614567 161.543512 
L 379.260797 161.547484 
L 380.907026 161.205049 
L 382.553255 160.628206 
L 384.199485 160.2054 
L 385.845714 160.001532 
L 389.138173 160.166757 
L 390.784402 160.329365 
L 392.430632 160.165074 
L 394.076861 160.134503 
L 395.723091 160.746353 
L 397.36932 161.097788 
L 399.015549 161.326051 
L 400.661779 160.766327 
L 403.954238 158.279153 
L 405.600467 158.53323 
L 407.246696 159.10854 
L 408.892926 159.446684 
L 410.539155 158.955574 
L 412.185385 159.401384 
L 413.831614 160.288939 
L 415.477843 159.863119 
L 417.124073 160.149298 
L 418.770302 160.762946 
L 420.416532 160.299169 
L 423.70899 158.176612 
L 425.35522 157.998632 
L 427.001449 156.795426 
L 428.647679 156.89126 
L 430.293908 157.526735 
L 431.940137 158.84384 
L 433.586367 159.737436 
L 435.232596 159.720043 
L 436.878826 158.953911 
L 438.525055 157.985113 
L 440.171284 158.366384 
L 443.463743 153.933238 
L 445.109973 152.640677 
L 448.402431 155.487129 
L 453.34112 158.9062 
L 454.987349 157.386688 
L 456.633578 154.32342 
L 458.279808 152.779739 
L 459.926037 150.233082 
L 461.572266 148.480317 
L 464.864725 156.370488 
L 466.510955 155.51376 
L 468.157184 148.325812 
L 469.803413 137.483722 
L 471.449643 129.269958 
L 473.095872 122.306775 
L 474.742102 120.416288 
L 476.388331 115.498237 
L 478.03456 114.398815 
L 479.68079 121.375368 
L 481.327019 132.988838 
L 482.973249 138.355493 
L 484.619478 137.415269 
L 486.265707 130.413237 
L 487.911937 122.067515 
L 489.558166 115.116313 
L 491.204396 118.963325 
L 492.850625 126.455335 
L 494.496854 134.862865 
L 496.143084 131.342932 
L 497.789313 125.242357 
L 499.435543 133.367026 
L 501.081772 139.261959 
L 502.728001 139.299811 
L 504.374231 141.603876 
L 506.02046 134.885218 
L 507.66669 135.954127 
L 509.312919 140.293083 
L 510.959148 140.668435 
L 512.605378 139.114831 
L 514.251607 142.657323 
L 515.897837 148.524934 
L 517.544066 151.728692 
L 519.190295 149.546809 
L 520.836525 148.977769 
L 522.482754 146.453385 
L 524.128984 140.109644 
L 525.775213 141.547266 
L 527.421442 143.636081 
L 529.067672 144.500875 
L 530.713901 144.130776 
L 532.36013 141.232063 
L 534.00636 142.1653 
L 535.652589 141.973847 
L 537.298819 144.253239 
L 538.945048 147.709205 
L 540.591277 147.467511 
L 542.237507 140.88355 
L 543.883736 137.901555 
L 545.529966 131.948403 
L 547.176195 121.073111 
L 548.822424 113.641888 
L 550.468654 110.641038 
L 552.114883 103.758178 
L 553.761113 110.721575 
L 555.407342 106.892139 
L 557.053571 111.985875 
L 558.699801 115.509488 
L 560.34603 99.998427 
L 561.99226 94.228133 
L 563.638489 95.8131 
L 565.284718 95.592409 
L 566.930948 94.696641 
L 568.577177 95.126624 
L 570.223407 97.404983 
L 571.869636 99.90936 
L 573.515865 100.59432 
L 575.162095 95.48353 
L 576.808324 82.857464 
L 578.454554 76.780777 
L 580.100783 77.59882 
L 581.747012 84.299267 
L 583.393242 80.432205 
L 585.039471 88.487208 
L 586.685701 73.078227 
L 588.33193 64.602262 
L 589.978159 70.566227 
L 591.624389 65.686466 
L 593.270618 63.270467 
L 594.916848 60.37764 
L 596.563077 59.24876 
L 598.209306 60.794457 
L 599.855536 55.57849 
L 601.501765 56.879168 
L 603.147995 56.816713 
L 604.794224 47.057738 
L 606.440453 44.515103 
L 608.086683 50.614612 
L 609.732912 37.588486 
L 611.379141 17.933695 
L 613.025371 8.881737 
L 614.6716 17.430787 
L 616.31783 24.640872 
L 617.964059 30.30533 
L 619.610288 27.420023 
L 621.256518 21.306426 
L 622.902747 17.267292 
L 624.548977 28.163886 
L 626.195206 50.543488 
L 627.841435 81.002155 
L 629.487665 108.681796 
L 631.133894 119.876856 
L 632.780124 117.400215 
L 634.426353 112.529174 
L 636.072582 90.733999 
L 637.718812 75.123985 
L 639.365041 83.238495 
L 641.011271 92.406034 
L 642.6575 121.487919 
L 642.6575 121.487919 
" clip-path="url(#pb88ae02e67)" style="fill: none"/>
   </g>
   <g id="patch_3">
    <path d="M 43.43 170.32 
L 43.43 10.8 
" style="fill: none; stroke: #000000; stroke-width: 0.8; stroke-linejoin: miter; stroke-linecap: square"/>
   </g>
   <g id="patch_4">
    <path d="M 642.6575 170.32 
L 642.6575 10.8 
" style="fill: none; stroke: #000000; stroke-width: 0.8; stroke-linejoin: miter; stroke-linecap: square"/>
   </g>
   <g id="patch_5">
    <path d="M 43.43 170.32 
L 642.6575 170.32 
" style="fill: none; stroke: #000000; stroke-width: 0.8; stroke-linejoin: miter; stroke-linecap: square"/>
   </g>
   <g id="patch_6">
    <path d="M 43.43 10.8 
L 642.6575 10.8 
" style="fill: none; stroke: #000000; stroke-width: 0.8; stroke-linejoin: miter; stroke-linecap: square"/>
   </g>
   <g id="legend_1">
    <g id="patch_7">
     <path d="M 228.6075 246.08 
L 457.48 246.08 
Q 459.08 246.08 459.08 244.48 
L 459.08 233.5375 
Q 459.08 231.9375 457.48 231.9375 
L 228.6075 231.9375 
Q 227.0075 231.9375 227.0075 233.5375 
L 227.0075 244.48 
Q 227.0075 246.08 228.6075 246.08 
z
" style="fill: #ffffff; opacity: 0.8; stroke: #cccccc; stroke-width: 0.24; stroke-linejoin: miter"/>
    </g>
    <g id="patch_8">
     <path d="M 230.2075 241.21625 
L 246.2075 241.21625 
L 246.2075 235.61625 
L 230.2075 235.61625 
z
" style="fill: #0f1b5f; fill-opacity: 0.8"/>
    </g>
    <g id="text_23">
     <!-- dec ground heat pump -->
     <g transform="translate(252.6075 241.21625) scale(0.08 -0.08)">
      <defs>
       <path id="DejaVuSans-64" d="M 2906 2969 
L 2906 4863 
L 3481 4863 
L 3481 0 
L 2906 0 
L 2906 525 
Q 2725 213 2448 61 
Q 2172 -91 1784 -91 
Q 1150 -91 751 415 
Q 353 922 353 1747 
Q 353 2572 751 3078 
Q 1150 3584 1784 3584 
Q 2172 3584 2448 3432 
Q 2725 3281 2906 2969 
z
M 947 1747 
Q 947 1113 1208 752 
Q 1469 391 1925 391 
Q 2381 391 2643 752 
Q 2906 1113 2906 1747 
Q 2906 2381 2643 2742 
Q 2381 3103 1925 3103 
Q 1469 3103 1208 2742 
Q 947 2381 947 1747 
z
" transform="scale(0.015625)"/>
       <path id="DejaVuSans-68" d="M 3513 2113 
L 3513 0 
L 2938 0 
L 2938 2094 
Q 2938 2591 2744 2837 
Q 2550 3084 2163 3084 
Q 1697 3084 1428 2787 
Q 1159 2491 1159 1978 
L 1159 0 
L 581 0 
L 581 4863 
L 1159 4863 
L 1159 2956 
Q 1366 3272 1645 3428 
Q 1925 3584 2291 3584 
Q 2894 3584 3203 3211 
Q 3513 2838 3513 2113 
z
" transform="scale(0.015625)"/>
       <path id="DejaVuSans-6d" d="M 3328 2828 
Q 3544 3216 3844 3400 
Q 4144 3584 4550 3584 
Q 5097 3584 5394 3201 
Q 5691 2819 5691 2113 
L 5691 0 
L 5113 0 
L 5113 2094 
Q 5113 2597 4934 2840 
Q 4756 3084 4391 3084 
Q 3944 3084 3684 2787 
Q 3425 2491 3425 1978 
L 3425 0 
L 2847 0 
L 2847 2094 
Q 2847 2600 2669 2842 
Q 2491 3084 2119 3084 
Q 1678 3084 1418 2786 
Q 1159 2488 1159 1978 
L 1159 0 
L 581 0 
L 581 3500 
L 1159 3500 
L 1159 2956 
Q 1356 3278 1631 3431 
Q 1906 3584 2284 3584 
Q 2666 3584 2933 3390 
Q 3200 3197 3328 2828 
z
" transform="scale(0.015625)"/>
      </defs>
      <use xlink:href="#DejaVuSans-64"/>
      <use xlink:href="#DejaVuSans-65" x="63.476562"/>
      <use xlink:href="#DejaVuSans-63" x="125"/>
      <use xlink:href="#DejaVuSans-20" x="179.980469"/>
      <use xlink:href="#DejaVuSans-67" x="211.767578"/>
      <use xlink:href="#DejaVuSans-72" x="275.244141"/>
      <use xlink:href="#DejaVuSans-6f" x="314.107422"/>
      <use xlink:href="#DejaVuSans-75" x="375.289062"/>
      <use xlink:href="#DejaVuSans-6e" x="438.667969"/>
      <use xlink:href="#DejaVuSans-64" x="502.046875"/>
      <use xlink:href="#DejaVuSans-20" x="565.523438"/>
      <use xlink:href="#DejaVuSans-68" x="597.310547"/>
      <use xlink:href="#DejaVuSans-65" x="660.689453"/>
      <use xlink:href="#DejaVuSans-61" x="722.212891"/>
      <use xlink:href="#DejaVuSans-74" x="783.492188"/>
      <use xlink:href="#DejaVuSans-20" x="822.701172"/>
      <use xlink:href="#DejaVuSans-70" x="854.488281"/>
      <use xlink:href="#DejaVuSans-75" x="917.964844"/>
      <use xlink:href="#DejaVuSans-6d" x="981.34375"/>
      <use xlink:href="#DejaVuSans-70" x="1078.755859"/>
     </g>
    </g>
    <g id="patch_9">
     <path d="M 359.9875 241.21625 
L 375.9875 241.21625 
L 375.9875 235.61625 
L 359.9875 235.61625 
z
" style="fill: #005293; fill-opacity: 0.8"/>
    </g>
    <g id="text_24">
     <!-- dec air heat pump -->
     <g transform="translate(382.3875 241.21625) scale(0.08 -0.08)">
      <use xlink:href="#DejaVuSans-64"/>
      <use xlink:href="#DejaVuSans-65" x="63.476562"/>
      <use xlink:href="#DejaVuSans-63" x="125"/>
      <use xlink:href="#DejaVuSans-20" x="179.980469"/>
      <use xlink:href="#DejaVuSans-61" x="211.767578"/>
      <use xlink:href="#DejaVuSans-69" x="273.046875"/>
      <use xlink:href="#DejaVuSans-72" x="300.830078"/>
      <use xlink:href="#DejaVuSans-20" x="341.943359"/>
      <use xlink:href="#DejaVuSans-68" x="373.730469"/>
      <use xlink:href="#DejaVuSans-65" x="437.109375"/>
      <use xlink:href="#DejaVuSans-61" x="498.632812"/>
      <use xlink:href="#DejaVuSans-74" x="559.912109"/>
      <use xlink:href="#DejaVuSans-20" x="599.121094"/>
      <use xlink:href="#DejaVuSans-70" x="630.908203"/>
      <use xlink:href="#DejaVuSans-75" x="694.384766"/>
      <use xlink:href="#DejaVuSans-6d" x="757.763672"/>
      <use xlink:href="#DejaVuSans-70" x="855.175781"/>
     </g>
    </g>
   </g>
  </g>
  <g id="axes_2">
   <g id="patch_10">
    <path d="M 753.32875 26.752 
C 746.925151 26.752 740.557881 27.715972 734.441251 29.61147 
C 728.324621 31.506969 722.528033 34.312487 717.246588 37.933595 
C 711.965144 41.554704 707.25877 45.950316 703.285874 50.972484 
C 699.312977 55.994653 696.118637 61.586393 693.810369 67.559497 
C 691.5021 73.532602 690.106094 79.819296 689.669337 86.207984 
C 689.232581 92.596671 689.760029 99.014861 691.23393 105.24653 
C 692.70783 111.478199 695.111459 117.452638 698.363915 122.968761 
C 701.616371 128.484884 705.68075 133.480101 710.420253 137.786282 
C 715.159755 142.092463 720.520604 145.660749 726.322364 148.371037 
C 732.124124 151.081325 738.300965 152.902863 744.644986 153.774343 
C 750.989007 154.645822 757.428226 154.557353 763.745911 153.511915 
C 770.063595 152.466477 776.188062 150.475931 781.913173 147.607275 
C 787.638284 144.73862 792.899079 141.024404 797.518489 136.58964 
C 802.1379 132.154877 806.063512 127.049886 809.163197 121.446491 
C 812.262883 115.843097 814.50147 109.804877 815.803613 103.535068 
C 817.105756 97.265259 817.456679 90.835002 816.844572 84.460725 
L 753.32875 90.56 
z
" style="fill: #0f1b5f; opacity: 0.8"/>
   </g>
   <g id="patch_11">
    <path d="M 816.844572 84.460725 
C 815.328328 68.67106 807.977429 54.000524 796.23725 43.33372 
C 784.49707 32.666916 769.191055 26.752001 753.328756 26.752 
L 753.32875 90.56 
z
" style="fill: #005293; opacity: 0.8"/>
   </g>
   <g id="matplotlib.axis_3"/>
   <g id="matplotlib.axis_4"/>
   <g id="text_25">
    <!-- 76.5% -->
    <g transform="translate(711.700058 121.655144) scale(0.1 -0.1)">
     <defs>
      <path id="DejaVuSans-37" d="M 525 4666 
L 3525 4666 
L 3525 4397 
L 1831 0 
L 1172 0 
L 2766 4134 
L 525 4134 
L 525 4666 
z
" transform="scale(0.015625)"/>
      <path id="DejaVuSans-36" d="M 2113 2584 
Q 1688 2584 1439 2293 
Q 1191 2003 1191 1497 
Q 1191 994 1439 701 
Q 1688 409 2113 409 
Q 2538 409 2786 701 
Q 3034 994 3034 1497 
Q 3034 2003 2786 2293 
Q 2538 2584 2113 2584 
z
M 3366 4563 
L 3366 3988 
Q 3128 4100 2886 4159 
Q 2644 4219 2406 4219 
Q 1781 4219 1451 3797 
Q 1122 3375 1075 2522 
Q 1259 2794 1537 2939 
Q 1816 3084 2150 3084 
Q 2853 3084 3261 2657 
Q 3669 2231 3669 1497 
Q 3669 778 3244 343 
Q 2819 -91 2113 -91 
Q 1303 -91 875 529 
Q 447 1150 447 2328 
Q 447 3434 972 4092 
Q 1497 4750 2381 4750 
Q 2619 4750 2861 4703 
Q 3103 4656 3366 4563 
z
" transform="scale(0.015625)"/>
      <path id="DejaVuSans-2e" d="M 684 794 
L 1344 794 
L 1344 0 
L 684 0 
L 684 794 
z
" transform="scale(0.015625)"/>
      <path id="DejaVuSans-25" d="M 4653 2053 
Q 4381 2053 4226 1822 
Q 4072 1591 4072 1178 
Q 4072 772 4226 539 
Q 4381 306 4653 306 
Q 4919 306 5073 539 
Q 5228 772 5228 1178 
Q 5228 1588 5073 1820 
Q 4919 2053 4653 2053 
z
M 4653 2450 
Q 5147 2450 5437 2106 
Q 5728 1763 5728 1178 
Q 5728 594 5436 251 
Q 5144 -91 4653 -91 
Q 4153 -91 3862 251 
Q 3572 594 3572 1178 
Q 3572 1766 3864 2108 
Q 4156 2450 4653 2450 
z
M 1428 4353 
Q 1159 4353 1004 4120 
Q 850 3888 850 3481 
Q 850 3069 1003 2837 
Q 1156 2606 1428 2606 
Q 1700 2606 1854 2837 
Q 2009 3069 2009 3481 
Q 2009 3884 1853 4118 
Q 1697 4353 1428 4353 
z
M 4250 4750 
L 4750 4750 
L 1831 -91 
L 1331 -91 
L 4250 4750 
z
M 1428 4750 
Q 1922 4750 2215 4408 
Q 2509 4066 2509 3481 
Q 2509 2891 2217 2550 
Q 1925 2209 1428 2209 
Q 931 2209 642 2551 
Q 353 2894 353 3481 
Q 353 4063 643 4406 
Q 934 4750 1428 4750 
z
" transform="scale(0.015625)"/>
     </defs>
     <use xlink:href="#DejaVuSans-37"/>
     <use xlink:href="#DejaVuSans-36" x="63.623047"/>
     <use xlink:href="#DejaVuSans-2e" x="127.246094"/>
     <use xlink:href="#DejaVuSans-35" x="159.033203"/>
     <use xlink:href="#DejaVuSans-25" x="222.65625"/>
    </g>
   </g>
   <g id="text_26">
    <!-- 23.5% -->
    <g transform="translate(763.190256 64.983607) scale(0.1 -0.1)">
     <use xlink:href="#DejaVuSans-32"/>
     <use xlink:href="#DejaVuSans-33" x="63.623047"/>
     <use xlink:href="#DejaVuSans-2e" x="127.246094"/>
     <use xlink:href="#DejaVuSans-35" x="159.033203"/>
     <use xlink:href="#DejaVuSans-25" x="222.65625"/>
    </g>
   </g>
  </g>
 </g>
 <defs>
  <clipPath id="pb88ae02e67">
   <rect x="43.43" y="10.8" width="599.2275" height="159.52"/>
  </clipPath>
 </defs>
</svg>
