<?xml version="1.0" encoding="utf-8" standalone="no"?>
<!DOCTYPE svg PUBLIC "-//W3C//DTD SVG 1.1//EN"
  "http://www.w3.org/Graphics/SVG/1.1/DTD/svg11.dtd">
<svg xmlns:xlink="http://www.w3.org/1999/xlink" width="864pt" height="288pt" viewBox="0 0 864 288" xmlns="http://www.w3.org/2000/svg" version="1.1">
 <metadata>
  <rdf:RDF xmlns:dc="http://purl.org/dc/elements/1.1/" xmlns:cc="http://creativecommons.org/ns#" xmlns:rdf="http://www.w3.org/1999/02/22-rdf-syntax-ns#">
   <cc:Work>
    <dc:type rdf:resource="http://purl.org/dc/dcmitype/StillImage"/>
    <dc:date>2025-07-31T17:16:00.526593</dc:date>
    <dc:format>image/svg+xml</dc:format>
    <dc:creator>
     <cc:Agent>
      <dc:title>Matplotlib v3.7.2, https://matplotlib.org/</dc:title>
     </cc:Agent>
    </dc:creator>
   </cc:Work>
  </rdf:RDF>
 </metadata>
 <defs>
  <style type="text/css">*{stroke-linejoin: round; stroke-linecap: butt}</style>
 </defs>
 <g id="figure_1">
  <g id="patch_1">
   <path d="M 0 288 
L 864 288 
L 864 0 
L 0 0 
z
" style="fill: #ffffff"/>
  </g>
  <g id="axes_1">
   <g id="patch_2">
    <path d="M 43.43 170.32 
L 642.6575 170.32 
L 642.6575 10.8 
L 43.43 10.8 
z
" style="fill: #ffffff"/>
   </g>
   <g id="PolyCollection_1">
    <defs>
     <path id="m1408670dab" d="M 43.43 -168.538838 
L 43.43 -117.68 
L 45.076229 -117.68 
L 46.722459 -117.68 
L 48.368688 -117.68 
L 50.014918 -117.68 
L 51.661147 -117.68 
L 53.307376 -117.68 
L 54.953606 -117.68 
L 56.599835 -117.68 
L 58.246065 -117.68 
L 59.892294 -117.68 
L 61.538523 -117.68 
L 63.184753 -117.68 
L 64.830982 -117.68 
L 66.477212 -117.68 
L 68.123441 -117.68 
L 69.76967 -117.68 
L 71.4159 -117.68 
L 73.062129 -117.68 
L 74.708359 -117.68 
L 76.354588 -117.68 
L 78.000817 -117.68 
L 79.647047 -117.68 
L 81.293276 -117.68 
L 82.939505 -117.68 
L 84.585735 -117.68 
L 86.231964 -117.68 
L 87.878194 -117.68 
L 89.524423 -117.68 
L 91.170652 -117.68 
L 92.816882 -117.68 
L 94.463111 -117.68 
L 96.109341 -117.68 
L 97.75557 -117.68 
L 99.401799 -117.68 
L 101.048029 -117.68 
L 102.694258 -117.68 
L 104.340488 -117.68 
L 105.986717 -117.68 
L 107.632946 -117.68 
L 109.279176 -117.68 
L 110.925405 -117.68 
L 112.571635 -117.68 
L 114.217864 -117.68 
L 115.864093 -117.68 
L 117.510323 -117.68 
L 119.156552 -117.68 
L 120.802782 -117.68 
L 122.449011 -117.68 
L 124.09524 -117.68 
L 125.74147 -117.68 
L 127.387699 -117.68 
L 129.033929 -117.68 
L 130.680158 -117.68 
L 132.326387 -117.68 
L 133.972617 -117.68 
L 135.618846 -117.68 
L 137.265076 -117.68 
L 138.911305 -117.68 
L 140.557534 -117.68 
L 142.203764 -117.68 
L 143.849993 -117.68 
L 145.496223 -117.68 
L 147.142452 -117.68 
L 148.788681 -117.68 
L 150.434911 -117.68 
L 152.08114 -117.68 
L 153.72737 -117.68 
L 155.373599 -117.68 
L 157.019828 -117.68 
L 158.666058 -117.68 
L 160.312287 -117.68 
L 161.958516 -117.68 
L 163.604746 -117.68 
L 165.250975 -117.68 
L 166.897205 -117.68 
L 168.543434 -117.68 
L 170.189663 -117.68 
L 171.835893 -117.68 
L 173.482122 -117.68 
L 175.128352 -117.68 
L 176.774581 -117.68 
L 178.42081 -117.68 
L 180.06704 -117.68 
L 181.713269 -117.68 
L 183.359499 -117.68 
L 185.005728 -117.68 
L 186.651957 -117.68 
L 188.298187 -117.68 
L 189.944416 -117.68 
L 191.590646 -117.68 
L 193.236875 -117.68 
L 194.883104 -117.68 
L 196.529334 -117.68 
L 198.175563 -117.68 
L 199.821793 -117.68 
L 201.468022 -117.68 
L 203.114251 -117.68 
L 204.760481 -117.68 
L 206.40671 -117.68 
L 208.05294 -117.68 
L 209.699169 -117.68 
L 211.345398 -117.68 
L 212.991628 -117.68 
L 214.637857 -117.68 
L 216.284087 -117.68 
L 217.930316 -117.68 
L 219.576545 -117.68 
L 221.222775 -117.68 
L 222.869004 -117.68 
L 224.515234 -117.68 
L 226.161463 -117.68 
L 227.807692 -117.68 
L 229.453922 -117.68 
L 231.100151 -117.68 
L 232.74638 -117.68 
L 234.39261 -117.68 
L 236.038839 -117.68 
L 237.685069 -117.68 
L 239.331298 -117.68 
L 240.977527 -117.68 
L 242.623757 -117.68 
L 244.269986 -117.68 
L 245.916216 -117.68 
L 247.562445 -117.68 
L 249.208674 -117.68 
L 250.854904 -117.68 
L 252.501133 -117.68 
L 254.147363 -117.68 
L 255.793592 -117.68 
L 257.439821 -117.68 
L 259.086051 -117.68 
L 260.73228 -117.68 
L 262.37851 -117.68 
L 264.024739 -117.68 
L 265.670968 -117.68 
L 267.317198 -117.68 
L 268.963427 -117.68 
L 270.609657 -117.68 
L 272.255886 -117.68 
L 273.902115 -117.68 
L 275.548345 -117.68 
L 277.194574 -117.68 
L 278.840804 -117.68 
L 280.487033 -117.68 
L 282.133262 -117.68 
L 283.779492 -117.68 
L 285.425721 -117.68 
L 287.071951 -117.68 
L 288.71818 -117.68 
L 290.364409 -117.68 
L 292.010639 -117.68 
L 293.656868 -117.68 
L 295.303098 -117.68 
L 296.949327 -117.68 
L 298.595556 -117.68 
L 300.241786 -117.68 
L 301.888015 -117.68 
L 303.534245 -117.68 
L 305.180474 -117.68 
L 306.826703 -117.68 
L 308.472933 -117.68 
L 310.119162 -117.68 
L 311.765391 -117.68 
L 313.411621 -117.68 
L 315.05785 -117.68 
L 316.70408 -117.68 
L 318.350309 -117.68 
L 319.996538 -117.68 
L 321.642768 -117.68 
L 323.288997 -117.68 
L 324.935227 -117.68 
L 326.581456 -117.68 
L 328.227685 -117.68 
L 329.873915 -117.68 
L 331.520144 -117.68 
L 333.166374 -117.68 
L 334.812603 -117.68 
L 336.458832 -117.68 
L 338.105062 -117.68 
L 339.751291 -117.68 
L 341.397521 -117.68 
L 343.04375 -117.68 
L 344.689979 -117.68 
L 346.336209 -117.68 
L 347.982438 -117.68 
L 349.628668 -117.68 
L 351.274897 -117.68 
L 352.921126 -117.68 
L 354.567356 -117.68 
L 356.213585 -117.68 
L 357.859815 -117.68 
L 359.506044 -117.68 
L 361.152273 -117.68 
L 362.798503 -117.68 
L 364.444732 -117.68 
L 366.090962 -117.68 
L 367.737191 -117.68 
L 369.38342 -117.68 
L 371.02965 -117.68 
L 372.675879 -117.68 
L 374.322109 -117.68 
L 375.968338 -117.68 
L 377.614567 -117.68 
L 379.260797 -117.68 
L 380.907026 -117.68 
L 382.553255 -117.68 
L 384.199485 -117.68 
L 385.845714 -117.68 
L 387.491944 -117.68 
L 389.138173 -117.68 
L 390.784402 -117.68 
L 392.430632 -117.68 
L 394.076861 -117.68 
L 395.723091 -117.68 
L 397.36932 -117.68 
L 399.015549 -117.68 
L 400.661779 -117.68 
L 402.308008 -117.68 
L 403.954238 -117.68 
L 405.600467 -117.68 
L 407.246696 -117.68 
L 408.892926 -117.68 
L 410.539155 -117.68 
L 412.185385 -117.68 
L 413.831614 -117.68 
L 415.477843 -117.68 
L 417.124073 -117.68 
L 418.770302 -117.68 
L 420.416532 -117.68 
L 422.062761 -117.68 
L 423.70899 -117.68 
L 425.35522 -117.68 
L 427.001449 -117.68 
L 428.647679 -117.68 
L 430.293908 -117.68 
L 431.940137 -117.68 
L 433.586367 -117.68 
L 435.232596 -117.68 
L 436.878826 -117.68 
L 438.525055 -117.68 
L 440.171284 -117.68 
L 441.817514 -117.68 
L 443.463743 -117.68 
L 445.109973 -117.68 
L 446.756202 -117.68 
L 448.402431 -117.68 
L 450.048661 -117.68 
L 451.69489 -117.68 
L 453.34112 -117.68 
L 454.987349 -117.68 
L 456.633578 -117.68 
L 458.279808 -117.68 
L 459.926037 -117.68 
L 461.572266 -117.68 
L 463.218496 -117.68 
L 464.864725 -117.68 
L 466.510955 -117.68 
L 468.157184 -117.68 
L 469.803413 -117.68 
L 471.449643 -117.68 
L 473.095872 -117.68 
L 474.742102 -117.68 
L 476.388331 -117.68 
L 478.03456 -117.68 
L 479.68079 -117.68 
L 481.327019 -117.68 
L 482.973249 -117.68 
L 484.619478 -117.68 
L 486.265707 -117.68 
L 487.911937 -117.68 
L 489.558166 -117.68 
L 491.204396 -117.68 
L 492.850625 -117.68 
L 494.496854 -117.68 
L 496.143084 -117.68 
L 497.789313 -117.68 
L 499.435543 -117.68 
L 501.081772 -117.68 
L 502.728001 -117.68 
L 504.374231 -117.68 
L 506.02046 -117.68 
L 507.66669 -117.68 
L 509.312919 -117.68 
L 510.959148 -117.68 
L 512.605378 -117.68 
L 514.251607 -117.68 
L 515.897837 -117.68 
L 517.544066 -117.68 
L 519.190295 -117.68 
L 520.836525 -117.68 
L 522.482754 -117.68 
L 524.128984 -117.68 
L 525.775213 -117.68 
L 527.421442 -117.68 
L 529.067672 -117.68 
L 530.713901 -117.68 
L 532.36013 -117.68 
L 534.00636 -117.68 
L 535.652589 -117.68 
L 537.298819 -117.68 
L 538.945048 -117.68 
L 540.591277 -117.68 
L 542.237507 -117.68 
L 543.883736 -117.68 
L 545.529966 -117.68 
L 547.176195 -117.68 
L 548.822424 -117.68 
L 550.468654 -117.68 
L 552.114883 -117.68 
L 553.761113 -117.68 
L 555.407342 -117.68 
L 557.053571 -117.68 
L 558.699801 -117.68 
L 560.34603 -117.68 
L 561.99226 -117.68 
L 563.638489 -117.68 
L 565.284718 -117.68 
L 566.930948 -117.68 
L 568.577177 -117.68 
L 570.223407 -117.68 
L 571.869636 -117.68 
L 573.515865 -117.68 
L 575.162095 -117.68 
L 576.808324 -117.68 
L 578.454554 -117.68 
L 580.100783 -117.68 
L 581.747012 -117.68 
L 583.393242 -117.68 
L 585.039471 -117.68 
L 586.685701 -117.68 
L 588.33193 -117.68 
L 589.978159 -117.68 
L 591.624389 -117.68 
L 593.270618 -117.68 
L 594.916848 -117.68 
L 596.563077 -117.68 
L 598.209306 -117.68 
L 599.855536 -117.68 
L 601.501765 -117.68 
L 603.147995 -117.68 
L 604.794224 -117.68 
L 606.440453 -117.68 
L 608.086683 -117.68 
L 609.732912 -117.68 
L 611.379141 -117.68 
L 613.025371 -117.68 
L 614.6716 -117.68 
L 616.31783 -117.68 
L 617.964059 -117.68 
L 619.610288 -117.68 
L 621.256518 -117.68 
L 622.902747 -117.68 
L 624.548977 -117.68 
L 626.195206 -117.68 
L 627.841435 -117.68 
L 629.487665 -117.68 
L 631.133894 -117.68 
L 632.780124 -117.68 
L 634.426353 -117.68 
L 636.072582 -117.68 
L 637.718812 -117.68 
L 639.365041 -117.68 
L 641.011271 -117.68 
L 642.6575 -117.68 
L 642.6575 -166.098906 
L 642.6575 -166.098906 
L 641.011271 -194.934726 
L 639.365041 -204.024697 
L 637.718812 -212.070549 
L 636.072582 -196.592613 
L 634.426353 -174.981851 
L 632.780124 -170.152023 
L 631.133894 -167.696338 
L 629.487665 -178.796675 
L 627.841435 -206.242114 
L 626.195206 -236.443067 
L 624.548977 -258.633312 
L 622.902747 -269.437709 
L 621.256518 -265.43275 
L 619.610288 -259.370881 
L 617.964059 -256.509987 
L 616.31783 -262.126517 
L 614.6716 -269.275597 
L 613.025371 -277.752313 
L 611.379141 -268.776944 
L 609.732912 -249.288455 
L 608.086683 -236.372545 
L 606.440453 -242.420445 
L 604.794224 -239.899324 
L 603.147995 -230.222921 
L 601.501765 -230.160994 
L 599.855536 -231.450667 
L 598.209306 -226.278832 
L 596.563077 -227.811452 
L 594.916848 -226.692123 
L 593.270618 -223.823773 
L 591.624389 -221.428216 
L 589.978159 -216.589743 
L 588.33193 -222.503246 
L 586.685701 -214.098998 
L 585.039471 -198.820393 
L 583.393242 -206.807242 
L 581.747012 -202.9729 
L 580.100783 -209.616654 
L 578.454554 -210.427775 
L 576.808324 -204.402504 
L 575.162095 -191.883269 
L 573.515865 -186.815722 
L 571.869636 -187.494886 
L 570.223407 -189.978073 
L 568.577177 -192.237155 
L 566.930948 -192.663499 
L 565.284718 -191.775311 
L 563.638489 -191.556488 
L 561.99226 -193.128043 
L 560.34603 -187.406573 
L 558.699801 -172.026753 
L 557.053571 -175.520552 
L 555.407342 -180.57119 
L 553.761113 -176.774154 
L 552.114883 -183.678634 
L 550.468654 -176.85401 
L 548.822424 -173.878551 
L 547.176195 -166.510205 
L 545.529966 -155.726929 
L 543.883736 -149.824148 
L 542.237507 -146.867384 
L 540.591277 -140.339131 
L 538.945048 -140.099482 
L 537.298819 -143.526207 
L 535.652589 -145.786313 
L 534.00636 -145.596479 
L 532.36013 -146.52182 
L 530.713901 -143.647633 
L 529.067672 -143.280666 
L 527.421442 -144.138143 
L 525.775213 -146.209284 
L 524.128984 -147.634742 
L 522.482754 -141.344676 
L 520.836525 -138.841651 
L 519.190295 -138.277426 
L 517.544066 -136.114004 
L 515.897837 -139.290655 
L 514.251607 -145.10862 
L 512.605378 -148.621138 
L 510.959148 -147.080679 
L 509.312919 -147.452856 
L 507.66669 -151.755099 
L 506.02046 -152.814963 
L 504.374231 -146.153153 
L 502.728001 -148.437723 
L 501.081772 -148.475255 
L 499.435543 -154.32031 
L 497.789313 -162.376235 
L 496.143084 -156.327278 
L 494.496854 -152.837128 
L 492.850625 -161.17352 
L 491.204396 -168.602139 
L 489.558166 -172.416601 
L 487.911937 -165.524214 
L 486.265707 -157.249106 
L 484.619478 -150.30632 
L 482.973249 -149.374051 
L 481.327019 -154.695299 
L 479.68079 -166.210505 
L 478.03456 -173.128029 
L 476.388331 -172.037909 
L 474.742102 -167.16147 
L 473.095872 -165.286978 
L 471.449643 -158.382712 
L 469.803413 -150.238446 
L 468.157184 -139.488092 
L 466.510955 -132.360962 
L 464.864725 -131.511483 
L 463.218496 -135.344153 
L 461.572266 -139.334894 
L 459.926037 -137.59696 
L 458.279808 -135.071851 
L 456.633578 -133.541231 
L 454.987349 -130.503881 
L 453.34112 -128.997226 
L 451.69489 -130.118587 
L 450.048661 -131.286962 
L 448.402431 -132.387368 
L 446.756202 -133.760141 
L 445.109973 -135.209736 
L 443.463743 -133.928111 
L 441.817514 -131.76537 
L 440.171284 -129.532475 
L 438.525055 -129.91052 
L 436.878826 -128.949919 
L 435.232596 -128.190269 
L 433.586367 -128.173024 
L 431.940137 -129.059058 
L 430.293908 -130.36502 
L 428.647679 -130.995118 
L 427.001449 -131.090141 
L 425.35522 -129.897115 
L 423.70899 -129.720642 
L 422.062761 -128.69678 
L 420.416532 -127.616044 
L 418.770302 -127.15619 
L 417.124073 -127.764646 
L 415.477843 -128.048404 
L 413.831614 -127.626187 
L 412.185385 -128.506232 
L 410.539155 -128.94827 
L 408.892926 -128.461315 
L 407.246696 -128.796598 
L 405.600467 -129.36704 
L 403.954238 -129.618967 
L 402.308008 -128.367039 
L 400.661779 -127.152838 
L 399.015549 -126.59785 
L 397.36932 -126.824181 
L 395.723091 -127.172643 
L 394.076861 -127.779317 
L 392.430632 -127.749004 
L 390.784402 -127.586103 
L 389.138173 -127.747335 
L 387.491944 -127.848219 
L 385.845714 -127.911162 
L 384.199485 -127.709019 
L 382.553255 -127.28979 
L 380.907026 -126.717829 
L 379.260797 -126.378291 
L 377.614567 -126.382229 
L 375.968338 -126.738037 
L 374.322109 -126.987563 
L 372.675879 -126.677677 
L 371.02965 -127.376722 
L 369.38342 -128.415023 
L 367.737191 -128.26681 
L 366.090962 -127.781151 
L 364.444732 -127.576949 
L 362.798503 -127.320078 
L 361.152273 -129.235687 
L 359.506044 -132.515489 
L 357.859815 -134.80334 
L 356.213585 -133.60338 
L 354.567356 -132.720265 
L 352.921126 -134.969818 
L 351.274897 -132.026595 
L 349.628668 -128.846734 
L 347.982438 -128.5371 
L 346.336209 -128.701241 
L 344.689979 -128.401397 
L 343.04375 -131.679124 
L 341.397521 -131.406713 
L 339.751291 -128.209464 
L 338.105062 -128.891843 
L 336.458832 -128.73923 
L 334.812603 -127.75875 
L 333.166374 -127.586056 
L 331.520144 -128.643587 
L 329.873915 -128.908408 
L 328.227685 -128.185411 
L 326.581456 -128.661018 
L 324.935227 -128.001858 
L 323.288997 -127.045828 
L 321.642768 -126.333952 
L 319.996538 -127.090046 
L 318.350309 -128.757832 
L 316.70408 -128.664314 
L 315.05785 -129.471843 
L 313.411621 -131.138008 
L 311.765391 -130.388646 
L 310.119162 -129.082882 
L 308.472933 -132.055036 
L 306.826703 -136.139861 
L 305.180474 -136.394838 
L 303.534245 -132.626984 
L 301.888015 -132.666116 
L 300.241786 -129.965042 
L 298.595556 -129.128567 
L 296.949327 -128.967483 
L 295.303098 -131.494587 
L 293.656868 -135.951439 
L 292.010639 -140.460665 
L 290.364409 -147.990941 
L 288.71818 -155.101105 
L 287.071951 -151.483351 
L 285.425721 -140.433209 
L 283.779492 -136.448172 
L 282.133262 -137.734143 
L 280.487033 -138.123011 
L 278.840804 -135.320468 
L 277.194574 -131.463361 
L 275.548345 -130.140407 
L 273.902115 -128.528532 
L 272.255886 -127.757857 
L 270.609657 -129.94604 
L 268.963427 -131.827639 
L 267.317198 -132.394294 
L 265.670968 -133.568568 
L 264.024739 -131.649669 
L 262.37851 -131.707948 
L 260.73228 -131.043665 
L 259.086051 -129.527966 
L 257.439821 -131.320472 
L 255.793592 -136.59956 
L 254.147363 -140.857475 
L 252.501133 -143.629511 
L 250.854904 -144.809149 
L 249.208674 -144.153733 
L 247.562445 -142.481003 
L 245.916216 -145.141441 
L 244.269986 -149.195286 
L 242.623757 -157.035927 
L 240.977527 -158.897109 
L 239.331298 -159.168894 
L 237.685069 -161.211749 
L 236.038839 -168.270627 
L 234.39261 -171.466187 
L 232.74638 -167.465863 
L 231.100151 -160.300968 
L 229.453922 -159.241423 
L 227.807692 -160.746149 
L 226.161463 -168.920357 
L 224.515234 -176.725211 
L 222.869004 -184.676729 
L 221.222775 -181.318723 
L 219.576545 -183.361648 
L 217.930316 -175.447344 
L 216.284087 -157.606004 
L 214.637857 -143.626175 
L 212.991628 -145.821309 
L 211.345398 -158.496281 
L 209.699169 -177.91595 
L 208.05294 -199.620943 
L 206.40671 -195.694059 
L 204.760481 -177.549359 
L 203.114251 -162.111863 
L 201.468022 -159.813673 
L 199.821793 -175.687362 
L 198.175563 -211.746664 
L 196.529334 -235.34306 
L 194.883104 -231.321657 
L 193.236875 -218.176178 
L 191.590646 -194.512005 
L 189.944416 -171.971786 
L 188.298187 -161.370452 
L 186.651957 -157.432374 
L 185.005728 -161.408051 
L 183.359499 -162.367088 
L 181.713269 -164.773677 
L 180.06704 -170.085926 
L 178.42081 -177.526365 
L 176.774581 -183.55177 
L 175.128352 -190.405877 
L 173.482122 -193.753604 
L 171.835893 -186.301861 
L 170.189663 -188.961135 
L 168.543434 -185.844047 
L 166.897205 -185.39574 
L 165.250975 -183.209171 
L 163.604746 -186.403513 
L 161.958516 -191.815316 
L 160.312287 -201.466187 
L 158.666058 -209.411331 
L 157.019828 -220.139523 
L 155.373599 -223.713923 
L 153.72737 -237.012574 
L 152.08114 -246.720028 
L 150.434911 -249.806793 
L 148.788681 -237.498114 
L 147.142452 -235.536166 
L 145.496223 -240.683914 
L 143.849993 -238.935257 
L 142.203764 -241.457 
L 140.557534 -240.448685 
L 138.911305 -236.348252 
L 137.265076 -223.627033 
L 135.618846 -214.051 
L 133.972617 -207.060056 
L 132.326387 -193.508751 
L 130.680158 -194.060993 
L 129.033929 -196.904833 
L 127.387699 -188.490854 
L 125.74147 -177.712916 
L 124.09524 -177.408671 
L 122.449011 -166.615275 
L 120.802782 -175.899088 
L 119.156552 -201.965274 
L 117.510323 -214.168497 
L 115.864093 -220.183195 
L 114.217864 -220.468252 
L 112.571635 -219.551808 
L 110.925405 -209.532359 
L 109.279176 -206.66643 
L 107.632946 -210.747888 
L 105.986717 -214.568008 
L 104.340488 -220.507152 
L 102.694258 -203.577366 
L 101.048029 -205.37413 
L 99.401799 -204.49752 
L 97.75557 -209.131447 
L 96.109341 -216.669544 
L 94.463111 -226.257644 
L 92.816882 -219.349333 
L 91.170652 -202.949465 
L 89.524423 -211.067078 
L 87.878194 -228.977917 
L 86.231964 -237.892744 
L 84.585735 -242.802256 
L 82.939505 -242.427825 
L 81.293276 -236.55283 
L 79.647047 -227.6055 
L 78.000817 -231.968286 
L 76.354588 -240.346042 
L 74.708359 -231.1508 
L 73.062129 -229.646012 
L 71.4159 -228.584117 
L 69.76967 -231.064591 
L 68.123441 -236.6366 
L 66.477212 -243.518903 
L 64.830982 -252.147287 
L 63.184753 -256.77504 
L 61.538523 -250.525684 
L 59.892294 -237.806744 
L 58.246065 -235.137425 
L 56.599835 -228.454089 
L 54.953606 -234.689144 
L 53.307376 -237.049088 
L 51.661147 -221.019433 
L 50.014918 -195.5555 
L 48.368688 -165.205077 
L 46.722459 -168.587858 
L 45.076229 -174.062627 
L 43.43 -168.538838 
z
"/>
    </defs>
    <g clip-path="url(#p30f97dc392)">
     <use xlink:href="#m1408670dab" x="0" y="288" style="fill: #0f1b5f; fill-opacity: 0.8"/>
    </g>
   </g>
   <g id="matplotlib.axis_1">
    <g id="xtick_1">
     <g id="line2d_1">
      <defs>
       <path id="ma1e1dc1593" d="M 0 0 
L 0 3.5 
" style="stroke: #000000; stroke-width: 0.8"/>
      </defs>
      <g>
       <use xlink:href="#ma1e1dc1593" x="43.43" y="170.32" style="stroke: #000000; stroke-width: 0.8"/>
      </g>
     </g>
     <g id="text_1">
      <!-- Jan -->
      <g transform="translate(37.26375 185.49875) scale(0.08 -0.08)">
       <defs>
        <path id="DejaVuSans-4a" d="M 628 4666 
L 1259 4666 
L 1259 325 
Q 1259 -519 939 -900 
Q 619 -1281 -91 -1281 
L -331 -1281 
L -331 -750 
L -134 -750 
Q 284 -750 456 -515 
Q 628 -281 628 325 
L 628 4666 
z
" transform="scale(0.015625)"/>
        <path id="DejaVuSans-61" d="M 2194 1759 
Q 1497 1759 1228 1600 
Q 959 1441 959 1056 
Q 959 750 1161 570 
Q 1363 391 1709 391 
Q 2188 391 2477 730 
Q 2766 1069 2766 1631 
L 2766 1759 
L 2194 1759 
z
M 3341 1997 
L 3341 0 
L 2766 0 
L 2766 531 
Q 2569 213 2275 61 
Q 1981 -91 1556 -91 
Q 1019 -91 701 211 
Q 384 513 384 1019 
Q 384 1609 779 1909 
Q 1175 2209 1959 2209 
L 2766 2209 
L 2766 2266 
Q 2766 2663 2505 2880 
Q 2244 3097 1772 3097 
Q 1472 3097 1187 3025 
Q 903 2953 641 2809 
L 641 3341 
Q 956 3463 1253 3523 
Q 1550 3584 1831 3584 
Q 2591 3584 2966 3190 
Q 3341 2797 3341 1997 
z
" transform="scale(0.015625)"/>
        <path id="DejaVuSans-6e" d="M 3513 2113 
L 3513 0 
L 2938 0 
L 2938 2094 
Q 2938 2591 2744 2837 
Q 2550 3084 2163 3084 
Q 1697 3084 1428 2787 
Q 1159 2491 1159 1978 
L 1159 0 
L 581 0 
L 581 3500 
L 1159 3500 
L 1159 2956 
Q 1366 3272 1645 3428 
Q 1925 3584 2291 3584 
Q 2894 3584 3203 3211 
Q 3513 2838 3513 2113 
z
" transform="scale(0.015625)"/>
       </defs>
       <use xlink:href="#DejaVuSans-4a"/>
       <use xlink:href="#DejaVuSans-61" x="29.492188"/>
       <use xlink:href="#DejaVuSans-6e" x="90.771484"/>
      </g>
      <!-- 2022 -->
      <g transform="translate(33.25 194.457) scale(0.08 -0.08)">
       <defs>
        <path id="DejaVuSans-32" d="M 1228 531 
L 3431 531 
L 3431 0 
L 469 0 
L 469 531 
Q 828 903 1448 1529 
Q 2069 2156 2228 2338 
Q 2531 2678 2651 2914 
Q 2772 3150 2772 3378 
Q 2772 3750 2511 3984 
Q 2250 4219 1831 4219 
Q 1534 4219 1204 4116 
Q 875 4013 500 3803 
L 500 4441 
Q 881 4594 1212 4672 
Q 1544 4750 1819 4750 
Q 2544 4750 2975 4387 
Q 3406 4025 3406 3419 
Q 3406 3131 3298 2873 
Q 3191 2616 2906 2266 
Q 2828 2175 2409 1742 
Q 1991 1309 1228 531 
z
" transform="scale(0.015625)"/>
        <path id="DejaVuSans-30" d="M 2034 4250 
Q 1547 4250 1301 3770 
Q 1056 3291 1056 2328 
Q 1056 1369 1301 889 
Q 1547 409 2034 409 
Q 2525 409 2770 889 
Q 3016 1369 3016 2328 
Q 3016 3291 2770 3770 
Q 2525 4250 2034 4250 
z
M 2034 4750 
Q 2819 4750 3233 4129 
Q 3647 3509 3647 2328 
Q 3647 1150 3233 529 
Q 2819 -91 2034 -91 
Q 1250 -91 836 529 
Q 422 1150 422 2328 
Q 422 3509 836 4129 
Q 1250 4750 2034 4750 
z
" transform="scale(0.015625)"/>
       </defs>
       <use xlink:href="#DejaVuSans-32"/>
       <use xlink:href="#DejaVuSans-30" x="63.623047"/>
       <use xlink:href="#DejaVuSans-32" x="127.246094"/>
       <use xlink:href="#DejaVuSans-32" x="190.869141"/>
      </g>
     </g>
    </g>
    <g id="xtick_2">
     <g id="line2d_2">
      <g>
       <use xlink:href="#ma1e1dc1593" x="94.463111" y="170.32" style="stroke: #000000; stroke-width: 0.8"/>
      </g>
     </g>
     <g id="text_2">
      <!-- Feb -->
      <g transform="translate(87.381861 185.49875) scale(0.08 -0.08)">
       <defs>
        <path id="DejaVuSans-46" d="M 628 4666 
L 3309 4666 
L 3309 4134 
L 1259 4134 
L 1259 2759 
L 3109 2759 
L 3109 2228 
L 1259 2228 
L 1259 0 
L 628 0 
L 628 4666 
z
" transform="scale(0.015625)"/>
        <path id="DejaVuSans-65" d="M 3597 1894 
L 3597 1613 
L 953 1613 
Q 991 1019 1311 708 
Q 1631 397 2203 397 
Q 2534 397 2845 478 
Q 3156 559 3463 722 
L 3463 178 
Q 3153 47 2828 -22 
Q 2503 -91 2169 -91 
Q 1331 -91 842 396 
Q 353 884 353 1716 
Q 353 2575 817 3079 
Q 1281 3584 2069 3584 
Q 2775 3584 3186 3129 
Q 3597 2675 3597 1894 
z
M 3022 2063 
Q 3016 2534 2758 2815 
Q 2500 3097 2075 3097 
Q 1594 3097 1305 2825 
Q 1016 2553 972 2059 
L 3022 2063 
z
" transform="scale(0.015625)"/>
        <path id="DejaVuSans-62" d="M 3116 1747 
Q 3116 2381 2855 2742 
Q 2594 3103 2138 3103 
Q 1681 3103 1420 2742 
Q 1159 2381 1159 1747 
Q 1159 1113 1420 752 
Q 1681 391 2138 391 
Q 2594 391 2855 752 
Q 3116 1113 3116 1747 
z
M 1159 2969 
Q 1341 3281 1617 3432 
Q 1894 3584 2278 3584 
Q 2916 3584 3314 3078 
Q 3713 2572 3713 1747 
Q 3713 922 3314 415 
Q 2916 -91 2278 -91 
Q 1894 -91 1617 61 
Q 1341 213 1159 525 
L 1159 0 
L 581 0 
L 581 4863 
L 1159 4863 
L 1159 2969 
z
" transform="scale(0.015625)"/>
       </defs>
       <use xlink:href="#DejaVuSans-46"/>
       <use xlink:href="#DejaVuSans-65" x="52.019531"/>
       <use xlink:href="#DejaVuSans-62" x="113.542969"/>
      </g>
     </g>
    </g>
    <g id="xtick_3">
     <g id="line2d_3">
      <g>
       <use xlink:href="#ma1e1dc1593" x="140.557534" y="170.32" style="stroke: #000000; stroke-width: 0.8"/>
      </g>
     </g>
     <g id="text_3">
      <!-- Mar -->
      <g transform="translate(133.010659 185.49875) scale(0.08 -0.08)">
       <defs>
        <path id="DejaVuSans-4d" d="M 628 4666 
L 1569 4666 
L 2759 1491 
L 3956 4666 
L 4897 4666 
L 4897 0 
L 4281 0 
L 4281 4097 
L 3078 897 
L 2444 897 
L 1241 4097 
L 1241 0 
L 628 0 
L 628 4666 
z
" transform="scale(0.015625)"/>
        <path id="DejaVuSans-72" d="M 2631 2963 
Q 2534 3019 2420 3045 
Q 2306 3072 2169 3072 
Q 1681 3072 1420 2755 
Q 1159 2438 1159 1844 
L 1159 0 
L 581 0 
L 581 3500 
L 1159 3500 
L 1159 2956 
Q 1341 3275 1631 3429 
Q 1922 3584 2338 3584 
Q 2397 3584 2469 3576 
Q 2541 3569 2628 3553 
L 2631 2963 
z
" transform="scale(0.015625)"/>
       </defs>
       <use xlink:href="#DejaVuSans-4d"/>
       <use xlink:href="#DejaVuSans-61" x="86.279297"/>
       <use xlink:href="#DejaVuSans-72" x="147.558594"/>
      </g>
     </g>
    </g>
    <g id="xtick_4">
     <g id="line2d_4">
      <g>
       <use xlink:href="#ma1e1dc1593" x="191.590646" y="170.32" style="stroke: #000000; stroke-width: 0.8"/>
      </g>
     </g>
     <g id="text_4">
      <!-- Apr -->
      <g transform="translate(184.670646 185.49875) scale(0.08 -0.08)">
       <defs>
        <path id="DejaVuSans-41" d="M 2188 4044 
L 1331 1722 
L 3047 1722 
L 2188 4044 
z
M 1831 4666 
L 2547 4666 
L 4325 0 
L 3669 0 
L 3244 1197 
L 1141 1197 
L 716 0 
L 50 0 
L 1831 4666 
z
" transform="scale(0.015625)"/>
        <path id="DejaVuSans-70" d="M 1159 525 
L 1159 -1331 
L 581 -1331 
L 581 3500 
L 1159 3500 
L 1159 2969 
Q 1341 3281 1617 3432 
Q 1894 3584 2278 3584 
Q 2916 3584 3314 3078 
Q 3713 2572 3713 1747 
Q 3713 922 3314 415 
Q 2916 -91 2278 -91 
Q 1894 -91 1617 61 
Q 1341 213 1159 525 
z
M 3116 1747 
Q 3116 2381 2855 2742 
Q 2594 3103 2138 3103 
Q 1681 3103 1420 2742 
Q 1159 2381 1159 1747 
Q 1159 1113 1420 752 
Q 1681 391 2138 391 
Q 2594 391 2855 752 
Q 3116 1113 3116 1747 
z
" transform="scale(0.015625)"/>
       </defs>
       <use xlink:href="#DejaVuSans-41"/>
       <use xlink:href="#DejaVuSans-70" x="68.408203"/>
       <use xlink:href="#DejaVuSans-72" x="131.884766"/>
      </g>
     </g>
    </g>
    <g id="xtick_5">
     <g id="line2d_5">
      <g>
       <use xlink:href="#ma1e1dc1593" x="240.977527" y="170.32" style="stroke: #000000; stroke-width: 0.8"/>
      </g>
     </g>
     <g id="text_5">
      <!-- May -->
      <g transform="translate(232.707527 185.49875) scale(0.08 -0.08)">
       <defs>
        <path id="DejaVuSans-79" d="M 2059 -325 
Q 1816 -950 1584 -1140 
Q 1353 -1331 966 -1331 
L 506 -1331 
L 506 -850 
L 844 -850 
Q 1081 -850 1212 -737 
Q 1344 -625 1503 -206 
L 1606 56 
L 191 3500 
L 800 3500 
L 1894 763 
L 2988 3500 
L 3597 3500 
L 2059 -325 
z
" transform="scale(0.015625)"/>
       </defs>
       <use xlink:href="#DejaVuSans-4d"/>
       <use xlink:href="#DejaVuSans-61" x="86.279297"/>
       <use xlink:href="#DejaVuSans-79" x="147.558594"/>
      </g>
     </g>
    </g>
    <g id="xtick_6">
     <g id="line2d_6">
      <g>
       <use xlink:href="#ma1e1dc1593" x="292.010639" y="170.32" style="stroke: #000000; stroke-width: 0.8"/>
      </g>
     </g>
     <g id="text_6">
      <!-- Jun -->
      <g transform="translate(285.760639 185.49875) scale(0.08 -0.08)">
       <defs>
        <path id="DejaVuSans-75" d="M 544 1381 
L 544 3500 
L 1119 3500 
L 1119 1403 
Q 1119 906 1312 657 
Q 1506 409 1894 409 
Q 2359 409 2629 706 
Q 2900 1003 2900 1516 
L 2900 3500 
L 3475 3500 
L 3475 0 
L 2900 0 
L 2900 538 
Q 2691 219 2414 64 
Q 2138 -91 1772 -91 
Q 1169 -91 856 284 
Q 544 659 544 1381 
z
M 1991 3584 
L 1991 3584 
z
" transform="scale(0.015625)"/>
       </defs>
       <use xlink:href="#DejaVuSans-4a"/>
       <use xlink:href="#DejaVuSans-75" x="29.492188"/>
       <use xlink:href="#DejaVuSans-6e" x="92.871094"/>
      </g>
     </g>
    </g>
    <g id="xtick_7">
     <g id="line2d_7">
      <g>
       <use xlink:href="#ma1e1dc1593" x="341.397521" y="170.32" style="stroke: #000000; stroke-width: 0.8"/>
      </g>
     </g>
     <g id="text_7">
      <!-- Jul -->
      <g transform="translate(336.571271 185.49875) scale(0.08 -0.08)">
       <defs>
        <path id="DejaVuSans-6c" d="M 603 4863 
L 1178 4863 
L 1178 0 
L 603 0 
L 603 4863 
z
" transform="scale(0.015625)"/>
       </defs>
       <use xlink:href="#DejaVuSans-4a"/>
       <use xlink:href="#DejaVuSans-75" x="29.492188"/>
       <use xlink:href="#DejaVuSans-6c" x="92.871094"/>
      </g>
     </g>
    </g>
    <g id="xtick_8">
     <g id="line2d_8">
      <g>
       <use xlink:href="#ma1e1dc1593" x="392.430632" y="170.32" style="stroke: #000000; stroke-width: 0.8"/>
      </g>
     </g>
     <g id="text_8">
      <!-- Aug -->
      <g transform="translate(384.620007 185.49875) scale(0.08 -0.08)">
       <defs>
        <path id="DejaVuSans-67" d="M 2906 1791 
Q 2906 2416 2648 2759 
Q 2391 3103 1925 3103 
Q 1463 3103 1205 2759 
Q 947 2416 947 1791 
Q 947 1169 1205 825 
Q 1463 481 1925 481 
Q 2391 481 2648 825 
Q 2906 1169 2906 1791 
z
M 3481 434 
Q 3481 -459 3084 -895 
Q 2688 -1331 1869 -1331 
Q 1566 -1331 1297 -1286 
Q 1028 -1241 775 -1147 
L 775 -588 
Q 1028 -725 1275 -790 
Q 1522 -856 1778 -856 
Q 2344 -856 2625 -561 
Q 2906 -266 2906 331 
L 2906 616 
Q 2728 306 2450 153 
Q 2172 0 1784 0 
Q 1141 0 747 490 
Q 353 981 353 1791 
Q 353 2603 747 3093 
Q 1141 3584 1784 3584 
Q 2172 3584 2450 3431 
Q 2728 3278 2906 2969 
L 2906 3500 
L 3481 3500 
L 3481 434 
z
" transform="scale(0.015625)"/>
       </defs>
       <use xlink:href="#DejaVuSans-41"/>
       <use xlink:href="#DejaVuSans-75" x="68.408203"/>
       <use xlink:href="#DejaVuSans-67" x="131.787109"/>
      </g>
     </g>
    </g>
    <g id="xtick_9">
     <g id="line2d_9">
      <g>
       <use xlink:href="#ma1e1dc1593" x="443.463743" y="170.32" style="stroke: #000000; stroke-width: 0.8"/>
      </g>
     </g>
     <g id="text_9">
      <!-- Sep -->
      <g transform="translate(435.923743 185.49875) scale(0.08 -0.08)">
       <defs>
        <path id="DejaVuSans-53" d="M 3425 4513 
L 3425 3897 
Q 3066 4069 2747 4153 
Q 2428 4238 2131 4238 
Q 1616 4238 1336 4038 
Q 1056 3838 1056 3469 
Q 1056 3159 1242 3001 
Q 1428 2844 1947 2747 
L 2328 2669 
Q 3034 2534 3370 2195 
Q 3706 1856 3706 1288 
Q 3706 609 3251 259 
Q 2797 -91 1919 -91 
Q 1588 -91 1214 -16 
Q 841 59 441 206 
L 441 856 
Q 825 641 1194 531 
Q 1563 422 1919 422 
Q 2459 422 2753 634 
Q 3047 847 3047 1241 
Q 3047 1584 2836 1778 
Q 2625 1972 2144 2069 
L 1759 2144 
Q 1053 2284 737 2584 
Q 422 2884 422 3419 
Q 422 4038 858 4394 
Q 1294 4750 2059 4750 
Q 2388 4750 2728 4690 
Q 3069 4631 3425 4513 
z
" transform="scale(0.015625)"/>
       </defs>
       <use xlink:href="#DejaVuSans-53"/>
       <use xlink:href="#DejaVuSans-65" x="63.476562"/>
       <use xlink:href="#DejaVuSans-70" x="125"/>
      </g>
     </g>
    </g>
    <g id="xtick_10">
     <g id="line2d_10">
      <g>
       <use xlink:href="#ma1e1dc1593" x="492.850625" y="170.32" style="stroke: #000000; stroke-width: 0.8"/>
      </g>
     </g>
     <g id="text_10">
      <!-- Oct -->
      <g transform="translate(485.934375 185.49875) scale(0.08 -0.08)">
       <defs>
        <path id="DejaVuSans-4f" d="M 2522 4238 
Q 1834 4238 1429 3725 
Q 1025 3213 1025 2328 
Q 1025 1447 1429 934 
Q 1834 422 2522 422 
Q 3209 422 3611 934 
Q 4013 1447 4013 2328 
Q 4013 3213 3611 3725 
Q 3209 4238 2522 4238 
z
M 2522 4750 
Q 3503 4750 4090 4092 
Q 4678 3434 4678 2328 
Q 4678 1225 4090 567 
Q 3503 -91 2522 -91 
Q 1538 -91 948 565 
Q 359 1222 359 2328 
Q 359 3434 948 4092 
Q 1538 4750 2522 4750 
z
" transform="scale(0.015625)"/>
        <path id="DejaVuSans-63" d="M 3122 3366 
L 3122 2828 
Q 2878 2963 2633 3030 
Q 2388 3097 2138 3097 
Q 1578 3097 1268 2742 
Q 959 2388 959 1747 
Q 959 1106 1268 751 
Q 1578 397 2138 397 
Q 2388 397 2633 464 
Q 2878 531 3122 666 
L 3122 134 
Q 2881 22 2623 -34 
Q 2366 -91 2075 -91 
Q 1284 -91 818 406 
Q 353 903 353 1747 
Q 353 2603 823 3093 
Q 1294 3584 2113 3584 
Q 2378 3584 2631 3529 
Q 2884 3475 3122 3366 
z
" transform="scale(0.015625)"/>
        <path id="DejaVuSans-74" d="M 1172 4494 
L 1172 3500 
L 2356 3500 
L 2356 3053 
L 1172 3053 
L 1172 1153 
Q 1172 725 1289 603 
Q 1406 481 1766 481 
L 2356 481 
L 2356 0 
L 1766 0 
Q 1100 0 847 248 
Q 594 497 594 1153 
L 594 3053 
L 172 3053 
L 172 3500 
L 594 3500 
L 594 4494 
L 1172 4494 
z
" transform="scale(0.015625)"/>
       </defs>
       <use xlink:href="#DejaVuSans-4f"/>
       <use xlink:href="#DejaVuSans-63" x="78.710938"/>
       <use xlink:href="#DejaVuSans-74" x="133.691406"/>
      </g>
     </g>
    </g>
    <g id="xtick_11">
     <g id="line2d_11">
      <g>
       <use xlink:href="#ma1e1dc1593" x="543.883736" y="170.32" style="stroke: #000000; stroke-width: 0.8"/>
      </g>
     </g>
     <g id="text_11">
      <!-- Nov -->
      <g transform="translate(536.076236 185.49875) scale(0.08 -0.08)">
       <defs>
        <path id="DejaVuSans-4e" d="M 628 4666 
L 1478 4666 
L 3547 763 
L 3547 4666 
L 4159 4666 
L 4159 0 
L 3309 0 
L 1241 3903 
L 1241 0 
L 628 0 
L 628 4666 
z
" transform="scale(0.015625)"/>
        <path id="DejaVuSans-6f" d="M 1959 3097 
Q 1497 3097 1228 2736 
Q 959 2375 959 1747 
Q 959 1119 1226 758 
Q 1494 397 1959 397 
Q 2419 397 2687 759 
Q 2956 1122 2956 1747 
Q 2956 2369 2687 2733 
Q 2419 3097 1959 3097 
z
M 1959 3584 
Q 2709 3584 3137 3096 
Q 3566 2609 3566 1747 
Q 3566 888 3137 398 
Q 2709 -91 1959 -91 
Q 1206 -91 779 398 
Q 353 888 353 1747 
Q 353 2609 779 3096 
Q 1206 3584 1959 3584 
z
" transform="scale(0.015625)"/>
        <path id="DejaVuSans-76" d="M 191 3500 
L 800 3500 
L 1894 563 
L 2988 3500 
L 3597 3500 
L 2284 0 
L 1503 0 
L 191 3500 
z
" transform="scale(0.015625)"/>
       </defs>
       <use xlink:href="#DejaVuSans-4e"/>
       <use xlink:href="#DejaVuSans-6f" x="74.804688"/>
       <use xlink:href="#DejaVuSans-76" x="135.986328"/>
      </g>
     </g>
    </g>
    <g id="xtick_12">
     <g id="line2d_12">
      <g>
       <use xlink:href="#ma1e1dc1593" x="593.270618" y="170.32" style="stroke: #000000; stroke-width: 0.8"/>
      </g>
     </g>
     <g id="text_12">
      <!-- Dec -->
      <g transform="translate(585.529993 185.49875) scale(0.08 -0.08)">
       <defs>
        <path id="DejaVuSans-44" d="M 1259 4147 
L 1259 519 
L 2022 519 
Q 2988 519 3436 956 
Q 3884 1394 3884 2338 
Q 3884 3275 3436 3711 
Q 2988 4147 2022 4147 
L 1259 4147 
z
M 628 4666 
L 1925 4666 
Q 3281 4666 3915 4102 
Q 4550 3538 4550 2338 
Q 4550 1131 3912 565 
Q 3275 0 1925 0 
L 628 0 
L 628 4666 
z
" transform="scale(0.015625)"/>
       </defs>
       <use xlink:href="#DejaVuSans-44"/>
       <use xlink:href="#DejaVuSans-65" x="77.001953"/>
       <use xlink:href="#DejaVuSans-63" x="138.525391"/>
      </g>
     </g>
    </g>
    <g id="xtick_13">
     <g id="line2d_13">
      <g>
       <use xlink:href="#ma1e1dc1593" x="642.6575" y="170.32" style="stroke: #000000; stroke-width: 0.8"/>
      </g>
     </g>
    </g>
    <g id="xtick_14">
     <g id="line2d_14">
      <defs>
       <path id="m0a020e738d" d="M 0 0 
L 0 2 
" style="stroke: #000000; stroke-width: 0.4"/>
      </defs>
      <g>
       <use xlink:href="#m0a020e738d" x="46.722459" y="170.32" style="stroke: #000000; stroke-width: 0.4"/>
      </g>
     </g>
    </g>
    <g id="xtick_15">
     <g id="line2d_15">
      <g>
       <use xlink:href="#m0a020e738d" x="58.246065" y="170.32" style="stroke: #000000; stroke-width: 0.4"/>
      </g>
     </g>
    </g>
    <g id="xtick_16">
     <g id="line2d_16">
      <g>
       <use xlink:href="#m0a020e738d" x="69.76967" y="170.32" style="stroke: #000000; stroke-width: 0.4"/>
      </g>
     </g>
    </g>
    <g id="xtick_17">
     <g id="line2d_17">
      <g>
       <use xlink:href="#m0a020e738d" x="81.293276" y="170.32" style="stroke: #000000; stroke-width: 0.4"/>
      </g>
     </g>
    </g>
    <g id="xtick_18">
     <g id="line2d_18">
      <g>
       <use xlink:href="#m0a020e738d" x="92.816882" y="170.32" style="stroke: #000000; stroke-width: 0.4"/>
      </g>
     </g>
    </g>
    <g id="xtick_19">
     <g id="line2d_19">
      <g>
       <use xlink:href="#m0a020e738d" x="104.340488" y="170.32" style="stroke: #000000; stroke-width: 0.4"/>
      </g>
     </g>
    </g>
    <g id="xtick_20">
     <g id="line2d_20">
      <g>
       <use xlink:href="#m0a020e738d" x="115.864093" y="170.32" style="stroke: #000000; stroke-width: 0.4"/>
      </g>
     </g>
    </g>
    <g id="xtick_21">
     <g id="line2d_21">
      <g>
       <use xlink:href="#m0a020e738d" x="127.387699" y="170.32" style="stroke: #000000; stroke-width: 0.4"/>
      </g>
     </g>
    </g>
    <g id="xtick_22">
     <g id="line2d_22">
      <g>
       <use xlink:href="#m0a020e738d" x="138.911305" y="170.32" style="stroke: #000000; stroke-width: 0.4"/>
      </g>
     </g>
    </g>
    <g id="xtick_23">
     <g id="line2d_23">
      <g>
       <use xlink:href="#m0a020e738d" x="150.434911" y="170.32" style="stroke: #000000; stroke-width: 0.4"/>
      </g>
     </g>
    </g>
    <g id="xtick_24">
     <g id="line2d_24">
      <g>
       <use xlink:href="#m0a020e738d" x="161.958516" y="170.32" style="stroke: #000000; stroke-width: 0.4"/>
      </g>
     </g>
    </g>
    <g id="xtick_25">
     <g id="line2d_25">
      <g>
       <use xlink:href="#m0a020e738d" x="173.482122" y="170.32" style="stroke: #000000; stroke-width: 0.4"/>
      </g>
     </g>
    </g>
    <g id="xtick_26">
     <g id="line2d_26">
      <g>
       <use xlink:href="#m0a020e738d" x="185.005728" y="170.32" style="stroke: #000000; stroke-width: 0.4"/>
      </g>
     </g>
    </g>
    <g id="xtick_27">
     <g id="line2d_27">
      <g>
       <use xlink:href="#m0a020e738d" x="196.529334" y="170.32" style="stroke: #000000; stroke-width: 0.4"/>
      </g>
     </g>
    </g>
    <g id="xtick_28">
     <g id="line2d_28">
      <g>
       <use xlink:href="#m0a020e738d" x="208.05294" y="170.32" style="stroke: #000000; stroke-width: 0.4"/>
      </g>
     </g>
    </g>
    <g id="xtick_29">
     <g id="line2d_29">
      <g>
       <use xlink:href="#m0a020e738d" x="219.576545" y="170.32" style="stroke: #000000; stroke-width: 0.4"/>
      </g>
     </g>
    </g>
    <g id="xtick_30">
     <g id="line2d_30">
      <g>
       <use xlink:href="#m0a020e738d" x="231.100151" y="170.32" style="stroke: #000000; stroke-width: 0.4"/>
      </g>
     </g>
    </g>
    <g id="xtick_31">
     <g id="line2d_31">
      <g>
       <use xlink:href="#m0a020e738d" x="242.623757" y="170.32" style="stroke: #000000; stroke-width: 0.4"/>
      </g>
     </g>
    </g>
    <g id="xtick_32">
     <g id="line2d_32">
      <g>
       <use xlink:href="#m0a020e738d" x="254.147363" y="170.32" style="stroke: #000000; stroke-width: 0.4"/>
      </g>
     </g>
    </g>
    <g id="xtick_33">
     <g id="line2d_33">
      <g>
       <use xlink:href="#m0a020e738d" x="265.670968" y="170.32" style="stroke: #000000; stroke-width: 0.4"/>
      </g>
     </g>
    </g>
    <g id="xtick_34">
     <g id="line2d_34">
      <g>
       <use xlink:href="#m0a020e738d" x="277.194574" y="170.32" style="stroke: #000000; stroke-width: 0.4"/>
      </g>
     </g>
    </g>
    <g id="xtick_35">
     <g id="line2d_35">
      <g>
       <use xlink:href="#m0a020e738d" x="288.71818" y="170.32" style="stroke: #000000; stroke-width: 0.4"/>
      </g>
     </g>
    </g>
    <g id="xtick_36">
     <g id="line2d_36">
      <g>
       <use xlink:href="#m0a020e738d" x="300.241786" y="170.32" style="stroke: #000000; stroke-width: 0.4"/>
      </g>
     </g>
    </g>
    <g id="xtick_37">
     <g id="line2d_37">
      <g>
       <use xlink:href="#m0a020e738d" x="311.765391" y="170.32" style="stroke: #000000; stroke-width: 0.4"/>
      </g>
     </g>
    </g>
    <g id="xtick_38">
     <g id="line2d_38">
      <g>
       <use xlink:href="#m0a020e738d" x="323.288997" y="170.32" style="stroke: #000000; stroke-width: 0.4"/>
      </g>
     </g>
    </g>
    <g id="xtick_39">
     <g id="line2d_39">
      <g>
       <use xlink:href="#m0a020e738d" x="334.812603" y="170.32" style="stroke: #000000; stroke-width: 0.4"/>
      </g>
     </g>
    </g>
    <g id="xtick_40">
     <g id="line2d_40">
      <g>
       <use xlink:href="#m0a020e738d" x="346.336209" y="170.32" style="stroke: #000000; stroke-width: 0.4"/>
      </g>
     </g>
    </g>
    <g id="xtick_41">
     <g id="line2d_41">
      <g>
       <use xlink:href="#m0a020e738d" x="357.859815" y="170.32" style="stroke: #000000; stroke-width: 0.4"/>
      </g>
     </g>
    </g>
    <g id="xtick_42">
     <g id="line2d_42">
      <g>
       <use xlink:href="#m0a020e738d" x="369.38342" y="170.32" style="stroke: #000000; stroke-width: 0.4"/>
      </g>
     </g>
    </g>
    <g id="xtick_43">
     <g id="line2d_43">
      <g>
       <use xlink:href="#m0a020e738d" x="380.907026" y="170.32" style="stroke: #000000; stroke-width: 0.4"/>
      </g>
     </g>
    </g>
    <g id="xtick_44">
     <g id="line2d_44">
      <g>
       <use xlink:href="#m0a020e738d" x="403.954238" y="170.32" style="stroke: #000000; stroke-width: 0.4"/>
      </g>
     </g>
    </g>
    <g id="xtick_45">
     <g id="line2d_45">
      <g>
       <use xlink:href="#m0a020e738d" x="415.477843" y="170.32" style="stroke: #000000; stroke-width: 0.4"/>
      </g>
     </g>
    </g>
    <g id="xtick_46">
     <g id="line2d_46">
      <g>
       <use xlink:href="#m0a020e738d" x="427.001449" y="170.32" style="stroke: #000000; stroke-width: 0.4"/>
      </g>
     </g>
    </g>
    <g id="xtick_47">
     <g id="line2d_47">
      <g>
       <use xlink:href="#m0a020e738d" x="438.525055" y="170.32" style="stroke: #000000; stroke-width: 0.4"/>
      </g>
     </g>
    </g>
    <g id="xtick_48">
     <g id="line2d_48">
      <g>
       <use xlink:href="#m0a020e738d" x="450.048661" y="170.32" style="stroke: #000000; stroke-width: 0.4"/>
      </g>
     </g>
    </g>
    <g id="xtick_49">
     <g id="line2d_49">
      <g>
       <use xlink:href="#m0a020e738d" x="461.572266" y="170.32" style="stroke: #000000; stroke-width: 0.4"/>
      </g>
     </g>
    </g>
    <g id="xtick_50">
     <g id="line2d_50">
      <g>
       <use xlink:href="#m0a020e738d" x="473.095872" y="170.32" style="stroke: #000000; stroke-width: 0.4"/>
      </g>
     </g>
    </g>
    <g id="xtick_51">
     <g id="line2d_51">
      <g>
       <use xlink:href="#m0a020e738d" x="484.619478" y="170.32" style="stroke: #000000; stroke-width: 0.4"/>
      </g>
     </g>
    </g>
    <g id="xtick_52">
     <g id="line2d_52">
      <g>
       <use xlink:href="#m0a020e738d" x="496.143084" y="170.32" style="stroke: #000000; stroke-width: 0.4"/>
      </g>
     </g>
    </g>
    <g id="xtick_53">
     <g id="line2d_53">
      <g>
       <use xlink:href="#m0a020e738d" x="507.66669" y="170.32" style="stroke: #000000; stroke-width: 0.4"/>
      </g>
     </g>
    </g>
    <g id="xtick_54">
     <g id="line2d_54">
      <g>
       <use xlink:href="#m0a020e738d" x="519.190295" y="170.32" style="stroke: #000000; stroke-width: 0.4"/>
      </g>
     </g>
    </g>
    <g id="xtick_55">
     <g id="line2d_55">
      <g>
       <use xlink:href="#m0a020e738d" x="530.713901" y="170.32" style="stroke: #000000; stroke-width: 0.4"/>
      </g>
     </g>
    </g>
    <g id="xtick_56">
     <g id="line2d_56">
      <g>
       <use xlink:href="#m0a020e738d" x="542.237507" y="170.32" style="stroke: #000000; stroke-width: 0.4"/>
      </g>
     </g>
    </g>
    <g id="xtick_57">
     <g id="line2d_57">
      <g>
       <use xlink:href="#m0a020e738d" x="553.761113" y="170.32" style="stroke: #000000; stroke-width: 0.4"/>
      </g>
     </g>
    </g>
    <g id="xtick_58">
     <g id="line2d_58">
      <g>
       <use xlink:href="#m0a020e738d" x="565.284718" y="170.32" style="stroke: #000000; stroke-width: 0.4"/>
      </g>
     </g>
    </g>
    <g id="xtick_59">
     <g id="line2d_59">
      <g>
       <use xlink:href="#m0a020e738d" x="576.808324" y="170.32" style="stroke: #000000; stroke-width: 0.4"/>
      </g>
     </g>
    </g>
    <g id="xtick_60">
     <g id="line2d_60">
      <g>
       <use xlink:href="#m0a020e738d" x="588.33193" y="170.32" style="stroke: #000000; stroke-width: 0.4"/>
      </g>
     </g>
    </g>
    <g id="xtick_61">
     <g id="line2d_61">
      <g>
       <use xlink:href="#m0a020e738d" x="599.855536" y="170.32" style="stroke: #000000; stroke-width: 0.4"/>
      </g>
     </g>
    </g>
    <g id="xtick_62">
     <g id="line2d_62">
      <g>
       <use xlink:href="#m0a020e738d" x="611.379141" y="170.32" style="stroke: #000000; stroke-width: 0.4"/>
      </g>
     </g>
    </g>
    <g id="xtick_63">
     <g id="line2d_63">
      <g>
       <use xlink:href="#m0a020e738d" x="622.902747" y="170.32" style="stroke: #000000; stroke-width: 0.4"/>
      </g>
     </g>
    </g>
    <g id="xtick_64">
     <g id="line2d_64">
      <g>
       <use xlink:href="#m0a020e738d" x="634.426353" y="170.32" style="stroke: #000000; stroke-width: 0.4"/>
      </g>
     </g>
    </g>
    <g id="text_13">
     <!-- Date -->
     <g transform="translate(332.527062 206.807375) scale(0.088 -0.088)">
      <use xlink:href="#DejaVuSans-44"/>
      <use xlink:href="#DejaVuSans-61" x="77.001953"/>
      <use xlink:href="#DejaVuSans-74" x="138.28125"/>
      <use xlink:href="#DejaVuSans-65" x="177.490234"/>
     </g>
    </g>
   </g>
   <g id="matplotlib.axis_2">
    <g id="ytick_1">
     <g id="line2d_65">
      <defs>
       <path id="ma13a7cd0b5" d="M 0 0 
L -3.5 0 
" style="stroke: #000000; stroke-width: 0.8"/>
      </defs>
      <g>
       <use xlink:href="#ma13a7cd0b5" x="43.43" y="170.32" style="stroke: #000000; stroke-width: 0.8"/>
      </g>
     </g>
     <g id="text_14">
      <!-- 0 -->
      <g transform="translate(29.24 173.359375) scale(0.08 -0.08)">
       <use xlink:href="#DejaVuSans-30"/>
      </g>
     </g>
    </g>
    <g id="ytick_2">
     <g id="line2d_66">
      <g>
       <use xlink:href="#ma13a7cd0b5" x="43.43" y="139.643077" style="stroke: #000000; stroke-width: 0.8"/>
      </g>
     </g>
     <g id="text_15">
      <!-- 5 -->
      <g transform="translate(29.24 142.682452) scale(0.08 -0.08)">
       <defs>
        <path id="DejaVuSans-35" d="M 691 4666 
L 3169 4666 
L 3169 4134 
L 1269 4134 
L 1269 2991 
Q 1406 3038 1543 3061 
Q 1681 3084 1819 3084 
Q 2600 3084 3056 2656 
Q 3513 2228 3513 1497 
Q 3513 744 3044 326 
Q 2575 -91 1722 -91 
Q 1428 -91 1123 -41 
Q 819 9 494 109 
L 494 744 
Q 775 591 1075 516 
Q 1375 441 1709 441 
Q 2250 441 2565 725 
Q 2881 1009 2881 1497 
Q 2881 1984 2565 2268 
Q 2250 2553 1709 2553 
Q 1456 2553 1204 2497 
Q 953 2441 691 2322 
L 691 4666 
z
" transform="scale(0.015625)"/>
       </defs>
       <use xlink:href="#DejaVuSans-35"/>
      </g>
     </g>
    </g>
    <g id="ytick_3">
     <g id="line2d_67">
      <g>
       <use xlink:href="#ma13a7cd0b5" x="43.43" y="108.966154" style="stroke: #000000; stroke-width: 0.8"/>
      </g>
     </g>
     <g id="text_16">
      <!-- 10 -->
      <g transform="translate(24.15 112.005529) scale(0.08 -0.08)">
       <defs>
        <path id="DejaVuSans-31" d="M 794 531 
L 1825 531 
L 1825 4091 
L 703 3866 
L 703 4441 
L 1819 4666 
L 2450 4666 
L 2450 531 
L 3481 531 
L 3481 0 
L 794 0 
L 794 531 
z
" transform="scale(0.015625)"/>
       </defs>
       <use xlink:href="#DejaVuSans-31"/>
       <use xlink:href="#DejaVuSans-30" x="63.623047"/>
      </g>
     </g>
    </g>
    <g id="ytick_4">
     <g id="line2d_68">
      <g>
       <use xlink:href="#ma13a7cd0b5" x="43.43" y="78.289231" style="stroke: #000000; stroke-width: 0.8"/>
      </g>
     </g>
     <g id="text_17">
      <!-- 15 -->
      <g transform="translate(24.15 81.328606) scale(0.08 -0.08)">
       <use xlink:href="#DejaVuSans-31"/>
       <use xlink:href="#DejaVuSans-35" x="63.623047"/>
      </g>
     </g>
    </g>
    <g id="ytick_5">
     <g id="line2d_69">
      <g>
       <use xlink:href="#ma13a7cd0b5" x="43.43" y="47.612308" style="stroke: #000000; stroke-width: 0.8"/>
      </g>
     </g>
     <g id="text_18">
      <!-- 20 -->
      <g transform="translate(24.15 50.651683) scale(0.08 -0.08)">
       <use xlink:href="#DejaVuSans-32"/>
       <use xlink:href="#DejaVuSans-30" x="63.623047"/>
      </g>
     </g>
    </g>
    <g id="ytick_6">
     <g id="line2d_70">
      <g>
       <use xlink:href="#ma13a7cd0b5" x="43.43" y="16.935385" style="stroke: #000000; stroke-width: 0.8"/>
      </g>
     </g>
     <g id="text_19">
      <!-- 25 -->
      <g transform="translate(24.15 19.97476) scale(0.08 -0.08)">
       <use xlink:href="#DejaVuSans-32"/>
       <use xlink:href="#DejaVuSans-35" x="63.623047"/>
      </g>
     </g>
    </g>
    <g id="text_20">
     <!-- Energy in MW -->
     <g transform="translate(18.319875 120.92) rotate(-90) scale(0.088 -0.088)">
      <defs>
       <path id="DejaVuSans-45" d="M 628 4666 
L 3578 4666 
L 3578 4134 
L 1259 4134 
L 1259 2753 
L 3481 2753 
L 3481 2222 
L 1259 2222 
L 1259 531 
L 3634 531 
L 3634 0 
L 628 0 
L 628 4666 
z
" transform="scale(0.015625)"/>
       <path id="DejaVuSans-20" transform="scale(0.015625)"/>
       <path id="DejaVuSans-69" d="M 603 3500 
L 1178 3500 
L 1178 0 
L 603 0 
L 603 3500 
z
M 603 4863 
L 1178 4863 
L 1178 4134 
L 603 4134 
L 603 4863 
z
" transform="scale(0.015625)"/>
       <path id="DejaVuSans-57" d="M 213 4666 
L 850 4666 
L 1831 722 
L 2809 4666 
L 3519 4666 
L 4500 722 
L 5478 4666 
L 6119 4666 
L 4947 0 
L 4153 0 
L 3169 4050 
L 2175 0 
L 1381 0 
L 213 4666 
z
" transform="scale(0.015625)"/>
      </defs>
      <use xlink:href="#DejaVuSans-45"/>
      <use xlink:href="#DejaVuSans-6e" x="63.183594"/>
      <use xlink:href="#DejaVuSans-65" x="126.5625"/>
      <use xlink:href="#DejaVuSans-72" x="188.085938"/>
      <use xlink:href="#DejaVuSans-67" x="227.449219"/>
      <use xlink:href="#DejaVuSans-79" x="290.925781"/>
      <use xlink:href="#DejaVuSans-20" x="350.105469"/>
      <use xlink:href="#DejaVuSans-69" x="381.892578"/>
      <use xlink:href="#DejaVuSans-6e" x="409.675781"/>
      <use xlink:href="#DejaVuSans-20" x="473.054688"/>
      <use xlink:href="#DejaVuSans-4d" x="504.841797"/>
      <use xlink:href="#DejaVuSans-57" x="591.121094"/>
     </g>
    </g>
   </g>
   <g id="line2d_71">
    <path d="M 43.43 119.461162 
L 45.076229 113.937373 
L 46.722459 119.412142 
L 48.368688 122.794923 
L 50.014918 92.4445 
L 51.661147 66.980567 
L 53.307376 50.950912 
L 54.953606 53.310856 
L 56.599835 59.545911 
L 58.246065 52.862575 
L 59.892294 50.193256 
L 61.538523 37.474316 
L 63.184753 31.22496 
L 64.830982 35.852713 
L 66.477212 44.481097 
L 68.123441 51.3634 
L 69.76967 56.935409 
L 71.4159 59.415883 
L 73.062129 58.353988 
L 74.708359 56.8492 
L 76.354588 47.653958 
L 78.000817 56.031714 
L 79.647047 60.3945 
L 81.293276 51.44717 
L 82.939505 45.572175 
L 84.585735 45.197744 
L 86.231964 50.107256 
L 87.878194 59.022083 
L 89.524423 76.932922 
L 91.170652 85.050535 
L 92.816882 68.650667 
L 94.463111 61.742356 
L 96.109341 71.330456 
L 97.75557 78.868553 
L 99.401799 83.50248 
L 101.048029 82.62587 
L 102.694258 84.422634 
L 104.340488 67.492848 
L 105.986717 73.431992 
L 109.279176 81.33357 
L 110.925405 78.467641 
L 112.571635 68.448192 
L 114.217864 67.531748 
L 115.864093 67.816805 
L 117.510323 73.831503 
L 119.156552 86.034726 
L 120.802782 112.100912 
L 122.449011 121.384725 
L 124.09524 110.591329 
L 125.74147 110.287084 
L 127.387699 99.509146 
L 129.033929 91.095167 
L 130.680158 93.939007 
L 132.326387 94.491249 
L 133.972617 80.939944 
L 135.618846 73.949 
L 137.265076 64.372967 
L 138.911305 51.651748 
L 140.557534 47.551315 
L 142.203764 46.543 
L 143.849993 49.064743 
L 145.496223 47.316086 
L 147.142452 52.463834 
L 148.788681 50.501886 
L 150.434911 38.193207 
L 152.08114 41.279972 
L 153.72737 50.987426 
L 155.373599 64.286077 
L 157.019828 67.860477 
L 158.666058 78.588669 
L 160.312287 86.533813 
L 161.958516 96.184684 
L 163.604746 101.596487 
L 165.250975 104.790829 
L 166.897205 102.60426 
L 168.543434 102.155953 
L 170.189663 99.038865 
L 171.835893 101.698139 
L 173.482122 94.246396 
L 175.128352 97.594123 
L 176.774581 104.44823 
L 178.42081 110.473635 
L 180.06704 117.914074 
L 181.713269 123.226323 
L 183.359499 125.632912 
L 185.005728 126.591949 
L 186.651957 130.567626 
L 188.298187 126.629548 
L 189.944416 116.028214 
L 193.236875 69.823822 
L 194.883104 56.678343 
L 196.529334 52.65694 
L 198.175563 76.253336 
L 199.821793 112.312638 
L 201.468022 128.186327 
L 203.114251 125.888137 
L 204.760481 110.450641 
L 206.40671 92.305941 
L 208.05294 88.379057 
L 209.699169 110.08405 
L 211.345398 129.503719 
L 212.991628 142.178691 
L 214.637857 144.373825 
L 216.284087 130.393996 
L 217.930316 112.552656 
L 219.576545 104.638352 
L 221.222775 106.681277 
L 222.869004 103.323271 
L 227.807692 127.253851 
L 229.453922 128.758577 
L 231.100151 127.699032 
L 232.74638 120.534137 
L 234.39261 116.533813 
L 236.038839 119.729373 
L 237.685069 126.788251 
L 239.331298 128.831106 
L 240.977527 129.102891 
L 242.623757 130.964073 
L 244.269986 138.804714 
L 245.916216 142.858559 
L 247.562445 145.518997 
L 249.208674 143.846267 
L 250.854904 143.190851 
L 252.501133 144.370489 
L 254.147363 147.142525 
L 255.793592 151.40044 
L 257.439821 156.679528 
L 259.086051 158.472034 
L 260.73228 156.956335 
L 262.37851 156.292052 
L 264.024739 156.350331 
L 265.670968 154.431432 
L 267.317198 155.605706 
L 268.963427 156.172361 
L 270.609657 158.05396 
L 272.255886 160.242143 
L 273.902115 159.471468 
L 275.548345 157.859593 
L 277.194574 156.536639 
L 278.840804 152.679532 
L 280.487033 149.876989 
L 282.133262 150.265857 
L 283.779492 151.551828 
L 285.425721 147.566791 
L 287.071951 136.516649 
L 288.71818 132.898895 
L 292.010639 147.539335 
L 295.303098 156.505413 
L 296.949327 159.032517 
L 298.595556 158.871433 
L 300.241786 158.034958 
L 301.888015 155.333884 
L 303.534245 155.373016 
L 305.180474 151.605162 
L 306.826703 151.860139 
L 308.472933 155.944964 
L 310.119162 158.917118 
L 311.765391 157.611354 
L 313.411621 156.861992 
L 315.05785 158.528157 
L 316.70408 159.335686 
L 318.350309 159.242168 
L 319.996538 160.909954 
L 321.642768 161.666048 
L 323.288997 160.954172 
L 324.935227 159.998142 
L 326.581456 159.338982 
L 328.227685 159.814589 
L 329.873915 159.091592 
L 331.520144 159.356413 
L 333.166374 160.413944 
L 334.812603 160.24125 
L 336.458832 159.26077 
L 338.105062 159.108157 
L 339.751291 159.790536 
L 341.397521 156.593287 
L 343.04375 156.320876 
L 344.689979 159.598603 
L 346.336209 159.298759 
L 347.982438 159.4629 
L 349.628668 159.153266 
L 352.921126 153.030182 
L 354.567356 155.279735 
L 356.213585 154.39662 
L 357.859815 153.19666 
L 359.506044 155.484511 
L 361.152273 158.764313 
L 362.798503 160.679922 
L 366.090962 160.218849 
L 367.737191 159.73319 
L 369.38342 159.584977 
L 371.02965 160.623278 
L 372.675879 161.322323 
L 374.322109 161.012437 
L 377.614567 161.617771 
L 379.260797 161.621709 
L 380.907026 161.282171 
L 382.553255 160.71021 
L 384.199485 160.290981 
L 385.845714 160.088838 
L 389.138173 160.252665 
L 390.784402 160.413897 
L 392.430632 160.250996 
L 394.076861 160.220683 
L 395.723091 160.827357 
L 397.36932 161.175819 
L 399.015549 161.40215 
L 400.661779 160.847162 
L 403.954238 158.381033 
L 405.600467 158.63296 
L 407.246696 159.203402 
L 408.892926 159.538685 
L 410.539155 159.05173 
L 412.185385 159.493768 
L 413.831614 160.373813 
L 415.477843 159.951596 
L 417.124073 160.235354 
L 418.770302 160.84381 
L 420.416532 160.383956 
L 423.70899 158.279358 
L 425.35522 158.102885 
L 427.001449 156.909859 
L 428.647679 157.004882 
L 430.293908 157.63498 
L 431.940137 158.940942 
L 433.586367 159.826976 
L 435.232596 159.809731 
L 436.878826 159.050081 
L 438.525055 158.08948 
L 440.171284 158.467525 
L 443.463743 154.071889 
L 445.109973 152.790264 
L 448.402431 155.612632 
L 453.34112 159.002774 
L 454.987349 157.496119 
L 456.633578 154.458769 
L 458.279808 152.928149 
L 459.926037 150.40304 
L 461.572266 148.665106 
L 464.864725 156.488517 
L 466.510955 155.639038 
L 468.157184 148.511908 
L 469.803413 137.761554 
L 471.449643 129.617288 
L 473.095872 122.713022 
L 474.742102 120.83853 
L 476.388331 115.962091 
L 478.03456 114.871971 
L 479.68079 121.789495 
L 481.327019 133.304701 
L 482.973249 138.625949 
L 484.619478 137.69368 
L 486.265707 130.750894 
L 487.911937 122.475786 
L 489.558166 115.583399 
L 491.204396 119.397861 
L 492.850625 126.82648 
L 494.496854 135.162872 
L 496.143084 131.672722 
L 497.789313 125.623765 
L 499.435543 133.67969 
L 501.081772 139.524745 
L 502.728001 139.562277 
L 504.374231 141.846847 
L 506.02046 135.185037 
L 507.66669 136.244901 
L 509.312919 140.547144 
L 510.959148 140.919321 
L 512.605378 139.378862 
L 514.251607 142.89138 
L 515.897837 148.709345 
L 517.544066 151.885996 
L 519.190295 149.722574 
L 520.836525 149.158349 
L 522.482754 146.655324 
L 524.128984 140.365258 
L 525.775213 141.790716 
L 527.421442 143.861857 
L 529.067672 144.719334 
L 530.713901 144.352367 
L 532.36013 141.47818 
L 534.00636 142.403521 
L 535.652589 142.213687 
L 537.298819 144.473793 
L 538.945048 147.900518 
L 540.591277 147.660869 
L 542.237507 141.132616 
L 543.883736 138.175852 
L 545.529966 132.273071 
L 547.176195 121.489795 
L 548.822424 114.121449 
L 550.468654 111.14599 
L 552.114883 104.321366 
L 553.761113 111.225846 
L 555.407342 107.42881 
L 557.053571 112.479448 
L 558.699801 115.973247 
L 560.34603 100.593427 
L 561.99226 94.871957 
L 563.638489 96.443512 
L 565.284718 96.224689 
L 566.930948 95.336501 
L 568.577177 95.762845 
L 570.223407 98.021927 
L 571.869636 100.505114 
L 573.515865 101.184278 
L 575.162095 96.116731 
L 576.808324 83.597496 
L 578.454554 77.572225 
L 580.100783 78.383346 
L 581.747012 85.0271 
L 583.393242 81.192758 
L 585.039471 89.179607 
L 586.685701 73.901002 
L 588.33193 65.496754 
L 589.978159 71.410257 
L 591.624389 66.571784 
L 593.270618 64.176227 
L 594.916848 61.307877 
L 596.563077 60.188548 
L 598.209306 61.721168 
L 599.855536 56.549333 
L 601.501765 57.839006 
L 603.147995 57.777079 
L 604.794224 48.100676 
L 606.440453 45.579555 
L 608.086683 51.627455 
L 609.732912 38.711545 
L 611.379141 19.223056 
L 613.025371 10.247687 
L 614.6716 18.724403 
L 616.31783 25.873483 
L 617.964059 31.490013 
L 619.610288 28.629119 
L 621.256518 22.56725 
L 622.902747 18.562291 
L 624.548977 29.366688 
L 626.195206 51.556933 
L 627.841435 81.757886 
L 629.487665 109.203325 
L 631.133894 120.303662 
L 632.780124 117.847977 
L 634.426353 113.018149 
L 636.072582 91.407387 
L 637.718812 75.929451 
L 639.365041 83.975303 
L 641.011271 93.065274 
L 642.6575 121.901094 
L 642.6575 121.901094 
" clip-path="url(#p30f97dc392)" style="fill: none"/>
   </g>
   <g id="patch_3">
    <path d="M 43.43 170.32 
L 43.43 10.8 
" style="fill: none; stroke: #000000; stroke-width: 0.8; stroke-linejoin: miter; stroke-linecap: square"/>
   </g>
   <g id="patch_4">
    <path d="M 642.6575 170.32 
L 642.6575 10.8 
" style="fill: none; stroke: #000000; stroke-width: 0.8; stroke-linejoin: miter; stroke-linecap: square"/>
   </g>
   <g id="patch_5">
    <path d="M 43.43 170.32 
L 642.6575 170.32 
" style="fill: none; stroke: #000000; stroke-width: 0.8; stroke-linejoin: miter; stroke-linecap: square"/>
   </g>
   <g id="patch_6">
    <path d="M 43.43 10.8 
L 642.6575 10.8 
" style="fill: none; stroke: #000000; stroke-width: 0.8; stroke-linejoin: miter; stroke-linecap: square"/>
   </g>
   <g id="legend_1">
    <g id="patch_7">
     <path d="M 284.55375 246.08 
L 401.53375 246.08 
Q 403.13375 246.08 403.13375 244.48 
L 403.13375 233.5375 
Q 403.13375 231.9375 401.53375 231.9375 
L 284.55375 231.9375 
Q 282.95375 231.9375 282.95375 233.5375 
L 282.95375 244.48 
Q 282.95375 246.08 284.55375 246.08 
z
" style="fill: #ffffff; opacity: 0.8; stroke: #cccccc; stroke-width: 0.24; stroke-linejoin: miter"/>
    </g>
    <g id="patch_8">
     <path d="M 286.15375 241.21625 
L 302.15375 241.21625 
L 302.15375 235.61625 
L 286.15375 235.61625 
z
" style="fill: #0f1b5f; fill-opacity: 0.8"/>
    </g>
    <g id="text_21">
     <!-- dec ground heat pump -->
     <g transform="translate(308.55375 241.21625) scale(0.08 -0.08)">
      <defs>
       <path id="DejaVuSans-64" d="M 2906 2969 
L 2906 4863 
L 3481 4863 
L 3481 0 
L 2906 0 
L 2906 525 
Q 2725 213 2448 61 
Q 2172 -91 1784 -91 
Q 1150 -91 751 415 
Q 353 922 353 1747 
Q 353 2572 751 3078 
Q 1150 3584 1784 3584 
Q 2172 3584 2448 3432 
Q 2725 3281 2906 2969 
z
M 947 1747 
Q 947 1113 1208 752 
Q 1469 391 1925 391 
Q 2381 391 2643 752 
Q 2906 1113 2906 1747 
Q 2906 2381 2643 2742 
Q 2381 3103 1925 3103 
Q 1469 3103 1208 2742 
Q 947 2381 947 1747 
z
" transform="scale(0.015625)"/>
       <path id="DejaVuSans-68" d="M 3513 2113 
L 3513 0 
L 2938 0 
L 2938 2094 
Q 2938 2591 2744 2837 
Q 2550 3084 2163 3084 
Q 1697 3084 1428 2787 
Q 1159 2491 1159 1978 
L 1159 0 
L 581 0 
L 581 4863 
L 1159 4863 
L 1159 2956 
Q 1366 3272 1645 3428 
Q 1925 3584 2291 3584 
Q 2894 3584 3203 3211 
Q 3513 2838 3513 2113 
z
" transform="scale(0.015625)"/>
       <path id="DejaVuSans-6d" d="M 3328 2828 
Q 3544 3216 3844 3400 
Q 4144 3584 4550 3584 
Q 5097 3584 5394 3201 
Q 5691 2819 5691 2113 
L 5691 0 
L 5113 0 
L 5113 2094 
Q 5113 2597 4934 2840 
Q 4756 3084 4391 3084 
Q 3944 3084 3684 2787 
Q 3425 2491 3425 1978 
L 3425 0 
L 2847 0 
L 2847 2094 
Q 2847 2600 2669 2842 
Q 2491 3084 2119 3084 
Q 1678 3084 1418 2786 
Q 1159 2488 1159 1978 
L 1159 0 
L 581 0 
L 581 3500 
L 1159 3500 
L 1159 2956 
Q 1356 3278 1631 3431 
Q 1906 3584 2284 3584 
Q 2666 3584 2933 3390 
Q 3200 3197 3328 2828 
z
" transform="scale(0.015625)"/>
      </defs>
      <use xlink:href="#DejaVuSans-64"/>
      <use xlink:href="#DejaVuSans-65" x="63.476562"/>
      <use xlink:href="#DejaVuSans-63" x="125"/>
      <use xlink:href="#DejaVuSans-20" x="179.980469"/>
      <use xlink:href="#DejaVuSans-67" x="211.767578"/>
      <use xlink:href="#DejaVuSans-72" x="275.244141"/>
      <use xlink:href="#DejaVuSans-6f" x="314.107422"/>
      <use xlink:href="#DejaVuSans-75" x="375.289062"/>
      <use xlink:href="#DejaVuSans-6e" x="438.667969"/>
      <use xlink:href="#DejaVuSans-64" x="502.046875"/>
      <use xlink:href="#DejaVuSans-20" x="565.523438"/>
      <use xlink:href="#DejaVuSans-68" x="597.310547"/>
      <use xlink:href="#DejaVuSans-65" x="660.689453"/>
      <use xlink:href="#DejaVuSans-61" x="722.212891"/>
      <use xlink:href="#DejaVuSans-74" x="783.492188"/>
      <use xlink:href="#DejaVuSans-20" x="822.701172"/>
      <use xlink:href="#DejaVuSans-70" x="854.488281"/>
      <use xlink:href="#DejaVuSans-75" x="917.964844"/>
      <use xlink:href="#DejaVuSans-6d" x="981.34375"/>
      <use xlink:href="#DejaVuSans-70" x="1078.755859"/>
     </g>
    </g>
   </g>
  </g>
  <g id="axes_2">
   <g id="patch_9">
    <path d="M 817.13675 90.56 
C 817.13675 82.18081 815.486232 73.883097 812.279655 66.141736 
C 809.073078 58.400374 804.372801 51.365912 798.447819 45.440931 
C 792.522838 39.515949 785.488376 34.815672 777.747014 31.609095 
C 770.005653 28.402518 761.70794 26.752 753.32875 26.752 
C 744.94956 26.752 736.651847 28.402518 728.910486 31.609095 
C 721.169124 34.815672 714.134662 39.515949 708.209681 45.440931 
C 702.284699 51.365912 697.584422 58.400374 694.377845 66.141736 
C 691.171268 73.883097 689.52075 82.18081 689.52075 90.56 
C 689.52075 98.93919 691.171268 107.236903 694.377845 114.978264 
C 697.584422 122.719626 702.284699 129.754088 708.209681 135.679069 
C 714.134662 141.604051 721.169124 146.304328 728.910486 149.510905 
C 736.651847 152.717482 744.94956 154.368 753.32875 154.368 
C 761.70794 154.368 770.005653 152.717482 777.747014 149.510905 
C 785.488376 146.304328 792.522838 141.604051 798.447819 135.679069 
C 804.372801 129.754088 809.073078 122.719626 812.279655 114.978264 
C 815.486232 107.236903 817.13675 98.93919 817.13675 90.56 
M 753.32875 90.56 
z
" style="fill: #0f1b5f; opacity: 0.8"/>
   </g>
   <g id="matplotlib.axis_3"/>
   <g id="matplotlib.axis_4"/>
   <g id="text_22">
    <!-- 100.0% -->
    <g transform="translate(734.263906 131.604175) scale(0.1 -0.1)">
     <defs>
      <path id="DejaVuSans-2e" d="M 684 794 
L 1344 794 
L 1344 0 
L 684 0 
L 684 794 
z
" transform="scale(0.015625)"/>
      <path id="DejaVuSans-25" d="M 4653 2053 
Q 4381 2053 4226 1822 
Q 4072 1591 4072 1178 
Q 4072 772 4226 539 
Q 4381 306 4653 306 
Q 4919 306 5073 539 
Q 5228 772 5228 1178 
Q 5228 1588 5073 1820 
Q 4919 2053 4653 2053 
z
M 4653 2450 
Q 5147 2450 5437 2106 
Q 5728 1763 5728 1178 
Q 5728 594 5436 251 
Q 5144 -91 4653 -91 
Q 4153 -91 3862 251 
Q 3572 594 3572 1178 
Q 3572 1766 3864 2108 
Q 4156 2450 4653 2450 
z
M 1428 4353 
Q 1159 4353 1004 4120 
Q 850 3888 850 3481 
Q 850 3069 1003 2837 
Q 1156 2606 1428 2606 
Q 1700 2606 1854 2837 
Q 2009 3069 2009 3481 
Q 2009 3884 1853 4118 
Q 1697 4353 1428 4353 
z
M 4250 4750 
L 4750 4750 
L 1831 -91 
L 1331 -91 
L 4250 4750 
z
M 1428 4750 
Q 1922 4750 2215 4408 
Q 2509 4066 2509 3481 
Q 2509 2891 2217 2550 
Q 1925 2209 1428 2209 
Q 931 2209 642 2551 
Q 353 2894 353 3481 
Q 353 4063 643 4406 
Q 934 4750 1428 4750 
z
" transform="scale(0.015625)"/>
     </defs>
     <use xlink:href="#DejaVuSans-31"/>
     <use xlink:href="#DejaVuSans-30" x="63.623047"/>
     <use xlink:href="#DejaVuSans-30" x="127.246094"/>
     <use xlink:href="#DejaVuSans-2e" x="190.869141"/>
     <use xlink:href="#DejaVuSans-30" x="222.65625"/>
     <use xlink:href="#DejaVuSans-25" x="286.279297"/>
    </g>
   </g>
  </g>
 </g>
 <defs>
  <clipPath id="p30f97dc392">
   <rect x="43.43" y="10.8" width="599.2275" height="159.52"/>
  </clipPath>
 </defs>
</svg>
