<?xml version="1.0" encoding="utf-8" standalone="no"?>
<!DOCTYPE svg PUBLIC "-//W3C//DTD SVG 1.1//EN"
  "http://www.w3.org/Graphics/SVG/1.1/DTD/svg11.dtd">
<svg xmlns:xlink="http://www.w3.org/1999/xlink" width="864pt" height="288pt" viewBox="0 0 864 288" xmlns="http://www.w3.org/2000/svg" version="1.1">
 <metadata>
  <rdf:RDF xmlns:dc="http://purl.org/dc/elements/1.1/" xmlns:cc="http://creativecommons.org/ns#" xmlns:rdf="http://www.w3.org/1999/02/22-rdf-syntax-ns#">
   <cc:Work>
    <dc:type rdf:resource="http://purl.org/dc/dcmitype/StillImage"/>
    <dc:date>2025-05-28T09:15:25.520865</dc:date>
    <dc:format>image/svg+xml</dc:format>
    <dc:creator>
     <cc:Agent>
      <dc:title>Matplotlib v3.9.0, https://matplotlib.org/</dc:title>
     </cc:Agent>
    </dc:creator>
   </cc:Work>
  </rdf:RDF>
 </metadata>
 <defs>
  <style type="text/css">*{stroke-linejoin: round; stroke-linecap: butt}</style>
 </defs>
 <g id="figure_1">
  <g id="patch_1">
   <path d="M 0 288 
L 864 288 
L 864 0 
L 0 0 
z
" style="fill: #ffffff"/>
  </g>
  <g id="axes_1">
   <g id="patch_2">
    <path d="M 48.47 170.32 
L 643.9175 170.32 
L 643.9175 10.8 
L 48.47 10.8 
z
" style="fill: #ffffff"/>
   </g>
   <g id="matplotlib.axis_1">
    <g id="xtick_1">
     <g id="line2d_1">
      <path d="M 48.47 170.32 
L 48.47 10.8 
" clip-path="url(#pf2d61b58fa)" style="fill: none; stroke: #b0b0b0; stroke-width: 0.8; stroke-linecap: square"/>
     </g>
     <g id="line2d_2">
      <defs>
       <path id="m5282e75d8d" d="M 0 0 
L 0 3.5 
" style="stroke: #000000; stroke-width: 0.8"/>
      </defs>
      <g>
       <use xlink:href="#m5282e75d8d" x="48.47" y="170.32" style="stroke: #000000; stroke-width: 0.8"/>
      </g>
     </g>
     <g id="text_1">
      <!-- Jan -->
      <g transform="translate(42.30375 185.49875) scale(0.08 -0.08)">
       <defs>
        <path id="DejaVuSans-4a" d="M 628 4666 
L 1259 4666 
L 1259 325 
Q 1259 -519 939 -900 
Q 619 -1281 -91 -1281 
L -331 -1281 
L -331 -750 
L -134 -750 
Q 284 -750 456 -515 
Q 628 -281 628 325 
L 628 4666 
z
" transform="scale(0.015625)"/>
        <path id="DejaVuSans-61" d="M 2194 1759 
Q 1497 1759 1228 1600 
Q 959 1441 959 1056 
Q 959 750 1161 570 
Q 1363 391 1709 391 
Q 2188 391 2477 730 
Q 2766 1069 2766 1631 
L 2766 1759 
L 2194 1759 
z
M 3341 1997 
L 3341 0 
L 2766 0 
L 2766 531 
Q 2569 213 2275 61 
Q 1981 -91 1556 -91 
Q 1019 -91 701 211 
Q 384 513 384 1019 
Q 384 1609 779 1909 
Q 1175 2209 1959 2209 
L 2766 2209 
L 2766 2266 
Q 2766 2663 2505 2880 
Q 2244 3097 1772 3097 
Q 1472 3097 1187 3025 
Q 903 2953 641 2809 
L 641 3341 
Q 956 3463 1253 3523 
Q 1550 3584 1831 3584 
Q 2591 3584 2966 3190 
Q 3341 2797 3341 1997 
z
" transform="scale(0.015625)"/>
        <path id="DejaVuSans-6e" d="M 3513 2113 
L 3513 0 
L 2938 0 
L 2938 2094 
Q 2938 2591 2744 2837 
Q 2550 3084 2163 3084 
Q 1697 3084 1428 2787 
Q 1159 2491 1159 1978 
L 1159 0 
L 581 0 
L 581 3500 
L 1159 3500 
L 1159 2956 
Q 1366 3272 1645 3428 
Q 1925 3584 2291 3584 
Q 2894 3584 3203 3211 
Q 3513 2838 3513 2113 
z
" transform="scale(0.015625)"/>
       </defs>
       <use xlink:href="#DejaVuSans-4a"/>
       <use xlink:href="#DejaVuSans-61" x="29.492188"/>
       <use xlink:href="#DejaVuSans-6e" x="90.771484"/>
      </g>
      <!-- 2022 -->
      <g transform="translate(38.29 194.457) scale(0.08 -0.08)">
       <defs>
        <path id="DejaVuSans-32" d="M 1228 531 
L 3431 531 
L 3431 0 
L 469 0 
L 469 531 
Q 828 903 1448 1529 
Q 2069 2156 2228 2338 
Q 2531 2678 2651 2914 
Q 2772 3150 2772 3378 
Q 2772 3750 2511 3984 
Q 2250 4219 1831 4219 
Q 1534 4219 1204 4116 
Q 875 4013 500 3803 
L 500 4441 
Q 881 4594 1212 4672 
Q 1544 4750 1819 4750 
Q 2544 4750 2975 4387 
Q 3406 4025 3406 3419 
Q 3406 3131 3298 2873 
Q 3191 2616 2906 2266 
Q 2828 2175 2409 1742 
Q 1991 1309 1228 531 
z
" transform="scale(0.015625)"/>
        <path id="DejaVuSans-30" d="M 2034 4250 
Q 1547 4250 1301 3770 
Q 1056 3291 1056 2328 
Q 1056 1369 1301 889 
Q 1547 409 2034 409 
Q 2525 409 2770 889 
Q 3016 1369 3016 2328 
Q 3016 3291 2770 3770 
Q 2525 4250 2034 4250 
z
M 2034 4750 
Q 2819 4750 3233 4129 
Q 3647 3509 3647 2328 
Q 3647 1150 3233 529 
Q 2819 -91 2034 -91 
Q 1250 -91 836 529 
Q 422 1150 422 2328 
Q 422 3509 836 4129 
Q 1250 4750 2034 4750 
z
" transform="scale(0.015625)"/>
       </defs>
       <use xlink:href="#DejaVuSans-32"/>
       <use xlink:href="#DejaVuSans-30" x="63.623047"/>
       <use xlink:href="#DejaVuSans-32" x="127.246094"/>
       <use xlink:href="#DejaVuSans-32" x="190.869141"/>
      </g>
     </g>
    </g>
    <g id="xtick_2">
     <g id="line2d_3">
      <path d="M 99.181188 170.32 
L 99.181188 10.8 
" clip-path="url(#pf2d61b58fa)" style="fill: none; stroke: #b0b0b0; stroke-width: 0.8; stroke-linecap: square"/>
     </g>
     <g id="line2d_4">
      <g>
       <use xlink:href="#m5282e75d8d" x="99.181188" y="170.32" style="stroke: #000000; stroke-width: 0.8"/>
      </g>
     </g>
     <g id="text_2">
      <!-- Feb -->
      <g transform="translate(92.099938 185.49875) scale(0.08 -0.08)">
       <defs>
        <path id="DejaVuSans-46" d="M 628 4666 
L 3309 4666 
L 3309 4134 
L 1259 4134 
L 1259 2759 
L 3109 2759 
L 3109 2228 
L 1259 2228 
L 1259 0 
L 628 0 
L 628 4666 
z
" transform="scale(0.015625)"/>
        <path id="DejaVuSans-65" d="M 3597 1894 
L 3597 1613 
L 953 1613 
Q 991 1019 1311 708 
Q 1631 397 2203 397 
Q 2534 397 2845 478 
Q 3156 559 3463 722 
L 3463 178 
Q 3153 47 2828 -22 
Q 2503 -91 2169 -91 
Q 1331 -91 842 396 
Q 353 884 353 1716 
Q 353 2575 817 3079 
Q 1281 3584 2069 3584 
Q 2775 3584 3186 3129 
Q 3597 2675 3597 1894 
z
M 3022 2063 
Q 3016 2534 2758 2815 
Q 2500 3097 2075 3097 
Q 1594 3097 1305 2825 
Q 1016 2553 972 2059 
L 3022 2063 
z
" transform="scale(0.015625)"/>
        <path id="DejaVuSans-62" d="M 3116 1747 
Q 3116 2381 2855 2742 
Q 2594 3103 2138 3103 
Q 1681 3103 1420 2742 
Q 1159 2381 1159 1747 
Q 1159 1113 1420 752 
Q 1681 391 2138 391 
Q 2594 391 2855 752 
Q 3116 1113 3116 1747 
z
M 1159 2969 
Q 1341 3281 1617 3432 
Q 1894 3584 2278 3584 
Q 2916 3584 3314 3078 
Q 3713 2572 3713 1747 
Q 3713 922 3314 415 
Q 2916 -91 2278 -91 
Q 1894 -91 1617 61 
Q 1341 213 1159 525 
L 1159 0 
L 581 0 
L 581 4863 
L 1159 4863 
L 1159 2969 
z
" transform="scale(0.015625)"/>
       </defs>
       <use xlink:href="#DejaVuSans-46"/>
       <use xlink:href="#DejaVuSans-65" x="52.019531"/>
       <use xlink:href="#DejaVuSans-62" x="113.542969"/>
      </g>
     </g>
    </g>
    <g id="xtick_3">
     <g id="line2d_5">
      <path d="M 144.984842 170.32 
L 144.984842 10.8 
" clip-path="url(#pf2d61b58fa)" style="fill: none; stroke: #b0b0b0; stroke-width: 0.8; stroke-linecap: square"/>
     </g>
     <g id="line2d_6">
      <g>
       <use xlink:href="#m5282e75d8d" x="144.984842" y="170.32" style="stroke: #000000; stroke-width: 0.8"/>
      </g>
     </g>
     <g id="text_3">
      <!-- Mar -->
      <g transform="translate(137.437967 185.49875) scale(0.08 -0.08)">
       <defs>
        <path id="DejaVuSans-4d" d="M 628 4666 
L 1569 4666 
L 2759 1491 
L 3956 4666 
L 4897 4666 
L 4897 0 
L 4281 0 
L 4281 4097 
L 3078 897 
L 2444 897 
L 1241 4097 
L 1241 0 
L 628 0 
L 628 4666 
z
" transform="scale(0.015625)"/>
        <path id="DejaVuSans-72" d="M 2631 2963 
Q 2534 3019 2420 3045 
Q 2306 3072 2169 3072 
Q 1681 3072 1420 2755 
Q 1159 2438 1159 1844 
L 1159 0 
L 581 0 
L 581 3500 
L 1159 3500 
L 1159 2956 
Q 1341 3275 1631 3429 
Q 1922 3584 2338 3584 
Q 2397 3584 2469 3576 
Q 2541 3569 2628 3553 
L 2631 2963 
z
" transform="scale(0.015625)"/>
       </defs>
       <use xlink:href="#DejaVuSans-4d"/>
       <use xlink:href="#DejaVuSans-61" x="86.279297"/>
       <use xlink:href="#DejaVuSans-72" x="147.558594"/>
      </g>
     </g>
    </g>
    <g id="xtick_4">
     <g id="line2d_7">
      <path d="M 195.69603 170.32 
L 195.69603 10.8 
" clip-path="url(#pf2d61b58fa)" style="fill: none; stroke: #b0b0b0; stroke-width: 0.8; stroke-linecap: square"/>
     </g>
     <g id="line2d_8">
      <g>
       <use xlink:href="#m5282e75d8d" x="195.69603" y="170.32" style="stroke: #000000; stroke-width: 0.8"/>
      </g>
     </g>
     <g id="text_4">
      <!-- Apr -->
      <g transform="translate(188.77603 185.49875) scale(0.08 -0.08)">
       <defs>
        <path id="DejaVuSans-41" d="M 2188 4044 
L 1331 1722 
L 3047 1722 
L 2188 4044 
z
M 1831 4666 
L 2547 4666 
L 4325 0 
L 3669 0 
L 3244 1197 
L 1141 1197 
L 716 0 
L 50 0 
L 1831 4666 
z
" transform="scale(0.015625)"/>
        <path id="DejaVuSans-70" d="M 1159 525 
L 1159 -1331 
L 581 -1331 
L 581 3500 
L 1159 3500 
L 1159 2969 
Q 1341 3281 1617 3432 
Q 1894 3584 2278 3584 
Q 2916 3584 3314 3078 
Q 3713 2572 3713 1747 
Q 3713 922 3314 415 
Q 2916 -91 2278 -91 
Q 1894 -91 1617 61 
Q 1341 213 1159 525 
z
M 3116 1747 
Q 3116 2381 2855 2742 
Q 2594 3103 2138 3103 
Q 1681 3103 1420 2742 
Q 1159 2381 1159 1747 
Q 1159 1113 1420 752 
Q 1681 391 2138 391 
Q 2594 391 2855 752 
Q 3116 1113 3116 1747 
z
" transform="scale(0.015625)"/>
       </defs>
       <use xlink:href="#DejaVuSans-41"/>
       <use xlink:href="#DejaVuSans-70" x="68.408203"/>
       <use xlink:href="#DejaVuSans-72" x="131.884766"/>
      </g>
     </g>
    </g>
    <g id="xtick_5">
     <g id="line2d_9">
      <path d="M 244.771374 170.32 
L 244.771374 10.8 
" clip-path="url(#pf2d61b58fa)" style="fill: none; stroke: #b0b0b0; stroke-width: 0.8; stroke-linecap: square"/>
     </g>
     <g id="line2d_10">
      <g>
       <use xlink:href="#m5282e75d8d" x="244.771374" y="170.32" style="stroke: #000000; stroke-width: 0.8"/>
      </g>
     </g>
     <g id="text_5">
      <!-- May -->
      <g transform="translate(236.501374 185.49875) scale(0.08 -0.08)">
       <defs>
        <path id="DejaVuSans-79" d="M 2059 -325 
Q 1816 -950 1584 -1140 
Q 1353 -1331 966 -1331 
L 506 -1331 
L 506 -850 
L 844 -850 
Q 1081 -850 1212 -737 
Q 1344 -625 1503 -206 
L 1606 56 
L 191 3500 
L 800 3500 
L 1894 763 
L 2988 3500 
L 3597 3500 
L 2059 -325 
z
" transform="scale(0.015625)"/>
       </defs>
       <use xlink:href="#DejaVuSans-4d"/>
       <use xlink:href="#DejaVuSans-61" x="86.279297"/>
       <use xlink:href="#DejaVuSans-79" x="147.558594"/>
      </g>
     </g>
    </g>
    <g id="xtick_6">
     <g id="line2d_11">
      <path d="M 295.482562 170.32 
L 295.482562 10.8 
" clip-path="url(#pf2d61b58fa)" style="fill: none; stroke: #b0b0b0; stroke-width: 0.8; stroke-linecap: square"/>
     </g>
     <g id="line2d_12">
      <g>
       <use xlink:href="#m5282e75d8d" x="295.482562" y="170.32" style="stroke: #000000; stroke-width: 0.8"/>
      </g>
     </g>
     <g id="text_6">
      <!-- Jun -->
      <g transform="translate(289.232562 185.49875) scale(0.08 -0.08)">
       <defs>
        <path id="DejaVuSans-75" d="M 544 1381 
L 544 3500 
L 1119 3500 
L 1119 1403 
Q 1119 906 1312 657 
Q 1506 409 1894 409 
Q 2359 409 2629 706 
Q 2900 1003 2900 1516 
L 2900 3500 
L 3475 3500 
L 3475 0 
L 2900 0 
L 2900 538 
Q 2691 219 2414 64 
Q 2138 -91 1772 -91 
Q 1169 -91 856 284 
Q 544 659 544 1381 
z
M 1991 3584 
L 1991 3584 
z
" transform="scale(0.015625)"/>
       </defs>
       <use xlink:href="#DejaVuSans-4a"/>
       <use xlink:href="#DejaVuSans-75" x="29.492188"/>
       <use xlink:href="#DejaVuSans-6e" x="92.871094"/>
      </g>
     </g>
    </g>
    <g id="xtick_7">
     <g id="line2d_13">
      <path d="M 344.557905 170.32 
L 344.557905 10.8 
" clip-path="url(#pf2d61b58fa)" style="fill: none; stroke: #b0b0b0; stroke-width: 0.8; stroke-linecap: square"/>
     </g>
     <g id="line2d_14">
      <g>
       <use xlink:href="#m5282e75d8d" x="344.557905" y="170.32" style="stroke: #000000; stroke-width: 0.8"/>
      </g>
     </g>
     <g id="text_7">
      <!-- Jul -->
      <g transform="translate(339.731655 185.49875) scale(0.08 -0.08)">
       <defs>
        <path id="DejaVuSans-6c" d="M 603 4863 
L 1178 4863 
L 1178 0 
L 603 0 
L 603 4863 
z
" transform="scale(0.015625)"/>
       </defs>
       <use xlink:href="#DejaVuSans-4a"/>
       <use xlink:href="#DejaVuSans-75" x="29.492188"/>
       <use xlink:href="#DejaVuSans-6c" x="92.871094"/>
      </g>
     </g>
    </g>
    <g id="xtick_8">
     <g id="line2d_15">
      <path d="M 395.269093 170.32 
L 395.269093 10.8 
" clip-path="url(#pf2d61b58fa)" style="fill: none; stroke: #b0b0b0; stroke-width: 0.8; stroke-linecap: square"/>
     </g>
     <g id="line2d_16">
      <g>
       <use xlink:href="#m5282e75d8d" x="395.269093" y="170.32" style="stroke: #000000; stroke-width: 0.8"/>
      </g>
     </g>
     <g id="text_8">
      <!-- Aug -->
      <g transform="translate(387.458468 185.49875) scale(0.08 -0.08)">
       <defs>
        <path id="DejaVuSans-67" d="M 2906 1791 
Q 2906 2416 2648 2759 
Q 2391 3103 1925 3103 
Q 1463 3103 1205 2759 
Q 947 2416 947 1791 
Q 947 1169 1205 825 
Q 1463 481 1925 481 
Q 2391 481 2648 825 
Q 2906 1169 2906 1791 
z
M 3481 434 
Q 3481 -459 3084 -895 
Q 2688 -1331 1869 -1331 
Q 1566 -1331 1297 -1286 
Q 1028 -1241 775 -1147 
L 775 -588 
Q 1028 -725 1275 -790 
Q 1522 -856 1778 -856 
Q 2344 -856 2625 -561 
Q 2906 -266 2906 331 
L 2906 616 
Q 2728 306 2450 153 
Q 2172 0 1784 0 
Q 1141 0 747 490 
Q 353 981 353 1791 
Q 353 2603 747 3093 
Q 1141 3584 1784 3584 
Q 2172 3584 2450 3431 
Q 2728 3278 2906 2969 
L 2906 3500 
L 3481 3500 
L 3481 434 
z
" transform="scale(0.015625)"/>
       </defs>
       <use xlink:href="#DejaVuSans-41"/>
       <use xlink:href="#DejaVuSans-75" x="68.408203"/>
       <use xlink:href="#DejaVuSans-67" x="131.787109"/>
      </g>
     </g>
    </g>
    <g id="xtick_9">
     <g id="line2d_17">
      <path d="M 445.980282 170.32 
L 445.980282 10.8 
" clip-path="url(#pf2d61b58fa)" style="fill: none; stroke: #b0b0b0; stroke-width: 0.8; stroke-linecap: square"/>
     </g>
     <g id="line2d_18">
      <g>
       <use xlink:href="#m5282e75d8d" x="445.980282" y="170.32" style="stroke: #000000; stroke-width: 0.8"/>
      </g>
     </g>
     <g id="text_9">
      <!-- Sep -->
      <g transform="translate(438.440282 185.49875) scale(0.08 -0.08)">
       <defs>
        <path id="DejaVuSans-53" d="M 3425 4513 
L 3425 3897 
Q 3066 4069 2747 4153 
Q 2428 4238 2131 4238 
Q 1616 4238 1336 4038 
Q 1056 3838 1056 3469 
Q 1056 3159 1242 3001 
Q 1428 2844 1947 2747 
L 2328 2669 
Q 3034 2534 3370 2195 
Q 3706 1856 3706 1288 
Q 3706 609 3251 259 
Q 2797 -91 1919 -91 
Q 1588 -91 1214 -16 
Q 841 59 441 206 
L 441 856 
Q 825 641 1194 531 
Q 1563 422 1919 422 
Q 2459 422 2753 634 
Q 3047 847 3047 1241 
Q 3047 1584 2836 1778 
Q 2625 1972 2144 2069 
L 1759 2144 
Q 1053 2284 737 2584 
Q 422 2884 422 3419 
Q 422 4038 858 4394 
Q 1294 4750 2059 4750 
Q 2388 4750 2728 4690 
Q 3069 4631 3425 4513 
z
" transform="scale(0.015625)"/>
       </defs>
       <use xlink:href="#DejaVuSans-53"/>
       <use xlink:href="#DejaVuSans-65" x="63.476562"/>
       <use xlink:href="#DejaVuSans-70" x="125"/>
      </g>
     </g>
    </g>
    <g id="xtick_10">
     <g id="line2d_19">
      <path d="M 495.055625 170.32 
L 495.055625 10.8 
" clip-path="url(#pf2d61b58fa)" style="fill: none; stroke: #b0b0b0; stroke-width: 0.8; stroke-linecap: square"/>
     </g>
     <g id="line2d_20">
      <g>
       <use xlink:href="#m5282e75d8d" x="495.055625" y="170.32" style="stroke: #000000; stroke-width: 0.8"/>
      </g>
     </g>
     <g id="text_10">
      <!-- Oct -->
      <g transform="translate(488.139375 185.49875) scale(0.08 -0.08)">
       <defs>
        <path id="DejaVuSans-4f" d="M 2522 4238 
Q 1834 4238 1429 3725 
Q 1025 3213 1025 2328 
Q 1025 1447 1429 934 
Q 1834 422 2522 422 
Q 3209 422 3611 934 
Q 4013 1447 4013 2328 
Q 4013 3213 3611 3725 
Q 3209 4238 2522 4238 
z
M 2522 4750 
Q 3503 4750 4090 4092 
Q 4678 3434 4678 2328 
Q 4678 1225 4090 567 
Q 3503 -91 2522 -91 
Q 1538 -91 948 565 
Q 359 1222 359 2328 
Q 359 3434 948 4092 
Q 1538 4750 2522 4750 
z
" transform="scale(0.015625)"/>
        <path id="DejaVuSans-63" d="M 3122 3366 
L 3122 2828 
Q 2878 2963 2633 3030 
Q 2388 3097 2138 3097 
Q 1578 3097 1268 2742 
Q 959 2388 959 1747 
Q 959 1106 1268 751 
Q 1578 397 2138 397 
Q 2388 397 2633 464 
Q 2878 531 3122 666 
L 3122 134 
Q 2881 22 2623 -34 
Q 2366 -91 2075 -91 
Q 1284 -91 818 406 
Q 353 903 353 1747 
Q 353 2603 823 3093 
Q 1294 3584 2113 3584 
Q 2378 3584 2631 3529 
Q 2884 3475 3122 3366 
z
" transform="scale(0.015625)"/>
        <path id="DejaVuSans-74" d="M 1172 4494 
L 1172 3500 
L 2356 3500 
L 2356 3053 
L 1172 3053 
L 1172 1153 
Q 1172 725 1289 603 
Q 1406 481 1766 481 
L 2356 481 
L 2356 0 
L 1766 0 
Q 1100 0 847 248 
Q 594 497 594 1153 
L 594 3053 
L 172 3053 
L 172 3500 
L 594 3500 
L 594 4494 
L 1172 4494 
z
" transform="scale(0.015625)"/>
       </defs>
       <use xlink:href="#DejaVuSans-4f"/>
       <use xlink:href="#DejaVuSans-63" x="78.710938"/>
       <use xlink:href="#DejaVuSans-74" x="133.691406"/>
      </g>
     </g>
    </g>
    <g id="xtick_11">
     <g id="line2d_21">
      <path d="M 545.766813 170.32 
L 545.766813 10.8 
" clip-path="url(#pf2d61b58fa)" style="fill: none; stroke: #b0b0b0; stroke-width: 0.8; stroke-linecap: square"/>
     </g>
     <g id="line2d_22">
      <g>
       <use xlink:href="#m5282e75d8d" x="545.766813" y="170.32" style="stroke: #000000; stroke-width: 0.8"/>
      </g>
     </g>
     <g id="text_11">
      <!-- Nov -->
      <g transform="translate(537.959313 185.49875) scale(0.08 -0.08)">
       <defs>
        <path id="DejaVuSans-4e" d="M 628 4666 
L 1478 4666 
L 3547 763 
L 3547 4666 
L 4159 4666 
L 4159 0 
L 3309 0 
L 1241 3903 
L 1241 0 
L 628 0 
L 628 4666 
z
" transform="scale(0.015625)"/>
        <path id="DejaVuSans-6f" d="M 1959 3097 
Q 1497 3097 1228 2736 
Q 959 2375 959 1747 
Q 959 1119 1226 758 
Q 1494 397 1959 397 
Q 2419 397 2687 759 
Q 2956 1122 2956 1747 
Q 2956 2369 2687 2733 
Q 2419 3097 1959 3097 
z
M 1959 3584 
Q 2709 3584 3137 3096 
Q 3566 2609 3566 1747 
Q 3566 888 3137 398 
Q 2709 -91 1959 -91 
Q 1206 -91 779 398 
Q 353 888 353 1747 
Q 353 2609 779 3096 
Q 1206 3584 1959 3584 
z
" transform="scale(0.015625)"/>
        <path id="DejaVuSans-76" d="M 191 3500 
L 800 3500 
L 1894 563 
L 2988 3500 
L 3597 3500 
L 2284 0 
L 1503 0 
L 191 3500 
z
" transform="scale(0.015625)"/>
       </defs>
       <use xlink:href="#DejaVuSans-4e"/>
       <use xlink:href="#DejaVuSans-6f" x="74.804688"/>
       <use xlink:href="#DejaVuSans-76" x="135.986328"/>
      </g>
     </g>
    </g>
    <g id="xtick_12">
     <g id="line2d_23">
      <path d="M 594.842157 170.32 
L 594.842157 10.8 
" clip-path="url(#pf2d61b58fa)" style="fill: none; stroke: #b0b0b0; stroke-width: 0.8; stroke-linecap: square"/>
     </g>
     <g id="line2d_24">
      <g>
       <use xlink:href="#m5282e75d8d" x="594.842157" y="170.32" style="stroke: #000000; stroke-width: 0.8"/>
      </g>
     </g>
     <g id="text_12">
      <!-- Dec -->
      <g transform="translate(587.101532 185.49875) scale(0.08 -0.08)">
       <defs>
        <path id="DejaVuSans-44" d="M 1259 4147 
L 1259 519 
L 2022 519 
Q 2988 519 3436 956 
Q 3884 1394 3884 2338 
Q 3884 3275 3436 3711 
Q 2988 4147 2022 4147 
L 1259 4147 
z
M 628 4666 
L 1925 4666 
Q 3281 4666 3915 4102 
Q 4550 3538 4550 2338 
Q 4550 1131 3912 565 
Q 3275 0 1925 0 
L 628 0 
L 628 4666 
z
" transform="scale(0.015625)"/>
       </defs>
       <use xlink:href="#DejaVuSans-44"/>
       <use xlink:href="#DejaVuSans-65" x="77.001953"/>
       <use xlink:href="#DejaVuSans-63" x="138.525391"/>
      </g>
     </g>
    </g>
    <g id="xtick_13">
     <g id="line2d_25">
      <path d="M 643.9175 170.32 
L 643.9175 10.8 
" clip-path="url(#pf2d61b58fa)" style="fill: none; stroke: #b0b0b0; stroke-width: 0.8; stroke-linecap: square"/>
     </g>
     <g id="line2d_26">
      <g>
       <use xlink:href="#m5282e75d8d" x="643.9175" y="170.32" style="stroke: #000000; stroke-width: 0.8"/>
      </g>
     </g>
    </g>
    <g id="xtick_14">
     <g id="line2d_27">
      <defs>
       <path id="m752ad47397" d="M 0 0 
L 0 2 
" style="stroke: #000000; stroke-width: 0.4"/>
      </defs>
      <g>
       <use xlink:href="#m752ad47397" x="51.74169" y="170.32" style="stroke: #000000; stroke-width: 0.4"/>
      </g>
     </g>
    </g>
    <g id="xtick_15">
     <g id="line2d_28">
      <g>
       <use xlink:href="#m752ad47397" x="63.192603" y="170.32" style="stroke: #000000; stroke-width: 0.4"/>
      </g>
     </g>
    </g>
    <g id="xtick_16">
     <g id="line2d_29">
      <g>
       <use xlink:href="#m752ad47397" x="74.643516" y="170.32" style="stroke: #000000; stroke-width: 0.4"/>
      </g>
     </g>
    </g>
    <g id="xtick_17">
     <g id="line2d_30">
      <g>
       <use xlink:href="#m752ad47397" x="86.09443" y="170.32" style="stroke: #000000; stroke-width: 0.4"/>
      </g>
     </g>
    </g>
    <g id="xtick_18">
     <g id="line2d_31">
      <g>
       <use xlink:href="#m752ad47397" x="97.545343" y="170.32" style="stroke: #000000; stroke-width: 0.4"/>
      </g>
     </g>
    </g>
    <g id="xtick_19">
     <g id="line2d_32">
      <g>
       <use xlink:href="#m752ad47397" x="108.996257" y="170.32" style="stroke: #000000; stroke-width: 0.4"/>
      </g>
     </g>
    </g>
    <g id="xtick_20">
     <g id="line2d_33">
      <g>
       <use xlink:href="#m752ad47397" x="120.44717" y="170.32" style="stroke: #000000; stroke-width: 0.4"/>
      </g>
     </g>
    </g>
    <g id="xtick_21">
     <g id="line2d_34">
      <g>
       <use xlink:href="#m752ad47397" x="131.898084" y="170.32" style="stroke: #000000; stroke-width: 0.4"/>
      </g>
     </g>
    </g>
    <g id="xtick_22">
     <g id="line2d_35">
      <g>
       <use xlink:href="#m752ad47397" x="143.348997" y="170.32" style="stroke: #000000; stroke-width: 0.4"/>
      </g>
     </g>
    </g>
    <g id="xtick_23">
     <g id="line2d_36">
      <g>
       <use xlink:href="#m752ad47397" x="154.799911" y="170.32" style="stroke: #000000; stroke-width: 0.4"/>
      </g>
     </g>
    </g>
    <g id="xtick_24">
     <g id="line2d_37">
      <g>
       <use xlink:href="#m752ad47397" x="166.250824" y="170.32" style="stroke: #000000; stroke-width: 0.4"/>
      </g>
     </g>
    </g>
    <g id="xtick_25">
     <g id="line2d_38">
      <g>
       <use xlink:href="#m752ad47397" x="177.701738" y="170.32" style="stroke: #000000; stroke-width: 0.4"/>
      </g>
     </g>
    </g>
    <g id="xtick_26">
     <g id="line2d_39">
      <g>
       <use xlink:href="#m752ad47397" x="189.152651" y="170.32" style="stroke: #000000; stroke-width: 0.4"/>
      </g>
     </g>
    </g>
    <g id="xtick_27">
     <g id="line2d_40">
      <g>
       <use xlink:href="#m752ad47397" x="200.603565" y="170.32" style="stroke: #000000; stroke-width: 0.4"/>
      </g>
     </g>
    </g>
    <g id="xtick_28">
     <g id="line2d_41">
      <g>
       <use xlink:href="#m752ad47397" x="212.054478" y="170.32" style="stroke: #000000; stroke-width: 0.4"/>
      </g>
     </g>
    </g>
    <g id="xtick_29">
     <g id="line2d_42">
      <g>
       <use xlink:href="#m752ad47397" x="223.505391" y="170.32" style="stroke: #000000; stroke-width: 0.4"/>
      </g>
     </g>
    </g>
    <g id="xtick_30">
     <g id="line2d_43">
      <g>
       <use xlink:href="#m752ad47397" x="234.956305" y="170.32" style="stroke: #000000; stroke-width: 0.4"/>
      </g>
     </g>
    </g>
    <g id="xtick_31">
     <g id="line2d_44">
      <g>
       <use xlink:href="#m752ad47397" x="246.407218" y="170.32" style="stroke: #000000; stroke-width: 0.4"/>
      </g>
     </g>
    </g>
    <g id="xtick_32">
     <g id="line2d_45">
      <g>
       <use xlink:href="#m752ad47397" x="257.858132" y="170.32" style="stroke: #000000; stroke-width: 0.4"/>
      </g>
     </g>
    </g>
    <g id="xtick_33">
     <g id="line2d_46">
      <g>
       <use xlink:href="#m752ad47397" x="269.309045" y="170.32" style="stroke: #000000; stroke-width: 0.4"/>
      </g>
     </g>
    </g>
    <g id="xtick_34">
     <g id="line2d_47">
      <g>
       <use xlink:href="#m752ad47397" x="280.759959" y="170.32" style="stroke: #000000; stroke-width: 0.4"/>
      </g>
     </g>
    </g>
    <g id="xtick_35">
     <g id="line2d_48">
      <g>
       <use xlink:href="#m752ad47397" x="292.210872" y="170.32" style="stroke: #000000; stroke-width: 0.4"/>
      </g>
     </g>
    </g>
    <g id="xtick_36">
     <g id="line2d_49">
      <g>
       <use xlink:href="#m752ad47397" x="303.661786" y="170.32" style="stroke: #000000; stroke-width: 0.4"/>
      </g>
     </g>
    </g>
    <g id="xtick_37">
     <g id="line2d_50">
      <g>
       <use xlink:href="#m752ad47397" x="315.112699" y="170.32" style="stroke: #000000; stroke-width: 0.4"/>
      </g>
     </g>
    </g>
    <g id="xtick_38">
     <g id="line2d_51">
      <g>
       <use xlink:href="#m752ad47397" x="326.563613" y="170.32" style="stroke: #000000; stroke-width: 0.4"/>
      </g>
     </g>
    </g>
    <g id="xtick_39">
     <g id="line2d_52">
      <g>
       <use xlink:href="#m752ad47397" x="338.014526" y="170.32" style="stroke: #000000; stroke-width: 0.4"/>
      </g>
     </g>
    </g>
    <g id="xtick_40">
     <g id="line2d_53">
      <g>
       <use xlink:href="#m752ad47397" x="349.46544" y="170.32" style="stroke: #000000; stroke-width: 0.4"/>
      </g>
     </g>
    </g>
    <g id="xtick_41">
     <g id="line2d_54">
      <g>
       <use xlink:href="#m752ad47397" x="360.916353" y="170.32" style="stroke: #000000; stroke-width: 0.4"/>
      </g>
     </g>
    </g>
    <g id="xtick_42">
     <g id="line2d_55">
      <g>
       <use xlink:href="#m752ad47397" x="372.367266" y="170.32" style="stroke: #000000; stroke-width: 0.4"/>
      </g>
     </g>
    </g>
    <g id="xtick_43">
     <g id="line2d_56">
      <g>
       <use xlink:href="#m752ad47397" x="383.81818" y="170.32" style="stroke: #000000; stroke-width: 0.4"/>
      </g>
     </g>
    </g>
    <g id="xtick_44">
     <g id="line2d_57">
      <g>
       <use xlink:href="#m752ad47397" x="406.720007" y="170.32" style="stroke: #000000; stroke-width: 0.4"/>
      </g>
     </g>
    </g>
    <g id="xtick_45">
     <g id="line2d_58">
      <g>
       <use xlink:href="#m752ad47397" x="418.17092" y="170.32" style="stroke: #000000; stroke-width: 0.4"/>
      </g>
     </g>
    </g>
    <g id="xtick_46">
     <g id="line2d_59">
      <g>
       <use xlink:href="#m752ad47397" x="429.621834" y="170.32" style="stroke: #000000; stroke-width: 0.4"/>
      </g>
     </g>
    </g>
    <g id="xtick_47">
     <g id="line2d_60">
      <g>
       <use xlink:href="#m752ad47397" x="441.072747" y="170.32" style="stroke: #000000; stroke-width: 0.4"/>
      </g>
     </g>
    </g>
    <g id="xtick_48">
     <g id="line2d_61">
      <g>
       <use xlink:href="#m752ad47397" x="452.523661" y="170.32" style="stroke: #000000; stroke-width: 0.4"/>
      </g>
     </g>
    </g>
    <g id="xtick_49">
     <g id="line2d_62">
      <g>
       <use xlink:href="#m752ad47397" x="463.974574" y="170.32" style="stroke: #000000; stroke-width: 0.4"/>
      </g>
     </g>
    </g>
    <g id="xtick_50">
     <g id="line2d_63">
      <g>
       <use xlink:href="#m752ad47397" x="475.425488" y="170.32" style="stroke: #000000; stroke-width: 0.4"/>
      </g>
     </g>
    </g>
    <g id="xtick_51">
     <g id="line2d_64">
      <g>
       <use xlink:href="#m752ad47397" x="486.876401" y="170.32" style="stroke: #000000; stroke-width: 0.4"/>
      </g>
     </g>
    </g>
    <g id="xtick_52">
     <g id="line2d_65">
      <g>
       <use xlink:href="#m752ad47397" x="498.327315" y="170.32" style="stroke: #000000; stroke-width: 0.4"/>
      </g>
     </g>
    </g>
    <g id="xtick_53">
     <g id="line2d_66">
      <g>
       <use xlink:href="#m752ad47397" x="509.778228" y="170.32" style="stroke: #000000; stroke-width: 0.4"/>
      </g>
     </g>
    </g>
    <g id="xtick_54">
     <g id="line2d_67">
      <g>
       <use xlink:href="#m752ad47397" x="521.229141" y="170.32" style="stroke: #000000; stroke-width: 0.4"/>
      </g>
     </g>
    </g>
    <g id="xtick_55">
     <g id="line2d_68">
      <g>
       <use xlink:href="#m752ad47397" x="532.680055" y="170.32" style="stroke: #000000; stroke-width: 0.4"/>
      </g>
     </g>
    </g>
    <g id="xtick_56">
     <g id="line2d_69">
      <g>
       <use xlink:href="#m752ad47397" x="544.130968" y="170.32" style="stroke: #000000; stroke-width: 0.4"/>
      </g>
     </g>
    </g>
    <g id="xtick_57">
     <g id="line2d_70">
      <g>
       <use xlink:href="#m752ad47397" x="555.581882" y="170.32" style="stroke: #000000; stroke-width: 0.4"/>
      </g>
     </g>
    </g>
    <g id="xtick_58">
     <g id="line2d_71">
      <g>
       <use xlink:href="#m752ad47397" x="567.032795" y="170.32" style="stroke: #000000; stroke-width: 0.4"/>
      </g>
     </g>
    </g>
    <g id="xtick_59">
     <g id="line2d_72">
      <g>
       <use xlink:href="#m752ad47397" x="578.483709" y="170.32" style="stroke: #000000; stroke-width: 0.4"/>
      </g>
     </g>
    </g>
    <g id="xtick_60">
     <g id="line2d_73">
      <g>
       <use xlink:href="#m752ad47397" x="589.934622" y="170.32" style="stroke: #000000; stroke-width: 0.4"/>
      </g>
     </g>
    </g>
    <g id="xtick_61">
     <g id="line2d_74">
      <g>
       <use xlink:href="#m752ad47397" x="601.385536" y="170.32" style="stroke: #000000; stroke-width: 0.4"/>
      </g>
     </g>
    </g>
    <g id="xtick_62">
     <g id="line2d_75">
      <g>
       <use xlink:href="#m752ad47397" x="612.836449" y="170.32" style="stroke: #000000; stroke-width: 0.4"/>
      </g>
     </g>
    </g>
    <g id="xtick_63">
     <g id="line2d_76">
      <g>
       <use xlink:href="#m752ad47397" x="624.287363" y="170.32" style="stroke: #000000; stroke-width: 0.4"/>
      </g>
     </g>
    </g>
    <g id="xtick_64">
     <g id="line2d_77">
      <g>
       <use xlink:href="#m752ad47397" x="635.738276" y="170.32" style="stroke: #000000; stroke-width: 0.4"/>
      </g>
     </g>
    </g>
    <g id="text_13">
     <!-- Date -->
     <g transform="translate(335.677062 206.807375) scale(0.088 -0.088)">
      <use xlink:href="#DejaVuSans-44"/>
      <use xlink:href="#DejaVuSans-61" x="77.001953"/>
      <use xlink:href="#DejaVuSans-74" x="138.28125"/>
      <use xlink:href="#DejaVuSans-65" x="177.490234"/>
     </g>
    </g>
   </g>
   <g id="matplotlib.axis_2">
    <g id="ytick_1">
     <g id="line2d_78">
      <path d="M 48.47 163.069091 
L 643.9175 163.069091 
" clip-path="url(#pf2d61b58fa)" style="fill: none; stroke: #b0b0b0; stroke-width: 0.8; stroke-linecap: square"/>
     </g>
     <g id="line2d_79">
      <defs>
       <path id="m40ba453cac" d="M 0 0 
L -3.5 0 
" style="stroke: #000000; stroke-width: 0.8"/>
      </defs>
      <g>
       <use xlink:href="#m40ba453cac" x="48.47" y="163.069091" style="stroke: #000000; stroke-width: 0.8"/>
      </g>
     </g>
     <g id="text_14">
      <!-- 0 -->
      <g transform="translate(34.28 166.108466) scale(0.08 -0.08)">
       <use xlink:href="#DejaVuSans-30"/>
      </g>
     </g>
    </g>
    <g id="ytick_2">
     <g id="line2d_80">
      <path d="M 48.47 130.475853 
L 643.9175 130.475853 
" clip-path="url(#pf2d61b58fa)" style="fill: none; stroke: #b0b0b0; stroke-width: 0.8; stroke-linecap: square"/>
     </g>
     <g id="line2d_81">
      <g>
       <use xlink:href="#m40ba453cac" x="48.47" y="130.475853" style="stroke: #000000; stroke-width: 0.8"/>
      </g>
     </g>
     <g id="text_15">
      <!-- 50 -->
      <g transform="translate(29.19 133.515228) scale(0.08 -0.08)">
       <defs>
        <path id="DejaVuSans-35" d="M 691 4666 
L 3169 4666 
L 3169 4134 
L 1269 4134 
L 1269 2991 
Q 1406 3038 1543 3061 
Q 1681 3084 1819 3084 
Q 2600 3084 3056 2656 
Q 3513 2228 3513 1497 
Q 3513 744 3044 326 
Q 2575 -91 1722 -91 
Q 1428 -91 1123 -41 
Q 819 9 494 109 
L 494 744 
Q 775 591 1075 516 
Q 1375 441 1709 441 
Q 2250 441 2565 725 
Q 2881 1009 2881 1497 
Q 2881 1984 2565 2268 
Q 2250 2553 1709 2553 
Q 1456 2553 1204 2497 
Q 953 2441 691 2322 
L 691 4666 
z
" transform="scale(0.015625)"/>
       </defs>
       <use xlink:href="#DejaVuSans-35"/>
       <use xlink:href="#DejaVuSans-30" x="63.623047"/>
      </g>
     </g>
    </g>
    <g id="ytick_3">
     <g id="line2d_82">
      <path d="M 48.47 97.882614 
L 643.9175 97.882614 
" clip-path="url(#pf2d61b58fa)" style="fill: none; stroke: #b0b0b0; stroke-width: 0.8; stroke-linecap: square"/>
     </g>
     <g id="line2d_83">
      <g>
       <use xlink:href="#m40ba453cac" x="48.47" y="97.882614" style="stroke: #000000; stroke-width: 0.8"/>
      </g>
     </g>
     <g id="text_16">
      <!-- 100 -->
      <g transform="translate(24.1 100.921989) scale(0.08 -0.08)">
       <defs>
        <path id="DejaVuSans-31" d="M 794 531 
L 1825 531 
L 1825 4091 
L 703 3866 
L 703 4441 
L 1819 4666 
L 2450 4666 
L 2450 531 
L 3481 531 
L 3481 0 
L 794 0 
L 794 531 
z
" transform="scale(0.015625)"/>
       </defs>
       <use xlink:href="#DejaVuSans-31"/>
       <use xlink:href="#DejaVuSans-30" x="63.623047"/>
       <use xlink:href="#DejaVuSans-30" x="127.246094"/>
      </g>
     </g>
    </g>
    <g id="ytick_4">
     <g id="line2d_84">
      <path d="M 48.47 65.289376 
L 643.9175 65.289376 
" clip-path="url(#pf2d61b58fa)" style="fill: none; stroke: #b0b0b0; stroke-width: 0.8; stroke-linecap: square"/>
     </g>
     <g id="line2d_85">
      <g>
       <use xlink:href="#m40ba453cac" x="48.47" y="65.289376" style="stroke: #000000; stroke-width: 0.8"/>
      </g>
     </g>
     <g id="text_17">
      <!-- 150 -->
      <g transform="translate(24.1 68.328751) scale(0.08 -0.08)">
       <use xlink:href="#DejaVuSans-31"/>
       <use xlink:href="#DejaVuSans-35" x="63.623047"/>
       <use xlink:href="#DejaVuSans-30" x="127.246094"/>
      </g>
     </g>
    </g>
    <g id="ytick_5">
     <g id="line2d_86">
      <path d="M 48.47 32.696137 
L 643.9175 32.696137 
" clip-path="url(#pf2d61b58fa)" style="fill: none; stroke: #b0b0b0; stroke-width: 0.8; stroke-linecap: square"/>
     </g>
     <g id="line2d_87">
      <g>
       <use xlink:href="#m40ba453cac" x="48.47" y="32.696137" style="stroke: #000000; stroke-width: 0.8"/>
      </g>
     </g>
     <g id="text_18">
      <!-- 200 -->
      <g transform="translate(24.1 35.735512) scale(0.08 -0.08)">
       <use xlink:href="#DejaVuSans-32"/>
       <use xlink:href="#DejaVuSans-30" x="63.623047"/>
       <use xlink:href="#DejaVuSans-30" x="127.246094"/>
      </g>
     </g>
    </g>
    <g id="text_19">
     <!-- Energy Stored in MWh -->
     <g transform="translate(18.269875 139.527875) rotate(-90) scale(0.088 -0.088)">
      <defs>
       <path id="DejaVuSans-45" d="M 628 4666 
L 3578 4666 
L 3578 4134 
L 1259 4134 
L 1259 2753 
L 3481 2753 
L 3481 2222 
L 1259 2222 
L 1259 531 
L 3634 531 
L 3634 0 
L 628 0 
L 628 4666 
z
" transform="scale(0.015625)"/>
       <path id="DejaVuSans-20" transform="scale(0.015625)"/>
       <path id="DejaVuSans-64" d="M 2906 2969 
L 2906 4863 
L 3481 4863 
L 3481 0 
L 2906 0 
L 2906 525 
Q 2725 213 2448 61 
Q 2172 -91 1784 -91 
Q 1150 -91 751 415 
Q 353 922 353 1747 
Q 353 2572 751 3078 
Q 1150 3584 1784 3584 
Q 2172 3584 2448 3432 
Q 2725 3281 2906 2969 
z
M 947 1747 
Q 947 1113 1208 752 
Q 1469 391 1925 391 
Q 2381 391 2643 752 
Q 2906 1113 2906 1747 
Q 2906 2381 2643 2742 
Q 2381 3103 1925 3103 
Q 1469 3103 1208 2742 
Q 947 2381 947 1747 
z
" transform="scale(0.015625)"/>
       <path id="DejaVuSans-69" d="M 603 3500 
L 1178 3500 
L 1178 0 
L 603 0 
L 603 3500 
z
M 603 4863 
L 1178 4863 
L 1178 4134 
L 603 4134 
L 603 4863 
z
" transform="scale(0.015625)"/>
       <path id="DejaVuSans-57" d="M 213 4666 
L 850 4666 
L 1831 722 
L 2809 4666 
L 3519 4666 
L 4500 722 
L 5478 4666 
L 6119 4666 
L 4947 0 
L 4153 0 
L 3169 4050 
L 2175 0 
L 1381 0 
L 213 4666 
z
" transform="scale(0.015625)"/>
       <path id="DejaVuSans-68" d="M 3513 2113 
L 3513 0 
L 2938 0 
L 2938 2094 
Q 2938 2591 2744 2837 
Q 2550 3084 2163 3084 
Q 1697 3084 1428 2787 
Q 1159 2491 1159 1978 
L 1159 0 
L 581 0 
L 581 4863 
L 1159 4863 
L 1159 2956 
Q 1366 3272 1645 3428 
Q 1925 3584 2291 3584 
Q 2894 3584 3203 3211 
Q 3513 2838 3513 2113 
z
" transform="scale(0.015625)"/>
      </defs>
      <use xlink:href="#DejaVuSans-45"/>
      <use xlink:href="#DejaVuSans-6e" x="63.183594"/>
      <use xlink:href="#DejaVuSans-65" x="126.5625"/>
      <use xlink:href="#DejaVuSans-72" x="188.085938"/>
      <use xlink:href="#DejaVuSans-67" x="227.449219"/>
      <use xlink:href="#DejaVuSans-79" x="290.925781"/>
      <use xlink:href="#DejaVuSans-20" x="350.105469"/>
      <use xlink:href="#DejaVuSans-53" x="381.892578"/>
      <use xlink:href="#DejaVuSans-74" x="445.369141"/>
      <use xlink:href="#DejaVuSans-6f" x="484.578125"/>
      <use xlink:href="#DejaVuSans-72" x="545.759766"/>
      <use xlink:href="#DejaVuSans-65" x="584.623047"/>
      <use xlink:href="#DejaVuSans-64" x="646.146484"/>
      <use xlink:href="#DejaVuSans-20" x="709.623047"/>
      <use xlink:href="#DejaVuSans-69" x="741.410156"/>
      <use xlink:href="#DejaVuSans-6e" x="769.193359"/>
      <use xlink:href="#DejaVuSans-20" x="832.572266"/>
      <use xlink:href="#DejaVuSans-4d" x="864.359375"/>
      <use xlink:href="#DejaVuSans-57" x="950.638672"/>
      <use xlink:href="#DejaVuSans-68" x="1049.515625"/>
     </g>
    </g>
   </g>
   <g id="line2d_88">
    <path d="M 48.47 140.493196 
L 51.74169 84.437571 
L 53.377534 60.969693 
L 55.013379 18.880687 
L 58.285069 132.996259 
L 59.920913 126.997334 
L 61.556758 116.518256 
L 63.192603 107.316042 
L 64.828448 97.088522 
L 66.464293 106.553711 
L 68.100137 131.429619 
L 69.735982 154.541817 
L 71.371827 162.362634 
L 73.007672 162.977415 
L 74.643516 160.328437 
L 76.279361 158.269428 
L 77.915206 159.769945 
L 79.551051 158.176519 
L 81.186896 161.87677 
L 82.82274 161.777498 
L 84.458585 160.948137 
L 86.09443 158.269585 
L 87.730275 158.396685 
L 89.36612 161.987989 
L 91.001964 162.374822 
L 92.637809 158.235027 
L 94.273654 143.518741 
L 95.909499 54.542002 
L 97.545343 71.964598 
L 99.181188 140.531632 
L 100.817033 149.736763 
L 102.452878 140.596295 
L 104.088723 129.980783 
L 105.724567 91.82019 
L 107.360412 76.937249 
L 108.996257 72.909599 
L 110.632102 140.230909 
L 112.267946 129.559427 
L 113.903791 99.521426 
L 115.539636 28.090325 
L 117.175481 63.631172 
L 118.811326 113.886467 
L 120.44717 135.558647 
L 122.083015 135.750544 
L 123.71886 157.988179 
L 126.990549 78.936377 
L 128.626394 26.034626 
L 131.898084 26.565635 
L 133.533929 35.992686 
L 135.169773 42.028995 
L 136.805618 39.579117 
L 138.441463 26.884466 
L 140.077308 43.88117 
L 141.713152 98.495855 
L 143.348997 126.308295 
L 144.984842 128.552541 
L 146.620687 134.036712 
L 148.256532 135.161641 
L 149.892376 138.038799 
L 151.528221 139.119728 
L 153.164066 139.076081 
L 154.799911 145.902268 
L 156.435755 157.255016 
L 158.0716 160.754924 
L 159.707445 142.224983 
L 161.34329 127.430073 
L 162.979135 146.345078 
L 164.614979 158.92796 
L 166.250824 158.919387 
L 167.886669 154.373083 
L 171.158359 154.50396 
L 172.794203 154.520603 
L 174.430048 158.244102 
L 176.065893 152.85758 
L 177.701738 151.996282 
L 179.337582 158.971739 
L 180.973427 162.409931 
L 182.609272 158.849835 
L 184.245117 150.311789 
L 185.880962 118.34854 
L 187.516806 66.030928 
L 189.152651 37.449864 
L 190.788496 18.072465 
L 194.060185 18.08434 
L 195.69603 19.847721 
L 197.331875 80.216023 
L 198.96772 154.568684 
L 200.603565 162.431208 
L 202.239409 154.297361 
L 203.875254 162.027428 
L 205.511099 149.993557 
L 207.146944 140.34665 
L 208.782788 140.389836 
L 210.418633 142.277988 
L 212.054478 157.893567 
L 213.690323 157.066542 
L 215.326168 125.730696 
L 216.962012 66.119012 
L 218.597857 26.451162 
L 220.233702 18.204026 
L 223.505391 149.176682 
L 225.141236 162.733829 
L 226.777081 161.622653 
L 228.412926 160.754304 
L 230.048771 155.563962 
L 231.684615 151.636599 
L 234.956305 142.348645 
L 238.227995 142.42459 
L 239.863839 158.773052 
L 241.499684 133.824349 
L 243.135529 152.14313 
L 244.771374 163.069091 
L 246.407218 163.069091 
L 248.043063 132.641792 
L 249.678908 108.631483 
L 251.314753 102.794921 
L 252.950598 83.099551 
L 254.586442 117.591532 
L 256.222287 128.79004 
L 257.858132 137.981278 
L 259.493977 150.95127 
L 261.129821 152.445995 
L 262.765666 140.647156 
L 264.401511 134.8821 
L 266.037356 136.42542 
L 267.673201 132.349194 
L 269.309045 133.754957 
L 270.94489 149.810632 
L 272.580735 157.037362 
L 274.21658 141.300074 
L 275.852424 92.397989 
L 277.488269 54.318208 
L 279.124114 44.272354 
L 280.759959 30.534047 
L 282.395804 18.15649 
L 284.031648 70.847533 
L 285.667493 76.443034 
L 287.303338 51.235667 
L 288.939183 35.482426 
L 290.575027 60.762731 
L 292.210872 121.317145 
L 293.846717 129.828055 
L 295.482562 133.277607 
L 297.118407 152.286485 
L 298.754251 146.798415 
L 300.390096 117.09076 
L 302.025941 92.637176 
L 303.661786 84.418458 
L 305.29763 87.870848 
L 306.933475 109.415773 
L 308.56932 122.082423 
L 310.205165 152.248285 
L 311.84101 159.426298 
L 313.476854 162.662411 
L 315.112699 160.656257 
L 316.748544 162.127162 
L 318.384389 163.069091 
L 324.927768 163.014015 
L 326.563613 153.346145 
L 328.199457 139.390494 
L 329.835302 133.749635 
L 331.471147 127.343771 
L 333.106992 119.435995 
L 334.742837 115.052008 
L 336.378681 98.813181 
L 338.014526 78.977518 
L 339.650371 71.388379 
L 341.286216 71.507601 
L 342.92206 62.908593 
L 344.557905 62.096184 
L 346.19375 105.170464 
L 347.829595 90.799415 
L 349.46544 78.197207 
L 351.101284 76.162364 
L 352.737129 69.57171 
L 354.372974 67.656853 
L 356.008819 84.01728 
L 357.644663 107.08187 
L 359.280508 119.897702 
L 360.916353 140.476284 
L 362.552198 158.114491 
L 364.188043 162.640385 
L 365.823887 163.069091 
L 398.540783 163.069091 
L 400.176628 159.84645 
L 401.812473 146.153331 
L 403.448317 136.308992 
L 405.084162 159.151556 
L 406.720007 162.669288 
L 408.355852 160.001403 
L 409.991696 147.316667 
L 413.263386 107.713214 
L 414.899231 95.076084 
L 416.535076 77.299283 
L 418.17092 62.16439 
L 419.806765 49.492142 
L 421.44261 28.918177 
L 423.078455 18.868497 
L 424.714299 25.031769 
L 426.350144 79.834962 
L 427.985989 127.183854 
L 429.621834 127.96604 
L 431.257679 124.433654 
L 432.893523 120.448085 
L 434.529368 115.048788 
L 436.165213 101.219196 
L 437.801058 91.813842 
L 439.436902 102.027626 
L 441.072747 102.247917 
L 442.708592 67.771808 
L 444.344437 59.615609 
L 445.980282 128.192479 
L 447.616126 146.688074 
L 449.251971 145.694602 
L 450.887816 149.636692 
L 452.523661 131.943058 
L 454.159505 94.184253 
L 455.79535 48.773522 
L 457.431195 23.287608 
L 459.06704 31.700571 
L 460.702885 36.909667 
L 462.338729 45.694905 
L 463.974574 67.34018 
L 465.610419 56.576481 
L 467.246264 32.096117 
L 468.882109 18.142164 
L 475.425488 19.147922 
L 478.697177 19.674022 
L 480.333022 84.89371 
L 481.968867 140.096071 
L 483.604712 143.685015 
L 485.240556 143.717036 
L 486.876401 135.592559 
L 488.512246 126.661563 
L 498.327315 127.049818 
L 499.963159 154.660326 
L 501.599004 149.823092 
L 503.234849 134.247445 
L 504.870694 132.274927 
L 506.506538 129.884921 
L 508.142383 154.424055 
L 509.778228 154.648088 
L 511.414073 145.040488 
L 513.049918 145.069601 
L 514.685762 153.265864 
L 516.321607 155.810049 
L 517.957452 155.6845 
L 519.593297 124.056293 
L 521.229141 69.16261 
L 522.864986 49.991019 
L 524.500831 49.41676 
L 526.136676 76.453596 
L 527.772521 87.036293 
L 529.408365 85.654312 
L 531.04421 103.052014 
L 532.680055 94.143663 
L 534.3159 82.359282 
L 535.951745 68.039902 
L 537.587589 83.242901 
L 540.859279 56.836257 
L 544.130968 18.658882 
L 545.766813 18.1934 
L 549.038503 18.245677 
L 553.946037 19.073873 
L 557.217727 18.401038 
L 558.853571 18.319063 
L 560.489416 18.095235 
L 562.125261 19.000713 
L 563.761106 25.846957 
L 565.396951 28.284438 
L 567.032795 25.611133 
L 568.66864 21.647245 
L 570.304485 18.801121 
L 571.94033 18.770926 
L 573.576174 18.176637 
L 575.212019 18.245174 
L 576.847864 18.105358 
L 578.483709 28.552589 
L 580.119554 55.008824 
L 581.755398 73.401396 
L 583.391243 57.292767 
L 585.027088 52.903579 
L 586.662933 35.774381 
L 588.298777 45.094338 
L 589.934622 102.045692 
L 591.570467 132.432495 
L 593.206312 145.131853 
L 594.842157 145.870125 
L 596.478001 115.097082 
L 598.113846 93.922892 
L 601.385536 67.178809 
L 603.02138 48.495374 
L 604.657225 26.5665 
L 606.29307 18.809767 
L 607.928915 22.08848 
L 609.56476 20.279568 
L 611.200604 22.131502 
L 612.836449 54.442347 
L 616.108139 144.723122 
L 617.743984 154.172224 
L 619.379828 159.17378 
L 621.015673 154.687213 
L 622.651518 147.873148 
L 624.287363 145.873613 
L 625.923207 157.047932 
L 627.559052 162.537834 
L 629.194897 159.335216 
L 630.830742 159.597342 
L 632.466587 121.446995 
L 634.102431 111.112314 
L 635.738276 92.829854 
L 637.374121 94.493521 
L 639.009966 132.733336 
L 640.64581 156.166243 
L 642.281655 161.482087 
L 643.9175 159.688197 
L 643.9175 159.688197 
" clip-path="url(#pf2d61b58fa)" style="fill: none; stroke: #f9ba00; stroke-width: 2; stroke-linecap: square"/>
   </g>
   <g id="patch_3">
    <path d="M 48.47 170.32 
L 48.47 10.8 
" style="fill: none; stroke: #000000; stroke-width: 0.8; stroke-linejoin: miter; stroke-linecap: square"/>
   </g>
   <g id="patch_4">
    <path d="M 643.9175 170.32 
L 643.9175 10.8 
" style="fill: none; stroke: #000000; stroke-width: 0.8; stroke-linejoin: miter; stroke-linecap: square"/>
   </g>
   <g id="patch_5">
    <path d="M 48.47 170.32 
L 643.9175 170.32 
" style="fill: none; stroke: #000000; stroke-width: 0.8; stroke-linejoin: miter; stroke-linecap: square"/>
   </g>
   <g id="patch_6">
    <path d="M 48.47 10.8 
L 643.9175 10.8 
" style="fill: none; stroke: #000000; stroke-width: 0.8; stroke-linejoin: miter; stroke-linecap: square"/>
   </g>
   <g id="legend_1">
    <g id="patch_7">
     <path d="M 323.510625 246.08 
L 368.876875 246.08 
Q 370.476875 246.08 370.476875 244.48 
L 370.476875 233.5375 
Q 370.476875 231.9375 368.876875 231.9375 
L 323.510625 231.9375 
Q 321.910625 231.9375 321.910625 233.5375 
L 321.910625 244.48 
Q 321.910625 246.08 323.510625 246.08 
z
" style="fill: #ffffff; opacity: 0.8; stroke: #cccccc; stroke-width: 0.24; stroke-linejoin: miter"/>
    </g>
    <g id="line2d_89">
     <path d="M 325.110625 238.41625 
L 333.110625 238.41625 
L 341.110625 238.41625 
" style="fill: none; stroke: #f9ba00; stroke-width: 2; stroke-linecap: square"/>
    </g>
    <g id="text_20">
     <!-- TTES -->
     <g transform="translate(347.510625 241.21625) scale(0.08 -0.08)">
      <defs>
       <path id="DejaVuSans-54" d="M -19 4666 
L 3928 4666 
L 3928 4134 
L 2272 4134 
L 2272 0 
L 1638 0 
L 1638 4134 
L -19 4134 
L -19 4666 
z
" transform="scale(0.015625)"/>
      </defs>
      <use xlink:href="#DejaVuSans-54"/>
      <use xlink:href="#DejaVuSans-54" x="59.333984"/>
      <use xlink:href="#DejaVuSans-45" x="120.417969"/>
      <use xlink:href="#DejaVuSans-53" x="183.601562"/>
     </g>
    </g>
   </g>
  </g>
  <g id="axes_2">
   <g id="text_21">
    <!-- Volume: 12943.51 m³ -->
    <g transform="translate(699.766563 50.68) scale(0.1 -0.1)">
     <defs>
      <path id="DejaVuSans-56" d="M 1831 0 
L 50 4666 
L 709 4666 
L 2188 738 
L 3669 4666 
L 4325 4666 
L 2547 0 
L 1831 0 
z
" transform="scale(0.015625)"/>
      <path id="DejaVuSans-6d" d="M 3328 2828 
Q 3544 3216 3844 3400 
Q 4144 3584 4550 3584 
Q 5097 3584 5394 3201 
Q 5691 2819 5691 2113 
L 5691 0 
L 5113 0 
L 5113 2094 
Q 5113 2597 4934 2840 
Q 4756 3084 4391 3084 
Q 3944 3084 3684 2787 
Q 3425 2491 3425 1978 
L 3425 0 
L 2847 0 
L 2847 2094 
Q 2847 2600 2669 2842 
Q 2491 3084 2119 3084 
Q 1678 3084 1418 2786 
Q 1159 2488 1159 1978 
L 1159 0 
L 581 0 
L 581 3500 
L 1159 3500 
L 1159 2956 
Q 1356 3278 1631 3431 
Q 1906 3584 2284 3584 
Q 2666 3584 2933 3390 
Q 3200 3197 3328 2828 
z
" transform="scale(0.015625)"/>
      <path id="DejaVuSans-3a" d="M 750 794 
L 1409 794 
L 1409 0 
L 750 0 
L 750 794 
z
M 750 3309 
L 1409 3309 
L 1409 2516 
L 750 2516 
L 750 3309 
z
" transform="scale(0.015625)"/>
      <path id="DejaVuSans-39" d="M 703 97 
L 703 672 
Q 941 559 1184 500 
Q 1428 441 1663 441 
Q 2288 441 2617 861 
Q 2947 1281 2994 2138 
Q 2813 1869 2534 1725 
Q 2256 1581 1919 1581 
Q 1219 1581 811 2004 
Q 403 2428 403 3163 
Q 403 3881 828 4315 
Q 1253 4750 1959 4750 
Q 2769 4750 3195 4129 
Q 3622 3509 3622 2328 
Q 3622 1225 3098 567 
Q 2575 -91 1691 -91 
Q 1453 -91 1209 -44 
Q 966 3 703 97 
z
M 1959 2075 
Q 2384 2075 2632 2365 
Q 2881 2656 2881 3163 
Q 2881 3666 2632 3958 
Q 2384 4250 1959 4250 
Q 1534 4250 1286 3958 
Q 1038 3666 1038 3163 
Q 1038 2656 1286 2365 
Q 1534 2075 1959 2075 
z
" transform="scale(0.015625)"/>
      <path id="DejaVuSans-34" d="M 2419 4116 
L 825 1625 
L 2419 1625 
L 2419 4116 
z
M 2253 4666 
L 3047 4666 
L 3047 1625 
L 3713 1625 
L 3713 1100 
L 3047 1100 
L 3047 0 
L 2419 0 
L 2419 1100 
L 313 1100 
L 313 1709 
L 2253 4666 
z
" transform="scale(0.015625)"/>
      <path id="DejaVuSans-33" d="M 2597 2516 
Q 3050 2419 3304 2112 
Q 3559 1806 3559 1356 
Q 3559 666 3084 287 
Q 2609 -91 1734 -91 
Q 1441 -91 1130 -33 
Q 819 25 488 141 
L 488 750 
Q 750 597 1062 519 
Q 1375 441 1716 441 
Q 2309 441 2620 675 
Q 2931 909 2931 1356 
Q 2931 1769 2642 2001 
Q 2353 2234 1838 2234 
L 1294 2234 
L 1294 2753 
L 1863 2753 
Q 2328 2753 2575 2939 
Q 2822 3125 2822 3475 
Q 2822 3834 2567 4026 
Q 2313 4219 1838 4219 
Q 1578 4219 1281 4162 
Q 984 4106 628 3988 
L 628 4550 
Q 988 4650 1302 4700 
Q 1616 4750 1894 4750 
Q 2613 4750 3031 4423 
Q 3450 4097 3450 3541 
Q 3450 3153 3228 2886 
Q 3006 2619 2597 2516 
z
" transform="scale(0.015625)"/>
      <path id="DejaVuSans-2e" d="M 684 794 
L 1344 794 
L 1344 0 
L 684 0 
L 684 794 
z
" transform="scale(0.015625)"/>
      <path id="DejaVuSans-b3" d="M 1638 3500 
Q 1925 3444 2083 3273 
Q 2241 3103 2241 2847 
Q 2241 2459 1944 2250 
Q 1647 2041 1094 2041 
Q 916 2041 720 2073 
Q 525 2106 306 2169 
L 306 2547 
Q 469 2463 655 2422 
Q 841 2381 1050 2381 
Q 1391 2381 1578 2504 
Q 1766 2628 1766 2847 
Q 1766 3078 1592 3197 
Q 1419 3316 1081 3316 
L 813 3316 
L 813 3653 
L 1106 3653 
Q 1400 3653 1551 3751 
Q 1703 3850 1703 4038 
Q 1703 4219 1547 4314 
Q 1391 4409 1094 4409 
Q 969 4409 809 4381 
Q 650 4353 397 4281 
L 397 4641 
Q 625 4694 825 4722 
Q 1025 4750 1197 4750 
Q 1647 4750 1911 4565 
Q 2175 4381 2175 4072 
Q 2175 3856 2034 3706 
Q 1894 3556 1638 3500 
z
" transform="scale(0.015625)"/>
     </defs>
     <use xlink:href="#DejaVuSans-56"/>
     <use xlink:href="#DejaVuSans-6f" x="60.658203"/>
     <use xlink:href="#DejaVuSans-6c" x="121.839844"/>
     <use xlink:href="#DejaVuSans-75" x="149.623047"/>
     <use xlink:href="#DejaVuSans-6d" x="213.001953"/>
     <use xlink:href="#DejaVuSans-65" x="310.414062"/>
     <use xlink:href="#DejaVuSans-3a" x="371.9375"/>
     <use xlink:href="#DejaVuSans-20" x="405.628906"/>
     <use xlink:href="#DejaVuSans-31" x="437.416016"/>
     <use xlink:href="#DejaVuSans-32" x="501.039062"/>
     <use xlink:href="#DejaVuSans-39" x="564.662109"/>
     <use xlink:href="#DejaVuSans-34" x="628.285156"/>
     <use xlink:href="#DejaVuSans-33" x="691.908203"/>
     <use xlink:href="#DejaVuSans-2e" x="755.53125"/>
     <use xlink:href="#DejaVuSans-35" x="787.318359"/>
     <use xlink:href="#DejaVuSans-31" x="850.941406"/>
     <use xlink:href="#DejaVuSans-20" x="914.564453"/>
     <use xlink:href="#DejaVuSans-6d" x="946.351562"/>
     <use xlink:href="#DejaVuSans-b3" x="1043.763672"/>
    </g>
   </g>
   <g id="text_22">
    <!-- Height: 49.56 m -->
    <g transform="translate(713.382969 90.56) scale(0.1 -0.1)">
     <defs>
      <path id="DejaVuSans-48" d="M 628 4666 
L 1259 4666 
L 1259 2753 
L 3553 2753 
L 3553 4666 
L 4184 4666 
L 4184 0 
L 3553 0 
L 3553 2222 
L 1259 2222 
L 1259 0 
L 628 0 
L 628 4666 
z
" transform="scale(0.015625)"/>
      <path id="DejaVuSans-36" d="M 2113 2584 
Q 1688 2584 1439 2293 
Q 1191 2003 1191 1497 
Q 1191 994 1439 701 
Q 1688 409 2113 409 
Q 2538 409 2786 701 
Q 3034 994 3034 1497 
Q 3034 2003 2786 2293 
Q 2538 2584 2113 2584 
z
M 3366 4563 
L 3366 3988 
Q 3128 4100 2886 4159 
Q 2644 4219 2406 4219 
Q 1781 4219 1451 3797 
Q 1122 3375 1075 2522 
Q 1259 2794 1537 2939 
Q 1816 3084 2150 3084 
Q 2853 3084 3261 2657 
Q 3669 2231 3669 1497 
Q 3669 778 3244 343 
Q 2819 -91 2113 -91 
Q 1303 -91 875 529 
Q 447 1150 447 2328 
Q 447 3434 972 4092 
Q 1497 4750 2381 4750 
Q 2619 4750 2861 4703 
Q 3103 4656 3366 4563 
z
" transform="scale(0.015625)"/>
     </defs>
     <use xlink:href="#DejaVuSans-48"/>
     <use xlink:href="#DejaVuSans-65" x="75.195312"/>
     <use xlink:href="#DejaVuSans-69" x="136.71875"/>
     <use xlink:href="#DejaVuSans-67" x="164.501953"/>
     <use xlink:href="#DejaVuSans-68" x="227.978516"/>
     <use xlink:href="#DejaVuSans-74" x="291.357422"/>
     <use xlink:href="#DejaVuSans-3a" x="330.566406"/>
     <use xlink:href="#DejaVuSans-20" x="364.257812"/>
     <use xlink:href="#DejaVuSans-34" x="396.044922"/>
     <use xlink:href="#DejaVuSans-39" x="459.667969"/>
     <use xlink:href="#DejaVuSans-2e" x="523.291016"/>
     <use xlink:href="#DejaVuSans-35" x="555.078125"/>
     <use xlink:href="#DejaVuSans-36" x="618.701172"/>
     <use xlink:href="#DejaVuSans-20" x="682.324219"/>
     <use xlink:href="#DejaVuSans-6d" x="714.111328"/>
    </g>
   </g>
   <g id="text_23">
    <!-- Area: 261.17 m² -->
    <g transform="translate(713.222031 130.44) scale(0.1 -0.1)">
     <defs>
      <path id="DejaVuSans-37" d="M 525 4666 
L 3525 4666 
L 3525 4397 
L 1831 0 
L 1172 0 
L 2766 4134 
L 525 4134 
L 525 4666 
z
" transform="scale(0.015625)"/>
      <path id="DejaVuSans-b2" d="M 838 2444 
L 2163 2444 
L 2163 2088 
L 294 2088 
L 294 2431 
Q 400 2528 597 2703 
Q 1672 3656 1672 3950 
Q 1672 4156 1509 4282 
Q 1347 4409 1081 4409 
Q 919 4409 728 4354 
Q 538 4300 313 4191 
L 313 4575 
Q 553 4663 761 4706 
Q 969 4750 1147 4750 
Q 1600 4750 1872 4544 
Q 2144 4338 2144 4000 
Q 2144 3566 1109 2678 
Q 934 2528 838 2444 
z
" transform="scale(0.015625)"/>
     </defs>
     <use xlink:href="#DejaVuSans-41"/>
     <use xlink:href="#DejaVuSans-72" x="68.408203"/>
     <use xlink:href="#DejaVuSans-65" x="107.271484"/>
     <use xlink:href="#DejaVuSans-61" x="168.794922"/>
     <use xlink:href="#DejaVuSans-3a" x="230.074219"/>
     <use xlink:href="#DejaVuSans-20" x="263.765625"/>
     <use xlink:href="#DejaVuSans-32" x="295.552734"/>
     <use xlink:href="#DejaVuSans-36" x="359.175781"/>
     <use xlink:href="#DejaVuSans-31" x="422.798828"/>
     <use xlink:href="#DejaVuSans-2e" x="486.421875"/>
     <use xlink:href="#DejaVuSans-31" x="518.208984"/>
     <use xlink:href="#DejaVuSans-37" x="581.832031"/>
     <use xlink:href="#DejaVuSans-20" x="645.455078"/>
     <use xlink:href="#DejaVuSans-6d" x="677.242188"/>
     <use xlink:href="#DejaVuSans-b2" x="774.654297"/>
    </g>
   </g>
   <g id="text_24">
    <!-- Diameter: 7.94 m -->
    <g transform="translate(709.838438 170.32) scale(0.1 -0.1)">
     <use xlink:href="#DejaVuSans-44"/>
     <use xlink:href="#DejaVuSans-69" x="77.001953"/>
     <use xlink:href="#DejaVuSans-61" x="104.785156"/>
     <use xlink:href="#DejaVuSans-6d" x="166.064453"/>
     <use xlink:href="#DejaVuSans-65" x="263.476562"/>
     <use xlink:href="#DejaVuSans-74" x="325"/>
     <use xlink:href="#DejaVuSans-65" x="364.208984"/>
     <use xlink:href="#DejaVuSans-72" x="425.732422"/>
     <use xlink:href="#DejaVuSans-3a" x="465.095703"/>
     <use xlink:href="#DejaVuSans-20" x="498.787109"/>
     <use xlink:href="#DejaVuSans-37" x="530.574219"/>
     <use xlink:href="#DejaVuSans-2e" x="594.197266"/>
     <use xlink:href="#DejaVuSans-39" x="625.984375"/>
     <use xlink:href="#DejaVuSans-34" x="689.607422"/>
     <use xlink:href="#DejaVuSans-20" x="753.230469"/>
     <use xlink:href="#DejaVuSans-6d" x="785.017578"/>
    </g>
   </g>
  </g>
 </g>
 <defs>
  <clipPath id="pf2d61b58fa">
   <rect x="48.47" y="10.8" width="595.4475" height="159.52"/>
  </clipPath>
 </defs>
</svg>
