<?xml version="1.0" encoding="UTF-8" standalone="no"?>
<!DOCTYPE svg PUBLIC "-//W3C//DTD SVG 1.1//EN"
 "http://www.w3.org/Graphics/SVG/1.1/DTD/svg11.dtd">
<!-- Generated by graphviz version 12.2.1 (20241206.2353)
 -->
<!-- Title: My Network Pages: 1 -->
<svg width="1460pt" height="1055pt"
 viewBox="0.00 0.00 1460.18 1055.46" xmlns="http://www.w3.org/2000/svg" xmlns:xlink="http://www.w3.org/1999/xlink">
<g id="graph0" class="graph" transform="scale(1 1) rotate(0) translate(4 1051.46)">
<title>My Network</title>
<g id="a_graph0"><a xlink:title="Network: My Network&#10;Buses: 7 (out of 7)&#10;Generators: 6 (out of 6)&#10;Loads: 1 (out of 1)&#10;Stores: 4 (out of 4)&#10;Storage units: 1 (out of 1)&#10;Links: 11 (out of 11)&#10;Lines: 0 (out of 0)&#10;Snapshots: 8760">
<text text-anchor="middle" x="726.09" y="-1030.16" font-family="Times New Roman,serif" font-size="14.00">My Network</text>
<text text-anchor="middle" x="726.09" y="-981.66" font-family="Times New Roman,serif" font-size="14.00"> &#160;&#160;&#160;&#160;&#160;&#160;&#160;&#160;&#160;&#160;</text>
</a>
</g>
<!-- district elec (bus) -->
<g id="node1" class="node">
<title>district elec (bus)</title>
<g id="a_node1"><a xlink:title="Bus: district elec&#10;Carrier: electricity&#10;Unit: &#10;Generators: 2&#10;Loads: 0&#10;Stores: 0&#10;Storage units: 1&#10;Incoming links: 1&#10;Outgoing links: 4&#10;Lines: 0&#10;&#10;Power time series: N/A ">
<polygon fill="none" stroke="none" stroke-width="7.3" points="913.18,-518.07 675.58,-518.07 675.58,-496.47 913.18,-496.47 913.18,-518.07"/>
<polyline fill="none" stroke="black" stroke-width="7.3" points="675.58,-496.47 913.18,-496.47"/>
<text text-anchor="start" x="765.13" y="-504.54" font-family="Courier New" font-size="8.00" fill="red">district elec</text>
</a>
</g>
</g>
<!-- district heat (bus) -->
<g id="node2" class="node">
<title>district heat (bus)</title>
<g id="a_node2"><a xlink:title="Bus: district heat&#10;Carrier: heat&#10;Unit: &#10;Generators: 1&#10;Loads: 0&#10;Stores: 1&#10;Storage units: 0&#10;Incoming links: 7&#10;Outgoing links: 3&#10;Lines: 0&#10;&#10;Power time series: N/A ">
<polygon fill="none" stroke="none" stroke-width="7.3" points="1195.18,-342.33 957.58,-342.33 957.58,-320.73 1195.18,-320.73 1195.18,-342.33"/>
<polyline fill="none" stroke="black" stroke-width="7.3" points="957.58,-320.73 1195.18,-320.73"/>
<text text-anchor="start" x="1047.13" y="-328.81" font-family="Courier New" font-size="8.00" fill="red">district heat</text>
</a>
</g>
</g>
<!-- district elec (bus)&#45;&gt;district heat (bus) -->
<g id="edge13" class="edge">
<title>district elec (bus)&#45;&gt;district heat (bus)</title>
<g id="a_edge13"><a xlink:title="Link: large scale heat pump&#10;From: district elec (bus0)&#10;To: district heat (bus1)&#10;Carrier: heat pump&#10;Extendable nominal power: True&#10;Nominal power: 0.00 MW&#10;Efficiency: nan&#10;Capital cost: 178859.13 currency/MW&#10;Marginal cost: [5.96, 5.96, 5.96, 5.96, 5.96, ...] currency/MWh&#10;&#10;Optimised nominal power: 0.00 MW&#10;Power time series (p0): N/A MW&#10;Power time series (p1): N/A MW">
<path fill="none" stroke="black" stroke-width="1.5" d="M787.44,-496.21C773.38,-475.84 742.88,-431.67 742.88,-431.67 742.88,-431.67 742.88,-421.92 742.88,-421.92 742.88,-421.92 932.29,-371.15 1025.62,-346.14"/>
<polygon fill="black" stroke="black" stroke-width="1.5" points="1036.36,-343.26 1026.17,-351.58 1032.4,-344.58 1024.84,-346.61 1024.77,-346.37 1024.71,-346.13 1032.27,-344.1 1023.37,-341.15 1036.36,-343.26"/>
</a>
</g>
<text text-anchor="start" x="742.88" y="-424.07" font-family="Courier New" font-size="8.00" fill="red">large scale heat pump</text>
</g>
<!-- district elec (bus)&#45;&gt;district heat (bus) -->
<g id="edge14" class="edge">
<title>district elec (bus)&#45;&gt;district heat (bus)</title>
<g id="a_edge14"><a xlink:title="Link: geothermal plant&#10;From: district elec (bus0)&#10;To: district heat (bus1)&#10;Carrier: geothermal&#10;Extendable nominal power: True&#10;Nominal power: 0.00 MW&#10;Efficiency: 25.00&#10;Capital cost: 4392173.07 currency/MW&#10;Marginal cost: [155.75, 155.75, 155.75, 155.75, 155.75, ...] currency/MWh&#10;&#10;Optimised nominal power: 0.00 MW&#10;Power time series (p0): N/A MW&#10;Power time series (p1): N/A MW">
<path fill="none" stroke="black" stroke-width="1.5" d="M808.62,-496.26C840.41,-473.92 914.38,-421.92 914.38,-421.92 914.38,-421.92 999.38,-375.02 1046.24,-349.17"/>
<polygon fill="black" stroke="black" stroke-width="1.5" points="1056.2,-343.67 1048.3,-354.19 1052.67,-345.9 1045.81,-349.69 1045.69,-349.47 1045.57,-349.25 1052.43,-345.47 1043.08,-344.74 1056.2,-343.67"/>
</a>
</g>
<text text-anchor="start" x="914.38" y="-424.07" font-family="Courier New" font-size="8.00" fill="red">geothermal plant</text>
</g>
<!-- district elec (bus)&#45;&gt;district heat (bus) -->
<g id="edge15" class="edge">
<title>district elec (bus)&#45;&gt;district heat (bus)</title>
<g id="a_edge15"><a xlink:title="Link: elec boiler&#10;From: district elec (bus0)&#10;To: district heat (bus1)&#10;Carrier: electricity&#10;Extendable nominal power: True&#10;Nominal power: 0.00 MW&#10;Efficiency: 0.99&#10;Capital cost: 10579.57 currency/MW&#10;Marginal cost: [1.05, 1.05, 1.05, 1.05, 1.05, ...] currency/MWh&#10;&#10;Optimised nominal power: 0.00 MW&#10;Power time series (p0): N/A MW&#10;Power time series (p1): N/A MW">
<path fill="none" stroke="black" stroke-width="1.5" d="M822.59,-496.05C879.01,-475.62 1000.38,-431.67 1000.38,-431.67 1000.38,-431.67 1038.37,-382.12 1060.63,-353.09"/>
<polygon fill="black" stroke="black" stroke-width="1.5" points="1067.42,-344.22 1064.41,-357.03 1065.08,-347.68 1060.32,-353.89 1060.12,-353.74 1059.92,-353.59 1064.69,-347.38 1055.84,-350.46 1067.42,-344.22"/>
</a>
</g>
<text text-anchor="start" x="1006.88" y="-424.07" font-family="Courier New" font-size="8.00" fill="red">elec boiler</text>
</g>
<!-- elec market (bus) -->
<g id="node7" class="node">
<title>elec market (bus)</title>
<g id="a_node7"><a xlink:title="Bus: elec market&#10;Carrier: electricity&#10;Unit: &#10;Generators: 0&#10;Loads: 0&#10;Stores: 1&#10;Storage units: 0&#10;Incoming links: 1&#10;Outgoing links: 0&#10;Lines: 0&#10;&#10;Power time series: N/A ">
<polygon fill="none" stroke="none" stroke-width="7.3" points="586.18,-342.33 348.58,-342.33 348.58,-320.73 586.18,-320.73 586.18,-342.33"/>
<polyline fill="none" stroke="black" stroke-width="7.3" points="348.58,-320.73 586.18,-320.73"/>
<text text-anchor="start" x="442.63" y="-328.81" font-family="Courier New" font-size="8.00" fill="red">elec market</text>
</a>
</g>
</g>
<!-- district elec (bus)&#45;&gt;elec market (bus) -->
<g id="edge16" class="edge">
<title>district elec (bus)&#45;&gt;elec market (bus)</title>
<g id="a_edge16"><a xlink:title="Link: selling&#10;From: district elec (bus0)&#10;To: elec market (bus1)&#10;Carrier: electricity&#10;Extendable nominal power: True&#10;Nominal power: 0.00 MW&#10;Efficiency: 0.00&#10;Capital cost: 0.00 currency/MW&#10;Marginal cost: [&#45;102.23, &#45;102.23, &#45;102.23, &#45;102.23, &#45;102.23, ...] currency/MWh&#10;&#10;Optimised nominal power: 0.00 MW&#10;Power time series (p0): N/A MW&#10;Power time series (p1): N/A MW">
<path fill="none" stroke="black" stroke-width="1.5" d="M772.27,-496.05C728.04,-475.62 632.88,-431.67 632.88,-431.67 632.88,-431.67 543.07,-377.87 495.77,-349.54"/>
<polygon fill="black" stroke="black" stroke-width="1.5" points="486.04,-343.71 499.11,-345.24 489.75,-345.64 496.46,-349.66 496.33,-349.87 496.21,-350.09 489.49,-346.07 493.56,-354.51 486.04,-343.71"/>
</a>
</g>
<text text-anchor="start" x="632.88" y="-424.07" font-family="Courier New" font-size="8.00" fill="red">selling</text>
</g>
<!-- battery storage (storage unit) -->
<g id="node19" class="node">
<title>battery storage (storage unit)</title>
<g id="a_node19"><a xlink:title="Storage unit: battery storage&#10;Bus: district elec&#10;Carrier: battery storage&#10;Extendable nominal power: True&#10;Nominal power: 0.00 &#10;Power set: 0.00 &#10;Charge cyclic state: True&#10;Capital cost: 42817.90 currency/&#10;Marginal cost: [11.91, 11.91, 11.91, 11.91, 11.91, ...] currency/h&#10;&#10;Optimised nominal power: 0.00 &#10;Power time series: N/A ">
<polygon fill="none" stroke="black" stroke-width="2" points="798.74,-349.53 686.82,-349.53 658.02,-313.53 769.95,-313.53 798.74,-349.53"/>
<text text-anchor="start" x="694.63" y="-328.81" font-family="Courier New" font-size="8.00" fill="red">battery storage</text>
</a>
</g>
</g>
<!-- district elec (bus)&#45;&gt;battery storage (storage unit) -->
<g id="edge12" class="edge">
<title>district elec (bus)&#45;&gt;battery storage (storage unit)</title>
<path fill="none" stroke="black" stroke-width="1.5" d="M768.53,-489.05C735.45,-467.02 682.38,-431.67 682.38,-431.67 682.38,-431.67 682.38,-421.92 682.38,-421.92 682.38,-421.92 700.09,-387.5 713.54,-361.38"/>
<polygon fill="black" stroke="black" stroke-width="1.5" points="777.76,-495.19 764.78,-493.03 774.15,-493.09 767.63,-488.75 767.77,-488.54 767.91,-488.33 774.42,-492.67 770.76,-484.05 777.76,-495.19"/>
<polygon fill="black" stroke="black" stroke-width="1.5" points="718.68,-351.39 717.99,-364.53 716.99,-355.22 713.41,-362.18 713.19,-362.06 712.96,-361.95 716.55,-354.99 708.39,-359.59 718.68,-351.39"/>
</g>
<!-- heat (bus) -->
<g id="node3" class="node">
<title>heat (bus)</title>
<g id="a_node3"><a xlink:title="Bus: heat&#10;Carrier: heat&#10;Unit: &#10;Generators: 2&#10;Loads: 1&#10;Stores: 0&#10;Storage units: 0&#10;Incoming links: 1&#10;Outgoing links: 0&#10;Lines: 0&#10;&#10;Power time series: N/A ">
<polygon fill="none" stroke="none" stroke-width="7.3" points="346.18,-188.2 108.58,-188.2 108.58,-166.6 346.18,-166.6 346.18,-188.2"/>
<polyline fill="none" stroke="black" stroke-width="7.3" points="108.58,-166.6 346.18,-166.6"/>
<text text-anchor="start" x="218.38" y="-174.67" font-family="Courier New" font-size="8.00" fill="red">heat</text>
</a>
</g>
</g>
<!-- district heat (bus)&#45;&gt;heat (bus) -->
<g id="edge19" class="edge">
<title>district heat (bus)&#45;&gt;heat (bus)</title>
<g id="a_edge19"><a xlink:title="Link: heating grid&#10;From: district heat (bus0)&#10;To: heat (bus1)&#10;Carrier: heat&#10;Extendable nominal power: True&#10;Nominal power: 0.00 MW&#10;Efficiency: 1.00&#10;Capital cost: 0.00 currency/MW&#10;Marginal cost: 0.00 currency/MWh&#10;&#10;Optimised nominal power: 0.00 MW&#10;Power time series (p0): N/A MW&#10;Power time series (p1): N/A MW">
<path fill="none" stroke="black" stroke-width="1.5" d="M1029.72,-320.24C959.4,-304.73 834.38,-277.15 834.38,-277.15 834.38,-277.15 466.3,-217.27 303.4,-190.77"/>
<polygon fill="black" stroke="black" stroke-width="1.5" points="292.43,-188.98 305.14,-185.58 296.59,-189.41 304.31,-190.66 304.27,-190.91 304.23,-191.16 296.51,-189.9 303.41,-196.24 292.43,-188.98"/>
</a>
</g>
<text text-anchor="start" x="603.1" y="-233.55" font-family="Courier New" font-size="8.00" fill="red">heating grid</text>
</g>
<!-- TTES (bus) -->
<g id="node5" class="node">
<title>TTES (bus)</title>
<g id="a_node5"><a xlink:title="Bus: TTES&#10;Carrier: TTES&#10;Unit: &#10;Generators: 0&#10;Loads: 0&#10;Stores: 1&#10;Storage units: 0&#10;Incoming links: 1&#10;Outgoing links: 1&#10;Lines: 0&#10;&#10;Power time series: N/A ">
<polygon fill="none" stroke="none" stroke-width="7.3" points="1238.18,-188.2 1000.58,-188.2 1000.58,-166.6 1238.18,-166.6 1238.18,-188.2"/>
<polyline fill="none" stroke="black" stroke-width="7.3" points="1000.58,-166.6 1238.18,-166.6"/>
<text text-anchor="start" x="1110.38" y="-174.67" font-family="Courier New" font-size="8.00" fill="red">TTES</text>
</a>
</g>
</g>
<!-- district heat (bus)&#45;&gt;TTES (bus) -->
<g id="edge17" class="edge">
<title>district heat (bus)&#45;&gt;TTES (bus)</title>
<g id="a_edge17"><a xlink:title="Link: TTES charge&#10;From: district heat (bus0)&#10;To: TTES (bus1)&#10;Carrier: TTES&#10;Extendable nominal power: True&#10;Nominal power: 0.00 MW&#10;Efficiency: 1.00&#10;Capital cost: 1324.47 currency/MW&#10;Marginal cost: [20.00, 20.00, 20.00, 20.00, 20.00, ...] currency/MWh&#10;&#10;Optimised nominal power: 0.00 MW&#10;Power time series (p0): N/A MW&#10;Power time series (p1): N/A MW">
<path fill="none" stroke="black" stroke-width="1.5" d="M1074.95,-320.28C1071.67,-296.8 1063.88,-241.15 1063.88,-241.15 1063.88,-241.15 1063.88,-231.4 1063.88,-231.4 1063.88,-231.4 1083.55,-212.62 1099.46,-197.42"/>
<polygon fill="black" stroke="black" stroke-width="1.5" points="1107.36,-189.88 1102.41,-202.07 1104.52,-192.94 1098.85,-198.35 1098.68,-198.17 1098.51,-197.99 1104.17,-192.58 1094.95,-194.26 1107.36,-189.88"/>
</a>
</g>
<text text-anchor="start" x="1063.88" y="-233.55" font-family="Courier New" font-size="8.00" fill="red">TTES charge</text>
</g>
<!-- PTES (bus) -->
<g id="node6" class="node">
<title>PTES (bus)</title>
<g id="a_node6"><a xlink:title="Bus: PTES&#10;Carrier: PTES&#10;Unit: &#10;Generators: 0&#10;Loads: 0&#10;Stores: 1&#10;Storage units: 0&#10;Incoming links: 1&#10;Outgoing links: 1&#10;Lines: 0&#10;&#10;Power time series: N/A ">
<polygon fill="none" stroke="none" stroke-width="7.3" points="928.18,-188.2 690.58,-188.2 690.58,-166.6 928.18,-166.6 928.18,-188.2"/>
<polyline fill="none" stroke="black" stroke-width="7.3" points="690.58,-166.6 928.18,-166.6"/>
<text text-anchor="start" x="800.38" y="-174.67" font-family="Courier New" font-size="8.00" fill="red">PTES</text>
</a>
</g>
</g>
<!-- district heat (bus)&#45;&gt;PTES (bus) -->
<g id="edge18" class="edge">
<title>district heat (bus)&#45;&gt;PTES (bus)</title>
<g id="a_edge18"><a xlink:title="Link: PTES charge&#10;From: district heat (bus0)&#10;To: PTES (bus1)&#10;Carrier: PTES&#10;Extendable nominal power: True&#10;Nominal power: 0.00 MW&#10;Efficiency: 1.00&#10;Capital cost: 1324.47 currency/MW&#10;Marginal cost: [20.00, 20.00, 20.00, 20.00, 20.00, ...] currency/MWh&#10;&#10;Optimised nominal power: 0.00 MW&#10;Power time series (p0): N/A MW&#10;Power time series (p1): N/A MW">
<path fill="none" stroke="black" stroke-width="1.5" d="M1058.45,-320.32C1013.23,-294.55 894.21,-226.73 838.69,-195.1"/>
<polygon fill="black" stroke="black" stroke-width="1.5" points="828.83,-189.48 841.93,-190.73 832.58,-191.33 839.38,-195.2 839.25,-195.42 839.13,-195.64 832.33,-191.76 836.58,-200.11 828.83,-189.48"/>
</a>
</g>
<text text-anchor="start" x="918.97" y="-233.55" font-family="Courier New" font-size="8.00" fill="red">PTES charge</text>
</g>
<!-- curtailment (store) -->
<g id="node15" class="node">
<title>curtailment (store)</title>
<g id="a_node15"><a xlink:title="Store: curtailment&#10;Bus: district heat&#10;Carrier: heat&#10;Extendable nominal energy: True&#10;Nominal energy: 0.00 h&#10;Power set: 0.00 &#10;Cyclic energy: False&#10;Capital cost: 0.00 currency/&#10;Marginal cost: [0.00, 0.00, 0.00, 0.00, 0.00, ...] currency/h&#10;&#10;Optimised nominal energy: 0.00 h&#10;Energy time series: N/A h&#10;Power time series: N/A ">
<polygon fill="none" stroke="black" stroke-width="2" points="1410.78,-195.4 1309.98,-195.4 1309.98,-159.4 1410.78,-159.4 1410.78,-195.4"/>
<text text-anchor="start" x="1335.63" y="-174.67" font-family="Courier New" font-size="8.00" fill="red">curtailment</text>
</a>
</g>
</g>
<!-- district heat (bus)&#45;&gt;curtailment (store) -->
<g id="edge8" class="edge">
<title>district heat (bus)&#45;&gt;curtailment (store)</title>
<path fill="none" stroke="black" stroke-width="1.5" d="M1106.97,-314.15C1157.48,-287.09 1258.5,-232.97 1316.58,-201.86"/>
<polygon fill="black" stroke="black" stroke-width="1.5" points="1097.07,-319.45 1105.1,-309.03 1100.63,-317.26 1107.53,-313.57 1107.65,-313.79 1107.77,-314.01 1100.87,-317.7 1110.2,-318.55 1097.07,-319.45"/>
<polygon fill="black" stroke="black" stroke-width="1.5" points="1326.33,-196.64 1318.3,-207.07 1322.77,-198.83 1315.87,-202.53 1315.75,-202.31 1315.64,-202.09 1322.54,-198.39 1313.2,-197.55 1326.33,-196.64"/>
</g>
<!-- heat demand (load) -->
<g id="node14" class="node">
<title>heat demand (load)</title>
<g id="a_node14"><a xlink:title="Load: heat demand&#10;Bus: heat&#10;Carrier: heat&#10;Power set: [24.99, 25.35, 28.11, 32.54, 39.09, ...] ">
<polygon fill="none" stroke="black" stroke-width="2" points="227.38,0 294.31,-64.8 160.46,-64.8 227.38,0"/>
<text text-anchor="start" x="202.63" y="-40.47" font-family="Courier New" font-size="8.00" fill="red">heat demand</text>
</a>
</g>
</g>
<!-- heat (bus)&#45;&gt;heat demand (load) -->
<g id="edge7" class="edge">
<title>heat (bus)&#45;&gt;heat demand (load)</title>
<path fill="none" stroke="black" stroke-width="1.5" d="M227.38,-166.46C227.38,-144.97 227.38,-93.76 227.38,-64.89"/>
</g>
<!-- district biomethane (bus) -->
<g id="node4" class="node">
<title>district biomethane (bus)</title>
<g id="a_node4"><a xlink:title="Bus: district biomethane&#10;Carrier: biomethane&#10;Unit: &#10;Generators: 1&#10;Loads: 0&#10;Stores: 0&#10;Storage units: 0&#10;Incoming links: 0&#10;Outgoing links: 3&#10;Lines: 0&#10;&#10;Power time series: N/A ">
<polygon fill="none" stroke="none" stroke-width="7.3" points="1452.18,-822.26 1214.58,-822.26 1214.58,-800.66 1452.18,-800.66 1452.18,-822.26"/>
<polyline fill="none" stroke="black" stroke-width="7.3" points="1214.58,-800.66 1452.18,-800.66"/>
<text text-anchor="start" x="1290.63" y="-808.74" font-family="Courier New" font-size="8.00" fill="red">district biomethane</text>
</a>
</g>
</g>
<!-- district biomethane (bus)&#45;&gt;district heat (bus) -->
<g id="edge20" class="edge">
<title>district biomethane (bus)&#45;&gt;district heat (bus)</title>
<g id="a_edge20"><a xlink:title="Link: biomethane boiler&#10;From: district biomethane (bus0)&#10;To: district heat (bus1)&#10;Carrier: biomethane boiler&#10;Extendable nominal power: True&#10;Nominal power: 0.00 MW&#10;Efficiency: 1.06&#10;Capital cost: 5534.27 currency/MW&#10;Marginal cost: [1.12, 1.12, 1.12, 1.12, 1.12, ...] currency/MWh&#10;&#10;Optimised nominal power: 0.00 MW&#10;Power time series (p0): N/A MW&#10;Power time series (p1): N/A MW">
<path fill="none" stroke="black" stroke-width="1.5" d="M1343.37,-800.3C1356.63,-786.81 1378.38,-764.66 1378.38,-764.66 1378.38,-764.66 1378.38,-754.91 1378.38,-754.91 1378.38,-754.91 1294.38,-467.67 1294.38,-467.67 1294.38,-467.67 1238.38,-421.92 1238.38,-421.92 1238.38,-421.92 1153.39,-375.02 1106.53,-349.17"/>
<polygon fill="black" stroke="black" stroke-width="1.5" points="1096.57,-343.67 1109.68,-344.74 1100.34,-345.47 1107.19,-349.25 1107.07,-349.47 1106.95,-349.69 1100.1,-345.9 1104.47,-354.19 1096.57,-343.67"/>
</a>
</g>
<text text-anchor="start" x="1330.58" y="-585.02" font-family="Courier New" font-size="8.00" fill="red">biomethane boiler</text>
</g>
<!-- biomethane CHP (multi&#45;link) -->
<g id="node20" class="node">
<title>biomethane CHP (multi&#45;link)</title>
<g id="a_node20"><a xlink:title="Multi&#45;link: biomethane CHP&#10;From: district biomethane (bus0)&#10;To: district elec (bus1)&#10;To: district heat (bus2)&#10;Carrier: biomethane CHP&#10;Extendable nominal energy: True&#10;Nominal power: 0.00 MW&#10;Capital cost: 44268.39 currency/MW&#10;Marginal cost: [5.94, 5.94, 5.94, 5.94, 5.94, ...] currency/MWh&#10;&#10;Optimised nominal power: 0.00 MW&#10;Power time series (p0): N/A MW">
<ellipse fill="black" stroke="black" cx="1247.38" cy="-673.77" rx="2.16" ry="2.16"/>
</a>
</g>
</g>
<!-- district biomethane (bus)&#45;&gt;biomethane CHP (multi&#45;link) -->
<g id="edge23" class="edge">
<title>district biomethane (bus)&#45;&gt;biomethane CHP (multi&#45;link)</title>
<g id="a_edge23"><a xlink:title="Multi&#45;link: biomethane CHP&#10;From: district biomethane (bus0)&#10;To: district elec (bus1)&#10;To: district heat (bus2)&#10;Carrier: biomethane CHP&#10;Extendable nominal power: True&#10;Nominal power: 0.00 MW&#10;Capital cost: 44268.39 currency/MW&#10;Marginal cost: [5.94, 5.94, 5.94, 5.94, 5.94, ...] currency/MWh&#10;&#10;Optimised nominal power: 0.00 MW&#10;Power time series (p0): N/A MW">
<path fill="none" stroke="black" stroke-width="1.5" d="M1326.28,-800.3C1316.85,-786.81 1301.38,-764.66 1301.38,-764.66 1301.38,-764.66 1254.71,-686.96 1248.15,-676.04"/>
</a>
</g>
<text text-anchor="start" x="1301.38" y="-757.06" font-family="Courier New" font-size="8.00" fill="red">biomethane CHP</text>
</g>
<!-- TTES (bus)&#45;&gt;district heat (bus) -->
<g id="edge21" class="edge">
<title>TTES (bus)&#45;&gt;district heat (bus)</title>
<g id="a_edge21"><a xlink:title="Link: TTES discharge&#10;From: TTES (bus0)&#10;To: district heat (bus1)&#10;Carrier: TTES&#10;Extendable nominal power: True&#10;Nominal power: 0.00 MW&#10;Efficiency: 1.00&#10;Capital cost: 1324.47 currency/MW&#10;Marginal cost: [20.00, 20.00, 20.00, 20.00, 20.00, ...] currency/MWh&#10;&#10;Optimised nominal power: 0.00 MW&#10;Power time series (p0): N/A MW&#10;Power time series (p1): N/A MW">
<path fill="none" stroke="black" stroke-width="1.5" d="M1120.93,-188.62C1123.25,-204.02 1127.38,-231.4 1127.38,-231.4 1127.38,-231.4 1127.38,-241.15 1127.38,-241.15 1127.38,-241.15 1103.72,-282.62 1088.63,-309.07"/>
<polygon fill="black" stroke="black" stroke-width="1.5" points="1083.14,-318.69 1084.4,-305.59 1084.99,-314.94 1088.87,-308.15 1089.09,-308.27 1089.3,-308.39 1085.42,-315.19 1093.78,-310.95 1083.14,-318.69"/>
</a>
</g>
<text text-anchor="start" x="1127.38" y="-233.55" font-family="Courier New" font-size="8.00" fill="red">TTES discharge</text>
</g>
<!-- TTES (store) -->
<g id="node16" class="node">
<title>TTES (store)</title>
<g id="a_node16"><a xlink:title="Store: TTES&#10;Bus: TTES&#10;Carrier: TTES&#10;Extendable nominal energy: True&#10;Nominal energy: 0.00 h&#10;Power set: 0.00 &#10;Cyclic energy: True&#10;Capital cost: 233.43 currency/&#10;Marginal cost: [0.00, 0.00, 0.00, 0.00, 0.00, ...] currency/h&#10;&#10;Optimised nominal energy: 0.00 h&#10;Energy time series: N/A h&#10;Power time series: N/A ">
<polygon fill="none" stroke="black" stroke-width="2" points="1169.78,-61.2 1068.98,-61.2 1068.98,-25.2 1169.78,-25.2 1169.78,-61.2"/>
<text text-anchor="start" x="1110.38" y="-40.47" font-family="Courier New" font-size="8.00" fill="red">TTES</text>
</a>
</g>
</g>
<!-- TTES (bus)&#45;&gt;TTES (store) -->
<g id="edge9" class="edge">
<title>TTES (bus)&#45;&gt;TTES (store)</title>
<path fill="none" stroke="black" stroke-width="1.5" d="M1119.38,-153.5C1119.38,-131.66 1119.38,-98.61 1119.38,-74.57"/>
<polygon fill="black" stroke="black" stroke-width="1.5" points="1119.38,-164.64 1113.98,-152.64 1119.13,-160.46 1119.13,-152.64 1119.38,-152.64 1119.63,-152.64 1119.63,-160.46 1124.78,-152.64 1119.38,-164.64"/>
<polygon fill="black" stroke="black" stroke-width="1.5" points="1119.38,-63.44 1124.78,-75.44 1119.63,-67.61 1119.63,-75.44 1119.38,-75.44 1119.13,-75.44 1119.13,-67.61 1113.98,-75.44 1119.38,-63.44"/>
</g>
<!-- PTES (bus)&#45;&gt;district heat (bus) -->
<g id="edge22" class="edge">
<title>PTES (bus)&#45;&gt;district heat (bus)</title>
<g id="a_edge22"><a xlink:title="Link: PTES discharge&#10;From: PTES (bus0)&#10;To: district heat (bus1)&#10;Carrier: PTES&#10;Extendable nominal power: True&#10;Nominal power: 0.00 MW&#10;Efficiency: 1.00&#10;Capital cost: 1324.47 currency/MW&#10;Marginal cost: [20.00, 20.00, 20.00, 20.00, 20.00, ...] currency/MWh&#10;&#10;Optimised nominal power: 0.00 MW&#10;Power time series (p0): N/A MW&#10;Power time series (p1): N/A MW">
<path fill="none" stroke="black" stroke-width="1.5" d="M811.47,-188.48C815.15,-206.22 822.38,-241.15 822.38,-241.15 822.38,-241.15 963.12,-290.68 1035.07,-316"/>
<polygon fill="black" stroke="black" stroke-width="1.5" points="1045.52,-319.67 1032.41,-320.78 1041.5,-318.52 1034.12,-315.93 1034.2,-315.69 1034.29,-315.45 1041.67,-318.05 1036,-310.6 1045.52,-319.67"/>
</a>
</g>
<text text-anchor="start" x="822.38" y="-233.55" font-family="Courier New" font-size="8.00" fill="red">PTES discharge</text>
</g>
<!-- PTES (store) -->
<g id="node17" class="node">
<title>PTES (store)</title>
<g id="a_node17"><a xlink:title="Store: PTES&#10;Bus: PTES&#10;Carrier: PTES&#10;Extendable nominal energy: True&#10;Nominal energy: 0.00 h&#10;Power set: 0.00 &#10;Cyclic energy: True&#10;Capital cost: 118.71 currency/&#10;Marginal cost: [0.00, 0.00, 0.00, 0.00, 0.00, ...] currency/h&#10;&#10;Optimised nominal energy: 0.00 h&#10;Energy time series: N/A h&#10;Power time series: N/A ">
<polygon fill="none" stroke="black" stroke-width="2" points="859.78,-61.2 758.98,-61.2 758.98,-25.2 859.78,-25.2 859.78,-61.2"/>
<text text-anchor="start" x="800.38" y="-40.47" font-family="Courier New" font-size="8.00" fill="red">PTES</text>
</a>
</g>
</g>
<!-- PTES (bus)&#45;&gt;PTES (store) -->
<g id="edge10" class="edge">
<title>PTES (bus)&#45;&gt;PTES (store)</title>
<path fill="none" stroke="black" stroke-width="1.5" d="M809.38,-153.5C809.38,-131.66 809.38,-98.61 809.38,-74.57"/>
<polygon fill="black" stroke="black" stroke-width="1.5" points="809.38,-164.64 803.98,-152.64 809.13,-160.46 809.13,-152.64 809.38,-152.64 809.63,-152.64 809.63,-160.46 814.78,-152.64 809.38,-164.64"/>
<polygon fill="black" stroke="black" stroke-width="1.5" points="809.38,-63.44 814.78,-75.44 809.63,-67.61 809.63,-75.44 809.38,-75.44 809.13,-75.44 809.13,-67.61 803.98,-75.44 809.38,-63.44"/>
</g>
<!-- elec market (store) -->
<g id="node18" class="node">
<title>elec market (store)</title>
<g id="a_node18"><a xlink:title="Store: elec market&#10;Bus: elec market&#10;Carrier: electricity&#10;Extendable nominal energy: True&#10;Nominal energy: 0.00 h&#10;Power set: 0.00 &#10;Cyclic energy: False&#10;Capital cost: 0.00 currency/&#10;Marginal cost: [0.00, 0.00, 0.00, 0.00, 0.00, ...] currency/h&#10;&#10;Optimised nominal energy: 0.00 h&#10;Energy time series: N/A h&#10;Power time series: N/A ">
<polygon fill="none" stroke="black" stroke-width="2" points="518.78,-195.4 417.98,-195.4 417.98,-159.4 518.78,-159.4 518.78,-195.4"/>
<text text-anchor="start" x="443.63" y="-174.67" font-family="Courier New" font-size="8.00" fill="red">elec market</text>
</a>
</g>
</g>
<!-- elec market (bus)&#45;&gt;elec market (store) -->
<g id="edge11" class="edge">
<title>elec market (bus)&#45;&gt;elec market (store)</title>
<path fill="none" stroke="black" stroke-width="1.5" d="M467.53,-307.57C467.71,-281.25 467.99,-238 468.18,-208.88"/>
<polygon fill="black" stroke="black" stroke-width="1.5" points="467.46,-318.72 462.14,-306.69 467.24,-314.55 467.29,-306.72 467.54,-306.72 467.79,-306.73 467.74,-314.55 472.94,-306.76 467.46,-318.72"/>
<polygon fill="black" stroke="black" stroke-width="1.5" points="468.26,-197.68 473.58,-209.71 468.48,-201.85 468.43,-209.68 468.18,-209.68 467.93,-209.68 467.98,-201.85 462.78,-209.64 468.26,-197.68"/>
</g>
<!-- pv panels (generator) -->
<g id="node8" class="node">
<title>pv panels (generator)</title>
<g id="a_node8"><a xlink:title="Generator: pv panels&#10;Bus: district elec&#10;Carrier: pv&#10;Extendable nominal power: True&#10;Nominal power: 0.00 &#10;Power set: 0.00 &#10;Efficiency: 1.00&#10;Capital cost: 28698.93 currency/&#10;Marginal cost: [0.00, 0.00, 0.00, 0.00, 0.00, ...] currency/h&#10;&#10;Optimised nominal power: 0.00 &#10;Power time series: N/A ">
<ellipse fill="none" stroke="black" stroke-width="2" cx="716.38" cy="-673.77" rx="39.6" ry="39.6"/>
<text text-anchor="start" x="696.13" y="-671.04" font-family="Courier New" font-size="8.00" fill="red">pv panels</text>
</a>
</g>
</g>
<!-- pv panels (generator)&#45;&gt;district elec (bus) -->
<g id="edge1" class="edge">
<title>pv panels (generator)&#45;&gt;district elec (bus)</title>
<path fill="none" stroke="black" stroke-width="1.5" d="M733.12,-637.48C751.11,-599.53 778.62,-541.52 789.61,-518.34"/>
</g>
<!-- electricity grid (generator) -->
<g id="node9" class="node">
<title>electricity grid (generator)</title>
<g id="a_node9"><a xlink:title="Generator: electricity grid&#10;Bus: district elec&#10;Carrier: grid electricity&#10;Extendable nominal power: True&#10;Nominal power: 0.00 &#10;Power set: 0.00 &#10;Efficiency: 1.00&#10;Capital cost: 22140.00 currency/&#10;Marginal cost: [168.73, 168.73, 168.73, 168.73, 168.73, ...] currency/h&#10;&#10;Optimised nominal power: 0.00 &#10;Power time series: N/A ">
<ellipse fill="none" stroke="black" stroke-width="2" cx="873.38" cy="-673.77" rx="45.15" ry="45.15"/>
<text text-anchor="start" x="837.38" y="-671.04" font-family="Courier New" font-size="8.00" fill="red">electricity grid</text>
</a>
</g>
</g>
<!-- electricity grid (generator)&#45;&gt;district elec (bus) -->
<g id="edge2" class="edge">
<title>electricity grid (generator)&#45;&gt;district elec (bus)</title>
<path fill="none" stroke="black" stroke-width="1.5" d="M854.06,-632.52C835.88,-594.67 809.9,-540.58 799.24,-518.37"/>
</g>
<!-- st panels (generator) -->
<g id="node10" class="node">
<title>st panels (generator)</title>
<g id="a_node10"><a xlink:title="Generator: st panels&#10;Bus: district heat&#10;Carrier: st&#10;Extendable nominal power: True&#10;Nominal power: 0.00 &#10;Power set: 0.00 &#10;Efficiency: 1.00&#10;Capital cost: 16049.10 currency/&#10;Marginal cost: [0.32, 0.32, 0.32, 0.32, 0.32, ...] currency/h&#10;&#10;Optimised nominal power: 0.00 &#10;Power time series: N/A ">
<ellipse fill="none" stroke="black" stroke-width="2" cx="1063.38" cy="-507.27" rx="39.6" ry="39.6"/>
<text text-anchor="start" x="1043.13" y="-504.54" font-family="Courier New" font-size="8.00" fill="red">st panels</text>
</a>
</g>
</g>
<!-- st panels (generator)&#45;&gt;district heat (bus) -->
<g id="edge3" class="edge">
<title>st panels (generator)&#45;&gt;district heat (bus)</title>
<path fill="none" stroke="black" stroke-width="1.5" d="M1088.68,-476.78C1106.57,-455.93 1127.38,-431.67 1127.38,-431.67 1127.38,-431.67 1127.38,-421.92 1127.38,-421.92 1127.38,-421.92 1095.63,-366.26 1082.23,-342.79"/>
</g>
<!-- dec air heat pump (generator) -->
<g id="node11" class="node">
<title>dec air heat pump (generator)</title>
<g id="a_node11"><a xlink:title="Generator: dec air heat pump&#10;Bus: heat&#10;Carrier: dec air heat pump&#10;Extendable nominal power: True&#10;Nominal power: 0.00 &#10;Power set: 0.00 &#10;Efficiency: nan&#10;Capital cost: 84322.75 currency/&#10;Marginal cost: [69.03, 69.03, 69.03, 69.03, 69.03, ...] currency/h&#10;&#10;Optimised nominal power: 0.00 &#10;Power time series: N/A ">
<ellipse fill="none" stroke="black" stroke-width="2" cx="228.38" cy="-331.53" rx="47.46" ry="47.46"/>
<text text-anchor="start" x="190.13" y="-328.81" font-family="Courier New" font-size="8.00" fill="red">dec air heat pump</text>
</a>
</g>
</g>
<!-- dec air heat pump (generator)&#45;&gt;heat (bus) -->
<g id="edge4" class="edge">
<title>dec air heat pump (generator)&#45;&gt;heat (bus)</title>
<path fill="none" stroke="black" stroke-width="1.5" d="M228.08,-283.65C227.85,-250.12 227.58,-207.68 227.45,-188.56"/>
</g>
<!-- dec ground heat pump (generator) -->
<g id="node12" class="node">
<title>dec ground heat pump (generator)</title>
<g id="a_node12"><a xlink:title="Generator: dec ground heat pump&#10;Bus: heat&#10;Carrier: dec ground heat pump&#10;Extendable nominal power: True&#10;Nominal power: 0.00 &#10;Power set: 0.00 &#10;Efficiency: nan&#10;Capital cost: 77534.60 currency/&#10;Marginal cost: [64.38, 64.38, 64.38, 64.38, 64.38, ...] currency/h&#10;&#10;Optimised nominal power: 0.00 &#10;Power time series: N/A ">
<ellipse fill="none" stroke="black" stroke-width="2" cx="54.38" cy="-331.53" rx="54.38" ry="54.38"/>
<text text-anchor="start" x="9.38" y="-328.81" font-family="Courier New" font-size="8.00" fill="red">dec ground heat pump</text>
</a>
</g>
</g>
<!-- dec ground heat pump (generator)&#45;&gt;heat (bus) -->
<g id="edge5" class="edge">
<title>dec ground heat pump (generator)&#45;&gt;heat (bus)</title>
<path fill="none" stroke="black" stroke-width="1.5" d="M94.94,-294.86C134.29,-260.26 191.51,-209.95 215.79,-188.59"/>
</g>
<!-- biomethane (generator) -->
<g id="node13" class="node">
<title>biomethane (generator)</title>
<g id="a_node13"><a xlink:title="Generator: biomethane&#10;Bus: district biomethane&#10;Carrier: biomethane&#10;Extendable nominal power: True&#10;Nominal power: 0.00 &#10;Power set: 0.00 &#10;Efficiency: 1.00&#10;Capital cost: 0.00 currency/&#10;Marginal cost: [120.00, 120.00, 120.00, 120.00, 120.00, ...] currency/h&#10;&#10;Optimised nominal power: 0.00 &#10;Power time series: N/A ">
<ellipse fill="none" stroke="black" stroke-width="2" cx="1333.38" cy="-934.86" rx="39.6" ry="39.6"/>
<text text-anchor="start" x="1310.88" y="-932.14" font-family="Courier New" font-size="8.00" fill="red">biomethane</text>
</a>
</g>
</g>
<!-- biomethane (generator)&#45;&gt;district biomethane (bus) -->
<g id="edge6" class="edge">
<title>biomethane (generator)&#45;&gt;district biomethane (bus)</title>
<path fill="none" stroke="black" stroke-width="1.5" d="M1333.38,-894.78C1333.38,-869.41 1333.38,-838.25 1333.38,-822.54"/>
</g>
<!-- biomethane CHP (multi&#45;link)&#45;&gt;district elec (bus) -->
<g id="edge24" class="edge">
<title>biomethane CHP (multi&#45;link)&#45;&gt;district elec (bus)</title>
<g id="a_edge24"><a xlink:title="Multi&#45;link: biomethane CHP&#10;From: district biomethane (bus0)&#10;To: district elec (bus1)&#10;Carrier: biomethane CHP&#10;Extendable nominal power: True&#10;Nominal power: 0.00 MW&#10;Efficiency: 0.43&#10;Capital cost: 44268.39 currency/MW&#10;Marginal cost: [5.94, 5.94, 5.94, 5.94, 5.94, ...] currency/MWh&#10;&#10;Optimised nominal power: 0.00 MW&#10;Power time series (p0): N/A MW&#10;Power time series (p1): N/A MW">
<path fill="none" stroke="black" stroke-width="1.5" d="M1245.74,-672.17C1221.75,-663.46 941.15,-561.56 834.85,-522.96"/>
<polygon fill="black" stroke="black" stroke-width="1.5" points="824.21,-519.1 837.34,-518.12 828.22,-520.29 835.58,-522.96 835.49,-523.19 835.41,-523.43 828.05,-520.76 833.65,-528.27 824.21,-519.1"/>
</a>
</g>
<text text-anchor="start" x="1020.88" y="-585.02" font-family="Courier New" font-size="8.00" fill="red">biomethane CHP</text>
</g>
<!-- biomethane CHP (multi&#45;link)&#45;&gt;district heat (bus) -->
<g id="edge25" class="edge">
<title>biomethane CHP (multi&#45;link)&#45;&gt;district heat (bus)</title>
<g id="a_edge25"><a xlink:title="Multi&#45;link: biomethane CHP&#10;From: district biomethane (bus0)&#10;To: district heat (bus2)&#10;Carrier: biomethane CHP&#10;Extendable nominal power: True&#10;Nominal power: 0.00 MW&#10;Efficiency: 0.58&#10;Capital cost: 44268.39 currency/MW&#10;Marginal cost: [5.94, 5.94, 5.94, 5.94, 5.94, ...] currency/MWh&#10;&#10;Optimised nominal power: 0.00 MW&#10;Power time series (p0): N/A MW&#10;Power time series (p2): N/A MW">
<path fill="none" stroke="black" stroke-width="1.5" d="M1246.97,-671.16C1241.43,-649.8 1182.38,-421.92 1182.38,-421.92 1182.38,-421.92 1129.57,-377.38 1098.5,-351.19"/>
<polygon fill="black" stroke="black" stroke-width="1.5" points="1089.94,-343.96 1102.6,-347.57 1093.29,-346.46 1099.28,-351.51 1099.11,-351.7 1098.95,-351.89 1092.97,-346.85 1095.63,-355.83 1089.94,-343.96"/>
</a>
</g>
<text text-anchor="start" x="1213.8" y="-504.54" font-family="Courier New" font-size="8.00" fill="red">biomethane CHP</text>
</g>
</g>
</svg>
