<?xml version="1.0" encoding="UTF-8" standalone="no"?>
<!DOCTYPE svg PUBLIC "-//W3C//DTD SVG 1.1//EN"
 "http://www.w3.org/Graphics/SVG/1.1/DTD/svg11.dtd">
<!-- Generated by graphviz version 12.2.1 (20241206.2353)
 -->
<!-- Title: My Network Pages: 1 -->
<svg width="2762pt" height="1055pt"
 viewBox="0.00 0.00 2762.20 1055.46" xmlns="http://www.w3.org/2000/svg" xmlns:xlink="http://www.w3.org/1999/xlink">
<g id="graph0" class="graph" transform="scale(1 1) rotate(0) translate(4 1051.46)">
<title>My Network</title>
<g id="a_graph0"><a xlink:title="Network: My Network&#10;Buses: 7 (out of 7)&#10;Generators: 6 (out of 6)&#10;Loads: 1 (out of 1)&#10;Stores: 4 (out of 4)&#10;Storage units: 1 (out of 1)&#10;Links: 20 (out of 20)&#10;Lines: 0 (out of 0)&#10;Snapshots: 8760">
<text text-anchor="middle" x="1377.1" y="-1030.16" font-family="Times New Roman,serif" font-size="14.00">My Network</text>
<text text-anchor="middle" x="1377.1" y="-981.66" font-family="Times New Roman,serif" font-size="14.00"> &#160;&#160;&#160;&#160;&#160;&#160;&#160;&#160;&#160;&#160;</text>
</a>
</g>
<!-- district elec (bus) -->
<g id="node1" class="node">
<title>district elec (bus)</title>
<g id="a_node1"><a xlink:title="Bus: district elec&#10;Carrier: electricity&#10;Unit: &#10;Generators: 2&#10;Loads: 0&#10;Stores: 0&#10;Storage units: 1&#10;Incoming links: 1&#10;Outgoing links: 4&#10;Lines: 0&#10;&#10;Power time series: N/A ">
<polygon fill="none" stroke="none" stroke-width="7.3" points="1354.6,-518.07 1117,-518.07 1117,-496.47 1354.6,-496.47 1354.6,-518.07"/>
<polyline fill="none" stroke="black" stroke-width="7.3" points="1117,-496.47 1354.6,-496.47"/>
<text text-anchor="start" x="1206.55" y="-504.54" font-family="Courier New" font-size="8.00" fill="red">district elec</text>
</a>
</g>
</g>
<!-- district heat (bus) -->
<g id="node2" class="node">
<title>district heat (bus)</title>
<g id="a_node2"><a xlink:title="Bus: district heat&#10;Carrier: heat&#10;Unit: &#10;Generators: 1&#10;Loads: 0&#10;Stores: 1&#10;Storage units: 0&#10;Incoming links: 7&#10;Outgoing links: 12&#10;Lines: 0&#10;&#10;Power time series: N/A ">
<polygon fill="none" stroke="none" stroke-width="7.3" points="1728.6,-342.33 1491,-342.33 1491,-320.73 1728.6,-320.73 1728.6,-342.33"/>
<polyline fill="none" stroke="black" stroke-width="7.3" points="1491,-320.73 1728.6,-320.73"/>
<text text-anchor="start" x="1580.55" y="-328.81" font-family="Courier New" font-size="8.00" fill="red">district heat</text>
</a>
</g>
</g>
<!-- district elec (bus)&#45;&gt;district heat (bus) -->
<g id="edge13" class="edge">
<title>district elec (bus)&#45;&gt;district heat (bus)</title>
<g id="a_edge13"><a xlink:title="Link: large scale heat pump&#10;From: district elec (bus0)&#10;To: district heat (bus1)&#10;Carrier: heat pump&#10;Extendable nominal power: True&#10;Nominal power: 0.00 MW&#10;Efficiency: nan&#10;Capital cost: 178859.13 currency/MW&#10;Marginal cost: [5.96, 5.96, 5.96, 5.96, 5.96, ...] currency/MWh&#10;&#10;Optimised nominal power: 0.00 MW&#10;Power time series (p0): N/A MW&#10;Power time series (p1): N/A MW">
<path fill="none" stroke="black" stroke-width="1.5" d="M1228.85,-496.21C1214.8,-475.84 1184.3,-431.67 1184.3,-431.67 1184.3,-431.67 1184.3,-421.92 1184.3,-421.92 1184.3,-421.92 1430.43,-370.21 1548.29,-345.45"/>
<polygon fill="black" stroke="black" stroke-width="1.5" points="1559.2,-343.16 1548.57,-350.91 1555.17,-344.26 1547.51,-345.87 1547.46,-345.63 1547.41,-345.38 1555.07,-343.78 1546.35,-340.34 1559.2,-343.16"/>
</a>
</g>
<text text-anchor="start" x="1184.3" y="-424.07" font-family="Courier New" font-size="8.00" fill="red">large scale heat pump</text>
</g>
<!-- district elec (bus)&#45;&gt;district heat (bus) -->
<g id="edge14" class="edge">
<title>district elec (bus)&#45;&gt;district heat (bus)</title>
<g id="a_edge14"><a xlink:title="Link: geothermal plant&#10;From: district elec (bus0)&#10;To: district heat (bus1)&#10;Carrier: geothermal&#10;Extendable nominal power: True&#10;Nominal power: 0.00 MW&#10;Efficiency: 25.00&#10;Capital cost: 4392173.07 currency/MW&#10;Marginal cost: [155.75, 155.75, 155.75, 155.75, 155.75, ...] currency/MWh&#10;&#10;Optimised nominal power: 0.00 MW&#10;Power time series (p0): N/A MW&#10;Power time series (p1): N/A MW">
<path fill="none" stroke="black" stroke-width="1.5" d="M1250.04,-496.26C1281.82,-473.92 1355.8,-421.92 1355.8,-421.92 1355.8,-421.92 1496.54,-372.39 1568.49,-347.07"/>
<polygon fill="black" stroke="black" stroke-width="1.5" points="1578.94,-343.39 1569.41,-352.47 1575.09,-345.01 1567.7,-347.61 1567.62,-347.38 1567.54,-347.14 1574.92,-344.54 1565.83,-342.28 1578.94,-343.39"/>
</a>
</g>
<text text-anchor="start" x="1355.8" y="-424.07" font-family="Courier New" font-size="8.00" fill="red">geothermal plant</text>
</g>
<!-- district elec (bus)&#45;&gt;district heat (bus) -->
<g id="edge15" class="edge">
<title>district elec (bus)&#45;&gt;district heat (bus)</title>
<g id="a_edge15"><a xlink:title="Link: elec boiler&#10;From: district elec (bus0)&#10;To: district heat (bus1)&#10;Carrier: electricity&#10;Extendable nominal power: True&#10;Nominal power: 0.00 MW&#10;Efficiency: 0.99&#10;Capital cost: 10579.57 currency/MW&#10;Marginal cost: [1.05, 1.05, 1.05, 1.05, 1.05, ...] currency/MWh&#10;&#10;Optimised nominal power: 0.00 MW&#10;Power time series (p0): N/A MW&#10;Power time series (p1): N/A MW">
<path fill="none" stroke="black" stroke-width="1.5" d="M1264.01,-496.05C1320.43,-475.62 1441.8,-431.67 1441.8,-431.67 1441.8,-431.67 1533.35,-377.64 1581.29,-349.36"/>
<polygon fill="black" stroke="black" stroke-width="1.5" points="1590.88,-343.7 1583.29,-354.45 1587.41,-346.03 1580.67,-350.01 1580.54,-349.8 1580.42,-349.58 1587.16,-345.6 1577.8,-345.15 1590.88,-343.7"/>
</a>
</g>
<text text-anchor="start" x="1456.17" y="-424.07" font-family="Courier New" font-size="8.00" fill="red">elec boiler</text>
</g>
<!-- elec market (bus) -->
<g id="node7" class="node">
<title>elec market (bus)</title>
<g id="a_node7"><a xlink:title="Bus: elec market&#10;Carrier: electricity&#10;Unit: &#10;Generators: 0&#10;Loads: 0&#10;Stores: 1&#10;Storage units: 0&#10;Incoming links: 1&#10;Outgoing links: 0&#10;Lines: 0&#10;&#10;Power time series: N/A ">
<polygon fill="none" stroke="none" stroke-width="7.3" points="237.6,-342.33 0,-342.33 0,-320.73 237.6,-320.73 237.6,-342.33"/>
<polyline fill="none" stroke="black" stroke-width="7.3" points="0,-320.73 237.6,-320.73"/>
<text text-anchor="start" x="94.05" y="-328.81" font-family="Courier New" font-size="8.00" fill="red">elec market</text>
</a>
</g>
</g>
<!-- district elec (bus)&#45;&gt;elec market (bus) -->
<g id="edge16" class="edge">
<title>district elec (bus)&#45;&gt;elec market (bus)</title>
<g id="a_edge16"><a xlink:title="Link: selling&#10;From: district elec (bus0)&#10;To: elec market (bus1)&#10;Carrier: electricity&#10;Extendable nominal power: True&#10;Nominal power: 0.00 MW&#10;Efficiency: 0.00&#10;Capital cost: 0.00 currency/MW&#10;Marginal cost: [&#45;49.73, &#45;49.73, &#45;49.73, &#45;49.73, &#45;49.73, ...] currency/MWh&#10;&#10;Optimised nominal power: 0.00 MW&#10;Power time series (p0): N/A MW&#10;Power time series (p1): N/A MW">
<path fill="none" stroke="black" stroke-width="1.5" d="M1153.78,-496.01C921.14,-466.9 273.8,-385.92 273.8,-385.92 273.8,-385.92 206.9,-362.88 161,-347.07"/>
<polygon fill="black" stroke="black" stroke-width="1.5" points="150.41,-343.42 163.52,-342.22 154.44,-344.54 161.84,-347.09 161.76,-347.33 161.68,-347.57 154.28,-345.02 160,-352.43 150.41,-343.42"/>
</a>
</g>
<text text-anchor="start" x="612.42" y="-424.07" font-family="Courier New" font-size="8.00" fill="red">selling</text>
</g>
<!-- battery storage (storage unit) -->
<g id="node19" class="node">
<title>battery storage (storage unit)</title>
<g id="a_node19"><a xlink:title="Storage unit: battery storage&#10;Bus: district elec&#10;Carrier: battery storage&#10;Extendable nominal power: True&#10;Nominal power: 0.00 &#10;Power set: 0.00 &#10;Charge cyclic state: True&#10;Capital cost: 42817.90 currency/&#10;Marginal cost: [11.91, 11.91, 11.91, 11.91, 11.91, ...] currency/h&#10;&#10;Optimised nominal power: 0.00 &#10;Power time series: N/A ">
<polygon fill="none" stroke="black" stroke-width="2" points="1153.16,-349.53 1041.23,-349.53 1012.44,-313.53 1124.37,-313.53 1153.16,-349.53"/>
<text text-anchor="start" x="1049.05" y="-328.81" font-family="Courier New" font-size="8.00" fill="red">battery storage</text>
</a>
</g>
</g>
<!-- district elec (bus)&#45;&gt;battery storage (storage unit) -->
<g id="edge12" class="edge">
<title>district elec (bus)&#45;&gt;battery storage (storage unit)</title>
<path fill="none" stroke="black" stroke-width="1.5" d="M1209.95,-489.05C1176.87,-467.02 1123.8,-431.67 1123.8,-431.67 1123.8,-431.67 1107.02,-391.1 1094.93,-361.87"/>
<polygon fill="black" stroke="black" stroke-width="1.5" points="1219.17,-495.19 1206.19,-493.03 1215.56,-493.09 1209.05,-488.75 1209.19,-488.54 1209.33,-488.33 1215.84,-492.67 1212.18,-484.05 1219.17,-495.19"/>
<polygon fill="black" stroke="black" stroke-width="1.5" points="1090.64,-351.49 1100.22,-360.52 1092.47,-355.25 1095.46,-362.48 1095.23,-362.58 1095,-362.67 1092,-355.44 1090.24,-364.64 1090.64,-351.49"/>
</g>
<!-- heat (bus) -->
<g id="node3" class="node">
<title>heat (bus)</title>
<g id="a_node3"><a xlink:title="Bus: heat&#10;Carrier: heat&#10;Unit: &#10;Generators: 2&#10;Loads: 1&#10;Stores: 0&#10;Storage units: 0&#10;Incoming links: 10&#10;Outgoing links: 0&#10;Lines: 0&#10;&#10;Power time series: N/A ">
<polygon fill="none" stroke="none" stroke-width="7.3" points="1266.6,-188.2 1029,-188.2 1029,-166.6 1266.6,-166.6 1266.6,-188.2"/>
<polyline fill="none" stroke="black" stroke-width="7.3" points="1029,-166.6 1266.6,-166.6"/>
<text text-anchor="start" x="1138.8" y="-174.67" font-family="Courier New" font-size="8.00" fill="red">heat</text>
</a>
</g>
</g>
<!-- district heat (bus)&#45;&gt;heat (bus) -->
<g id="edge19" class="edge">
<title>district heat (bus)&#45;&gt;heat (bus)</title>
<g id="a_edge19"><a xlink:title="Link: heating_grid_15MW&#10;From: district heat (bus0)&#10;To: heat (bus1)&#10;Carrier: heat&#10;Extendable nominal power: True&#10;Nominal power: 0.00 MW&#10;Efficiency: 1.00&#10;Capital cost: 17988.36 currency/MW&#10;Marginal cost: 0.00 currency/MWh&#10;&#10;Optimised nominal power: 0.00 MW&#10;Power time series (p0): N/A MW&#10;Power time series (p1): N/A MW">
<path fill="none" stroke="black" stroke-width="1.5" d="M1546.27,-320.24C1401.25,-296.73 1058.3,-241.15 1058.3,-241.15 1058.3,-241.15 1058.3,-231.4 1058.3,-231.4 1058.3,-231.4 1093.07,-210.81 1119.27,-195.3"/>
<polygon fill="black" stroke="black" stroke-width="1.5" points="1128.97,-189.55 1121.4,-200.31 1125.51,-191.89 1118.77,-195.88 1118.65,-195.66 1118.52,-195.45 1125.25,-191.46 1115.89,-191.02 1128.97,-189.55"/>
</a>
</g>
<text text-anchor="start" x="1058.3" y="-233.55" font-family="Courier New" font-size="8.00" fill="red">heating_grid_15MW</text>
</g>
<!-- district heat (bus)&#45;&gt;heat (bus) -->
<g id="edge20" class="edge">
<title>district heat (bus)&#45;&gt;heat (bus)</title>
<g id="a_edge20"><a xlink:title="Link: heating_grid_31MW&#10;From: district heat (bus0)&#10;To: heat (bus1)&#10;Carrier: heat&#10;Extendable nominal power: True&#10;Nominal power: 0.00 MW&#10;Efficiency: 1.00&#10;Capital cost: 14555.26 currency/MW&#10;Marginal cost: 0.00 currency/MWh&#10;&#10;Optimised nominal power: 0.00 MW&#10;Power time series (p0): N/A MW&#10;Power time series (p1): N/A MW">
<path fill="none" stroke="black" stroke-width="1.5" d="M1564.2,-320.28C1459.79,-296.8 1212.3,-241.15 1212.3,-241.15 1212.3,-241.15 1186.5,-216.05 1167.54,-197.6"/>
<polygon fill="black" stroke="black" stroke-width="1.5" points="1159.47,-189.76 1171.84,-194.25 1162.64,-192.49 1168.25,-197.94 1168.07,-198.12 1167.9,-198.3 1162.29,-192.84 1164.31,-201.99 1159.47,-189.76"/>
</a>
</g>
<text text-anchor="start" x="1212.3" y="-233.55" font-family="Courier New" font-size="8.00" fill="red">heating_grid_31MW</text>
</g>
<!-- district heat (bus)&#45;&gt;heat (bus) -->
<g id="edge21" class="edge">
<title>district heat (bus)&#45;&gt;heat (bus)</title>
<g id="a_edge21"><a xlink:title="Link: heating_grid_47MW&#10;From: district heat (bus0)&#10;To: heat (bus1)&#10;Carrier: heat&#10;Extendable nominal power: True&#10;Nominal power: 0.00 MW&#10;Efficiency: 1.00&#10;Capital cost: 17536.78 currency/MW&#10;Marginal cost: 0.00 currency/MWh&#10;&#10;Optimised nominal power: 0.00 MW&#10;Power time series (p0): N/A MW&#10;Power time series (p1): N/A MW">
<path fill="none" stroke="black" stroke-width="1.5" d="M1578.77,-320.32C1498.57,-293.9 1284.19,-223.31 1191.5,-192.79"/>
<polygon fill="black" stroke="black" stroke-width="1.5" points="1180.73,-189.25 1193.82,-187.87 1184.78,-190.31 1192.21,-192.76 1192.13,-193 1192.05,-193.24 1184.62,-190.79 1190.44,-198.13 1180.73,-189.25"/>
</a>
</g>
<text text-anchor="start" x="1337.42" y="-233.55" font-family="Courier New" font-size="8.00" fill="red">heating_grid_47MW</text>
</g>
<!-- district heat (bus)&#45;&gt;heat (bus) -->
<g id="edge22" class="edge">
<title>district heat (bus)&#45;&gt;heat (bus)</title>
<g id="a_edge22"><a xlink:title="Link: heating_grid_62MW&#10;From: district heat (bus0)&#10;To: heat (bus1)&#10;Carrier: heat&#10;Extendable nominal power: True&#10;Nominal power: 0.00 MW&#10;Efficiency: 1.00&#10;Capital cost: 19518.33 currency/MW&#10;Marginal cost: 0.00 currency/MWh&#10;&#10;Optimised nominal power: 0.00 MW&#10;Power time series (p0): N/A MW&#10;Power time series (p1): N/A MW">
<path fill="none" stroke="black" stroke-width="1.5" d="M1591.42,-320.3C1545.94,-294.97 1431.8,-231.4 1431.8,-231.4 1431.8,-231.4 1299.7,-206.75 1215.68,-191.07"/>
<polygon fill="black" stroke="black" stroke-width="1.5" points="1204.69,-189.02 1217.48,-185.91 1208.84,-189.54 1216.53,-190.97 1216.49,-191.22 1216.44,-191.46 1208.75,-190.03 1215.5,-196.53 1204.69,-189.02"/>
</a>
</g>
<text text-anchor="start" x="1447.03" y="-233.55" font-family="Courier New" font-size="8.00" fill="red">heating_grid_62MW</text>
</g>
<!-- district heat (bus)&#45;&gt;heat (bus) -->
<g id="edge23" class="edge">
<title>district heat (bus)&#45;&gt;heat (bus)</title>
<g id="a_edge23"><a xlink:title="Link: heating_grid_78MW&#10;From: district heat (bus0)&#10;To: heat (bus1)&#10;Carrier: heat&#10;Extendable nominal power: True&#10;Nominal power: 0.00 MW&#10;Efficiency: 1.00&#10;Capital cost: 20650.37 currency/MW&#10;Marginal cost: 0.00 currency/MWh&#10;&#10;Optimised nominal power: 0.00 MW&#10;Power time series (p0): N/A MW&#10;Power time series (p1): N/A MW">
<path fill="none" stroke="black" stroke-width="1.5" d="M1602.78,-320.3C1585.41,-294.97 1541.8,-231.4 1541.8,-231.4 1541.8,-231.4 1353.22,-206.03 1236.99,-190.4"/>
<polygon fill="black" stroke="black" stroke-width="1.5" points="1226.05,-188.93 1238.66,-185.17 1230.21,-189.23 1237.97,-190.28 1237.94,-190.53 1237.91,-190.77 1230.15,-189.73 1237.22,-195.88 1226.05,-188.93"/>
</a>
</g>
<text text-anchor="start" x="1547.62" y="-233.55" font-family="Courier New" font-size="8.00" fill="red">heating_grid_78MW</text>
</g>
<!-- district heat (bus)&#45;&gt;heat (bus) -->
<g id="edge24" class="edge">
<title>district heat (bus)&#45;&gt;heat (bus)</title>
<g id="a_edge24"><a xlink:title="Link: heating_grid_94MW&#10;From: district heat (bus0)&#10;To: heat (bus1)&#10;Carrier: heat&#10;Extendable nominal power: True&#10;Nominal power: 0.00 MW&#10;Efficiency: 1.00&#10;Capital cost: 21986.08 currency/MW&#10;Marginal cost: 0.00 currency/MWh&#10;&#10;Optimised nominal power: 0.00 MW&#10;Power time series (p0): N/A MW&#10;Power time series (p1): N/A MW">
<path fill="none" stroke="black" stroke-width="1.5" d="M1613.47,-320.28C1621.88,-296.8 1641.8,-241.15 1641.8,-241.15 1641.8,-241.15 1641.8,-231.4 1641.8,-231.4 1641.8,-231.4 1401.99,-205.67 1256.54,-190.07"/>
<polygon fill="black" stroke="black" stroke-width="1.5" points="1245.45,-188.88 1257.96,-184.79 1249.63,-189.07 1257.41,-189.91 1257.38,-190.16 1257.36,-190.41 1249.57,-189.57 1256.81,-195.53 1245.45,-188.88"/>
</a>
</g>
<text text-anchor="start" x="1641.8" y="-233.55" font-family="Courier New" font-size="8.00" fill="red">heating_grid_94MW</text>
</g>
<!-- district heat (bus)&#45;&gt;heat (bus) -->
<g id="edge25" class="edge">
<title>district heat (bus)&#45;&gt;heat (bus)</title>
<g id="a_edge25"><a xlink:title="Link: heating_grid_110MW&#10;From: district heat (bus0)&#10;To: heat (bus1)&#10;Carrier: heat&#10;Extendable nominal power: True&#10;Nominal power: 0.00 MW&#10;Efficiency: 1.00&#10;Capital cost: 25404.99 currency/MW&#10;Marginal cost: 0.00 currency/MWh&#10;&#10;Optimised nominal power: 0.00 MW&#10;Power time series (p0): N/A MW&#10;Power time series (p1): N/A MW">
<path fill="none" stroke="black" stroke-width="1.5" d="M1624.37,-320.28C1657.73,-296.8 1736.8,-241.15 1736.8,-241.15 1736.8,-241.15 1736.8,-231.4 1736.8,-231.4 1736.8,-231.4 1448.27,-205.44 1275.1,-189.85"/>
<polygon fill="black" stroke="black" stroke-width="1.5" points="1263.88,-188.85 1276.32,-184.54 1268.06,-188.97 1275.86,-189.67 1275.84,-189.92 1275.81,-190.17 1268.02,-189.47 1275.35,-195.3 1263.88,-188.85"/>
</a>
</g>
<text text-anchor="start" x="1736.8" y="-233.55" font-family="Courier New" font-size="8.00" fill="red">heating_grid_110MW</text>
</g>
<!-- district heat (bus)&#45;&gt;heat (bus) -->
<g id="edge26" class="edge">
<title>district heat (bus)&#45;&gt;heat (bus)</title>
<g id="a_edge26"><a xlink:title="Link: heating_grid_126MW&#10;From: district heat (bus0)&#10;To: heat (bus1)&#10;Carrier: heat&#10;Extendable nominal power: True&#10;Nominal power: 0.00 MW&#10;Efficiency: 1.00&#10;Capital cost: 31344.11 currency/MW&#10;Marginal cost: 0.00 currency/MWh&#10;&#10;Optimised nominal power: 0.00 MW&#10;Power time series (p0): N/A MW&#10;Power time series (p1): N/A MW">
<path fill="none" stroke="black" stroke-width="1.5" d="M1528.63,-320.24C1406.29,-304.73 1188.8,-277.15 1188.8,-277.15 1188.8,-277.15 583.8,-241.15 583.8,-241.15 583.8,-241.15 583.8,-231.4 583.8,-231.4 583.8,-231.4 859.8,-205.46 1025.66,-189.88"/>
<polygon fill="black" stroke="black" stroke-width="1.5" points="1036.57,-188.85 1025.12,-195.35 1032.44,-189.49 1024.64,-190.22 1024.62,-189.98 1024.6,-189.73 1032.39,-188.99 1024.11,-184.6 1036.57,-188.85"/>
</a>
</g>
<text text-anchor="start" x="583.8" y="-233.55" font-family="Courier New" font-size="8.00" fill="red">heating_grid_126MW</text>
</g>
<!-- district heat (bus)&#45;&gt;heat (bus) -->
<g id="edge27" class="edge">
<title>district heat (bus)&#45;&gt;heat (bus)</title>
<g id="a_edge27"><a xlink:title="Link: heating_grid_142MW&#10;From: district heat (bus0)&#10;To: heat (bus1)&#10;Carrier: heat&#10;Extendable nominal power: True&#10;Nominal power: 0.00 MW&#10;Efficiency: 1.00&#10;Capital cost: 43539.16 currency/MW&#10;Marginal cost: 0.00 currency/MWh&#10;&#10;Optimised nominal power: 0.00 MW&#10;Power time series (p0): N/A MW&#10;Power time series (p1): N/A MW">
<path fill="none" stroke="black" stroke-width="1.5" d="M1528.63,-320.24C1406.29,-304.73 1188.8,-277.15 1188.8,-277.15 1188.8,-277.15 741.8,-241.15 741.8,-241.15 741.8,-241.15 741.8,-231.4 741.8,-231.4 741.8,-231.4 936.52,-205.98 1056.26,-190.35"/>
<polygon fill="black" stroke="black" stroke-width="1.5" points="1067.23,-188.92 1056.03,-195.83 1063.12,-189.71 1055.36,-190.72 1055.33,-190.47 1055.29,-190.22 1063.06,-189.21 1054.63,-185.12 1067.23,-188.92"/>
</a>
</g>
<text text-anchor="start" x="741.8" y="-233.55" font-family="Courier New" font-size="8.00" fill="red">heating_grid_142MW</text>
</g>
<!-- district heat (bus)&#45;&gt;heat (bus) -->
<g id="edge28" class="edge">
<title>district heat (bus)&#45;&gt;heat (bus)</title>
<g id="a_edge28"><a xlink:title="Link: heating_grid_159MW&#10;From: district heat (bus0)&#10;To: heat (bus1)&#10;Carrier: heat&#10;Extendable nominal power: True&#10;Nominal power: 0.00 MW&#10;Efficiency: 1.00&#10;Capital cost: 70009.48 currency/MW&#10;Marginal cost: 0.00 currency/MWh&#10;&#10;Optimised nominal power: 0.00 MW&#10;Power time series (p0): N/A MW&#10;Power time series (p1): N/A MW">
<path fill="none" stroke="black" stroke-width="1.5" d="M1534.8,-320.24C1363.62,-296.73 958.8,-241.15 958.8,-241.15 958.8,-241.15 958.8,-231.4 958.8,-231.4 958.8,-231.4 1042.84,-207.83 1098.84,-192.13"/>
<polygon fill="black" stroke="black" stroke-width="1.5" points="1109.6,-189.11 1099.5,-197.55 1105.65,-190.48 1098.11,-192.59 1098.04,-192.35 1097.98,-192.11 1105.51,-190 1096.59,-187.15 1109.6,-189.11"/>
</a>
</g>
<text text-anchor="start" x="958.8" y="-233.55" font-family="Courier New" font-size="8.00" fill="red">heating_grid_159MW</text>
</g>
<!-- TTES (bus) -->
<g id="node5" class="node">
<title>TTES (bus)</title>
<g id="a_node5"><a xlink:title="Bus: TTES&#10;Carrier: TTES&#10;Unit: &#10;Generators: 0&#10;Loads: 0&#10;Stores: 1&#10;Storage units: 0&#10;Incoming links: 1&#10;Outgoing links: 1&#10;Lines: 0&#10;&#10;Power time series: N/A ">
<polygon fill="none" stroke="none" stroke-width="7.3" points="2271.6,-188.2 2034,-188.2 2034,-166.6 2271.6,-166.6 2271.6,-188.2"/>
<polyline fill="none" stroke="black" stroke-width="7.3" points="2034,-166.6 2271.6,-166.6"/>
<text text-anchor="start" x="2143.8" y="-174.67" font-family="Courier New" font-size="8.00" fill="red">TTES</text>
</a>
</g>
</g>
<!-- district heat (bus)&#45;&gt;TTES (bus) -->
<g id="edge17" class="edge">
<title>district heat (bus)&#45;&gt;TTES (bus)</title>
<g id="a_edge17"><a xlink:title="Link: TTES charge&#10;From: district heat (bus0)&#10;To: TTES (bus1)&#10;Carrier: TTES&#10;Extendable nominal power: True&#10;Nominal power: 0.00 MW&#10;Efficiency: 1.00&#10;Capital cost: 1324.47 currency/MW&#10;Marginal cost: [20.00, 20.00, 20.00, 20.00, 20.00, ...] currency/MWh&#10;&#10;Optimised nominal power: 0.00 MW&#10;Power time series (p0): N/A MW&#10;Power time series (p1): N/A MW">
<path fill="none" stroke="black" stroke-width="1.5" d="M1646.27,-320.32C1741.12,-293.74 1995.59,-222.44 2103.43,-192.23"/>
<polygon fill="black" stroke="black" stroke-width="1.5" points="2114.37,-189.17 2104.27,-197.6 2110.42,-190.53 2102.88,-192.64 2102.82,-192.4 2102.75,-192.16 2110.29,-190.05 2101.36,-187.2 2114.37,-189.17"/>
</a>
</g>
<text text-anchor="start" x="1961.66" y="-233.55" font-family="Courier New" font-size="8.00" fill="red">TTES charge</text>
</g>
<!-- PTES (bus) -->
<g id="node6" class="node">
<title>PTES (bus)</title>
<g id="a_node6"><a xlink:title="Bus: PTES&#10;Carrier: PTES&#10;Unit: &#10;Generators: 0&#10;Loads: 0&#10;Stores: 1&#10;Storage units: 0&#10;Incoming links: 1&#10;Outgoing links: 1&#10;Lines: 0&#10;&#10;Power time series: N/A ">
<polygon fill="none" stroke="none" stroke-width="7.3" points="2581.6,-188.2 2344,-188.2 2344,-166.6 2581.6,-166.6 2581.6,-188.2"/>
<polyline fill="none" stroke="black" stroke-width="7.3" points="2344,-166.6 2581.6,-166.6"/>
<text text-anchor="start" x="2453.8" y="-174.67" font-family="Courier New" font-size="8.00" fill="red">PTES</text>
</a>
</g>
</g>
<!-- district heat (bus)&#45;&gt;PTES (bus) -->
<g id="edge18" class="edge">
<title>district heat (bus)&#45;&gt;PTES (bus)</title>
<g id="a_edge18"><a xlink:title="Link: PTES charge&#10;From: district heat (bus0)&#10;To: PTES (bus1)&#10;Carrier: PTES&#10;Extendable nominal power: True&#10;Nominal power: 0.00 MW&#10;Efficiency: 1.00&#10;Capital cost: 1324.47 currency/MW&#10;Marginal cost: [20.00, 20.00, 20.00, 20.00, 20.00, ...] currency/MWh&#10;&#10;Optimised nominal power: 0.00 MW&#10;Power time series (p0): N/A MW&#10;Power time series (p1): N/A MW">
<path fill="none" stroke="black" stroke-width="1.5" d="M1669.47,-320.24C1805.68,-296.73 2127.8,-241.15 2127.8,-241.15 2127.8,-241.15 2297.26,-209.41 2395.13,-191.08"/>
<polygon fill="black" stroke="black" stroke-width="1.5" points="2406.06,-189.03 2395.26,-196.55 2402.01,-190.04 2394.31,-191.48 2394.27,-191.24 2394.22,-190.99 2401.91,-189.55 2393.27,-185.93 2406.06,-189.03"/>
</a>
</g>
<text text-anchor="start" x="2176.43" y="-233.55" font-family="Courier New" font-size="8.00" fill="red">PTES charge</text>
</g>
<!-- curtailment (store) -->
<g id="node15" class="node">
<title>curtailment (store)</title>
<g id="a_node15"><a xlink:title="Store: curtailment&#10;Bus: district heat&#10;Carrier: heat&#10;Extendable nominal energy: True&#10;Nominal energy: 0.00 h&#10;Power set: 0.00 &#10;Cyclic energy: False&#10;Capital cost: 0.00 currency/&#10;Marginal cost: [0.00, 0.00, 0.00, 0.00, 0.00, ...] currency/h&#10;&#10;Optimised nominal energy: 0.00 h&#10;Energy time series: N/A h&#10;Power time series: N/A ">
<polygon fill="none" stroke="black" stroke-width="2" points="2754.2,-195.4 2653.4,-195.4 2653.4,-159.4 2754.2,-159.4 2754.2,-195.4"/>
<text text-anchor="start" x="2679.05" y="-174.67" font-family="Courier New" font-size="8.00" fill="red">curtailment</text>
</a>
</g>
</g>
<!-- district heat (bus)&#45;&gt;curtailment (store) -->
<g id="edge8" class="edge">
<title>district heat (bus)&#45;&gt;curtailment (store)</title>
<path fill="none" stroke="black" stroke-width="1.5" d="M1708.88,-318.68C1912.02,-294.37 2356.8,-241.15 2356.8,-241.15 2356.8,-241.15 2617.8,-195.4 2617.8,-195.4 2617.8,-195.4 2627.62,-193.46 2640.63,-190.89"/>
<polygon fill="black" stroke="black" stroke-width="1.5" points="1697.67,-320.02 1708.94,-313.23 1701.78,-319.28 1709.55,-318.35 1709.58,-318.59 1709.61,-318.84 1701.84,-319.77 1710.23,-323.96 1697.67,-320.02"/>
<polygon fill="black" stroke="black" stroke-width="1.5" points="2651.48,-188.74 2640.76,-196.37 2647.44,-189.8 2639.76,-191.31 2639.71,-191.07 2639.66,-190.82 2647.34,-189.31 2638.66,-185.77 2651.48,-188.74"/>
</g>
<!-- heat demand (load) -->
<g id="node14" class="node">
<title>heat demand (load)</title>
<g id="a_node14"><a xlink:title="Load: heat demand&#10;Bus: heat&#10;Carrier: heat&#10;Power set: [22.88, 23.26, 25.73, 29.77, 35.83, ...] ">
<polygon fill="none" stroke="black" stroke-width="2" points="1147.8,0 1214.73,-64.8 1080.87,-64.8 1147.8,0"/>
<text text-anchor="start" x="1123.05" y="-40.47" font-family="Courier New" font-size="8.00" fill="red">heat demand</text>
</a>
</g>
</g>
<!-- heat (bus)&#45;&gt;heat demand (load) -->
<g id="edge7" class="edge">
<title>heat (bus)&#45;&gt;heat demand (load)</title>
<path fill="none" stroke="black" stroke-width="1.5" d="M1147.8,-166.46C1147.8,-144.97 1147.8,-93.76 1147.8,-64.89"/>
</g>
<!-- district biomethane (bus) -->
<g id="node4" class="node">
<title>district biomethane (bus)</title>
<g id="a_node4"><a xlink:title="Bus: district biomethane&#10;Carrier: biomethane&#10;Unit: &#10;Generators: 1&#10;Loads: 0&#10;Stores: 0&#10;Storage units: 0&#10;Incoming links: 0&#10;Outgoing links: 3&#10;Lines: 0&#10;&#10;Power time series: N/A ">
<polygon fill="none" stroke="none" stroke-width="7.3" points="1893.6,-822.26 1656,-822.26 1656,-800.66 1893.6,-800.66 1893.6,-822.26"/>
<polyline fill="none" stroke="black" stroke-width="7.3" points="1656,-800.66 1893.6,-800.66"/>
<text text-anchor="start" x="1732.05" y="-808.74" font-family="Courier New" font-size="8.00" fill="red">district biomethane</text>
</a>
</g>
</g>
<!-- district biomethane (bus)&#45;&gt;district heat (bus) -->
<g id="edge29" class="edge">
<title>district biomethane (bus)&#45;&gt;district heat (bus)</title>
<g id="a_edge29"><a xlink:title="Link: biomethane boiler&#10;From: district biomethane (bus0)&#10;To: district heat (bus1)&#10;Carrier: biomethane boiler&#10;Extendable nominal power: True&#10;Nominal power: 0.00 MW&#10;Efficiency: 1.06&#10;Capital cost: 5534.27 currency/MW&#10;Marginal cost: [1.12, 1.12, 1.12, 1.12, 1.12, ...] currency/MWh&#10;&#10;Optimised nominal power: 0.00 MW&#10;Power time series (p0): N/A MW&#10;Power time series (p1): N/A MW">
<path fill="none" stroke="black" stroke-width="1.5" d="M1784.79,-800.3C1798.04,-786.81 1819.8,-764.66 1819.8,-764.66 1819.8,-764.66 1819.8,-754.91 1819.8,-754.91 1819.8,-754.91 1739.8,-467.67 1739.8,-467.67 1739.8,-467.67 1664.61,-389.51 1628.59,-352.07"/>
<polygon fill="black" stroke="black" stroke-width="1.5" points="1620.84,-344.01 1633.05,-348.91 1623.91,-346.84 1629.34,-352.48 1629.16,-352.66 1628.98,-352.83 1623.55,-347.19 1625.27,-356.4 1620.84,-344.01"/>
</a>
</g>
<text text-anchor="start" x="1774.28" y="-585.02" font-family="Courier New" font-size="8.00" fill="red">biomethane boiler</text>
</g>
<!-- biomethane CHP (multi&#45;link) -->
<g id="node20" class="node">
<title>biomethane CHP (multi&#45;link)</title>
<g id="a_node20"><a xlink:title="Multi&#45;link: biomethane CHP&#10;From: district biomethane (bus0)&#10;To: district elec (bus1)&#10;To: district heat (bus2)&#10;Carrier: biomethane CHP&#10;Extendable nominal energy: True&#10;Nominal power: 0.00 MW&#10;Capital cost: 30594.97 currency/MW&#10;Marginal cost: [3.20, 3.20, 3.20, 3.20, 3.20, ...] currency/MWh&#10;&#10;Optimised nominal power: 0.00 MW&#10;Power time series (p0): N/A MW">
<ellipse fill="black" stroke="black" cx="1688.8" cy="-673.77" rx="2.16" ry="2.16"/>
</a>
</g>
</g>
<!-- district biomethane (bus)&#45;&gt;biomethane CHP (multi&#45;link) -->
<g id="edge32" class="edge">
<title>district biomethane (bus)&#45;&gt;biomethane CHP (multi&#45;link)</title>
<g id="a_edge32"><a xlink:title="Multi&#45;link: biomethane CHP&#10;From: district biomethane (bus0)&#10;To: district elec (bus1)&#10;To: district heat (bus2)&#10;Carrier: biomethane CHP&#10;Extendable nominal power: True&#10;Nominal power: 0.00 MW&#10;Capital cost: 30594.97 currency/MW&#10;Marginal cost: [3.20, 3.20, 3.20, 3.20, 3.20, ...] currency/MWh&#10;&#10;Optimised nominal power: 0.00 MW&#10;Power time series (p0): N/A MW">
<path fill="none" stroke="black" stroke-width="1.5" d="M1767.7,-800.3C1758.27,-786.81 1742.8,-764.66 1742.8,-764.66 1742.8,-764.66 1696.13,-686.96 1689.56,-676.04"/>
</a>
</g>
<text text-anchor="start" x="1742.8" y="-757.06" font-family="Courier New" font-size="8.00" fill="red">biomethane CHP</text>
</g>
<!-- TTES (bus)&#45;&gt;district heat (bus) -->
<g id="edge30" class="edge">
<title>TTES (bus)&#45;&gt;district heat (bus)</title>
<g id="a_edge30"><a xlink:title="Link: TTES discharge&#10;From: TTES (bus0)&#10;To: district heat (bus1)&#10;Carrier: TTES&#10;Extendable nominal power: True&#10;Nominal power: 0.00 MW&#10;Efficiency: 1.00&#10;Capital cost: 1324.47 currency/MW&#10;Marginal cost: [20.00, 20.00, 20.00, 20.00, 20.00, ...] currency/MWh&#10;&#10;Optimised nominal power: 0.00 MW&#10;Power time series (p0): N/A MW&#10;Power time series (p1): N/A MW">
<path fill="none" stroke="black" stroke-width="1.5" d="M2132.6,-188.62C2097.46,-206.4 2028.8,-241.15 2028.8,-241.15 2028.8,-241.15 1786.93,-292.75 1670.72,-317.54"/>
<polygon fill="black" stroke="black" stroke-width="1.5" points="1659.65,-319.9 1670.26,-312.11 1663.68,-318.78 1671.34,-317.15 1671.39,-317.4 1671.44,-317.64 1663.78,-319.27 1672.51,-322.68 1659.65,-319.9"/>
</a>
</g>
<text text-anchor="start" x="2046.8" y="-233.55" font-family="Courier New" font-size="8.00" fill="red">TTES discharge</text>
</g>
<!-- TTES (store) -->
<g id="node16" class="node">
<title>TTES (store)</title>
<g id="a_node16"><a xlink:title="Store: TTES&#10;Bus: TTES&#10;Carrier: TTES&#10;Extendable nominal energy: True&#10;Nominal energy: 0.00 h&#10;Power set: 0.00 &#10;Cyclic energy: True&#10;Capital cost: 233.43 currency/&#10;Marginal cost: [0.00, 0.00, 0.00, 0.00, 0.00, ...] currency/h&#10;&#10;Optimised nominal energy: 0.00 h&#10;Energy time series: N/A h&#10;Power time series: N/A ">
<polygon fill="none" stroke="black" stroke-width="2" points="2203.2,-61.2 2102.4,-61.2 2102.4,-25.2 2203.2,-25.2 2203.2,-61.2"/>
<text text-anchor="start" x="2143.8" y="-40.47" font-family="Courier New" font-size="8.00" fill="red">TTES</text>
</a>
</g>
</g>
<!-- TTES (bus)&#45;&gt;TTES (store) -->
<g id="edge9" class="edge">
<title>TTES (bus)&#45;&gt;TTES (store)</title>
<path fill="none" stroke="black" stroke-width="1.5" d="M2152.8,-153.5C2152.8,-131.66 2152.8,-98.61 2152.8,-74.57"/>
<polygon fill="black" stroke="black" stroke-width="1.5" points="2152.8,-164.64 2147.4,-152.64 2152.55,-160.46 2152.55,-152.64 2152.8,-152.64 2153.05,-152.64 2153.05,-160.46 2158.2,-152.64 2152.8,-164.64"/>
<polygon fill="black" stroke="black" stroke-width="1.5" points="2152.8,-63.44 2158.2,-75.44 2153.05,-67.61 2153.05,-75.44 2152.8,-75.44 2152.55,-75.44 2152.55,-67.61 2147.4,-75.44 2152.8,-63.44"/>
</g>
<!-- PTES (bus)&#45;&gt;district heat (bus) -->
<g id="edge31" class="edge">
<title>PTES (bus)&#45;&gt;district heat (bus)</title>
<g id="a_edge31"><a xlink:title="Link: PTES discharge&#10;From: PTES (bus0)&#10;To: district heat (bus1)&#10;Carrier: PTES&#10;Extendable nominal power: True&#10;Nominal power: 0.00 MW&#10;Efficiency: 1.00&#10;Capital cost: 1324.47 currency/MW&#10;Marginal cost: [20.00, 20.00, 20.00, 20.00, 20.00, ...] currency/MWh&#10;&#10;Optimised nominal power: 0.00 MW&#10;Power time series (p0): N/A MW&#10;Power time series (p1): N/A MW">
<path fill="none" stroke="black" stroke-width="1.5" d="M2427.13,-188.62C2365.07,-206.4 2243.8,-241.15 2243.8,-241.15 2243.8,-241.15 1868.94,-294 1695.71,-318.42"/>
<polygon fill="black" stroke="black" stroke-width="1.5" points="1684.65,-319.98 1695.78,-312.96 1688.74,-319.15 1696.49,-318.06 1696.53,-318.31 1696.56,-318.55 1688.81,-319.65 1697.28,-323.65 1684.65,-319.98"/>
</a>
</g>
<text text-anchor="start" x="2275.59" y="-233.55" font-family="Courier New" font-size="8.00" fill="red">PTES discharge</text>
</g>
<!-- PTES (store) -->
<g id="node17" class="node">
<title>PTES (store)</title>
<g id="a_node17"><a xlink:title="Store: PTES&#10;Bus: PTES&#10;Carrier: PTES&#10;Extendable nominal energy: True&#10;Nominal energy: 0.00 h&#10;Power set: 0.00 &#10;Cyclic energy: True&#10;Capital cost: 118.71 currency/&#10;Marginal cost: [0.00, 0.00, 0.00, 0.00, 0.00, ...] currency/h&#10;&#10;Optimised nominal energy: 0.00 h&#10;Energy time series: N/A h&#10;Power time series: N/A ">
<polygon fill="none" stroke="black" stroke-width="2" points="2513.2,-61.2 2412.4,-61.2 2412.4,-25.2 2513.2,-25.2 2513.2,-61.2"/>
<text text-anchor="start" x="2453.8" y="-40.47" font-family="Courier New" font-size="8.00" fill="red">PTES</text>
</a>
</g>
</g>
<!-- PTES (bus)&#45;&gt;PTES (store) -->
<g id="edge10" class="edge">
<title>PTES (bus)&#45;&gt;PTES (store)</title>
<path fill="none" stroke="black" stroke-width="1.5" d="M2462.8,-153.5C2462.8,-131.66 2462.8,-98.61 2462.8,-74.57"/>
<polygon fill="black" stroke="black" stroke-width="1.5" points="2462.8,-164.64 2457.4,-152.64 2462.55,-160.46 2462.55,-152.64 2462.8,-152.64 2463.05,-152.64 2463.05,-160.46 2468.2,-152.64 2462.8,-164.64"/>
<polygon fill="black" stroke="black" stroke-width="1.5" points="2462.8,-63.44 2468.2,-75.44 2463.05,-67.61 2463.05,-75.44 2462.8,-75.44 2462.55,-75.44 2462.55,-67.61 2457.4,-75.44 2462.8,-63.44"/>
</g>
<!-- elec market (store) -->
<g id="node18" class="node">
<title>elec market (store)</title>
<g id="a_node18"><a xlink:title="Store: elec market&#10;Bus: elec market&#10;Carrier: electricity&#10;Extendable nominal energy: True&#10;Nominal energy: 0.00 h&#10;Power set: 0.00 &#10;Cyclic energy: False&#10;Capital cost: 0.00 currency/&#10;Marginal cost: [0.00, 0.00, 0.00, 0.00, 0.00, ...] currency/h&#10;&#10;Optimised nominal energy: 0.00 h&#10;Energy time series: N/A h&#10;Power time series: N/A ">
<polygon fill="none" stroke="black" stroke-width="2" points="169.2,-195.4 68.4,-195.4 68.4,-159.4 169.2,-159.4 169.2,-195.4"/>
<text text-anchor="start" x="94.05" y="-174.67" font-family="Courier New" font-size="8.00" fill="red">elec market</text>
</a>
</g>
</g>
<!-- elec market (bus)&#45;&gt;elec market (store) -->
<g id="edge11" class="edge">
<title>elec market (bus)&#45;&gt;elec market (store)</title>
<path fill="none" stroke="black" stroke-width="1.5" d="M118.8,-307.57C118.8,-281.25 118.8,-238 118.8,-208.88"/>
<polygon fill="black" stroke="black" stroke-width="1.5" points="118.8,-318.72 113.4,-306.72 118.55,-314.55 118.55,-306.72 118.8,-306.72 119.05,-306.72 119.05,-314.55 124.2,-306.72 118.8,-318.72"/>
<polygon fill="black" stroke="black" stroke-width="1.5" points="118.8,-197.68 124.2,-209.68 119.05,-201.85 119.05,-209.68 118.8,-209.68 118.55,-209.68 118.55,-201.85 113.4,-209.68 118.8,-197.68"/>
</g>
<!-- pv panels (generator) -->
<g id="node8" class="node">
<title>pv panels (generator)</title>
<g id="a_node8"><a xlink:title="Generator: pv panels&#10;Bus: district elec&#10;Carrier: pv&#10;Extendable nominal power: True&#10;Nominal power: 0.00 &#10;Power set: 0.00 &#10;Efficiency: 1.00&#10;Capital cost: 28698.93 currency/&#10;Marginal cost: [0.00, 0.00, 0.00, 0.00, 0.00, ...] currency/h&#10;&#10;Optimised nominal power: 0.00 &#10;Power time series: N/A ">
<ellipse fill="none" stroke="black" stroke-width="2" cx="1157.8" cy="-673.77" rx="39.6" ry="39.6"/>
<text text-anchor="start" x="1137.55" y="-671.04" font-family="Courier New" font-size="8.00" fill="red">pv panels</text>
</a>
</g>
</g>
<!-- pv panels (generator)&#45;&gt;district elec (bus) -->
<g id="edge1" class="edge">
<title>pv panels (generator)&#45;&gt;district elec (bus)</title>
<path fill="none" stroke="black" stroke-width="1.5" d="M1174.53,-637.48C1192.53,-599.53 1220.03,-541.52 1231.02,-518.34"/>
</g>
<!-- electricity grid (generator) -->
<g id="node9" class="node">
<title>electricity grid (generator)</title>
<g id="a_node9"><a xlink:title="Generator: electricity grid&#10;Bus: district elec&#10;Carrier: grid electricity&#10;Extendable nominal power: True&#10;Nominal power: 0.00 &#10;Power set: 0.00 &#10;Efficiency: 1.00&#10;Capital cost: 22140.00 currency/&#10;Marginal cost: [174.10, 174.10, 174.10, 173.33, 173.33, ...] currency/h&#10;&#10;Optimised nominal power: 0.00 &#10;Power time series: N/A ">
<ellipse fill="none" stroke="black" stroke-width="2" cx="1314.8" cy="-673.77" rx="45.15" ry="45.15"/>
<text text-anchor="start" x="1278.8" y="-671.04" font-family="Courier New" font-size="8.00" fill="red">electricity grid</text>
</a>
</g>
</g>
<!-- electricity grid (generator)&#45;&gt;district elec (bus) -->
<g id="edge2" class="edge">
<title>electricity grid (generator)&#45;&gt;district elec (bus)</title>
<path fill="none" stroke="black" stroke-width="1.5" d="M1295.47,-632.52C1277.29,-594.67 1251.32,-540.58 1240.65,-518.37"/>
</g>
<!-- st panels (generator) -->
<g id="node10" class="node">
<title>st panels (generator)</title>
<g id="a_node10"><a xlink:title="Generator: st panels&#10;Bus: district heat&#10;Carrier: st&#10;Extendable nominal power: True&#10;Nominal power: 0.00 &#10;Power set: 0.00 &#10;Efficiency: 1.00&#10;Capital cost: 14202.09 currency/&#10;Marginal cost: [0.24, 0.24, 0.24, 0.24, 0.24, ...] currency/h&#10;&#10;Optimised nominal power: 0.00 &#10;Power time series: N/A ">
<ellipse fill="none" stroke="black" stroke-width="2" cx="1504.8" cy="-507.27" rx="39.6" ry="39.6"/>
<text text-anchor="start" x="1484.55" y="-504.54" font-family="Courier New" font-size="8.00" fill="red">st panels</text>
</a>
</g>
</g>
<!-- st panels (generator)&#45;&gt;district heat (bus) -->
<g id="edge3" class="edge">
<title>st panels (generator)&#45;&gt;district heat (bus)</title>
<path fill="none" stroke="black" stroke-width="1.5" d="M1530.09,-476.78C1547.98,-455.93 1568.8,-431.67 1568.8,-431.67 1568.8,-431.67 1595.09,-368.1 1605.57,-342.77"/>
</g>
<!-- dec air heat pump (generator) -->
<g id="node11" class="node">
<title>dec air heat pump (generator)</title>
<g id="a_node11"><a xlink:title="Generator: dec air heat pump&#10;Bus: heat&#10;Carrier: dec air heat pump&#10;Extendable nominal power: True&#10;Nominal power: 0.00 &#10;Power set: 0.00 &#10;Efficiency: nan&#10;Capital cost: 84322.75 currency/&#10;Marginal cost: [69.03, 69.03, 69.03, 69.03, 69.03, ...] currency/h&#10;&#10;Optimised nominal power: 0.00 &#10;Power time series: N/A ">
<ellipse fill="none" stroke="black" stroke-width="2" cx="356.8" cy="-331.53" rx="47.46" ry="47.46"/>
<text text-anchor="start" x="318.55" y="-328.81" font-family="Courier New" font-size="8.00" fill="red">dec air heat pump</text>
</a>
</g>
</g>
<!-- dec air heat pump (generator)&#45;&gt;heat (bus) -->
<g id="edge4" class="edge">
<title>dec air heat pump (generator)&#45;&gt;heat (bus)</title>
<path fill="none" stroke="black" stroke-width="1.5" d="M396.34,-305.4C418.13,-291.56 440.8,-277.15 440.8,-277.15 440.8,-277.15 544.8,-231.4 544.8,-231.4 544.8,-231.4 855.46,-204.09 1030.82,-188.68"/>
</g>
<!-- dec ground heat pump (generator) -->
<g id="node12" class="node">
<title>dec ground heat pump (generator)</title>
<g id="a_node12"><a xlink:title="Generator: dec ground heat pump&#10;Bus: heat&#10;Carrier: dec ground heat pump&#10;Extendable nominal power: True&#10;Nominal power: 0.00 &#10;Power set: 0.00 &#10;Efficiency: nan&#10;Capital cost: 77534.60 currency/&#10;Marginal cost: [64.38, 64.38, 64.38, 64.38, 64.38, ...] currency/h&#10;&#10;Optimised nominal power: 0.00 &#10;Power time series: N/A ">
<ellipse fill="none" stroke="black" stroke-width="2" cx="530.8" cy="-331.53" rx="54.38" ry="54.38"/>
<text text-anchor="start" x="485.8" y="-328.81" font-family="Courier New" font-size="8.00" fill="red">dec ground heat pump</text>
</a>
</g>
</g>
<!-- dec ground heat pump (generator)&#45;&gt;heat (bus) -->
<g id="edge5" class="edge">
<title>dec ground heat pump (generator)&#45;&gt;heat (bus)</title>
<path fill="none" stroke="black" stroke-width="1.5" d="M548.71,-279.81C557.32,-255.41 565.8,-231.4 565.8,-231.4 565.8,-231.4 865.65,-204.09 1034.89,-188.68"/>
</g>
<!-- biomethane (generator) -->
<g id="node13" class="node">
<title>biomethane (generator)</title>
<g id="a_node13"><a xlink:title="Generator: biomethane&#10;Bus: district biomethane&#10;Carrier: biomethane&#10;Extendable nominal power: True&#10;Nominal power: 0.00 &#10;Power set: 0.00 &#10;Efficiency: 1.00&#10;Capital cost: 0.00 currency/&#10;Marginal cost: [120.00, 120.00, 120.00, 120.00, 120.00, ...] currency/h&#10;&#10;Optimised nominal power: 0.00 &#10;Power time series: N/A ">
<ellipse fill="none" stroke="black" stroke-width="2" cx="1774.8" cy="-934.86" rx="39.6" ry="39.6"/>
<text text-anchor="start" x="1752.3" y="-932.14" font-family="Courier New" font-size="8.00" fill="red">biomethane</text>
</a>
</g>
</g>
<!-- biomethane (generator)&#45;&gt;district biomethane (bus) -->
<g id="edge6" class="edge">
<title>biomethane (generator)&#45;&gt;district biomethane (bus)</title>
<path fill="none" stroke="black" stroke-width="1.5" d="M1774.8,-894.78C1774.8,-869.41 1774.8,-838.25 1774.8,-822.54"/>
</g>
<!-- biomethane CHP (multi&#45;link)&#45;&gt;district elec (bus) -->
<g id="edge33" class="edge">
<title>biomethane CHP (multi&#45;link)&#45;&gt;district elec (bus)</title>
<g id="a_edge33"><a xlink:title="Multi&#45;link: biomethane CHP&#10;From: district biomethane (bus0)&#10;To: district elec (bus1)&#10;Carrier: biomethane CHP&#10;Extendable nominal power: True&#10;Nominal power: 0.00 MW&#10;Efficiency: 0.43&#10;Capital cost: 30594.97 currency/MW&#10;Marginal cost: [3.20, 3.20, 3.20, 3.20, 3.20, ...] currency/MWh&#10;&#10;Optimised nominal power: 0.00 MW&#10;Power time series (p0): N/A MW&#10;Power time series (p1): N/A MW">
<path fill="none" stroke="black" stroke-width="1.5" d="M1687.16,-672.17C1663.17,-663.46 1382.57,-561.56 1276.27,-522.96"/>
<polygon fill="black" stroke="black" stroke-width="1.5" points="1265.63,-519.1 1278.75,-518.12 1269.64,-520.29 1276.99,-522.96 1276.91,-523.19 1276.82,-523.43 1269.47,-520.76 1275.07,-528.27 1265.63,-519.1"/>
</a>
</g>
<text text-anchor="start" x="1462.3" y="-585.02" font-family="Courier New" font-size="8.00" fill="red">biomethane CHP</text>
</g>
<!-- biomethane CHP (multi&#45;link)&#45;&gt;district heat (bus) -->
<g id="edge34" class="edge">
<title>biomethane CHP (multi&#45;link)&#45;&gt;district heat (bus)</title>
<g id="a_edge34"><a xlink:title="Multi&#45;link: biomethane CHP&#10;From: district biomethane (bus0)&#10;To: district heat (bus2)&#10;Carrier: biomethane CHP&#10;Extendable nominal power: True&#10;Nominal power: 0.00 MW&#10;Efficiency: 0.58&#10;Capital cost: 30594.97 currency/MW&#10;Marginal cost: [3.20, 3.20, 3.20, 3.20, 3.20, ...] currency/MWh&#10;&#10;Optimised nominal power: 0.00 MW&#10;Power time series (p0): N/A MW&#10;Power time series (p2): N/A MW">
<path fill="none" stroke="black" stroke-width="1.5" d="M1688.45,-671.25C1683.69,-650.75 1632.04,-428.3 1615.13,-355.47"/>
<polygon fill="black" stroke="black" stroke-width="1.5" points="1612.56,-344.44 1620.54,-354.91 1613.75,-348.45 1615.52,-356.07 1615.28,-356.13 1615.04,-356.19 1613.27,-348.56 1610.02,-357.35 1612.56,-344.44"/>
</a>
</g>
<text text-anchor="start" x="1658.44" y="-504.54" font-family="Courier New" font-size="8.00" fill="red">biomethane CHP</text>
</g>
</g>
</svg>
