<?xml version="1.0" encoding="utf-8" standalone="no"?>
<!DOCTYPE svg PUBLIC "-//W3C//DTD SVG 1.1//EN"
  "http://www.w3.org/Graphics/SVG/1.1/DTD/svg11.dtd">
<svg xmlns:xlink="http://www.w3.org/1999/xlink" width="432pt" height="432pt" viewBox="0 0 432 432" xmlns="http://www.w3.org/2000/svg" version="1.1">
 <metadata>
  <rdf:RDF xmlns:dc="http://purl.org/dc/elements/1.1/" xmlns:cc="http://creativecommons.org/ns#" xmlns:rdf="http://www.w3.org/1999/02/22-rdf-syntax-ns#">
   <cc:Work>
    <dc:type rdf:resource="http://purl.org/dc/dcmitype/StillImage"/>
    <dc:date>2025-05-22T14:41:43.862862</dc:date>
    <dc:format>image/svg+xml</dc:format>
    <dc:creator>
     <cc:Agent>
      <dc:title>Matplotlib v3.9.0, https://matplotlib.org/</dc:title>
     </cc:Agent>
    </dc:creator>
   </cc:Work>
  </rdf:RDF>
 </metadata>
 <defs>
  <style type="text/css">*{stroke-linejoin: round; stroke-linecap: butt}</style>
 </defs>
 <g id="figure_1">
  <g id="patch_1">
   <path d="M 0 432 
L 432 432 
L 432 0 
L 0 0 
z
" style="fill: #ffffff"/>
  </g>
  <g id="axes_1">
   <g id="patch_2">
    <path d="M 60.32 329.572 
L 414.882018 329.572 
L 414.882018 26.88 
L 60.32 26.88 
z
" style="fill: #ffffff"/>
   </g>
   <g id="matplotlib.axis_1">
    <g id="xtick_1">
     <g id="line2d_1">
      <path d="M 76.436455 329.572 
L 76.436455 26.88 
" clip-path="url(#pecb932e0dc)" style="fill: none; stroke: #b0b0b0; stroke-width: 0.8; stroke-linecap: square"/>
     </g>
     <g id="line2d_2">
      <defs>
       <path id="m0cb2bf8c08" d="M 0 0 
L 0 3.5 
" style="stroke: #000000; stroke-width: 0.8"/>
      </defs>
      <g>
       <use xlink:href="#m0cb2bf8c08" x="76.436455" y="329.572" style="stroke: #000000; stroke-width: 0.8"/>
      </g>
     </g>
     <g id="text_1">
      <!-- 2022-01 -->
      <g transform="translate(55.545049 344.170437) scale(0.1 -0.1)">
       <defs>
        <path id="DejaVuSans-32" d="M 1228 531 
L 3431 531 
L 3431 0 
L 469 0 
L 469 531 
Q 828 903 1448 1529 
Q 2069 2156 2228 2338 
Q 2531 2678 2651 2914 
Q 2772 3150 2772 3378 
Q 2772 3750 2511 3984 
Q 2250 4219 1831 4219 
Q 1534 4219 1204 4116 
Q 875 4013 500 3803 
L 500 4441 
Q 881 4594 1212 4672 
Q 1544 4750 1819 4750 
Q 2544 4750 2975 4387 
Q 3406 4025 3406 3419 
Q 3406 3131 3298 2873 
Q 3191 2616 2906 2266 
Q 2828 2175 2409 1742 
Q 1991 1309 1228 531 
z
" transform="scale(0.015625)"/>
        <path id="DejaVuSans-30" d="M 2034 4250 
Q 1547 4250 1301 3770 
Q 1056 3291 1056 2328 
Q 1056 1369 1301 889 
Q 1547 409 2034 409 
Q 2525 409 2770 889 
Q 3016 1369 3016 2328 
Q 3016 3291 2770 3770 
Q 2525 4250 2034 4250 
z
M 2034 4750 
Q 2819 4750 3233 4129 
Q 3647 3509 3647 2328 
Q 3647 1150 3233 529 
Q 2819 -91 2034 -91 
Q 1250 -91 836 529 
Q 422 1150 422 2328 
Q 422 3509 836 4129 
Q 1250 4750 2034 4750 
z
" transform="scale(0.015625)"/>
        <path id="DejaVuSans-2d" d="M 313 2009 
L 1997 2009 
L 1997 1497 
L 313 1497 
L 313 2009 
z
" transform="scale(0.015625)"/>
        <path id="DejaVuSans-31" d="M 794 531 
L 1825 531 
L 1825 4091 
L 703 3866 
L 703 4441 
L 1819 4666 
L 2450 4666 
L 2450 531 
L 3481 531 
L 3481 0 
L 794 0 
L 794 531 
z
" transform="scale(0.015625)"/>
       </defs>
       <use xlink:href="#DejaVuSans-32"/>
       <use xlink:href="#DejaVuSans-30" x="63.623047"/>
       <use xlink:href="#DejaVuSans-32" x="127.246094"/>
       <use xlink:href="#DejaVuSans-32" x="190.869141"/>
       <use xlink:href="#DejaVuSans-2d" x="254.492188"/>
       <use xlink:href="#DejaVuSans-30" x="290.576172"/>
       <use xlink:href="#DejaVuSans-31" x="354.199219"/>
      </g>
     </g>
    </g>
    <g id="xtick_2">
     <g id="line2d_3">
      <path d="M 128.682107 329.572 
L 128.682107 26.88 
" clip-path="url(#pecb932e0dc)" style="fill: none; stroke: #b0b0b0; stroke-width: 0.8; stroke-linecap: square"/>
     </g>
     <g id="line2d_4">
      <g>
       <use xlink:href="#m0cb2bf8c08" x="128.682107" y="329.572" style="stroke: #000000; stroke-width: 0.8"/>
      </g>
     </g>
     <g id="text_2">
      <!-- 2022-03 -->
      <g transform="translate(107.790701 344.170437) scale(0.1 -0.1)">
       <defs>
        <path id="DejaVuSans-33" d="M 2597 2516 
Q 3050 2419 3304 2112 
Q 3559 1806 3559 1356 
Q 3559 666 3084 287 
Q 2609 -91 1734 -91 
Q 1441 -91 1130 -33 
Q 819 25 488 141 
L 488 750 
Q 750 597 1062 519 
Q 1375 441 1716 441 
Q 2309 441 2620 675 
Q 2931 909 2931 1356 
Q 2931 1769 2642 2001 
Q 2353 2234 1838 2234 
L 1294 2234 
L 1294 2753 
L 1863 2753 
Q 2328 2753 2575 2939 
Q 2822 3125 2822 3475 
Q 2822 3834 2567 4026 
Q 2313 4219 1838 4219 
Q 1578 4219 1281 4162 
Q 984 4106 628 3988 
L 628 4550 
Q 988 4650 1302 4700 
Q 1616 4750 1894 4750 
Q 2613 4750 3031 4423 
Q 3450 4097 3450 3541 
Q 3450 3153 3228 2886 
Q 3006 2619 2597 2516 
z
" transform="scale(0.015625)"/>
       </defs>
       <use xlink:href="#DejaVuSans-32"/>
       <use xlink:href="#DejaVuSans-30" x="63.623047"/>
       <use xlink:href="#DejaVuSans-32" x="127.246094"/>
       <use xlink:href="#DejaVuSans-32" x="190.869141"/>
       <use xlink:href="#DejaVuSans-2d" x="254.492188"/>
       <use xlink:href="#DejaVuSans-30" x="290.576172"/>
       <use xlink:href="#DejaVuSans-33" x="354.199219"/>
      </g>
     </g>
    </g>
    <g id="xtick_3">
     <g id="line2d_5">
      <path d="M 182.698798 329.572 
L 182.698798 26.88 
" clip-path="url(#pecb932e0dc)" style="fill: none; stroke: #b0b0b0; stroke-width: 0.8; stroke-linecap: square"/>
     </g>
     <g id="line2d_6">
      <g>
       <use xlink:href="#m0cb2bf8c08" x="182.698798" y="329.572" style="stroke: #000000; stroke-width: 0.8"/>
      </g>
     </g>
     <g id="text_3">
      <!-- 2022-05 -->
      <g transform="translate(161.807392 344.170437) scale(0.1 -0.1)">
       <defs>
        <path id="DejaVuSans-35" d="M 691 4666 
L 3169 4666 
L 3169 4134 
L 1269 4134 
L 1269 2991 
Q 1406 3038 1543 3061 
Q 1681 3084 1819 3084 
Q 2600 3084 3056 2656 
Q 3513 2228 3513 1497 
Q 3513 744 3044 326 
Q 2575 -91 1722 -91 
Q 1428 -91 1123 -41 
Q 819 9 494 109 
L 494 744 
Q 775 591 1075 516 
Q 1375 441 1709 441 
Q 2250 441 2565 725 
Q 2881 1009 2881 1497 
Q 2881 1984 2565 2268 
Q 2250 2553 1709 2553 
Q 1456 2553 1204 2497 
Q 953 2441 691 2322 
L 691 4666 
z
" transform="scale(0.015625)"/>
       </defs>
       <use xlink:href="#DejaVuSans-32"/>
       <use xlink:href="#DejaVuSans-30" x="63.623047"/>
       <use xlink:href="#DejaVuSans-32" x="127.246094"/>
       <use xlink:href="#DejaVuSans-32" x="190.869141"/>
       <use xlink:href="#DejaVuSans-2d" x="254.492188"/>
       <use xlink:href="#DejaVuSans-30" x="290.576172"/>
       <use xlink:href="#DejaVuSans-35" x="354.199219"/>
      </g>
     </g>
    </g>
    <g id="xtick_4">
     <g id="line2d_7">
      <path d="M 236.715489 329.572 
L 236.715489 26.88 
" clip-path="url(#pecb932e0dc)" style="fill: none; stroke: #b0b0b0; stroke-width: 0.8; stroke-linecap: square"/>
     </g>
     <g id="line2d_8">
      <g>
       <use xlink:href="#m0cb2bf8c08" x="236.715489" y="329.572" style="stroke: #000000; stroke-width: 0.8"/>
      </g>
     </g>
     <g id="text_4">
      <!-- 2022-07 -->
      <g transform="translate(215.824083 344.170437) scale(0.1 -0.1)">
       <defs>
        <path id="DejaVuSans-37" d="M 525 4666 
L 3525 4666 
L 3525 4397 
L 1831 0 
L 1172 0 
L 2766 4134 
L 525 4134 
L 525 4666 
z
" transform="scale(0.015625)"/>
       </defs>
       <use xlink:href="#DejaVuSans-32"/>
       <use xlink:href="#DejaVuSans-30" x="63.623047"/>
       <use xlink:href="#DejaVuSans-32" x="127.246094"/>
       <use xlink:href="#DejaVuSans-32" x="190.869141"/>
       <use xlink:href="#DejaVuSans-2d" x="254.492188"/>
       <use xlink:href="#DejaVuSans-30" x="290.576172"/>
       <use xlink:href="#DejaVuSans-37" x="354.199219"/>
      </g>
     </g>
    </g>
    <g id="xtick_5">
     <g id="line2d_9">
      <path d="M 291.6177 329.572 
L 291.6177 26.88 
" clip-path="url(#pecb932e0dc)" style="fill: none; stroke: #b0b0b0; stroke-width: 0.8; stroke-linecap: square"/>
     </g>
     <g id="line2d_10">
      <g>
       <use xlink:href="#m0cb2bf8c08" x="291.6177" y="329.572" style="stroke: #000000; stroke-width: 0.8"/>
      </g>
     </g>
     <g id="text_5">
      <!-- 2022-09 -->
      <g transform="translate(270.726294 344.170437) scale(0.1 -0.1)">
       <defs>
        <path id="DejaVuSans-39" d="M 703 97 
L 703 672 
Q 941 559 1184 500 
Q 1428 441 1663 441 
Q 2288 441 2617 861 
Q 2947 1281 2994 2138 
Q 2813 1869 2534 1725 
Q 2256 1581 1919 1581 
Q 1219 1581 811 2004 
Q 403 2428 403 3163 
Q 403 3881 828 4315 
Q 1253 4750 1959 4750 
Q 2769 4750 3195 4129 
Q 3622 3509 3622 2328 
Q 3622 1225 3098 567 
Q 2575 -91 1691 -91 
Q 1453 -91 1209 -44 
Q 966 3 703 97 
z
M 1959 2075 
Q 2384 2075 2632 2365 
Q 2881 2656 2881 3163 
Q 2881 3666 2632 3958 
Q 2384 4250 1959 4250 
Q 1534 4250 1286 3958 
Q 1038 3666 1038 3163 
Q 1038 2656 1286 2365 
Q 1534 2075 1959 2075 
z
" transform="scale(0.015625)"/>
       </defs>
       <use xlink:href="#DejaVuSans-32"/>
       <use xlink:href="#DejaVuSans-30" x="63.623047"/>
       <use xlink:href="#DejaVuSans-32" x="127.246094"/>
       <use xlink:href="#DejaVuSans-32" x="190.869141"/>
       <use xlink:href="#DejaVuSans-2d" x="254.492188"/>
       <use xlink:href="#DejaVuSans-30" x="290.576172"/>
       <use xlink:href="#DejaVuSans-39" x="354.199219"/>
      </g>
     </g>
    </g>
    <g id="xtick_6">
     <g id="line2d_11">
      <path d="M 345.634391 329.572 
L 345.634391 26.88 
" clip-path="url(#pecb932e0dc)" style="fill: none; stroke: #b0b0b0; stroke-width: 0.8; stroke-linecap: square"/>
     </g>
     <g id="line2d_12">
      <g>
       <use xlink:href="#m0cb2bf8c08" x="345.634391" y="329.572" style="stroke: #000000; stroke-width: 0.8"/>
      </g>
     </g>
     <g id="text_6">
      <!-- 2022-11 -->
      <g transform="translate(324.742985 344.170437) scale(0.1 -0.1)">
       <use xlink:href="#DejaVuSans-32"/>
       <use xlink:href="#DejaVuSans-30" x="63.623047"/>
       <use xlink:href="#DejaVuSans-32" x="127.246094"/>
       <use xlink:href="#DejaVuSans-32" x="190.869141"/>
       <use xlink:href="#DejaVuSans-2d" x="254.492188"/>
       <use xlink:href="#DejaVuSans-31" x="290.576172"/>
       <use xlink:href="#DejaVuSans-31" x="354.199219"/>
      </g>
     </g>
    </g>
    <g id="xtick_7">
     <g id="line2d_13">
      <path d="M 399.651082 329.572 
L 399.651082 26.88 
" clip-path="url(#pecb932e0dc)" style="fill: none; stroke: #b0b0b0; stroke-width: 0.8; stroke-linecap: square"/>
     </g>
     <g id="line2d_14">
      <g>
       <use xlink:href="#m0cb2bf8c08" x="399.651082" y="329.572" style="stroke: #000000; stroke-width: 0.8"/>
      </g>
     </g>
     <g id="text_7">
      <!-- 2023-01 -->
      <g transform="translate(378.759676 344.170437) scale(0.1 -0.1)">
       <use xlink:href="#DejaVuSans-32"/>
       <use xlink:href="#DejaVuSans-30" x="63.623047"/>
       <use xlink:href="#DejaVuSans-32" x="127.246094"/>
       <use xlink:href="#DejaVuSans-33" x="190.869141"/>
       <use xlink:href="#DejaVuSans-2d" x="254.492188"/>
       <use xlink:href="#DejaVuSans-30" x="290.576172"/>
       <use xlink:href="#DejaVuSans-31" x="354.199219"/>
      </g>
     </g>
    </g>
    <g id="text_8">
     <!-- Date -->
     <g transform="translate(225.650228 357.848563) scale(0.1 -0.1)">
      <defs>
       <path id="DejaVuSans-44" d="M 1259 4147 
L 1259 519 
L 2022 519 
Q 2988 519 3436 956 
Q 3884 1394 3884 2338 
Q 3884 3275 3436 3711 
Q 2988 4147 2022 4147 
L 1259 4147 
z
M 628 4666 
L 1925 4666 
Q 3281 4666 3915 4102 
Q 4550 3538 4550 2338 
Q 4550 1131 3912 565 
Q 3275 0 1925 0 
L 628 0 
L 628 4666 
z
" transform="scale(0.015625)"/>
       <path id="DejaVuSans-61" d="M 2194 1759 
Q 1497 1759 1228 1600 
Q 959 1441 959 1056 
Q 959 750 1161 570 
Q 1363 391 1709 391 
Q 2188 391 2477 730 
Q 2766 1069 2766 1631 
L 2766 1759 
L 2194 1759 
z
M 3341 1997 
L 3341 0 
L 2766 0 
L 2766 531 
Q 2569 213 2275 61 
Q 1981 -91 1556 -91 
Q 1019 -91 701 211 
Q 384 513 384 1019 
Q 384 1609 779 1909 
Q 1175 2209 1959 2209 
L 2766 2209 
L 2766 2266 
Q 2766 2663 2505 2880 
Q 2244 3097 1772 3097 
Q 1472 3097 1187 3025 
Q 903 2953 641 2809 
L 641 3341 
Q 956 3463 1253 3523 
Q 1550 3584 1831 3584 
Q 2591 3584 2966 3190 
Q 3341 2797 3341 1997 
z
" transform="scale(0.015625)"/>
       <path id="DejaVuSans-74" d="M 1172 4494 
L 1172 3500 
L 2356 3500 
L 2356 3053 
L 1172 3053 
L 1172 1153 
Q 1172 725 1289 603 
Q 1406 481 1766 481 
L 2356 481 
L 2356 0 
L 1766 0 
Q 1100 0 847 248 
Q 594 497 594 1153 
L 594 3053 
L 172 3053 
L 172 3500 
L 594 3500 
L 594 4494 
L 1172 4494 
z
" transform="scale(0.015625)"/>
       <path id="DejaVuSans-65" d="M 3597 1894 
L 3597 1613 
L 953 1613 
Q 991 1019 1311 708 
Q 1631 397 2203 397 
Q 2534 397 2845 478 
Q 3156 559 3463 722 
L 3463 178 
Q 3153 47 2828 -22 
Q 2503 -91 2169 -91 
Q 1331 -91 842 396 
Q 353 884 353 1716 
Q 353 2575 817 3079 
Q 1281 3584 2069 3584 
Q 2775 3584 3186 3129 
Q 3597 2675 3597 1894 
z
M 3022 2063 
Q 3016 2534 2758 2815 
Q 2500 3097 2075 3097 
Q 1594 3097 1305 2825 
Q 1016 2553 972 2059 
L 3022 2063 
z
" transform="scale(0.015625)"/>
      </defs>
      <use xlink:href="#DejaVuSans-44"/>
      <use xlink:href="#DejaVuSans-61" x="77.001953"/>
      <use xlink:href="#DejaVuSans-74" x="138.28125"/>
      <use xlink:href="#DejaVuSans-65" x="177.490234"/>
     </g>
    </g>
   </g>
   <g id="matplotlib.axis_2">
    <g id="ytick_1">
     <g id="line2d_15">
      <path d="M 60.32 303.410791 
L 414.882018 303.410791 
" clip-path="url(#pecb932e0dc)" style="fill: none; stroke: #b0b0b0; stroke-width: 0.8; stroke-linecap: square"/>
     </g>
     <g id="line2d_16">
      <defs>
       <path id="mb290604aef" d="M 0 0 
L -3.5 0 
" style="stroke: #000000; stroke-width: 0.8"/>
      </defs>
      <g>
       <use xlink:href="#mb290604aef" x="60.32" y="303.410791" style="stroke: #000000; stroke-width: 0.8"/>
      </g>
     </g>
     <g id="text_9">
      <!-- 0.825 -->
      <g transform="translate(24.691875 307.210009) scale(0.1 -0.1)">
       <defs>
        <path id="DejaVuSans-2e" d="M 684 794 
L 1344 794 
L 1344 0 
L 684 0 
L 684 794 
z
" transform="scale(0.015625)"/>
        <path id="DejaVuSans-38" d="M 2034 2216 
Q 1584 2216 1326 1975 
Q 1069 1734 1069 1313 
Q 1069 891 1326 650 
Q 1584 409 2034 409 
Q 2484 409 2743 651 
Q 3003 894 3003 1313 
Q 3003 1734 2745 1975 
Q 2488 2216 2034 2216 
z
M 1403 2484 
Q 997 2584 770 2862 
Q 544 3141 544 3541 
Q 544 4100 942 4425 
Q 1341 4750 2034 4750 
Q 2731 4750 3128 4425 
Q 3525 4100 3525 3541 
Q 3525 3141 3298 2862 
Q 3072 2584 2669 2484 
Q 3125 2378 3379 2068 
Q 3634 1759 3634 1313 
Q 3634 634 3220 271 
Q 2806 -91 2034 -91 
Q 1263 -91 848 271 
Q 434 634 434 1313 
Q 434 1759 690 2068 
Q 947 2378 1403 2484 
z
M 1172 3481 
Q 1172 3119 1398 2916 
Q 1625 2713 2034 2713 
Q 2441 2713 2670 2916 
Q 2900 3119 2900 3481 
Q 2900 3844 2670 4047 
Q 2441 4250 2034 4250 
Q 1625 4250 1398 4047 
Q 1172 3844 1172 3481 
z
" transform="scale(0.015625)"/>
       </defs>
       <use xlink:href="#DejaVuSans-30"/>
       <use xlink:href="#DejaVuSans-2e" x="63.623047"/>
       <use xlink:href="#DejaVuSans-38" x="95.410156"/>
       <use xlink:href="#DejaVuSans-32" x="159.033203"/>
       <use xlink:href="#DejaVuSans-35" x="222.65625"/>
      </g>
     </g>
    </g>
    <g id="ytick_2">
     <g id="line2d_17">
      <path d="M 60.32 263.754562 
L 414.882018 263.754562 
" clip-path="url(#pecb932e0dc)" style="fill: none; stroke: #b0b0b0; stroke-width: 0.8; stroke-linecap: square"/>
     </g>
     <g id="line2d_18">
      <g>
       <use xlink:href="#mb290604aef" x="60.32" y="263.754562" style="stroke: #000000; stroke-width: 0.8"/>
      </g>
     </g>
     <g id="text_10">
      <!-- 0.850 -->
      <g transform="translate(24.691875 267.55378) scale(0.1 -0.1)">
       <use xlink:href="#DejaVuSans-30"/>
       <use xlink:href="#DejaVuSans-2e" x="63.623047"/>
       <use xlink:href="#DejaVuSans-38" x="95.410156"/>
       <use xlink:href="#DejaVuSans-35" x="159.033203"/>
       <use xlink:href="#DejaVuSans-30" x="222.65625"/>
      </g>
     </g>
    </g>
    <g id="ytick_3">
     <g id="line2d_19">
      <path d="M 60.32 224.098333 
L 414.882018 224.098333 
" clip-path="url(#pecb932e0dc)" style="fill: none; stroke: #b0b0b0; stroke-width: 0.8; stroke-linecap: square"/>
     </g>
     <g id="line2d_20">
      <g>
       <use xlink:href="#mb290604aef" x="60.32" y="224.098333" style="stroke: #000000; stroke-width: 0.8"/>
      </g>
     </g>
     <g id="text_11">
      <!-- 0.875 -->
      <g transform="translate(24.691875 227.897551) scale(0.1 -0.1)">
       <use xlink:href="#DejaVuSans-30"/>
       <use xlink:href="#DejaVuSans-2e" x="63.623047"/>
       <use xlink:href="#DejaVuSans-38" x="95.410156"/>
       <use xlink:href="#DejaVuSans-37" x="159.033203"/>
       <use xlink:href="#DejaVuSans-35" x="222.65625"/>
      </g>
     </g>
    </g>
    <g id="ytick_4">
     <g id="line2d_21">
      <path d="M 60.32 184.442104 
L 414.882018 184.442104 
" clip-path="url(#pecb932e0dc)" style="fill: none; stroke: #b0b0b0; stroke-width: 0.8; stroke-linecap: square"/>
     </g>
     <g id="line2d_22">
      <g>
       <use xlink:href="#mb290604aef" x="60.32" y="184.442104" style="stroke: #000000; stroke-width: 0.8"/>
      </g>
     </g>
     <g id="text_12">
      <!-- 0.900 -->
      <g transform="translate(24.691875 188.241323) scale(0.1 -0.1)">
       <use xlink:href="#DejaVuSans-30"/>
       <use xlink:href="#DejaVuSans-2e" x="63.623047"/>
       <use xlink:href="#DejaVuSans-39" x="95.410156"/>
       <use xlink:href="#DejaVuSans-30" x="159.033203"/>
       <use xlink:href="#DejaVuSans-30" x="222.65625"/>
      </g>
     </g>
    </g>
    <g id="ytick_5">
     <g id="line2d_23">
      <path d="M 60.32 144.785875 
L 414.882018 144.785875 
" clip-path="url(#pecb932e0dc)" style="fill: none; stroke: #b0b0b0; stroke-width: 0.8; stroke-linecap: square"/>
     </g>
     <g id="line2d_24">
      <g>
       <use xlink:href="#mb290604aef" x="60.32" y="144.785875" style="stroke: #000000; stroke-width: 0.8"/>
      </g>
     </g>
     <g id="text_13">
      <!-- 0.925 -->
      <g transform="translate(24.691875 148.585094) scale(0.1 -0.1)">
       <use xlink:href="#DejaVuSans-30"/>
       <use xlink:href="#DejaVuSans-2e" x="63.623047"/>
       <use xlink:href="#DejaVuSans-39" x="95.410156"/>
       <use xlink:href="#DejaVuSans-32" x="159.033203"/>
       <use xlink:href="#DejaVuSans-35" x="222.65625"/>
      </g>
     </g>
    </g>
    <g id="ytick_6">
     <g id="line2d_25">
      <path d="M 60.32 105.129646 
L 414.882018 105.129646 
" clip-path="url(#pecb932e0dc)" style="fill: none; stroke: #b0b0b0; stroke-width: 0.8; stroke-linecap: square"/>
     </g>
     <g id="line2d_26">
      <g>
       <use xlink:href="#mb290604aef" x="60.32" y="105.129646" style="stroke: #000000; stroke-width: 0.8"/>
      </g>
     </g>
     <g id="text_14">
      <!-- 0.950 -->
      <g transform="translate(24.691875 108.928865) scale(0.1 -0.1)">
       <use xlink:href="#DejaVuSans-30"/>
       <use xlink:href="#DejaVuSans-2e" x="63.623047"/>
       <use xlink:href="#DejaVuSans-39" x="95.410156"/>
       <use xlink:href="#DejaVuSans-35" x="159.033203"/>
       <use xlink:href="#DejaVuSans-30" x="222.65625"/>
      </g>
     </g>
    </g>
    <g id="ytick_7">
     <g id="line2d_27">
      <path d="M 60.32 65.473417 
L 414.882018 65.473417 
" clip-path="url(#pecb932e0dc)" style="fill: none; stroke: #b0b0b0; stroke-width: 0.8; stroke-linecap: square"/>
     </g>
     <g id="line2d_28">
      <g>
       <use xlink:href="#mb290604aef" x="60.32" y="65.473417" style="stroke: #000000; stroke-width: 0.8"/>
      </g>
     </g>
     <g id="text_15">
      <!-- 0.975 -->
      <g transform="translate(24.691875 69.272636) scale(0.1 -0.1)">
       <use xlink:href="#DejaVuSans-30"/>
       <use xlink:href="#DejaVuSans-2e" x="63.623047"/>
       <use xlink:href="#DejaVuSans-39" x="95.410156"/>
       <use xlink:href="#DejaVuSans-37" x="159.033203"/>
       <use xlink:href="#DejaVuSans-35" x="222.65625"/>
      </g>
     </g>
    </g>
    <g id="text_16">
     <!-- Avg Efficiency (daily mean) -->
     <g transform="translate(18.612188 246.471313) rotate(-90) scale(0.1 -0.1)">
      <defs>
       <path id="DejaVuSans-41" d="M 2188 4044 
L 1331 1722 
L 3047 1722 
L 2188 4044 
z
M 1831 4666 
L 2547 4666 
L 4325 0 
L 3669 0 
L 3244 1197 
L 1141 1197 
L 716 0 
L 50 0 
L 1831 4666 
z
" transform="scale(0.015625)"/>
       <path id="DejaVuSans-76" d="M 191 3500 
L 800 3500 
L 1894 563 
L 2988 3500 
L 3597 3500 
L 2284 0 
L 1503 0 
L 191 3500 
z
" transform="scale(0.015625)"/>
       <path id="DejaVuSans-67" d="M 2906 1791 
Q 2906 2416 2648 2759 
Q 2391 3103 1925 3103 
Q 1463 3103 1205 2759 
Q 947 2416 947 1791 
Q 947 1169 1205 825 
Q 1463 481 1925 481 
Q 2391 481 2648 825 
Q 2906 1169 2906 1791 
z
M 3481 434 
Q 3481 -459 3084 -895 
Q 2688 -1331 1869 -1331 
Q 1566 -1331 1297 -1286 
Q 1028 -1241 775 -1147 
L 775 -588 
Q 1028 -725 1275 -790 
Q 1522 -856 1778 -856 
Q 2344 -856 2625 -561 
Q 2906 -266 2906 331 
L 2906 616 
Q 2728 306 2450 153 
Q 2172 0 1784 0 
Q 1141 0 747 490 
Q 353 981 353 1791 
Q 353 2603 747 3093 
Q 1141 3584 1784 3584 
Q 2172 3584 2450 3431 
Q 2728 3278 2906 2969 
L 2906 3500 
L 3481 3500 
L 3481 434 
z
" transform="scale(0.015625)"/>
       <path id="DejaVuSans-20" transform="scale(0.015625)"/>
       <path id="DejaVuSans-45" d="M 628 4666 
L 3578 4666 
L 3578 4134 
L 1259 4134 
L 1259 2753 
L 3481 2753 
L 3481 2222 
L 1259 2222 
L 1259 531 
L 3634 531 
L 3634 0 
L 628 0 
L 628 4666 
z
" transform="scale(0.015625)"/>
       <path id="DejaVuSans-66" d="M 2375 4863 
L 2375 4384 
L 1825 4384 
Q 1516 4384 1395 4259 
Q 1275 4134 1275 3809 
L 1275 3500 
L 2222 3500 
L 2222 3053 
L 1275 3053 
L 1275 0 
L 697 0 
L 697 3053 
L 147 3053 
L 147 3500 
L 697 3500 
L 697 3744 
Q 697 4328 969 4595 
Q 1241 4863 1831 4863 
L 2375 4863 
z
" transform="scale(0.015625)"/>
       <path id="DejaVuSans-69" d="M 603 3500 
L 1178 3500 
L 1178 0 
L 603 0 
L 603 3500 
z
M 603 4863 
L 1178 4863 
L 1178 4134 
L 603 4134 
L 603 4863 
z
" transform="scale(0.015625)"/>
       <path id="DejaVuSans-63" d="M 3122 3366 
L 3122 2828 
Q 2878 2963 2633 3030 
Q 2388 3097 2138 3097 
Q 1578 3097 1268 2742 
Q 959 2388 959 1747 
Q 959 1106 1268 751 
Q 1578 397 2138 397 
Q 2388 397 2633 464 
Q 2878 531 3122 666 
L 3122 134 
Q 2881 22 2623 -34 
Q 2366 -91 2075 -91 
Q 1284 -91 818 406 
Q 353 903 353 1747 
Q 353 2603 823 3093 
Q 1294 3584 2113 3584 
Q 2378 3584 2631 3529 
Q 2884 3475 3122 3366 
z
" transform="scale(0.015625)"/>
       <path id="DejaVuSans-6e" d="M 3513 2113 
L 3513 0 
L 2938 0 
L 2938 2094 
Q 2938 2591 2744 2837 
Q 2550 3084 2163 3084 
Q 1697 3084 1428 2787 
Q 1159 2491 1159 1978 
L 1159 0 
L 581 0 
L 581 3500 
L 1159 3500 
L 1159 2956 
Q 1366 3272 1645 3428 
Q 1925 3584 2291 3584 
Q 2894 3584 3203 3211 
Q 3513 2838 3513 2113 
z
" transform="scale(0.015625)"/>
       <path id="DejaVuSans-79" d="M 2059 -325 
Q 1816 -950 1584 -1140 
Q 1353 -1331 966 -1331 
L 506 -1331 
L 506 -850 
L 844 -850 
Q 1081 -850 1212 -737 
Q 1344 -625 1503 -206 
L 1606 56 
L 191 3500 
L 800 3500 
L 1894 763 
L 2988 3500 
L 3597 3500 
L 2059 -325 
z
" transform="scale(0.015625)"/>
       <path id="DejaVuSans-28" d="M 1984 4856 
Q 1566 4138 1362 3434 
Q 1159 2731 1159 2009 
Q 1159 1288 1364 580 
Q 1569 -128 1984 -844 
L 1484 -844 
Q 1016 -109 783 600 
Q 550 1309 550 2009 
Q 550 2706 781 3412 
Q 1013 4119 1484 4856 
L 1984 4856 
z
" transform="scale(0.015625)"/>
       <path id="DejaVuSans-64" d="M 2906 2969 
L 2906 4863 
L 3481 4863 
L 3481 0 
L 2906 0 
L 2906 525 
Q 2725 213 2448 61 
Q 2172 -91 1784 -91 
Q 1150 -91 751 415 
Q 353 922 353 1747 
Q 353 2572 751 3078 
Q 1150 3584 1784 3584 
Q 2172 3584 2448 3432 
Q 2725 3281 2906 2969 
z
M 947 1747 
Q 947 1113 1208 752 
Q 1469 391 1925 391 
Q 2381 391 2643 752 
Q 2906 1113 2906 1747 
Q 2906 2381 2643 2742 
Q 2381 3103 1925 3103 
Q 1469 3103 1208 2742 
Q 947 2381 947 1747 
z
" transform="scale(0.015625)"/>
       <path id="DejaVuSans-6c" d="M 603 4863 
L 1178 4863 
L 1178 0 
L 603 0 
L 603 4863 
z
" transform="scale(0.015625)"/>
       <path id="DejaVuSans-6d" d="M 3328 2828 
Q 3544 3216 3844 3400 
Q 4144 3584 4550 3584 
Q 5097 3584 5394 3201 
Q 5691 2819 5691 2113 
L 5691 0 
L 5113 0 
L 5113 2094 
Q 5113 2597 4934 2840 
Q 4756 3084 4391 3084 
Q 3944 3084 3684 2787 
Q 3425 2491 3425 1978 
L 3425 0 
L 2847 0 
L 2847 2094 
Q 2847 2600 2669 2842 
Q 2491 3084 2119 3084 
Q 1678 3084 1418 2786 
Q 1159 2488 1159 1978 
L 1159 0 
L 581 0 
L 581 3500 
L 1159 3500 
L 1159 2956 
Q 1356 3278 1631 3431 
Q 1906 3584 2284 3584 
Q 2666 3584 2933 3390 
Q 3200 3197 3328 2828 
z
" transform="scale(0.015625)"/>
       <path id="DejaVuSans-29" d="M 513 4856 
L 1013 4856 
Q 1481 4119 1714 3412 
Q 1947 2706 1947 2009 
Q 1947 1309 1714 600 
Q 1481 -109 1013 -844 
L 513 -844 
Q 928 -128 1133 580 
Q 1338 1288 1338 2009 
Q 1338 2731 1133 3434 
Q 928 4138 513 4856 
z
" transform="scale(0.015625)"/>
      </defs>
      <use xlink:href="#DejaVuSans-41"/>
      <use xlink:href="#DejaVuSans-76" x="62.533203"/>
      <use xlink:href="#DejaVuSans-67" x="121.712891"/>
      <use xlink:href="#DejaVuSans-20" x="185.189453"/>
      <use xlink:href="#DejaVuSans-45" x="216.976562"/>
      <use xlink:href="#DejaVuSans-66" x="280.160156"/>
      <use xlink:href="#DejaVuSans-66" x="315.365234"/>
      <use xlink:href="#DejaVuSans-69" x="350.570312"/>
      <use xlink:href="#DejaVuSans-63" x="378.353516"/>
      <use xlink:href="#DejaVuSans-69" x="433.333984"/>
      <use xlink:href="#DejaVuSans-65" x="461.117188"/>
      <use xlink:href="#DejaVuSans-6e" x="522.640625"/>
      <use xlink:href="#DejaVuSans-63" x="586.019531"/>
      <use xlink:href="#DejaVuSans-79" x="641"/>
      <use xlink:href="#DejaVuSans-20" x="700.179688"/>
      <use xlink:href="#DejaVuSans-28" x="731.966797"/>
      <use xlink:href="#DejaVuSans-64" x="770.980469"/>
      <use xlink:href="#DejaVuSans-61" x="834.457031"/>
      <use xlink:href="#DejaVuSans-69" x="895.736328"/>
      <use xlink:href="#DejaVuSans-6c" x="923.519531"/>
      <use xlink:href="#DejaVuSans-79" x="951.302734"/>
      <use xlink:href="#DejaVuSans-20" x="1010.482422"/>
      <use xlink:href="#DejaVuSans-6d" x="1042.269531"/>
      <use xlink:href="#DejaVuSans-65" x="1139.681641"/>
      <use xlink:href="#DejaVuSans-61" x="1201.205078"/>
      <use xlink:href="#DejaVuSans-6e" x="1262.484375"/>
      <use xlink:href="#DejaVuSans-29" x="1325.863281"/>
     </g>
    </g>
   </g>
   <g id="line2d_29">
    <path d="M 76.436455 74.773759 
L 77.321975 67.743113 
L 78.207494 73.413676 
L 79.093014 77.784852 
L 79.978533 57.514661 
L 80.864053 49.330676 
L 81.749573 46.043546 
L 82.635092 46.379471 
L 83.520612 47.306202 
L 84.406131 46.266803 
L 85.291651 45.966161 
L 86.17717 43.955772 
L 87.06269 43.080461 
L 87.948209 43.733661 
L 88.833729 44.858051 
L 89.719248 45.718656 
L 90.604768 46.964894 
L 91.490287 47.547906 
L 92.375807 47.238362 
L 93.261326 47.107548 
L 94.146846 45.526978 
L 95.032365 46.8459 
L 95.917885 47.474932 
L 96.803404 46.09658 
L 97.688924 45.10242 
L 98.574443 44.989543 
L 99.459963 45.669286 
L 100.345483 47.45191 
L 101.231002 51.350492 
L 102.116522 53.850884 
L 103.002041 49.508328 
L 103.887561 47.921145 
L 105.6586 52.152551 
L 106.544119 53.530593 
L 107.429639 53.498839 
L 108.315158 53.311439 
L 109.200678 49.277573 
L 110.971717 51.770196 
L 111.857236 52.653238 
L 112.742756 52.353495 
L 113.628275 49.484161 
L 114.513795 48.909483 
L 115.399314 49.143943 
L 116.284834 50.820634 
L 117.170354 54.057868 
L 118.055873 67.592078 
L 118.941393 76.133747 
L 119.826912 67.100892 
L 120.712432 65.085185 
L 121.597951 60.152531 
L 122.483471 56.427769 
L 123.36899 57.815229 
L 124.25451 57.683921 
L 125.140029 53.045367 
L 126.025549 51.012784 
L 126.911068 48.238452 
L 127.796588 46.096314 
L 128.682107 45.423211 
L 129.567627 45.228302 
L 130.453146 45.626007 
L 131.338666 45.413215 
L 132.224185 46.199167 
L 133.109705 45.536675 
L 133.995225 43.960344 
L 134.880744 44.366313 
L 135.766264 45.891111 
L 136.651783 48.316163 
L 137.537303 49.362422 
L 138.422822 52.000164 
L 139.308342 54.13364 
L 140.193861 58.354267 
L 141.9649 62.831889 
L 142.85042 61.559551 
L 143.735939 61.711793 
L 144.621459 59.991318 
L 145.506978 60.539774 
L 146.392498 57.318138 
L 147.278017 58.705031 
L 148.163537 62.444016 
L 149.049056 65.671507 
L 150.820095 76.92173 
L 151.705615 77.618341 
L 152.591135 79.938391 
L 153.476654 86.727333 
L 154.362174 82.460852 
L 156.133213 57.691645 
L 157.018732 49.80341 
L 157.904252 46.624117 
L 158.789771 45.97394 
L 159.675291 50.88275 
L 161.44633 83.948649 
L 162.331849 80.25852 
L 163.217369 67.208273 
L 164.102888 56.623428 
L 164.988408 55.33402 
L 165.873927 65.603855 
L 166.759447 85.629407 
L 167.644966 112.362715 
L 168.530486 122.389604 
L 169.416006 89.129143 
L 170.301525 67.626849 
L 171.187045 62.494356 
L 172.072564 64.323493 
L 172.958084 62.273756 
L 173.843603 66.533668 
L 174.729123 73.133646 
L 175.614642 81.917828 
L 177.385681 83.348161 
L 178.271201 75.194545 
L 179.15672 71.378192 
L 180.04224 73.804475 
L 180.927759 81.090429 
L 181.813279 83.429646 
L 182.698798 84.500942 
L 183.584318 87.519349 
L 184.469837 103.639709 
L 185.355357 115.70897 
L 186.240877 124.697163 
L 187.126396 119.108475 
L 188.011916 117.000943 
L 188.897435 119.000884 
L 189.782955 132.14565 
L 190.668474 158.966331 
L 191.553994 210.27166 
L 192.439513 239.237426 
L 193.325033 217.249595 
L 194.210552 206.84917 
L 195.096072 200.104856 
L 195.981591 182.101991 
L 196.867111 197.800762 
L 197.75263 204.972172 
L 198.63815 230.702495 
L 199.523669 279.031699 
L 200.409189 260.4328 
L 201.294708 221.196548 
L 202.180228 207.991871 
L 203.065747 171.437306 
L 203.951267 147.916862 
L 204.836787 153.456666 
L 205.722306 160.866441 
L 206.607826 135.568608 
L 207.493345 98.605842 
L 208.378865 91.621587 
L 209.264384 106.481399 
L 211.035423 163.035632 
L 211.920943 207.716522 
L 212.806462 246.336456 
L 213.691982 238.684142 
L 214.577501 228.644289 
L 215.463021 195.905402 
L 216.34854 196.119288 
L 217.23406 162.415118 
L 218.119579 163.982415 
L 219.890618 238.543739 
L 220.776138 223.911963 
L 221.661658 214.564998 
L 223.432697 260.712015 
L 224.318216 258.478428 
L 225.203736 293.093046 
L 226.089255 307.056681 
L 226.974775 296.511697 
L 227.860294 275.579438 
L 228.745814 260.860354 
L 229.631333 270.551067 
L 230.516853 255.774307 
L 231.402372 255.816209 
L 232.287892 271.164369 
L 233.173411 276.979423 
L 234.058931 257.491494 
L 234.94445 255.904433 
L 235.82997 270.239129 
L 236.715489 213.683234 
L 237.601009 206.113027 
L 238.486529 252.355903 
L 239.372048 255.788819 
L 240.257568 263.224048 
L 241.143087 256.447733 
L 242.028607 203.789327 
L 242.914126 175.560595 
L 243.799646 192.774441 
L 244.685165 181.536191 
L 245.570685 173.531483 
L 246.456204 196.842804 
L 248.227243 291.517944 
L 249.112763 284.994327 
L 249.998282 277.407189 
L 250.883802 256.712526 
L 251.769321 261.425527 
L 252.654841 289.709103 
L 253.54036 310.015318 
L 254.42588 301.492867 
L 255.311399 307.365584 
L 256.196919 315.813273 
L 257.082439 306.007187 
L 257.967958 308.182063 
L 258.853478 293.641153 
L 259.738997 282.533108 
L 260.624517 276.554583 
L 261.510036 278.038615 
L 262.395556 277.724023 
L 263.281075 271.400533 
L 264.166595 277.810104 
L 265.052114 280.304638 
L 265.937634 296.031341 
L 266.823153 306.094861 
L 267.708673 313.706743 
L 268.594192 294.09718 
L 269.479712 256.636512 
L 270.365231 237.56313 
L 271.250751 243.169168 
L 272.13627 258.008042 
L 273.02179 265.057053 
L 273.90731 252.260713 
L 274.792829 258.283063 
L 275.678349 271.360697 
L 276.563868 270.788004 
L 277.449388 280.567904 
L 278.334907 295.524238 
L 279.220427 284.14658 
L 280.991466 236.359807 
L 281.876985 227.936868 
L 282.762505 214.391946 
L 283.648024 216.374917 
L 284.533544 224.828452 
L 286.304583 270.06873 
L 287.190102 266.831916 
L 288.075622 243.616582 
L 288.961141 231.819099 
L 289.846661 239.204639 
L 290.732181 207.910112 
L 291.6177 184.013981 
L 292.50322 171.310481 
L 293.388739 183.427128 
L 294.274259 192.743501 
L 295.159778 209.1636 
L 296.930817 248.823323 
L 297.816337 225.370797 
L 298.701856 188.473766 
L 299.587376 172.182352 
L 300.472895 149.580247 
L 301.358415 140.396965 
L 302.243934 168.25568 
L 303.129454 208.694256 
L 304.014973 200.479431 
L 304.900493 141.586827 
L 305.786012 102.794993 
L 306.671532 85.98329 
L 307.557051 76.935017 
L 308.442571 75.680124 
L 309.328091 70.972069 
L 310.21361 69.615456 
L 311.09913 75.398263 
L 311.984649 91.653895 
L 312.870169 101.917071 
L 313.755688 101.336884 
L 315.526727 77.15462 
L 316.412247 70.315219 
L 317.297766 73.478116 
L 318.183286 80.837439 
L 319.068805 95.254505 
L 319.954325 90.515091 
L 320.839844 81.766542 
L 321.725364 93.077324 
L 322.610883 106.434681 
L 323.496403 107.212754 
L 324.381922 113.076017 
L 325.267442 95.257525 
L 326.152962 98.205978 
L 327.038481 108.979311 
L 327.924001 110.421809 
L 328.80952 105.995941 
L 329.69504 116.059121 
L 330.580559 139.510011 
L 331.466079 159.753899 
L 332.351598 149.177985 
L 333.237118 142.995909 
L 334.122637 131.652895 
L 335.008157 109.320889 
L 335.893676 113.485515 
L 336.779196 120.535891 
L 337.664715 120.722654 
L 338.550235 121.914563 
L 339.435754 113.417621 
L 340.321274 115.302451 
L 341.206793 114.214034 
L 342.092313 122.376065 
L 342.977833 137.107892 
L 343.863352 133.477218 
L 344.748872 110.492457 
L 345.634391 103.365428 
L 346.519911 91.77836 
L 347.40543 74.872345 
L 348.29095 69.739331 
L 349.176469 67.070185 
L 350.061989 61.487182 
L 350.947508 67.124704 
L 351.833028 64.389233 
L 353.604067 70.985567 
L 354.489586 61.102841 
L 355.375106 57.848622 
L 356.260625 57.462805 
L 358.031664 57.765229 
L 358.917184 58.73478 
L 359.802704 59.494092 
L 360.688223 60.933343 
L 361.573743 61.407378 
L 362.459262 58.056063 
L 363.344782 53.766908 
L 364.230301 51.896618 
L 365.115821 51.95178 
L 366.00134 54.506871 
L 366.88686 52.785123 
L 367.772379 55.661312 
L 368.657899 50.499734 
L 369.543418 48.664174 
L 370.428938 50.228759 
L 371.314457 49.188522 
L 372.199977 48.48469 
L 373.971016 47.656774 
L 374.856535 47.547605 
L 375.742055 46.870074 
L 377.513094 47.170407 
L 378.398614 45.562533 
L 379.284133 45.092187 
L 380.169653 45.974615 
L 381.940692 41.736926 
L 382.826211 40.638727 
L 383.711731 41.592963 
L 385.48277 43.121577 
L 386.368289 42.7205 
L 387.253809 41.694715 
L 388.139328 41.525887 
L 389.024848 42.737785 
L 389.910367 46.044391 
L 390.795887 52.890533 
L 391.681406 65.539836 
L 392.566926 75.063633 
L 394.337965 68.525795 
L 395.223485 57.388682 
L 396.109004 51.383896 
L 396.994524 53.705218 
L 397.880043 57.238876 
L 398.765563 76.9859 
L 398.765563 76.9859 
" clip-path="url(#pecb932e0dc)" style="fill: none; stroke: #6a113d; stroke-width: 2.5; stroke-linecap: square"/>
   </g>
   <g id="patch_3">
    <path d="M 60.32 329.572 
L 60.32 26.88 
" style="fill: none; stroke: #000000; stroke-width: 0.8; stroke-linejoin: miter; stroke-linecap: square"/>
   </g>
   <g id="patch_4">
    <path d="M 414.882018 329.572 
L 414.882018 26.88 
" style="fill: none; stroke: #000000; stroke-width: 0.8; stroke-linejoin: miter; stroke-linecap: square"/>
   </g>
   <g id="patch_5">
    <path d="M 60.32 329.572 
L 414.882018 329.572 
" style="fill: none; stroke: #000000; stroke-width: 0.8; stroke-linejoin: miter; stroke-linecap: square"/>
   </g>
   <g id="patch_6">
    <path d="M 60.32 26.88 
L 414.882018 26.88 
" style="fill: none; stroke: #000000; stroke-width: 0.8; stroke-linejoin: miter; stroke-linecap: square"/>
   </g>
   <g id="text_17">
    <!-- grch_60-45 – Average Daily Efficiency -->
    <g transform="translate(124.482259 20.88) scale(0.12 -0.12)">
     <defs>
      <path id="DejaVuSans-72" d="M 2631 2963 
Q 2534 3019 2420 3045 
Q 2306 3072 2169 3072 
Q 1681 3072 1420 2755 
Q 1159 2438 1159 1844 
L 1159 0 
L 581 0 
L 581 3500 
L 1159 3500 
L 1159 2956 
Q 1341 3275 1631 3429 
Q 1922 3584 2338 3584 
Q 2397 3584 2469 3576 
Q 2541 3569 2628 3553 
L 2631 2963 
z
" transform="scale(0.015625)"/>
      <path id="DejaVuSans-68" d="M 3513 2113 
L 3513 0 
L 2938 0 
L 2938 2094 
Q 2938 2591 2744 2837 
Q 2550 3084 2163 3084 
Q 1697 3084 1428 2787 
Q 1159 2491 1159 1978 
L 1159 0 
L 581 0 
L 581 4863 
L 1159 4863 
L 1159 2956 
Q 1366 3272 1645 3428 
Q 1925 3584 2291 3584 
Q 2894 3584 3203 3211 
Q 3513 2838 3513 2113 
z
" transform="scale(0.015625)"/>
      <path id="DejaVuSans-5f" d="M 3263 -1063 
L 3263 -1509 
L -63 -1509 
L -63 -1063 
L 3263 -1063 
z
" transform="scale(0.015625)"/>
      <path id="DejaVuSans-36" d="M 2113 2584 
Q 1688 2584 1439 2293 
Q 1191 2003 1191 1497 
Q 1191 994 1439 701 
Q 1688 409 2113 409 
Q 2538 409 2786 701 
Q 3034 994 3034 1497 
Q 3034 2003 2786 2293 
Q 2538 2584 2113 2584 
z
M 3366 4563 
L 3366 3988 
Q 3128 4100 2886 4159 
Q 2644 4219 2406 4219 
Q 1781 4219 1451 3797 
Q 1122 3375 1075 2522 
Q 1259 2794 1537 2939 
Q 1816 3084 2150 3084 
Q 2853 3084 3261 2657 
Q 3669 2231 3669 1497 
Q 3669 778 3244 343 
Q 2819 -91 2113 -91 
Q 1303 -91 875 529 
Q 447 1150 447 2328 
Q 447 3434 972 4092 
Q 1497 4750 2381 4750 
Q 2619 4750 2861 4703 
Q 3103 4656 3366 4563 
z
" transform="scale(0.015625)"/>
      <path id="DejaVuSans-34" d="M 2419 4116 
L 825 1625 
L 2419 1625 
L 2419 4116 
z
M 2253 4666 
L 3047 4666 
L 3047 1625 
L 3713 1625 
L 3713 1100 
L 3047 1100 
L 3047 0 
L 2419 0 
L 2419 1100 
L 313 1100 
L 313 1709 
L 2253 4666 
z
" transform="scale(0.015625)"/>
      <path id="DejaVuSans-2013" d="M 313 1978 
L 2888 1978 
L 2888 1528 
L 313 1528 
L 313 1978 
z
" transform="scale(0.015625)"/>
     </defs>
     <use xlink:href="#DejaVuSans-67"/>
     <use xlink:href="#DejaVuSans-72" x="63.476562"/>
     <use xlink:href="#DejaVuSans-63" x="102.339844"/>
     <use xlink:href="#DejaVuSans-68" x="157.320312"/>
     <use xlink:href="#DejaVuSans-5f" x="220.699219"/>
     <use xlink:href="#DejaVuSans-36" x="270.699219"/>
     <use xlink:href="#DejaVuSans-30" x="334.322266"/>
     <use xlink:href="#DejaVuSans-2d" x="397.945312"/>
     <use xlink:href="#DejaVuSans-34" x="434.029297"/>
     <use xlink:href="#DejaVuSans-35" x="497.652344"/>
     <use xlink:href="#DejaVuSans-20" x="561.275391"/>
     <use xlink:href="#DejaVuSans-2013" x="593.0625"/>
     <use xlink:href="#DejaVuSans-20" x="643.0625"/>
     <use xlink:href="#DejaVuSans-41" x="674.849609"/>
     <use xlink:href="#DejaVuSans-76" x="737.382812"/>
     <use xlink:href="#DejaVuSans-65" x="796.5625"/>
     <use xlink:href="#DejaVuSans-72" x="858.085938"/>
     <use xlink:href="#DejaVuSans-61" x="899.199219"/>
     <use xlink:href="#DejaVuSans-67" x="960.478516"/>
     <use xlink:href="#DejaVuSans-65" x="1023.955078"/>
     <use xlink:href="#DejaVuSans-20" x="1085.478516"/>
     <use xlink:href="#DejaVuSans-44" x="1117.265625"/>
     <use xlink:href="#DejaVuSans-61" x="1194.267578"/>
     <use xlink:href="#DejaVuSans-69" x="1255.546875"/>
     <use xlink:href="#DejaVuSans-6c" x="1283.330078"/>
     <use xlink:href="#DejaVuSans-79" x="1311.113281"/>
     <use xlink:href="#DejaVuSans-20" x="1370.292969"/>
     <use xlink:href="#DejaVuSans-45" x="1402.080078"/>
     <use xlink:href="#DejaVuSans-66" x="1465.263672"/>
     <use xlink:href="#DejaVuSans-66" x="1500.46875"/>
     <use xlink:href="#DejaVuSans-69" x="1535.673828"/>
     <use xlink:href="#DejaVuSans-63" x="1563.457031"/>
     <use xlink:href="#DejaVuSans-69" x="1618.4375"/>
     <use xlink:href="#DejaVuSans-65" x="1646.220703"/>
     <use xlink:href="#DejaVuSans-6e" x="1707.744141"/>
     <use xlink:href="#DejaVuSans-63" x="1771.123047"/>
     <use xlink:href="#DejaVuSans-79" x="1826.103516"/>
    </g>
   </g>
   <g id="legend_1">
    <g id="line2d_30">
     <path d="M 183.689837 404.518681 
L 194.689837 404.518681 
L 205.689837 404.518681 
" style="fill: none; stroke: #6a113d; stroke-width: 2.5; stroke-linecap: square"/>
    </g>
    <g id="text_18">
     <!-- Avg Efficiency -->
     <g transform="translate(214.489837 408.368681) scale(0.11 -0.11)">
      <use xlink:href="#DejaVuSans-41"/>
      <use xlink:href="#DejaVuSans-76" x="62.533203"/>
      <use xlink:href="#DejaVuSans-67" x="121.712891"/>
      <use xlink:href="#DejaVuSans-20" x="185.189453"/>
      <use xlink:href="#DejaVuSans-45" x="216.976562"/>
      <use xlink:href="#DejaVuSans-66" x="280.160156"/>
      <use xlink:href="#DejaVuSans-66" x="315.365234"/>
      <use xlink:href="#DejaVuSans-69" x="350.570312"/>
      <use xlink:href="#DejaVuSans-63" x="378.353516"/>
      <use xlink:href="#DejaVuSans-69" x="433.333984"/>
      <use xlink:href="#DejaVuSans-65" x="461.117188"/>
      <use xlink:href="#DejaVuSans-6e" x="522.640625"/>
      <use xlink:href="#DejaVuSans-63" x="586.019531"/>
      <use xlink:href="#DejaVuSans-79" x="641"/>
     </g>
    </g>
   </g>
  </g>
 </g>
 <defs>
  <clipPath id="pecb932e0dc">
   <rect x="60.32" y="26.88" width="354.562018" height="302.692"/>
  </clipPath>
 </defs>
</svg>
